%TF.GenerationSoftware,KiCad,Pcbnew,7.0.5*%
%TF.CreationDate,2023-10-28T22:09:14+09:00*%
%TF.ProjectId,EMUZ80PIC_SD_MK3.2,454d555a-3830-4504-9943-5f53445f4d4b,3.2*%
%TF.SameCoordinates,PX7aa1f66PY7f075e2*%
%TF.FileFunction,Copper,L1,Top*%
%TF.FilePolarity,Positive*%
%FSLAX46Y46*%
G04 Gerber Fmt 4.6, Leading zero omitted, Abs format (unit mm)*
G04 Created by KiCad (PCBNEW 7.0.5) date 2023-10-28 22:09:14*
%MOMM*%
%LPD*%
G01*
G04 APERTURE LIST*
G04 Aperture macros list*
%AMRoundRect*
0 Rectangle with rounded corners*
0 $1 Rounding radius*
0 $2 $3 $4 $5 $6 $7 $8 $9 X,Y pos of 4 corners*
0 Add a 4 corners polygon primitive as box body*
4,1,4,$2,$3,$4,$5,$6,$7,$8,$9,$2,$3,0*
0 Add four circle primitives for the rounded corners*
1,1,$1+$1,$2,$3*
1,1,$1+$1,$4,$5*
1,1,$1+$1,$6,$7*
1,1,$1+$1,$8,$9*
0 Add four rect primitives between the rounded corners*
20,1,$1+$1,$2,$3,$4,$5,0*
20,1,$1+$1,$4,$5,$6,$7,0*
20,1,$1+$1,$6,$7,$8,$9,0*
20,1,$1+$1,$8,$9,$2,$3,0*%
G04 Aperture macros list end*
%TA.AperFunction,ComponentPad*%
%ADD10C,1.600000*%
%TD*%
%TA.AperFunction,ComponentPad*%
%ADD11C,1.400000*%
%TD*%
%TA.AperFunction,ComponentPad*%
%ADD12O,1.400000X1.400000*%
%TD*%
%TA.AperFunction,SMDPad,CuDef*%
%ADD13R,0.700000X1.200000*%
%TD*%
%TA.AperFunction,SMDPad,CuDef*%
%ADD14R,1.000000X1.200000*%
%TD*%
%TA.AperFunction,SMDPad,CuDef*%
%ADD15R,1.000000X0.800000*%
%TD*%
%TA.AperFunction,SMDPad,CuDef*%
%ADD16R,1.000000X2.800000*%
%TD*%
%TA.AperFunction,SMDPad,CuDef*%
%ADD17R,1.300000X1.900000*%
%TD*%
%TA.AperFunction,ConnectorPad*%
%ADD18R,1.000000X1.200000*%
%TD*%
%TA.AperFunction,ComponentPad*%
%ADD19R,1.800000X1.800000*%
%TD*%
%TA.AperFunction,ComponentPad*%
%ADD20C,1.800000*%
%TD*%
%TA.AperFunction,SMDPad,CuDef*%
%ADD21R,1.308100X0.355600*%
%TD*%
%TA.AperFunction,SMDPad,CuDef*%
%ADD22RoundRect,0.150000X-0.512500X-0.150000X0.512500X-0.150000X0.512500X0.150000X-0.512500X0.150000X0*%
%TD*%
%TA.AperFunction,SMDPad,CuDef*%
%ADD23R,0.558800X1.270000*%
%TD*%
%TA.AperFunction,ComponentPad*%
%ADD24R,1.700000X1.700000*%
%TD*%
%TA.AperFunction,ComponentPad*%
%ADD25O,1.700000X1.700000*%
%TD*%
%TA.AperFunction,ViaPad*%
%ADD26C,0.605000*%
%TD*%
%TA.AperFunction,ViaPad*%
%ADD27C,0.900000*%
%TD*%
%TA.AperFunction,Conductor*%
%ADD28C,0.400000*%
%TD*%
%TA.AperFunction,Conductor*%
%ADD29C,0.200000*%
%TD*%
%TA.AperFunction,Conductor*%
%ADD30C,0.152400*%
%TD*%
G04 APERTURE END LIST*
D10*
X6449400Y37174400D03*
X8949400Y37174400D03*
D11*
X19280000Y45210000D03*
D12*
X11660000Y45210000D03*
D13*
X15692000Y16917600D03*
X14592000Y16917600D03*
X13492000Y16917600D03*
X12392000Y16917600D03*
X11292000Y16917600D03*
X10192000Y16917600D03*
X9092000Y16917600D03*
X7992000Y16917600D03*
X6892000Y16917600D03*
D14*
X6092000Y12617600D03*
D15*
X6092000Y6417600D03*
D16*
X6092000Y2267600D03*
D17*
X19592000Y1817600D03*
D18*
X17392000Y16917600D03*
D19*
X15350200Y50661800D03*
D20*
X17890200Y50661800D03*
D11*
X8770000Y22760000D03*
D12*
X16390000Y22760000D03*
D11*
X16390000Y24860000D03*
D12*
X8770000Y24860000D03*
D10*
X18402200Y37174400D03*
X15902200Y37174400D03*
D21*
X13521400Y34997998D03*
X13521400Y34347997D03*
X13521400Y33697999D03*
X13521400Y33047997D03*
X13521400Y32397999D03*
X13521400Y31748000D03*
X13521400Y31097999D03*
X13521400Y30448000D03*
X13521400Y29797999D03*
X13521400Y29148000D03*
X19325300Y29147998D03*
X19325300Y29797996D03*
X19325300Y30447997D03*
X19325300Y31097996D03*
X19325300Y31747997D03*
X19325300Y32397996D03*
X19325300Y33047997D03*
X19325300Y33697996D03*
X19325300Y34347997D03*
X19325300Y34997996D03*
D22*
X6180000Y44250000D03*
X6180000Y43300000D03*
X6180000Y42350000D03*
X8455000Y42350000D03*
X8455000Y44250000D03*
D23*
X6942201Y32653200D03*
X8772199Y32653200D03*
X7857200Y34583600D03*
D11*
X11560000Y41910000D03*
D12*
X19180000Y41910000D03*
D19*
X7730200Y50661800D03*
D20*
X10270200Y50661800D03*
D11*
X8760000Y20650000D03*
D12*
X16380000Y20650000D03*
D10*
X5600000Y30164000D03*
X10600000Y30164000D03*
D24*
X2320000Y51500000D03*
D25*
X2320000Y48960000D03*
X2320000Y46420000D03*
X2320000Y43880000D03*
X2320000Y41340000D03*
X2320000Y38800000D03*
X2320000Y36260000D03*
X2320000Y33720000D03*
X2320000Y31180000D03*
X2320000Y28640000D03*
X2320000Y26100000D03*
X2320000Y23560000D03*
X2320000Y21020000D03*
X2320000Y18480000D03*
X2320000Y15940000D03*
X2320000Y13400000D03*
X2320000Y10860000D03*
X2320000Y8320000D03*
X2320000Y5780000D03*
X2320000Y3240000D03*
D24*
X22640000Y51500000D03*
D25*
X22640000Y48960000D03*
X22640000Y46420000D03*
X22640000Y43880000D03*
X22640000Y41340000D03*
X22640000Y38800000D03*
X22640000Y36260000D03*
X22640000Y33720000D03*
X22640000Y31180000D03*
X22640000Y28640000D03*
X22640000Y26100000D03*
X22640000Y23560000D03*
X22640000Y21020000D03*
X22640000Y18480000D03*
X22640000Y15940000D03*
X22640000Y13400000D03*
X22640000Y10860000D03*
X22640000Y8320000D03*
X22640000Y5780000D03*
X22640000Y3240000D03*
D26*
X9160000Y53510000D03*
X16720000Y53440000D03*
X10150000Y34450000D03*
X5570000Y34140000D03*
X8720000Y29720000D03*
X16220000Y32600000D03*
X4600000Y4920000D03*
X20200000Y5230000D03*
X20200000Y9860000D03*
X5580000Y9830000D03*
X10540000Y18210000D03*
X5560000Y18460000D03*
X9490000Y39110000D03*
X5330000Y39330000D03*
X13150000Y37190000D03*
X19200000Y39510000D03*
X13120000Y40300000D03*
X12890000Y43580000D03*
X20470000Y49190000D03*
X12500000Y49150000D03*
X5050000Y49080000D03*
X4840000Y51350000D03*
X19060000Y26280000D03*
X18650000Y19980000D03*
X13010000Y22600000D03*
X12980000Y24900000D03*
D27*
X18910000Y21610000D03*
X4730000Y32680000D03*
X19810000Y15440000D03*
D26*
X6450000Y40530000D03*
D27*
X20580000Y47150000D03*
D26*
X9900000Y40530000D03*
X15250000Y34347997D03*
X10000000Y46420000D03*
X4310000Y44230000D03*
X15210000Y30470000D03*
X15240000Y28130000D03*
X6510000Y28170000D03*
X6050000Y15940000D03*
X15860000Y31090000D03*
X15859400Y26260000D03*
X4340000Y26260000D03*
X4910000Y27250000D03*
X20590000Y31940000D03*
X20590000Y18380000D03*
X16380000Y18380000D03*
X16390000Y29800000D03*
X14555057Y18860560D03*
D27*
X12390000Y18330000D03*
X12390000Y20650000D03*
X11560000Y39060000D03*
X5590000Y20650000D03*
X11520000Y32650000D03*
D26*
X17630000Y23730000D03*
X7260000Y19110000D03*
X17630000Y30450000D03*
X17140000Y33710000D03*
X10030000Y44555600D03*
X14690000Y26880000D03*
X14690000Y29790000D03*
X9080000Y18390000D03*
X11400000Y26880000D03*
X19320000Y52100000D03*
D28*
X17540000Y21610000D02*
X16390000Y22760000D01*
X18910000Y21610000D02*
X17540000Y21610000D01*
X4730000Y32680000D02*
X6915401Y32680000D01*
D29*
X13521400Y31748000D02*
X12184000Y31748000D01*
D28*
X10190000Y15440000D02*
X19810000Y15440000D01*
X10192000Y16917600D02*
X10192000Y15442000D01*
D30*
X10192000Y15442000D02*
X10190000Y15440000D01*
X13521400Y29148000D02*
X11616000Y29148000D01*
X11616000Y29148000D02*
X10600000Y30164000D01*
D29*
X13521400Y31748000D02*
X13521400Y34347997D01*
X12184000Y31748000D02*
X10600000Y30164000D01*
D28*
X6450000Y40530000D02*
X9900000Y40530000D01*
X13600000Y47150000D02*
X11660000Y45210000D01*
X20580000Y47150000D02*
X13600000Y47150000D01*
X11660000Y45210000D02*
X9415000Y45210000D01*
X9415000Y45210000D02*
X8455000Y44250000D01*
D30*
X15250000Y34347997D02*
X19325300Y34347997D01*
X2320000Y46420000D02*
X10000000Y46420000D01*
X13072198Y35447200D02*
X13521400Y34997998D01*
X2320000Y33720000D02*
X4047200Y35447200D01*
X4047200Y35447200D02*
X13072198Y35447200D01*
X6180000Y44250000D02*
X4330000Y44250000D01*
X4330000Y44250000D02*
X4310000Y44230000D01*
X6510000Y28170000D02*
X15200000Y28170000D01*
X15188000Y30448000D02*
X13521400Y30448000D01*
X2320000Y15940000D02*
X6050000Y15940000D01*
X15852001Y31097999D02*
X13521400Y31097999D01*
X4340000Y26260000D02*
X15859400Y26260000D01*
X5240000Y27580000D02*
X17757302Y27580000D01*
X17757302Y27580000D02*
X19325300Y29147998D01*
X4910000Y27250000D02*
X5240000Y27580000D01*
X16380000Y18380000D02*
X20590000Y18380000D01*
X14780000Y18380000D02*
X16380000Y18380000D01*
X20131750Y33047997D02*
X19325300Y33047997D01*
X20590000Y31940000D02*
X20590000Y32589747D01*
X14592000Y16917600D02*
X14592000Y18192000D01*
X20590000Y32589747D02*
X20131750Y33047997D01*
X14592000Y18192000D02*
X14780000Y18380000D01*
X13492000Y16917600D02*
X13492000Y17782000D01*
X13492000Y17782000D02*
X14560000Y18850000D01*
X16390000Y29800000D02*
X16392004Y29797996D01*
X16392004Y29797996D02*
X19325300Y29797996D01*
D28*
X16516600Y39060000D02*
X11560000Y39060000D01*
X8772199Y32653200D02*
X11516800Y32653200D01*
X18402200Y37174400D02*
X16516600Y39060000D01*
X12390000Y20650000D02*
X8760000Y20650000D01*
X8772199Y32653200D02*
X8772199Y31502199D01*
D30*
X12392000Y18328000D02*
X12390000Y18330000D01*
D28*
X7434000Y30164000D02*
X5600400Y30164000D01*
X5590000Y20650000D02*
X8760000Y20650000D01*
X8772199Y31502199D02*
X7434000Y30164000D01*
D30*
X11516800Y32653200D02*
X11520000Y32650000D01*
D28*
X12392000Y16917600D02*
X12392000Y18328000D01*
D29*
X18402200Y37174400D02*
X18402200Y34997996D01*
X18402200Y34997996D02*
X19325300Y34997996D01*
D30*
X8770000Y22760000D02*
X9740000Y23730000D01*
X11100000Y19110000D02*
X7260000Y19110000D01*
X9740000Y23730000D02*
X17630000Y23730000D01*
X11292000Y18902000D02*
X11300000Y18910000D01*
X11292000Y16917600D02*
X11292000Y18902000D01*
X11300000Y18910000D02*
X11100000Y19110000D01*
X17632003Y30447997D02*
X19325300Y30447997D01*
X17152004Y33697996D02*
X19325300Y33697996D01*
X8455000Y42350000D02*
X10030000Y43925000D01*
X10030000Y43925000D02*
X10030000Y44555600D01*
X11400000Y26880000D02*
X14690000Y26880000D01*
X9092000Y18378000D02*
X9080000Y18390000D01*
X9092000Y16917600D02*
X9092000Y18378000D01*
X14690000Y29790000D02*
X13529399Y29790000D01*
X13529399Y29790000D02*
X13521400Y29797999D01*
X10270200Y50661800D02*
X11708400Y52100000D01*
X11708400Y52100000D02*
X19320000Y52100000D01*
%TA.AperFunction,Conductor*%
G36*
X23743391Y56699385D02*
G01*
X23752410Y56699385D01*
X23752413Y56699384D01*
X23796962Y56699385D01*
X23803041Y56699086D01*
X23909079Y56688645D01*
X23963316Y56683304D01*
X23987156Y56678562D01*
X24132496Y56634477D01*
X24154955Y56625175D01*
X24288911Y56553575D01*
X24309122Y56540070D01*
X24426528Y56443719D01*
X24443718Y56426529D01*
X24540069Y56309123D01*
X24553574Y56288912D01*
X24625174Y56154956D01*
X24634476Y56132496D01*
X24678561Y55987157D01*
X24683303Y55963316D01*
X24699085Y55803043D01*
X24699384Y55796963D01*
X24699384Y55742426D01*
X24699385Y55742413D01*
X24699499Y1302718D01*
X24699263Y1297310D01*
X24685257Y1137257D01*
X24681503Y1115971D01*
X24642025Y968649D01*
X24634632Y948337D01*
X24570170Y810107D01*
X24559362Y791390D01*
X24471878Y666455D01*
X24457983Y649896D01*
X24350125Y542045D01*
X24333569Y528153D01*
X24208637Y440678D01*
X24189917Y429871D01*
X24051673Y365411D01*
X24031362Y358019D01*
X23884042Y318548D01*
X23862754Y314795D01*
X23702017Y300737D01*
X23696613Y300501D01*
X23642424Y300501D01*
X23642412Y300500D01*
X20689354Y300500D01*
X20622315Y320185D01*
X20576560Y372989D01*
X20566616Y442147D01*
X20594346Y502870D01*
X20594232Y502955D01*
X20594627Y503483D01*
X20595641Y505703D01*
X20598947Y509254D01*
X20685793Y625265D01*
X20685792Y625265D01*
X20685796Y625269D01*
X20736091Y760117D01*
X20742500Y819727D01*
X20742499Y2815472D01*
X20736091Y2875083D01*
X20687787Y3004592D01*
X20685797Y3009929D01*
X20685793Y3009936D01*
X20599547Y3125145D01*
X20599544Y3125148D01*
X20484335Y3211394D01*
X20484328Y3211398D01*
X20349482Y3261692D01*
X20349483Y3261692D01*
X20289883Y3268099D01*
X20289881Y3268100D01*
X20289873Y3268100D01*
X20289865Y3268100D01*
X18895644Y3268100D01*
X18828605Y3287785D01*
X18782850Y3340589D01*
X18771644Y3392182D01*
X18771985Y3909929D01*
X18780000Y16100000D01*
X18512298Y16100000D01*
X18445259Y16119685D01*
X18399504Y16172489D01*
X18389008Y16237253D01*
X18392500Y16269727D01*
X18392499Y17565472D01*
X18386091Y17625083D01*
X18386090Y17625086D01*
X18382032Y17635968D01*
X18377048Y17705660D01*
X18410534Y17766983D01*
X18471858Y17800467D01*
X18498214Y17803300D01*
X19979725Y17803300D01*
X20046764Y17783615D01*
X20067404Y17766983D01*
X20086170Y17748217D01*
X20239387Y17651944D01*
X20410185Y17592179D01*
X20410191Y17592179D01*
X20410193Y17592178D01*
X20589996Y17571919D01*
X20590000Y17571919D01*
X20590004Y17571919D01*
X20769806Y17592178D01*
X20769805Y17592178D01*
X20769815Y17592179D01*
X20940613Y17651944D01*
X21093830Y17748217D01*
X21221783Y17876170D01*
X21221786Y17876176D01*
X21226126Y17881616D01*
X21227411Y17880591D01*
X21273326Y17921205D01*
X21342380Y17931855D01*
X21406229Y17903481D01*
X21438370Y17861348D01*
X21465965Y17802170D01*
X21465967Y17802166D01*
X21601501Y17608605D01*
X21601506Y17608598D01*
X21768597Y17441507D01*
X21768603Y17441502D01*
X21954158Y17311575D01*
X21997783Y17256998D01*
X22004977Y17187500D01*
X21973454Y17125145D01*
X21954158Y17108425D01*
X21768597Y16978495D01*
X21601505Y16811403D01*
X21465965Y16617831D01*
X21465964Y16617829D01*
X21366098Y16403665D01*
X21366094Y16403656D01*
X21304938Y16175414D01*
X21304936Y16175404D01*
X21284341Y15940001D01*
X21284341Y15940000D01*
X21304936Y15704597D01*
X21304938Y15704587D01*
X21366094Y15476345D01*
X21366096Y15476341D01*
X21366097Y15476337D01*
X21444493Y15308217D01*
X21465965Y15262170D01*
X21465967Y15262166D01*
X21601501Y15068605D01*
X21601506Y15068598D01*
X21768597Y14901507D01*
X21768603Y14901502D01*
X21954158Y14771575D01*
X21997783Y14716998D01*
X22004977Y14647500D01*
X21973454Y14585145D01*
X21954158Y14568425D01*
X21768597Y14438495D01*
X21601505Y14271403D01*
X21465965Y14077831D01*
X21465964Y14077829D01*
X21366098Y13863665D01*
X21366094Y13863656D01*
X21304938Y13635414D01*
X21304936Y13635404D01*
X21284341Y13400001D01*
X21284341Y13400000D01*
X21304936Y13164597D01*
X21304938Y13164587D01*
X21366094Y12936345D01*
X21366096Y12936341D01*
X21366097Y12936337D01*
X21465965Y12722171D01*
X21465965Y12722170D01*
X21465967Y12722166D01*
X21601501Y12528605D01*
X21601506Y12528598D01*
X21768597Y12361507D01*
X21768603Y12361502D01*
X21954158Y12231575D01*
X21997783Y12176998D01*
X22004977Y12107500D01*
X21973454Y12045145D01*
X21954158Y12028425D01*
X21768597Y11898495D01*
X21601505Y11731403D01*
X21465965Y11537831D01*
X21465964Y11537829D01*
X21366098Y11323665D01*
X21366094Y11323656D01*
X21304938Y11095414D01*
X21304936Y11095404D01*
X21284341Y10860001D01*
X21284341Y10860000D01*
X21304936Y10624597D01*
X21304938Y10624587D01*
X21366094Y10396345D01*
X21366096Y10396341D01*
X21366097Y10396337D01*
X21465964Y10182171D01*
X21465965Y10182170D01*
X21465967Y10182166D01*
X21601501Y9988605D01*
X21601506Y9988598D01*
X21768597Y9821507D01*
X21768603Y9821502D01*
X21954158Y9691575D01*
X21997783Y9636998D01*
X22004977Y9567500D01*
X21973454Y9505145D01*
X21954158Y9488425D01*
X21768597Y9358495D01*
X21601505Y9191403D01*
X21465965Y8997831D01*
X21465964Y8997829D01*
X21366098Y8783665D01*
X21366094Y8783656D01*
X21304938Y8555414D01*
X21304936Y8555404D01*
X21284341Y8320001D01*
X21284341Y8320000D01*
X21304936Y8084597D01*
X21304938Y8084587D01*
X21366094Y7856345D01*
X21366096Y7856341D01*
X21366097Y7856337D01*
X21465965Y7642170D01*
X21465967Y7642166D01*
X21601501Y7448605D01*
X21601506Y7448598D01*
X21768597Y7281507D01*
X21768603Y7281502D01*
X21954158Y7151575D01*
X21997783Y7096998D01*
X22004977Y7027500D01*
X21973454Y6965145D01*
X21954158Y6948425D01*
X21768597Y6818495D01*
X21601505Y6651403D01*
X21465965Y6457831D01*
X21465964Y6457829D01*
X21366098Y6243665D01*
X21366094Y6243656D01*
X21304938Y6015414D01*
X21304936Y6015404D01*
X21284341Y5780001D01*
X21284341Y5780000D01*
X21304936Y5544597D01*
X21304938Y5544587D01*
X21366094Y5316345D01*
X21366096Y5316341D01*
X21366097Y5316337D01*
X21465964Y5102171D01*
X21465965Y5102170D01*
X21465967Y5102166D01*
X21601501Y4908605D01*
X21601506Y4908598D01*
X21768597Y4741507D01*
X21768603Y4741502D01*
X21954158Y4611575D01*
X21997783Y4556998D01*
X22004977Y4487500D01*
X21973454Y4425145D01*
X21954158Y4408425D01*
X21768597Y4278495D01*
X21601505Y4111403D01*
X21465965Y3917831D01*
X21465964Y3917829D01*
X21366098Y3703665D01*
X21366094Y3703656D01*
X21304938Y3475414D01*
X21304936Y3475404D01*
X21284341Y3240001D01*
X21284341Y3240000D01*
X21304936Y3004597D01*
X21304938Y3004587D01*
X21366094Y2776345D01*
X21366096Y2776341D01*
X21366097Y2776337D01*
X21465965Y2562170D01*
X21465967Y2562166D01*
X21574281Y2407479D01*
X21601505Y2368599D01*
X21768599Y2201505D01*
X21865384Y2133735D01*
X21962165Y2065968D01*
X21962167Y2065967D01*
X21962170Y2065965D01*
X22176337Y1966097D01*
X22404592Y1904937D01*
X22592918Y1888461D01*
X22639999Y1884341D01*
X22640000Y1884341D01*
X22640001Y1884341D01*
X22679234Y1887774D01*
X22875408Y1904937D01*
X23103663Y1966097D01*
X23317830Y2065965D01*
X23511401Y2201505D01*
X23678495Y2368599D01*
X23814035Y2562170D01*
X23913903Y2776337D01*
X23975063Y3004592D01*
X23995659Y3240000D01*
X23975063Y3475408D01*
X23913903Y3703663D01*
X23814035Y3917829D01*
X23768970Y3982190D01*
X23678494Y4111403D01*
X23511402Y4278494D01*
X23511396Y4278499D01*
X23325842Y4408425D01*
X23282217Y4463002D01*
X23275023Y4532500D01*
X23306546Y4594855D01*
X23325842Y4611575D01*
X23348026Y4627109D01*
X23511401Y4741505D01*
X23678495Y4908599D01*
X23814035Y5102170D01*
X23913903Y5316337D01*
X23975063Y5544592D01*
X23995659Y5780000D01*
X23975063Y6015408D01*
X23913903Y6243663D01*
X23814035Y6457829D01*
X23678495Y6651401D01*
X23678494Y6651403D01*
X23511402Y6818494D01*
X23511396Y6818499D01*
X23325842Y6948425D01*
X23282217Y7003002D01*
X23275023Y7072500D01*
X23306546Y7134855D01*
X23325842Y7151575D01*
X23359508Y7175148D01*
X23511401Y7281505D01*
X23678495Y7448599D01*
X23814035Y7642170D01*
X23913903Y7856337D01*
X23975063Y8084592D01*
X23995659Y8320000D01*
X23975063Y8555408D01*
X23913903Y8783663D01*
X23814035Y8997829D01*
X23678495Y9191401D01*
X23678494Y9191403D01*
X23511402Y9358494D01*
X23511396Y9358499D01*
X23325842Y9488425D01*
X23282217Y9543002D01*
X23275023Y9612500D01*
X23306546Y9674855D01*
X23325842Y9691575D01*
X23348026Y9707109D01*
X23511401Y9821505D01*
X23678495Y9988599D01*
X23814035Y10182170D01*
X23913903Y10396337D01*
X23975063Y10624592D01*
X23995659Y10860000D01*
X23975063Y11095408D01*
X23913903Y11323663D01*
X23814035Y11537829D01*
X23788846Y11573804D01*
X23678494Y11731403D01*
X23511402Y11898494D01*
X23511396Y11898499D01*
X23325842Y12028425D01*
X23282217Y12083002D01*
X23275023Y12152500D01*
X23306546Y12214855D01*
X23325842Y12231575D01*
X23348026Y12247109D01*
X23511401Y12361505D01*
X23678495Y12528599D01*
X23814035Y12722170D01*
X23913903Y12936337D01*
X23975063Y13164592D01*
X23995659Y13400000D01*
X23975063Y13635408D01*
X23913903Y13863663D01*
X23814035Y14077829D01*
X23678495Y14271401D01*
X23678494Y14271403D01*
X23511402Y14438494D01*
X23511396Y14438499D01*
X23325842Y14568425D01*
X23282217Y14623002D01*
X23275023Y14692500D01*
X23306546Y14754855D01*
X23325842Y14771575D01*
X23348026Y14787109D01*
X23511401Y14901505D01*
X23678495Y15068599D01*
X23814035Y15262170D01*
X23913903Y15476337D01*
X23975063Y15704592D01*
X23995659Y15940000D01*
X23975063Y16175408D01*
X23913903Y16403663D01*
X23814035Y16617829D01*
X23778866Y16668057D01*
X23678494Y16811403D01*
X23511402Y16978494D01*
X23511396Y16978499D01*
X23325842Y17108425D01*
X23282217Y17163002D01*
X23275023Y17232500D01*
X23306546Y17294855D01*
X23325842Y17311575D01*
X23348026Y17327109D01*
X23511401Y17441505D01*
X23678495Y17608599D01*
X23814035Y17802170D01*
X23913903Y18016337D01*
X23975063Y18244592D01*
X23995659Y18480000D01*
X23975063Y18715408D01*
X23913903Y18943663D01*
X23814035Y19157829D01*
X23812017Y19160712D01*
X23678494Y19351403D01*
X23511402Y19518494D01*
X23511396Y19518499D01*
X23325842Y19648425D01*
X23282217Y19703002D01*
X23275023Y19772500D01*
X23306546Y19834855D01*
X23325842Y19851575D01*
X23437580Y19929815D01*
X23511401Y19981505D01*
X23678495Y20148599D01*
X23814035Y20342170D01*
X23913903Y20556337D01*
X23975063Y20784592D01*
X23995659Y21020000D01*
X23975063Y21255408D01*
X23919644Y21462238D01*
X23913905Y21483656D01*
X23913904Y21483657D01*
X23913903Y21483663D01*
X23814035Y21697829D01*
X23785526Y21738545D01*
X23678494Y21891403D01*
X23511402Y22058494D01*
X23511396Y22058499D01*
X23325842Y22188425D01*
X23282217Y22243002D01*
X23275023Y22312500D01*
X23306546Y22374855D01*
X23325842Y22391575D01*
X23348026Y22407109D01*
X23511401Y22521505D01*
X23678495Y22688599D01*
X23814035Y22882170D01*
X23913903Y23096337D01*
X23975063Y23324592D01*
X23995659Y23560000D01*
X23994588Y23572236D01*
X23981774Y23718702D01*
X23975063Y23795408D01*
X23913903Y24023663D01*
X23814035Y24237829D01*
X23765812Y24306700D01*
X23678494Y24431403D01*
X23511402Y24598494D01*
X23511396Y24598499D01*
X23325842Y24728425D01*
X23282217Y24783002D01*
X23275023Y24852500D01*
X23306546Y24914855D01*
X23325842Y24931575D01*
X23427187Y25002538D01*
X23511401Y25061505D01*
X23678495Y25228599D01*
X23814035Y25422170D01*
X23913903Y25636337D01*
X23975063Y25864592D01*
X23995659Y26100000D01*
X23975063Y26335408D01*
X23913903Y26563663D01*
X23814035Y26777829D01*
X23804380Y26791619D01*
X23678494Y26971403D01*
X23511402Y27138494D01*
X23511401Y27138495D01*
X23325405Y27268731D01*
X23281781Y27323308D01*
X23274588Y27392807D01*
X23306110Y27455161D01*
X23325405Y27471881D01*
X23401373Y27525075D01*
X22772533Y28153914D01*
X22782315Y28155320D01*
X22913100Y28215048D01*
X23021761Y28309202D01*
X23099493Y28430156D01*
X23123076Y28510476D01*
X23754925Y27878627D01*
X23754926Y27878627D01*
X23813598Y27962418D01*
X23813600Y27962422D01*
X23913429Y28176508D01*
X23913433Y28176517D01*
X23974567Y28404674D01*
X23974569Y28404685D01*
X23995157Y28639999D01*
X23995157Y28640002D01*
X23974569Y28875316D01*
X23974567Y28875327D01*
X23913433Y29103484D01*
X23913429Y29103493D01*
X23813600Y29317577D01*
X23813599Y29317579D01*
X23754925Y29401374D01*
X23754925Y29401375D01*
X23123076Y28769525D01*
X23099493Y28849844D01*
X23021761Y28970798D01*
X22913100Y29064952D01*
X22782315Y29124680D01*
X22772531Y29126087D01*
X23401373Y29754927D01*
X23401373Y29754928D01*
X23325405Y29808120D01*
X23281780Y29862696D01*
X23274586Y29932195D01*
X23306108Y29994549D01*
X23325399Y30011266D01*
X23511401Y30141505D01*
X23678495Y30308599D01*
X23814035Y30502170D01*
X23913903Y30716337D01*
X23975063Y30944592D01*
X23995659Y31180000D01*
X23975063Y31415408D01*
X23913903Y31643663D01*
X23814035Y31857829D01*
X23800036Y31877823D01*
X23678494Y32051403D01*
X23511402Y32218494D01*
X23511396Y32218499D01*
X23325842Y32348425D01*
X23282217Y32403002D01*
X23275023Y32472500D01*
X23306546Y32534855D01*
X23325842Y32551575D01*
X23380360Y32589749D01*
X23511401Y32681505D01*
X23678495Y32848599D01*
X23814035Y33042170D01*
X23913903Y33256337D01*
X23975063Y33484592D01*
X23995659Y33720000D01*
X23994609Y33731996D01*
X23987926Y33808385D01*
X23975063Y33955408D01*
X23913903Y34183663D01*
X23814035Y34397829D01*
X23678495Y34591401D01*
X23678494Y34591403D01*
X23511402Y34758494D01*
X23511396Y34758499D01*
X23325842Y34888425D01*
X23282217Y34943002D01*
X23275023Y35012500D01*
X23306546Y35074855D01*
X23325842Y35091575D01*
X23389030Y35135820D01*
X23511401Y35221505D01*
X23678495Y35388599D01*
X23814035Y35582170D01*
X23913903Y35796337D01*
X23975063Y36024592D01*
X23995659Y36260000D01*
X23975063Y36495408D01*
X23913903Y36723663D01*
X23814035Y36937829D01*
X23807122Y36947703D01*
X23678494Y37131403D01*
X23511402Y37298494D01*
X23511396Y37298499D01*
X23325842Y37428425D01*
X23282217Y37483002D01*
X23275023Y37552500D01*
X23306546Y37614855D01*
X23325842Y37631575D01*
X23507799Y37758983D01*
X23511401Y37761505D01*
X23678495Y37928599D01*
X23814035Y38122170D01*
X23913903Y38336337D01*
X23975063Y38564592D01*
X23995659Y38800000D01*
X23975063Y39035408D01*
X23913903Y39263663D01*
X23814035Y39477829D01*
X23770247Y39540366D01*
X23678494Y39671403D01*
X23511402Y39838494D01*
X23511396Y39838499D01*
X23325842Y39968425D01*
X23282217Y40023002D01*
X23275023Y40092500D01*
X23306546Y40154855D01*
X23325842Y40171575D01*
X23348026Y40187109D01*
X23511401Y40301505D01*
X23678495Y40468599D01*
X23814035Y40662170D01*
X23913903Y40876337D01*
X23975063Y41104592D01*
X23995659Y41340000D01*
X23975063Y41575408D01*
X23915384Y41798135D01*
X23913905Y41803656D01*
X23913904Y41803657D01*
X23913903Y41803663D01*
X23814035Y42017829D01*
X23758301Y42097427D01*
X23678494Y42211403D01*
X23511402Y42378494D01*
X23511396Y42378499D01*
X23325842Y42508425D01*
X23282217Y42563002D01*
X23275023Y42632500D01*
X23306546Y42694855D01*
X23325842Y42711575D01*
X23397696Y42761888D01*
X23511401Y42841505D01*
X23678495Y43008599D01*
X23814035Y43202170D01*
X23913903Y43416337D01*
X23975063Y43644592D01*
X23995659Y43880000D01*
X23975063Y44115408D01*
X23913903Y44343663D01*
X23814035Y44557829D01*
X23801796Y44575309D01*
X23678494Y44751403D01*
X23511402Y44918494D01*
X23511396Y44918499D01*
X23325842Y45048425D01*
X23282217Y45103002D01*
X23275023Y45172500D01*
X23306546Y45234855D01*
X23325842Y45251575D01*
X23464683Y45348793D01*
X23511401Y45381505D01*
X23678495Y45548599D01*
X23814035Y45742170D01*
X23913903Y45956337D01*
X23975063Y46184592D01*
X23995659Y46420000D01*
X23975063Y46655408D01*
X23913903Y46883663D01*
X23814035Y47097829D01*
X23778866Y47148057D01*
X23678494Y47291403D01*
X23511402Y47458494D01*
X23511396Y47458499D01*
X23325842Y47588425D01*
X23282217Y47643002D01*
X23275023Y47712500D01*
X23306546Y47774855D01*
X23325842Y47791575D01*
X23371711Y47823693D01*
X23511401Y47921505D01*
X23678495Y48088599D01*
X23814035Y48282170D01*
X23913903Y48496337D01*
X23975063Y48724592D01*
X23995659Y48960000D01*
X23975063Y49195408D01*
X23926979Y49374862D01*
X23913905Y49423656D01*
X23913904Y49423657D01*
X23913903Y49423663D01*
X23814035Y49637829D01*
X23701425Y49798653D01*
X23678496Y49831400D01*
X23664532Y49845364D01*
X23556567Y49953329D01*
X23523084Y50014649D01*
X23528068Y50084341D01*
X23569939Y50140275D01*
X23600915Y50157190D01*
X23732331Y50206204D01*
X23847546Y50292454D01*
X23933796Y50407669D01*
X23984091Y50542517D01*
X23990500Y50602127D01*
X23990499Y52397872D01*
X23984091Y52457483D01*
X23975296Y52481063D01*
X23933797Y52592329D01*
X23933793Y52592336D01*
X23847547Y52707545D01*
X23847544Y52707548D01*
X23732335Y52793794D01*
X23732328Y52793798D01*
X23597482Y52844092D01*
X23597483Y52844092D01*
X23537883Y52850499D01*
X23537881Y52850500D01*
X23537873Y52850500D01*
X23537864Y52850500D01*
X21742129Y52850500D01*
X21742123Y52850499D01*
X21682516Y52844092D01*
X21547671Y52793798D01*
X21547664Y52793794D01*
X21432455Y52707548D01*
X21432452Y52707545D01*
X21346206Y52592336D01*
X21346202Y52592329D01*
X21295908Y52457483D01*
X21289501Y52397884D01*
X21289501Y52397877D01*
X21289500Y52397865D01*
X21289500Y50602130D01*
X21289501Y50602124D01*
X21295908Y50542517D01*
X21346202Y50407672D01*
X21346206Y50407665D01*
X21432452Y50292456D01*
X21432455Y50292453D01*
X21547664Y50206207D01*
X21547671Y50206203D01*
X21679081Y50157190D01*
X21735015Y50115319D01*
X21759432Y50049855D01*
X21744580Y49981582D01*
X21723430Y49953327D01*
X21601503Y49831400D01*
X21465965Y49637831D01*
X21465964Y49637829D01*
X21366098Y49423665D01*
X21366094Y49423656D01*
X21304938Y49195414D01*
X21304936Y49195404D01*
X21284341Y48960001D01*
X21284341Y48960000D01*
X21304936Y48724597D01*
X21304938Y48724587D01*
X21366094Y48496345D01*
X21366096Y48496341D01*
X21366097Y48496337D01*
X21465965Y48282170D01*
X21465967Y48282166D01*
X21601501Y48088605D01*
X21601506Y48088598D01*
X21768597Y47921507D01*
X21768603Y47921502D01*
X21954158Y47791575D01*
X21997783Y47736998D01*
X22004977Y47667500D01*
X21973454Y47605145D01*
X21954158Y47588425D01*
X21768597Y47458495D01*
X21693218Y47383115D01*
X21631895Y47349630D01*
X21562203Y47354614D01*
X21506270Y47396486D01*
X21486877Y47434800D01*
X21462395Y47515503D01*
X21374137Y47680624D01*
X21374135Y47680627D01*
X21255357Y47825358D01*
X21110626Y47944136D01*
X21110623Y47944138D01*
X20945502Y48032396D01*
X20766333Y48086747D01*
X20766331Y48086748D01*
X20580000Y48105099D01*
X20393668Y48086748D01*
X20393666Y48086747D01*
X20214497Y48032396D01*
X20049376Y47944138D01*
X20049373Y47944136D01*
X19969577Y47878647D01*
X19905268Y47851334D01*
X19890912Y47850500D01*
X13623037Y47850500D01*
X13619293Y47850613D01*
X13557397Y47854357D01*
X13557390Y47854357D01*
X13496402Y47843181D01*
X13492701Y47842618D01*
X13431125Y47835140D01*
X13421642Y47831544D01*
X13400038Y47825522D01*
X13399147Y47825358D01*
X13390065Y47823694D01*
X13390063Y47823693D01*
X13333527Y47798248D01*
X13330069Y47796816D01*
X13272069Y47774818D01*
X13263724Y47769058D01*
X13244183Y47758036D01*
X13234944Y47753878D01*
X13234939Y47753875D01*
X13186121Y47715630D01*
X13183106Y47713411D01*
X13132072Y47678184D01*
X13132065Y47678178D01*
X13090942Y47631760D01*
X13088375Y47629034D01*
X11900531Y46441190D01*
X11839208Y46407705D01*
X11790070Y46406981D01*
X11782968Y46408309D01*
X11771243Y46410500D01*
X11548757Y46410500D01*
X11330060Y46369618D01*
X11294557Y46355864D01*
X11122602Y46289249D01*
X10985741Y46204509D01*
X10918380Y46185955D01*
X10851681Y46206763D01*
X10806820Y46260329D01*
X10797244Y46323821D01*
X10808081Y46419998D01*
X10808081Y46420004D01*
X10787822Y46599807D01*
X10787821Y46599813D01*
X10787821Y46599815D01*
X10728056Y46770613D01*
X10631783Y46923830D01*
X10503830Y47051783D01*
X10430555Y47097825D01*
X10350612Y47148057D01*
X10179812Y47207822D01*
X10179806Y47207823D01*
X10000004Y47228081D01*
X9999996Y47228081D01*
X9820193Y47207823D01*
X9820187Y47207822D01*
X9649387Y47148057D01*
X9496169Y47051783D01*
X9477406Y47033019D01*
X9416083Y46999534D01*
X9389725Y46996700D01*
X3620189Y46996700D01*
X3553150Y47016385D01*
X3507807Y47068296D01*
X3494037Y47097825D01*
X3494034Y47097831D01*
X3358494Y47291403D01*
X3191402Y47458494D01*
X3191396Y47458499D01*
X3005842Y47588425D01*
X2962217Y47643002D01*
X2955023Y47712500D01*
X2986546Y47774855D01*
X3005842Y47791575D01*
X3051711Y47823693D01*
X3191401Y47921505D01*
X3358495Y48088599D01*
X3494035Y48282170D01*
X3593903Y48496337D01*
X3655063Y48724592D01*
X3675659Y48960000D01*
X3655063Y49195408D01*
X3606979Y49374862D01*
X3593905Y49423656D01*
X3593904Y49423657D01*
X3593903Y49423663D01*
X3494035Y49637829D01*
X3440749Y49713930D01*
X6329700Y49713930D01*
X6329701Y49713924D01*
X6336108Y49654317D01*
X6386402Y49519472D01*
X6386406Y49519465D01*
X6472652Y49404256D01*
X6472655Y49404253D01*
X6587864Y49318007D01*
X6587871Y49318003D01*
X6722717Y49267709D01*
X6722716Y49267709D01*
X6729644Y49266965D01*
X6782327Y49261300D01*
X8678072Y49261301D01*
X8737683Y49267709D01*
X8872531Y49318004D01*
X8987746Y49404254D01*
X9073996Y49519469D01*
X9102654Y49596307D01*
X9144526Y49652241D01*
X9209990Y49676659D01*
X9278263Y49661808D01*
X9310066Y49636957D01*
X9317502Y49628880D01*
X9318415Y49627888D01*
X9318422Y49627882D01*
X9501565Y49485336D01*
X9501571Y49485332D01*
X9501574Y49485330D01*
X9705697Y49374864D01*
X9819687Y49335732D01*
X9925215Y49299503D01*
X9925217Y49299503D01*
X9925219Y49299502D01*
X10154151Y49261300D01*
X10154152Y49261300D01*
X10386248Y49261300D01*
X10386249Y49261300D01*
X10615181Y49299502D01*
X10834703Y49374864D01*
X11038826Y49485330D01*
X11221984Y49627887D01*
X11379179Y49798647D01*
X11506124Y49992951D01*
X11599357Y50205500D01*
X11656334Y50430495D01*
X11656335Y50430503D01*
X11675500Y50661794D01*
X11675500Y50661807D01*
X11656335Y50893098D01*
X11656331Y50893118D01*
X11605079Y51095506D01*
X11607703Y51165327D01*
X11637599Y51213624D01*
X11910959Y51486984D01*
X11972281Y51520466D01*
X11998639Y51523300D01*
X13825700Y51523300D01*
X13892739Y51503615D01*
X13938494Y51450811D01*
X13949700Y51399300D01*
X13949700Y49713930D01*
X13949701Y49713924D01*
X13956108Y49654317D01*
X14006402Y49519472D01*
X14006406Y49519465D01*
X14092652Y49404256D01*
X14092655Y49404253D01*
X14207864Y49318007D01*
X14207871Y49318003D01*
X14342717Y49267709D01*
X14342716Y49267709D01*
X14349644Y49266965D01*
X14402327Y49261300D01*
X16298072Y49261301D01*
X16357683Y49267709D01*
X16492531Y49318004D01*
X16607746Y49404254D01*
X16693996Y49519469D01*
X16722654Y49596307D01*
X16764526Y49652241D01*
X16829990Y49676659D01*
X16898263Y49661808D01*
X16930066Y49636957D01*
X16937502Y49628880D01*
X16938415Y49627888D01*
X16938422Y49627882D01*
X17121565Y49485336D01*
X17121571Y49485332D01*
X17121574Y49485330D01*
X17325697Y49374864D01*
X17439687Y49335732D01*
X17545215Y49299503D01*
X17545217Y49299503D01*
X17545219Y49299502D01*
X17774151Y49261300D01*
X17774152Y49261300D01*
X18006248Y49261300D01*
X18006249Y49261300D01*
X18235181Y49299502D01*
X18454703Y49374864D01*
X18658826Y49485330D01*
X18841984Y49627887D01*
X18999179Y49798647D01*
X19126124Y49992951D01*
X19219357Y50205500D01*
X19276334Y50430495D01*
X19276335Y50430503D01*
X19295500Y50661794D01*
X19295500Y50661807D01*
X19276335Y50893098D01*
X19276333Y50893109D01*
X19274912Y50898718D01*
X19219357Y51118100D01*
X19219071Y51118751D01*
X19219034Y51119041D01*
X19217693Y51122948D01*
X19218497Y51123225D01*
X19210171Y51188050D01*
X19240148Y51251162D01*
X19299488Y51288047D01*
X19318746Y51291778D01*
X19319998Y51291920D01*
X19320000Y51291919D01*
X19453841Y51307000D01*
X19499807Y51312178D01*
X19499808Y51312179D01*
X19499815Y51312179D01*
X19670613Y51371944D01*
X19823830Y51468217D01*
X19951783Y51596170D01*
X20048056Y51749387D01*
X20107821Y51920185D01*
X20117444Y52005594D01*
X20128081Y52099997D01*
X20128081Y52100004D01*
X20107822Y52279807D01*
X20107821Y52279813D01*
X20107821Y52279815D01*
X20048056Y52450613D01*
X19951783Y52603830D01*
X19823830Y52731783D01*
X19823830Y52731784D01*
X19670612Y52828057D01*
X19499812Y52887822D01*
X19499806Y52887823D01*
X19320004Y52908081D01*
X19319996Y52908081D01*
X19140193Y52887823D01*
X19140187Y52887822D01*
X18969387Y52828057D01*
X18816169Y52731783D01*
X18797406Y52713019D01*
X18736083Y52679534D01*
X18709725Y52676700D01*
X11750264Y52676700D01*
X11742165Y52677231D01*
X11721394Y52679966D01*
X11708401Y52681676D01*
X11708399Y52681676D01*
X11670603Y52676700D01*
X11557852Y52661857D01*
X11557850Y52661856D01*
X11417564Y52603748D01*
X11417561Y52603746D01*
X11297093Y52511309D01*
X11276360Y52484289D01*
X11271008Y52478187D01*
X10820096Y52027275D01*
X10758773Y51993790D01*
X10692153Y51997674D01*
X10615180Y52024099D01*
X10424450Y52055926D01*
X10386249Y52062300D01*
X10154151Y52062300D01*
X10115750Y52055892D01*
X9925215Y52024098D01*
X9705704Y51948739D01*
X9705695Y51948736D01*
X9501571Y51838269D01*
X9501565Y51838265D01*
X9318422Y51695719D01*
X9318418Y51695715D01*
X9310066Y51686642D01*
X9250179Y51650652D01*
X9180341Y51652753D01*
X9122725Y51692278D01*
X9102655Y51727293D01*
X9073997Y51804129D01*
X9073993Y51804136D01*
X8987747Y51919345D01*
X8987744Y51919348D01*
X8872535Y52005594D01*
X8872528Y52005598D01*
X8737682Y52055892D01*
X8737683Y52055892D01*
X8678083Y52062299D01*
X8678081Y52062300D01*
X8678073Y52062300D01*
X8678064Y52062300D01*
X6782329Y52062300D01*
X6782323Y52062299D01*
X6722716Y52055892D01*
X6587871Y52005598D01*
X6587864Y52005594D01*
X6472655Y51919348D01*
X6472652Y51919345D01*
X6386406Y51804136D01*
X6386402Y51804129D01*
X6336108Y51669283D01*
X6329701Y51609684D01*
X6329700Y51609665D01*
X6329700Y49713930D01*
X3440749Y49713930D01*
X3381425Y49798653D01*
X3358496Y49831400D01*
X3344532Y49845364D01*
X3236567Y49953329D01*
X3203084Y50014649D01*
X3208068Y50084341D01*
X3249939Y50140275D01*
X3280915Y50157190D01*
X3412331Y50206204D01*
X3527546Y50292454D01*
X3613796Y50407669D01*
X3664091Y50542517D01*
X3670500Y50602127D01*
X3670499Y52397872D01*
X3664091Y52457483D01*
X3655296Y52481063D01*
X3613797Y52592329D01*
X3613793Y52592336D01*
X3527547Y52707545D01*
X3527544Y52707548D01*
X3412335Y52793794D01*
X3412328Y52793798D01*
X3277482Y52844092D01*
X3277483Y52844092D01*
X3217883Y52850499D01*
X3217881Y52850500D01*
X3217873Y52850500D01*
X3217864Y52850500D01*
X1422129Y52850500D01*
X1422123Y52850499D01*
X1362516Y52844092D01*
X1227671Y52793798D01*
X1227664Y52793794D01*
X1112455Y52707548D01*
X1112452Y52707545D01*
X1026206Y52592336D01*
X1026202Y52592329D01*
X975908Y52457483D01*
X969501Y52397884D01*
X969501Y52397877D01*
X969500Y52397865D01*
X969500Y50602130D01*
X969501Y50602124D01*
X975908Y50542517D01*
X1026202Y50407672D01*
X1026206Y50407665D01*
X1112452Y50292456D01*
X1112455Y50292453D01*
X1227664Y50206207D01*
X1227671Y50206203D01*
X1359081Y50157190D01*
X1415015Y50115319D01*
X1439432Y50049855D01*
X1424580Y49981582D01*
X1403430Y49953327D01*
X1281503Y49831400D01*
X1145965Y49637831D01*
X1145964Y49637829D01*
X1046098Y49423665D01*
X1046094Y49423656D01*
X984938Y49195414D01*
X984936Y49195404D01*
X964341Y48960001D01*
X964341Y48960000D01*
X984936Y48724597D01*
X984938Y48724587D01*
X1046094Y48496345D01*
X1046096Y48496341D01*
X1046097Y48496337D01*
X1145965Y48282170D01*
X1145967Y48282166D01*
X1281501Y48088605D01*
X1281506Y48088598D01*
X1448597Y47921507D01*
X1448603Y47921502D01*
X1634158Y47791575D01*
X1677783Y47736998D01*
X1684977Y47667500D01*
X1653454Y47605145D01*
X1634158Y47588425D01*
X1448597Y47458495D01*
X1281505Y47291403D01*
X1145965Y47097831D01*
X1145964Y47097829D01*
X1046098Y46883665D01*
X1046094Y46883656D01*
X984938Y46655414D01*
X984936Y46655404D01*
X964341Y46420001D01*
X964341Y46420000D01*
X984936Y46184597D01*
X984938Y46184587D01*
X1046094Y45956345D01*
X1046096Y45956341D01*
X1046097Y45956337D01*
X1145964Y45742171D01*
X1145965Y45742170D01*
X1145967Y45742166D01*
X1281501Y45548605D01*
X1281506Y45548598D01*
X1448597Y45381507D01*
X1448603Y45381502D01*
X1634158Y45251575D01*
X1677783Y45196998D01*
X1684977Y45127500D01*
X1653454Y45065145D01*
X1634158Y45048425D01*
X1448597Y44918495D01*
X1281505Y44751403D01*
X1145965Y44557831D01*
X1145964Y44557829D01*
X1046098Y44343665D01*
X1046094Y44343656D01*
X984938Y44115414D01*
X984936Y44115404D01*
X964341Y43880001D01*
X964341Y43880000D01*
X984936Y43644597D01*
X984938Y43644587D01*
X1046094Y43416345D01*
X1046096Y43416341D01*
X1046097Y43416337D01*
X1096684Y43307853D01*
X1145965Y43202170D01*
X1145967Y43202166D01*
X1281501Y43008605D01*
X1281506Y43008598D01*
X1448597Y42841507D01*
X1448603Y42841502D01*
X1634158Y42711575D01*
X1677783Y42656998D01*
X1684977Y42587500D01*
X1653454Y42525145D01*
X1634158Y42508425D01*
X1448597Y42378495D01*
X1281505Y42211403D01*
X1145965Y42017831D01*
X1145964Y42017829D01*
X1046098Y41803665D01*
X1046094Y41803656D01*
X984938Y41575414D01*
X984936Y41575404D01*
X964341Y41340001D01*
X964341Y41340000D01*
X984936Y41104597D01*
X984938Y41104587D01*
X1046094Y40876345D01*
X1046096Y40876341D01*
X1046097Y40876337D01*
X1123895Y40709500D01*
X1145965Y40662170D01*
X1145967Y40662166D01*
X1281501Y40468605D01*
X1281506Y40468598D01*
X1448597Y40301507D01*
X1448603Y40301502D01*
X1634158Y40171575D01*
X1677783Y40116998D01*
X1684977Y40047500D01*
X1653454Y39985145D01*
X1634158Y39968425D01*
X1448597Y39838495D01*
X1281505Y39671403D01*
X1145965Y39477831D01*
X1145964Y39477829D01*
X1046098Y39263665D01*
X1046094Y39263656D01*
X984938Y39035414D01*
X984936Y39035404D01*
X964341Y38800001D01*
X964341Y38800000D01*
X984936Y38564597D01*
X984938Y38564587D01*
X1046094Y38336345D01*
X1046096Y38336341D01*
X1046097Y38336337D01*
X1084759Y38253427D01*
X1145965Y38122170D01*
X1145967Y38122166D01*
X1281501Y37928605D01*
X1281506Y37928598D01*
X1448597Y37761507D01*
X1448603Y37761502D01*
X1634158Y37631575D01*
X1677783Y37576998D01*
X1684977Y37507500D01*
X1653454Y37445145D01*
X1634158Y37428425D01*
X1448597Y37298495D01*
X1281505Y37131403D01*
X1145965Y36937831D01*
X1145964Y36937829D01*
X1046098Y36723665D01*
X1046094Y36723656D01*
X984938Y36495414D01*
X984936Y36495404D01*
X964341Y36260001D01*
X964341Y36260000D01*
X984936Y36024597D01*
X984938Y36024587D01*
X1046094Y35796345D01*
X1046096Y35796341D01*
X1046097Y35796337D01*
X1105062Y35669887D01*
X1145965Y35582170D01*
X1145967Y35582166D01*
X1281501Y35388605D01*
X1281506Y35388598D01*
X1448597Y35221507D01*
X1448603Y35221502D01*
X1634158Y35091575D01*
X1677783Y35036998D01*
X1684977Y34967500D01*
X1653454Y34905145D01*
X1634158Y34888425D01*
X1448597Y34758495D01*
X1281505Y34591403D01*
X1145965Y34397831D01*
X1145964Y34397829D01*
X1046098Y34183665D01*
X1046094Y34183656D01*
X984938Y33955414D01*
X984936Y33955404D01*
X964341Y33720001D01*
X964341Y33720000D01*
X984936Y33484597D01*
X984938Y33484587D01*
X1046094Y33256345D01*
X1046096Y33256341D01*
X1046097Y33256337D01*
X1129156Y33078217D01*
X1145965Y33042170D01*
X1145967Y33042166D01*
X1281501Y32848605D01*
X1281506Y32848598D01*
X1448597Y32681507D01*
X1448603Y32681502D01*
X1634158Y32551575D01*
X1677783Y32496998D01*
X1684977Y32427500D01*
X1653454Y32365145D01*
X1634158Y32348425D01*
X1448597Y32218495D01*
X1281505Y32051403D01*
X1145965Y31857831D01*
X1145964Y31857829D01*
X1046098Y31643665D01*
X1046094Y31643656D01*
X984938Y31415414D01*
X984936Y31415404D01*
X964341Y31180001D01*
X964341Y31180000D01*
X984936Y30944597D01*
X984938Y30944587D01*
X1046094Y30716345D01*
X1046096Y30716341D01*
X1046097Y30716337D01*
X1095535Y30610318D01*
X1145965Y30502170D01*
X1145967Y30502166D01*
X1281501Y30308605D01*
X1281506Y30308598D01*
X1448597Y30141507D01*
X1448603Y30141502D01*
X1634158Y30011575D01*
X1677783Y29956998D01*
X1684977Y29887500D01*
X1653454Y29825145D01*
X1634158Y29808425D01*
X1448597Y29678495D01*
X1281505Y29511403D01*
X1145965Y29317831D01*
X1145964Y29317829D01*
X1046098Y29103665D01*
X1046094Y29103656D01*
X984938Y28875414D01*
X984936Y28875404D01*
X964341Y28640001D01*
X964341Y28640000D01*
X984936Y28404597D01*
X984938Y28404587D01*
X1046094Y28176345D01*
X1046096Y28176341D01*
X1046097Y28176337D01*
X1110688Y28037822D01*
X1145965Y27962170D01*
X1145967Y27962166D01*
X1281501Y27768605D01*
X1281506Y27768598D01*
X1448597Y27601507D01*
X1448603Y27601502D01*
X1634158Y27471575D01*
X1677783Y27416998D01*
X1684977Y27347500D01*
X1653454Y27285145D01*
X1634158Y27268425D01*
X1448597Y27138495D01*
X1281505Y26971403D01*
X1145965Y26777831D01*
X1145964Y26777829D01*
X1046098Y26563665D01*
X1046094Y26563656D01*
X984938Y26335414D01*
X984936Y26335404D01*
X964341Y26100001D01*
X964341Y26100000D01*
X984936Y25864597D01*
X984938Y25864587D01*
X1046094Y25636345D01*
X1046096Y25636341D01*
X1046097Y25636337D01*
X1112149Y25494689D01*
X1145965Y25422170D01*
X1145967Y25422166D01*
X1234765Y25295350D01*
X1281505Y25228599D01*
X1448599Y25061505D01*
X1532813Y25002538D01*
X1634594Y24931270D01*
X1678218Y24876693D01*
X1685411Y24807194D01*
X1653889Y24744840D01*
X1634593Y24728120D01*
X1558626Y24674928D01*
X1558625Y24674927D01*
X2187465Y24046087D01*
X2177685Y24044680D01*
X2046900Y23984952D01*
X1938239Y23890798D01*
X1860507Y23769844D01*
X1836923Y23689524D01*
X1205072Y24321375D01*
X1146401Y24237581D01*
X1046570Y24023493D01*
X1046566Y24023484D01*
X985432Y23795327D01*
X985430Y23795316D01*
X964843Y23560002D01*
X964843Y23559999D01*
X985430Y23324685D01*
X985432Y23324674D01*
X1046566Y23096517D01*
X1046570Y23096508D01*
X1146400Y22882421D01*
X1146402Y22882417D01*
X1205072Y22798627D01*
X1205073Y22798627D01*
X1836923Y23430477D01*
X1860507Y23350156D01*
X1938239Y23229202D01*
X2046900Y23135048D01*
X2177685Y23075320D01*
X2187466Y23073914D01*
X1558625Y22445075D01*
X1634594Y22391881D01*
X1678219Y22337304D01*
X1685413Y22267806D01*
X1653890Y22205451D01*
X1634595Y22188731D01*
X1448594Y22058492D01*
X1281505Y21891403D01*
X1145965Y21697831D01*
X1145964Y21697829D01*
X1046098Y21483665D01*
X1046094Y21483656D01*
X984938Y21255414D01*
X984936Y21255404D01*
X964341Y21020001D01*
X964341Y21020000D01*
X984936Y20784597D01*
X984938Y20784587D01*
X1046094Y20556345D01*
X1046096Y20556341D01*
X1046097Y20556337D01*
X1105726Y20428463D01*
X1145965Y20342170D01*
X1145967Y20342166D01*
X1281501Y20148605D01*
X1281506Y20148598D01*
X1448597Y19981507D01*
X1448603Y19981502D01*
X1634158Y19851575D01*
X1677783Y19796998D01*
X1684977Y19727500D01*
X1653454Y19665145D01*
X1634158Y19648425D01*
X1448597Y19518495D01*
X1281505Y19351403D01*
X1145965Y19157831D01*
X1145964Y19157829D01*
X1046098Y18943665D01*
X1046094Y18943656D01*
X984938Y18715414D01*
X984936Y18715404D01*
X964341Y18480001D01*
X964341Y18480000D01*
X984936Y18244597D01*
X984938Y18244587D01*
X1046094Y18016345D01*
X1046096Y18016341D01*
X1046097Y18016337D01*
X1090458Y17921205D01*
X1145965Y17802170D01*
X1145967Y17802166D01*
X1281501Y17608605D01*
X1281506Y17608598D01*
X1448597Y17441507D01*
X1448603Y17441502D01*
X1634158Y17311575D01*
X1677783Y17256998D01*
X1684977Y17187500D01*
X1653454Y17125145D01*
X1634158Y17108425D01*
X1448597Y16978495D01*
X1281505Y16811403D01*
X1145965Y16617831D01*
X1145964Y16617829D01*
X1046098Y16403665D01*
X1046094Y16403656D01*
X984938Y16175414D01*
X984936Y16175404D01*
X964341Y15940001D01*
X964341Y15940000D01*
X984936Y15704597D01*
X984938Y15704587D01*
X1046094Y15476345D01*
X1046096Y15476341D01*
X1046097Y15476337D01*
X1124493Y15308217D01*
X1145965Y15262170D01*
X1145967Y15262166D01*
X1281501Y15068605D01*
X1281506Y15068598D01*
X1448597Y14901507D01*
X1448603Y14901502D01*
X1634158Y14771575D01*
X1677783Y14716998D01*
X1684977Y14647500D01*
X1653454Y14585145D01*
X1634158Y14568425D01*
X1448597Y14438495D01*
X1281505Y14271403D01*
X1145965Y14077831D01*
X1145964Y14077829D01*
X1046098Y13863665D01*
X1046094Y13863656D01*
X984938Y13635414D01*
X984936Y13635404D01*
X964341Y13400001D01*
X964341Y13400000D01*
X984936Y13164597D01*
X984938Y13164587D01*
X1046094Y12936345D01*
X1046096Y12936341D01*
X1046097Y12936337D01*
X1145965Y12722171D01*
X1145965Y12722170D01*
X1145967Y12722166D01*
X1281501Y12528605D01*
X1281506Y12528598D01*
X1448597Y12361507D01*
X1448603Y12361502D01*
X1634158Y12231575D01*
X1677783Y12176998D01*
X1684977Y12107500D01*
X1653454Y12045145D01*
X1634158Y12028425D01*
X1448597Y11898495D01*
X1281505Y11731403D01*
X1145965Y11537831D01*
X1145964Y11537829D01*
X1046098Y11323665D01*
X1046094Y11323656D01*
X984938Y11095414D01*
X984936Y11095404D01*
X964341Y10860001D01*
X964341Y10860000D01*
X984936Y10624597D01*
X984938Y10624587D01*
X1046094Y10396345D01*
X1046096Y10396341D01*
X1046097Y10396337D01*
X1145964Y10182171D01*
X1145965Y10182170D01*
X1145967Y10182166D01*
X1281501Y9988605D01*
X1281506Y9988598D01*
X1448597Y9821507D01*
X1448603Y9821502D01*
X1634158Y9691575D01*
X1677783Y9636998D01*
X1684977Y9567500D01*
X1653454Y9505145D01*
X1634158Y9488425D01*
X1448597Y9358495D01*
X1281505Y9191403D01*
X1145965Y8997831D01*
X1145964Y8997829D01*
X1046098Y8783665D01*
X1046094Y8783656D01*
X984938Y8555414D01*
X984936Y8555404D01*
X964341Y8320001D01*
X964341Y8320000D01*
X984936Y8084597D01*
X984938Y8084587D01*
X1046094Y7856345D01*
X1046096Y7856341D01*
X1046097Y7856337D01*
X1145965Y7642170D01*
X1145967Y7642166D01*
X1281501Y7448605D01*
X1281506Y7448598D01*
X1448597Y7281507D01*
X1448603Y7281502D01*
X1634158Y7151575D01*
X1677783Y7096998D01*
X1684977Y7027500D01*
X1653454Y6965145D01*
X1634158Y6948425D01*
X1448597Y6818495D01*
X1281505Y6651403D01*
X1145965Y6457831D01*
X1145964Y6457829D01*
X1046098Y6243665D01*
X1046094Y6243656D01*
X984938Y6015414D01*
X984936Y6015404D01*
X964341Y5780001D01*
X964341Y5780000D01*
X984936Y5544597D01*
X984938Y5544587D01*
X1046094Y5316345D01*
X1046096Y5316341D01*
X1046097Y5316337D01*
X1145964Y5102171D01*
X1145965Y5102170D01*
X1145967Y5102166D01*
X1281501Y4908605D01*
X1281506Y4908598D01*
X1448597Y4741507D01*
X1448603Y4741502D01*
X1634158Y4611575D01*
X1677783Y4556998D01*
X1684977Y4487500D01*
X1653454Y4425145D01*
X1634158Y4408425D01*
X1448597Y4278495D01*
X1281505Y4111403D01*
X1145965Y3917831D01*
X1145964Y3917829D01*
X1046098Y3703665D01*
X1046094Y3703656D01*
X984938Y3475414D01*
X984936Y3475404D01*
X964341Y3240001D01*
X964341Y3240000D01*
X984936Y3004597D01*
X984938Y3004587D01*
X1046094Y2776345D01*
X1046096Y2776341D01*
X1046097Y2776337D01*
X1145965Y2562170D01*
X1145967Y2562166D01*
X1254281Y2407479D01*
X1281505Y2368599D01*
X1448599Y2201505D01*
X1545384Y2133735D01*
X1642165Y2065968D01*
X1642167Y2065967D01*
X1642170Y2065965D01*
X1856337Y1966097D01*
X2084592Y1904937D01*
X2272918Y1888461D01*
X2319999Y1884341D01*
X2320000Y1884341D01*
X2320001Y1884341D01*
X2359234Y1887774D01*
X2555408Y1904937D01*
X2783663Y1966097D01*
X2997830Y2065965D01*
X3191401Y2201505D01*
X3358495Y2368599D01*
X3494035Y2562170D01*
X3593903Y2776337D01*
X3655063Y3004592D01*
X3675659Y3240000D01*
X3655063Y3475408D01*
X3593903Y3703663D01*
X3494035Y3917829D01*
X3448970Y3982190D01*
X3358494Y4111403D01*
X3191402Y4278494D01*
X3191396Y4278499D01*
X3005842Y4408425D01*
X2962217Y4463002D01*
X2955023Y4532500D01*
X2986546Y4594855D01*
X3005842Y4611575D01*
X3028026Y4627109D01*
X3191401Y4741505D01*
X3358495Y4908599D01*
X3494035Y5102170D01*
X3593903Y5316337D01*
X3655063Y5544592D01*
X3675659Y5780000D01*
X3655063Y6015408D01*
X3593903Y6243663D01*
X3494035Y6457829D01*
X3358495Y6651401D01*
X3358494Y6651403D01*
X3191402Y6818494D01*
X3191396Y6818499D01*
X3005842Y6948425D01*
X2962217Y7003002D01*
X2955023Y7072500D01*
X2986546Y7134855D01*
X3005842Y7151575D01*
X3039508Y7175148D01*
X3191401Y7281505D01*
X3358495Y7448599D01*
X3494035Y7642170D01*
X3593903Y7856337D01*
X3655063Y8084592D01*
X3675659Y8320000D01*
X3655063Y8555408D01*
X3593903Y8783663D01*
X3494035Y8997829D01*
X3358495Y9191401D01*
X3358494Y9191403D01*
X3191402Y9358494D01*
X3191396Y9358499D01*
X3005842Y9488425D01*
X2962217Y9543002D01*
X2955023Y9612500D01*
X2986546Y9674855D01*
X3005842Y9691575D01*
X3028026Y9707109D01*
X3191401Y9821505D01*
X3358495Y9988599D01*
X3494035Y10182170D01*
X3593903Y10396337D01*
X3655063Y10624592D01*
X3675659Y10860000D01*
X3655063Y11095408D01*
X3593903Y11323663D01*
X3494035Y11537829D01*
X3468846Y11573804D01*
X3358494Y11731403D01*
X3191402Y11898494D01*
X3191396Y11898499D01*
X3005842Y12028425D01*
X2962217Y12083002D01*
X2955023Y12152500D01*
X2986546Y12214855D01*
X3005842Y12231575D01*
X3028026Y12247109D01*
X3191401Y12361505D01*
X3358495Y12528599D01*
X3494035Y12722170D01*
X3593903Y12936337D01*
X3655063Y13164592D01*
X3675659Y13400000D01*
X3655063Y13635408D01*
X3593903Y13863663D01*
X3494035Y14077829D01*
X3358495Y14271401D01*
X3358494Y14271403D01*
X3191402Y14438494D01*
X3191396Y14438499D01*
X3005842Y14568425D01*
X2962217Y14623002D01*
X2955023Y14692500D01*
X2986546Y14754855D01*
X3005842Y14771575D01*
X3028026Y14787109D01*
X3191401Y14901505D01*
X3358495Y15068599D01*
X3494035Y15262170D01*
X3507807Y15291706D01*
X3553981Y15344145D01*
X3620190Y15363300D01*
X5439725Y15363300D01*
X5506764Y15343615D01*
X5527406Y15326981D01*
X5546170Y15308217D01*
X5699387Y15211944D01*
X5870185Y15152179D01*
X5870191Y15152179D01*
X5870193Y15152178D01*
X6049996Y15131919D01*
X6050000Y15131919D01*
X6050004Y15131919D01*
X6229806Y15152178D01*
X6229805Y15152178D01*
X6229815Y15152179D01*
X6400613Y15211944D01*
X6553830Y15308217D01*
X6681783Y15436170D01*
X6685289Y15441750D01*
X6737621Y15488039D01*
X6806675Y15498689D01*
X6870523Y15470314D01*
X6908896Y15411925D01*
X6914280Y15376511D01*
X6923564Y13807441D01*
X6904276Y13740286D01*
X6851744Y13694219D01*
X6782645Y13683867D01*
X6756233Y13690525D01*
X6699482Y13711692D01*
X6699483Y13711692D01*
X6639883Y13718099D01*
X6639881Y13718100D01*
X6639873Y13718100D01*
X6639864Y13718100D01*
X5544129Y13718100D01*
X5544123Y13718099D01*
X5484516Y13711692D01*
X5349671Y13661398D01*
X5349664Y13661394D01*
X5234455Y13575148D01*
X5234452Y13575145D01*
X5148206Y13459936D01*
X5148202Y13459929D01*
X5097908Y13325083D01*
X5091501Y13265484D01*
X5091500Y13265465D01*
X5091500Y11969730D01*
X5091501Y11969724D01*
X5097908Y11910117D01*
X5148202Y11775272D01*
X5148206Y11775265D01*
X5234452Y11660056D01*
X5234455Y11660053D01*
X5349664Y11573807D01*
X5349671Y11573803D01*
X5484517Y11523509D01*
X5484516Y11523509D01*
X5491444Y11522765D01*
X5544127Y11517100D01*
X6639872Y11517101D01*
X6699483Y11523509D01*
X6770276Y11549914D01*
X6839966Y11554897D01*
X6901289Y11521412D01*
X6934774Y11460089D01*
X6937606Y11434465D01*
X6961518Y7393285D01*
X6942230Y7326130D01*
X6889698Y7280063D01*
X6820600Y7269711D01*
X6794187Y7276369D01*
X6699482Y7311692D01*
X6699483Y7311692D01*
X6639883Y7318099D01*
X6639881Y7318100D01*
X6639873Y7318100D01*
X6639864Y7318100D01*
X5544129Y7318100D01*
X5544123Y7318099D01*
X5484516Y7311692D01*
X5349671Y7261398D01*
X5349664Y7261394D01*
X5234455Y7175148D01*
X5234452Y7175145D01*
X5148206Y7059936D01*
X5148202Y7059929D01*
X5097908Y6925083D01*
X5091501Y6865484D01*
X5091500Y6865465D01*
X5091500Y5969730D01*
X5091501Y5969724D01*
X5097908Y5910117D01*
X5148202Y5775272D01*
X5148206Y5775265D01*
X5234452Y5660056D01*
X5234455Y5660053D01*
X5349664Y5573807D01*
X5349671Y5573803D01*
X5484517Y5523509D01*
X5484516Y5523509D01*
X5491444Y5522765D01*
X5544127Y5517100D01*
X6639872Y5517101D01*
X6699483Y5523509D01*
X6729284Y5534624D01*
X6805700Y5563125D01*
X6875392Y5568109D01*
X6936715Y5534624D01*
X6970199Y5473300D01*
X6973031Y5447677D01*
X6980199Y4236318D01*
X6960911Y4169163D01*
X6908379Y4123096D01*
X6839281Y4112744D01*
X6812868Y4119402D01*
X6699482Y4161692D01*
X6699483Y4161692D01*
X6639883Y4168099D01*
X6639881Y4168100D01*
X6639873Y4168100D01*
X6639864Y4168100D01*
X5544129Y4168100D01*
X5544123Y4168099D01*
X5484516Y4161692D01*
X5349671Y4111398D01*
X5349664Y4111394D01*
X5234455Y4025148D01*
X5234452Y4025145D01*
X5148206Y3909936D01*
X5148202Y3909929D01*
X5097908Y3775083D01*
X5091501Y3715484D01*
X5091500Y3715465D01*
X5091500Y819730D01*
X5091501Y819724D01*
X5097908Y760117D01*
X5148202Y625272D01*
X5148206Y625265D01*
X5239768Y502955D01*
X5238062Y501678D01*
X5265812Y450858D01*
X5260828Y381166D01*
X5218956Y325233D01*
X5153492Y300816D01*
X5144646Y300500D01*
X1302717Y300500D01*
X1297311Y300736D01*
X1262620Y303772D01*
X1137249Y314743D01*
X1115964Y318497D01*
X968642Y357974D01*
X948331Y365366D01*
X810085Y429833D01*
X791367Y440641D01*
X666429Y528125D01*
X649872Y542018D01*
X542017Y649873D01*
X528124Y666430D01*
X528106Y666455D01*
X440640Y791368D01*
X429832Y810086D01*
X401746Y870315D01*
X365363Y948337D01*
X357975Y968637D01*
X318494Y1115971D01*
X314742Y1137251D01*
X314741Y1137257D01*
X300735Y1297311D01*
X300500Y1302717D01*
X300517Y3775083D01*
X300865Y55737978D01*
X300867Y55737987D01*
X300867Y55752411D01*
X300868Y55752413D01*
X300867Y55796964D01*
X301164Y55803026D01*
X316943Y55963279D01*
X321681Y55987101D01*
X365760Y56132426D01*
X375054Y56154866D01*
X446638Y56288798D01*
X460135Y56308997D01*
X556468Y56426385D01*
X573647Y56443564D01*
X691027Y56539900D01*
X711223Y56553397D01*
X845148Y56624986D01*
X867596Y56634285D01*
X1012911Y56678369D01*
X1036732Y56683108D01*
X1196376Y56698836D01*
X1202430Y56699134D01*
X23741932Y56699499D01*
X23743391Y56699385D01*
G37*
%TD.AperFunction*%
%TA.AperFunction,Conductor*%
G36*
X3773770Y25686901D02*
G01*
X3793586Y25670801D01*
X3836170Y25628217D01*
X3989387Y25531944D01*
X4160185Y25472179D01*
X4160191Y25472179D01*
X4160193Y25472178D01*
X4339996Y25451919D01*
X4340000Y25451919D01*
X4340004Y25451919D01*
X4519806Y25472178D01*
X4519805Y25472178D01*
X4519815Y25472179D01*
X4690613Y25531944D01*
X4843830Y25628217D01*
X4862593Y25646981D01*
X4923917Y25680466D01*
X4950275Y25683300D01*
X7639692Y25683300D01*
X7706731Y25663615D01*
X7752486Y25610811D01*
X7762430Y25541653D01*
X7747251Y25499891D01*
X7747923Y25499556D01*
X7646239Y25295350D01*
X7593505Y25110000D01*
X8524419Y25110000D01*
X8472940Y25054079D01*
X8426018Y24947108D01*
X8416372Y24830698D01*
X8445047Y24717462D01*
X8508936Y24619673D01*
X8521364Y24610000D01*
X7593505Y24610000D01*
X7646239Y24424651D01*
X7745368Y24225575D01*
X7879391Y24048100D01*
X8039682Y23901976D01*
X8075964Y23842265D01*
X8074203Y23772417D01*
X8039683Y23718702D01*
X7879018Y23572236D01*
X7744943Y23394692D01*
X7744938Y23394684D01*
X7645775Y23195539D01*
X7645769Y23195524D01*
X7584885Y22981538D01*
X7584884Y22981536D01*
X7564357Y22760001D01*
X7564357Y22760000D01*
X7584884Y22538465D01*
X7584885Y22538463D01*
X7645769Y22324477D01*
X7645775Y22324462D01*
X7744938Y22125317D01*
X7744943Y22125309D01*
X7879020Y21947762D01*
X8039995Y21801014D01*
X8076277Y21741303D01*
X8074516Y21671455D01*
X8037206Y21616499D01*
X8037674Y21615986D01*
X8035536Y21614038D01*
X8035272Y21613648D01*
X8034061Y21612693D01*
X7869020Y21462239D01*
X7821849Y21399773D01*
X7765740Y21358137D01*
X7722895Y21350500D01*
X6279088Y21350500D01*
X6212049Y21370185D01*
X6200423Y21378647D01*
X6120626Y21444136D01*
X6120623Y21444138D01*
X5955502Y21532396D01*
X5776333Y21586747D01*
X5776331Y21586748D01*
X5590000Y21605099D01*
X5403668Y21586748D01*
X5403666Y21586747D01*
X5224497Y21532396D01*
X5059376Y21444138D01*
X5059373Y21444136D01*
X4914642Y21325358D01*
X4795864Y21180627D01*
X4795862Y21180624D01*
X4707604Y21015503D01*
X4653253Y20836334D01*
X4653252Y20836332D01*
X4634901Y20650001D01*
X4653252Y20463669D01*
X4653253Y20463667D01*
X4707604Y20284498D01*
X4795862Y20119377D01*
X4795864Y20119374D01*
X4914642Y19974643D01*
X5059373Y19855865D01*
X5059376Y19855863D01*
X5169506Y19796998D01*
X5224499Y19767604D01*
X5403666Y19713254D01*
X5403668Y19713253D01*
X5422020Y19711446D01*
X5590000Y19694901D01*
X5776331Y19713253D01*
X5955501Y19767604D01*
X6120625Y19855864D01*
X6200423Y19921354D01*
X6264732Y19948666D01*
X6279088Y19949500D01*
X6664525Y19949500D01*
X6731564Y19929815D01*
X6777319Y19877011D01*
X6787263Y19807853D01*
X6758238Y19744297D01*
X6752206Y19737819D01*
X6628217Y19613831D01*
X6531943Y19460613D01*
X6472178Y19289813D01*
X6472177Y19289807D01*
X6451919Y19110004D01*
X6451919Y19109997D01*
X6472177Y18930194D01*
X6472178Y18930188D01*
X6531943Y18759388D01*
X6559574Y18715414D01*
X6628217Y18606170D01*
X6756170Y18478217D01*
X6909387Y18381944D01*
X7080185Y18322179D01*
X7080191Y18322179D01*
X7080193Y18322178D01*
X7259996Y18301919D01*
X7260000Y18301919D01*
X7260004Y18301919D01*
X7439806Y18322178D01*
X7439805Y18322178D01*
X7439815Y18322179D01*
X7610613Y18381944D01*
X7763830Y18478217D01*
X7782594Y18496981D01*
X7843917Y18530466D01*
X7870275Y18533300D01*
X8149309Y18533300D01*
X8216348Y18513615D01*
X8262103Y18460811D01*
X8272529Y18395416D01*
X8271919Y18390003D01*
X8271919Y18389997D01*
X8292177Y18210194D01*
X8292178Y18210188D01*
X8301673Y18183054D01*
X8305234Y18113275D01*
X8270505Y18052648D01*
X8208511Y18020421D01*
X8184631Y18018100D01*
X7594129Y18018100D01*
X7594123Y18018099D01*
X7534516Y18011692D01*
X7485332Y17993347D01*
X7415640Y17988363D01*
X7398667Y17993347D01*
X7349482Y18011692D01*
X7349483Y18011692D01*
X7289883Y18018099D01*
X7289881Y18018100D01*
X7289873Y18018100D01*
X7289864Y18018100D01*
X6494129Y18018100D01*
X6494123Y18018099D01*
X6434516Y18011692D01*
X6299671Y17961398D01*
X6299664Y17961394D01*
X6184455Y17875148D01*
X6184452Y17875145D01*
X6098206Y17759936D01*
X6098202Y17759929D01*
X6047908Y17625083D01*
X6044371Y17592179D01*
X6041501Y17565477D01*
X6041500Y17565465D01*
X6041500Y16857938D01*
X6021815Y16790899D01*
X5969011Y16745144D01*
X5931385Y16734718D01*
X5870190Y16727823D01*
X5699387Y16668057D01*
X5546169Y16571783D01*
X5527406Y16553019D01*
X5466083Y16519534D01*
X5439725Y16516700D01*
X3620189Y16516700D01*
X3553150Y16536385D01*
X3507807Y16588296D01*
X3494037Y16617825D01*
X3494034Y16617831D01*
X3358494Y16811403D01*
X3191402Y16978494D01*
X3191396Y16978499D01*
X3005842Y17108425D01*
X2962217Y17163002D01*
X2955023Y17232500D01*
X2986546Y17294855D01*
X3005842Y17311575D01*
X3028026Y17327109D01*
X3191401Y17441505D01*
X3358495Y17608599D01*
X3494035Y17802170D01*
X3593903Y18016337D01*
X3655063Y18244592D01*
X3675659Y18480000D01*
X3655063Y18715408D01*
X3593903Y18943663D01*
X3494035Y19157829D01*
X3492017Y19160712D01*
X3358494Y19351403D01*
X3191402Y19518494D01*
X3191396Y19518499D01*
X3005842Y19648425D01*
X2962217Y19703002D01*
X2955023Y19772500D01*
X2986546Y19834855D01*
X3005842Y19851575D01*
X3117580Y19929815D01*
X3191401Y19981505D01*
X3358495Y20148599D01*
X3494035Y20342170D01*
X3593903Y20556337D01*
X3655063Y20784592D01*
X3675659Y21020000D01*
X3655063Y21255408D01*
X3599644Y21462238D01*
X3593905Y21483656D01*
X3593904Y21483657D01*
X3593903Y21483663D01*
X3494035Y21697829D01*
X3465526Y21738545D01*
X3358494Y21891403D01*
X3191402Y22058494D01*
X3191401Y22058495D01*
X3005405Y22188731D01*
X2961781Y22243308D01*
X2954588Y22312807D01*
X2986110Y22375161D01*
X3005405Y22391881D01*
X3081373Y22445075D01*
X2452533Y23073914D01*
X2462315Y23075320D01*
X2593100Y23135048D01*
X2701761Y23229202D01*
X2779493Y23350156D01*
X2803076Y23430476D01*
X3434925Y22798627D01*
X3434926Y22798627D01*
X3493598Y22882418D01*
X3493600Y22882422D01*
X3593429Y23096508D01*
X3593433Y23096517D01*
X3654567Y23324674D01*
X3654569Y23324685D01*
X3675157Y23559999D01*
X3675157Y23560002D01*
X3654569Y23795316D01*
X3654567Y23795327D01*
X3593433Y24023484D01*
X3593429Y24023493D01*
X3493600Y24237577D01*
X3493599Y24237579D01*
X3434925Y24321374D01*
X3434925Y24321375D01*
X2803076Y23689525D01*
X2779493Y23769844D01*
X2701761Y23890798D01*
X2593100Y23984952D01*
X2462315Y24044680D01*
X2452532Y24046087D01*
X3081373Y24674927D01*
X3081373Y24674928D01*
X3005405Y24728120D01*
X2961780Y24782696D01*
X2954586Y24852195D01*
X2986108Y24914549D01*
X3005399Y24931266D01*
X3191401Y25061505D01*
X3358495Y25228599D01*
X3494035Y25422170D01*
X3593524Y25635527D01*
X3639695Y25687964D01*
X3706888Y25707116D01*
X3773770Y25686901D01*
G37*
%TD.AperFunction*%
%TA.AperFunction,Conductor*%
G36*
X10658339Y18513615D02*
G01*
X10704094Y18460811D01*
X10715300Y18409300D01*
X10715300Y18141600D01*
X10695615Y18074561D01*
X10642811Y18028806D01*
X10591300Y18017600D01*
X9975194Y18017600D01*
X9908155Y18037285D01*
X9862400Y18090089D01*
X9852456Y18159247D01*
X9858152Y18182554D01*
X9858327Y18183054D01*
X9867821Y18210185D01*
X9878157Y18301919D01*
X9888081Y18389997D01*
X9888081Y18390003D01*
X9887471Y18395416D01*
X9899525Y18464238D01*
X9946874Y18515617D01*
X10010691Y18533300D01*
X10591300Y18533300D01*
X10658339Y18513615D01*
G37*
%TD.AperFunction*%
%TA.AperFunction,Conductor*%
G36*
X21230120Y31308245D02*
G01*
X21275335Y31254977D01*
X21285549Y31193812D01*
X21284341Y31180004D01*
X21284341Y31180000D01*
X21304936Y30944597D01*
X21304938Y30944587D01*
X21366094Y30716345D01*
X21366096Y30716341D01*
X21366097Y30716337D01*
X21415535Y30610318D01*
X21465965Y30502170D01*
X21465967Y30502166D01*
X21544087Y30390600D01*
X21601505Y30308599D01*
X21768599Y30141505D01*
X21936882Y30023672D01*
X21954594Y30011270D01*
X21998218Y29956693D01*
X22005411Y29887194D01*
X21973889Y29824840D01*
X21954593Y29808120D01*
X21878626Y29754929D01*
X21878625Y29754927D01*
X22507466Y29126087D01*
X22497685Y29124680D01*
X22366900Y29064952D01*
X22258239Y28970798D01*
X22180507Y28849844D01*
X22156923Y28769525D01*
X21525073Y29401375D01*
X21525072Y29401375D01*
X21466401Y29317581D01*
X21366570Y29103493D01*
X21366566Y29103484D01*
X21305432Y28875327D01*
X21305430Y28875316D01*
X21284843Y28640002D01*
X21284843Y28639999D01*
X21305430Y28404685D01*
X21305432Y28404674D01*
X21366566Y28176517D01*
X21366570Y28176508D01*
X21466400Y27962421D01*
X21466402Y27962417D01*
X21525072Y27878627D01*
X21525073Y27878627D01*
X22156923Y28510477D01*
X22180507Y28430156D01*
X22258239Y28309202D01*
X22366900Y28215048D01*
X22497685Y28155320D01*
X22507466Y28153914D01*
X21878625Y27525075D01*
X21954594Y27471881D01*
X21998219Y27417304D01*
X22005413Y27347806D01*
X21973890Y27285451D01*
X21954595Y27268731D01*
X21768594Y27138492D01*
X21601505Y26971403D01*
X21465965Y26777831D01*
X21465964Y26777829D01*
X21366098Y26563665D01*
X21366094Y26563656D01*
X21304938Y26335414D01*
X21304936Y26335404D01*
X21284341Y26100001D01*
X21284341Y26100000D01*
X21304936Y25864597D01*
X21304938Y25864587D01*
X21366094Y25636345D01*
X21366096Y25636341D01*
X21366097Y25636337D01*
X21432149Y25494689D01*
X21465965Y25422170D01*
X21465967Y25422166D01*
X21601501Y25228605D01*
X21601506Y25228598D01*
X21768597Y25061507D01*
X21768603Y25061502D01*
X21954158Y24931575D01*
X21997783Y24876998D01*
X22004977Y24807500D01*
X21973454Y24745145D01*
X21954158Y24728425D01*
X21768597Y24598495D01*
X21601505Y24431403D01*
X21465965Y24237831D01*
X21465964Y24237829D01*
X21366098Y24023665D01*
X21366094Y24023656D01*
X21304938Y23795414D01*
X21304936Y23795404D01*
X21284341Y23560001D01*
X21284341Y23560000D01*
X21304936Y23324597D01*
X21304938Y23324587D01*
X21366094Y23096345D01*
X21366096Y23096341D01*
X21366097Y23096337D01*
X21413181Y22995365D01*
X21465965Y22882170D01*
X21465967Y22882166D01*
X21601501Y22688605D01*
X21601506Y22688598D01*
X21768597Y22521507D01*
X21768603Y22521502D01*
X21954158Y22391575D01*
X21997783Y22336998D01*
X22004977Y22267500D01*
X21973454Y22205145D01*
X21954158Y22188425D01*
X21768597Y22058495D01*
X21601505Y21891403D01*
X21465965Y21697831D01*
X21465964Y21697829D01*
X21366098Y21483665D01*
X21366094Y21483656D01*
X21304938Y21255414D01*
X21304936Y21255404D01*
X21284341Y21020001D01*
X21284341Y21020000D01*
X21304936Y20784597D01*
X21304938Y20784587D01*
X21366094Y20556345D01*
X21366096Y20556341D01*
X21366097Y20556337D01*
X21425726Y20428463D01*
X21465965Y20342170D01*
X21465967Y20342166D01*
X21601501Y20148605D01*
X21601506Y20148598D01*
X21768597Y19981507D01*
X21768603Y19981502D01*
X21954158Y19851575D01*
X21997783Y19796998D01*
X22004977Y19727500D01*
X21973454Y19665145D01*
X21954158Y19648425D01*
X21768597Y19518495D01*
X21601505Y19351403D01*
X21465965Y19157831D01*
X21465964Y19157829D01*
X21376016Y18964936D01*
X21329843Y18912497D01*
X21262650Y18893345D01*
X21195769Y18913561D01*
X21175953Y18929660D01*
X21093830Y19011783D01*
X20940612Y19108057D01*
X20769812Y19167822D01*
X20769806Y19167823D01*
X20590004Y19188081D01*
X20589996Y19188081D01*
X20410193Y19167823D01*
X20410187Y19167822D01*
X20239387Y19108057D01*
X20086169Y19011783D01*
X20067406Y18993019D01*
X20006083Y18959534D01*
X19979725Y18956700D01*
X16990275Y18956700D01*
X16923236Y18976385D01*
X16902594Y18993019D01*
X16883830Y19011783D01*
X16730612Y19108057D01*
X16559812Y19167822D01*
X16559806Y19167823D01*
X16380004Y19188081D01*
X16379996Y19188081D01*
X16200193Y19167823D01*
X16200187Y19167822D01*
X16029387Y19108057D01*
X15876169Y19011783D01*
X15857406Y18993019D01*
X15796083Y18959534D01*
X15769725Y18956700D01*
X15460139Y18956700D01*
X15393100Y18976385D01*
X15347345Y19029189D01*
X15343097Y19039746D01*
X15342878Y19040373D01*
X15342878Y19040375D01*
X15283113Y19211173D01*
X15186840Y19364390D01*
X15058887Y19492343D01*
X15017268Y19518494D01*
X14905669Y19588617D01*
X14734869Y19648382D01*
X14734863Y19648383D01*
X14555061Y19668641D01*
X14555053Y19668641D01*
X14375250Y19648383D01*
X14375244Y19648382D01*
X14204444Y19588617D01*
X14051226Y19492343D01*
X13923274Y19364391D01*
X13827000Y19211173D01*
X13767235Y19040373D01*
X13767234Y19040368D01*
X13750816Y18894653D01*
X13723749Y18830239D01*
X13715277Y18820856D01*
X13492585Y18598164D01*
X13431262Y18564679D01*
X13361570Y18569663D01*
X13305637Y18611535D01*
X13286245Y18649847D01*
X13272396Y18695501D01*
X13261756Y18715408D01*
X13184137Y18860624D01*
X13184135Y18860627D01*
X13065357Y19005358D01*
X12920626Y19124136D01*
X12920623Y19124138D01*
X12755502Y19212396D01*
X12576333Y19266747D01*
X12576331Y19266748D01*
X12390000Y19285099D01*
X12203668Y19266748D01*
X12203666Y19266747D01*
X12024499Y19212397D01*
X11954446Y19174953D01*
X11886043Y19160712D01*
X11820800Y19185713D01*
X11797619Y19208825D01*
X11711306Y19321308D01*
X11703350Y19327413D01*
X11684281Y19342045D01*
X11678191Y19347386D01*
X11537383Y19488194D01*
X11532039Y19494289D01*
X11513465Y19518494D01*
X11511307Y19521307D01*
X11390838Y19613746D01*
X11390837Y19613747D01*
X11390835Y19613748D01*
X11250549Y19671856D01*
X11250547Y19671857D01*
X11137797Y19686700D01*
X11100001Y19691676D01*
X11099999Y19691676D01*
X11087005Y19689966D01*
X11066234Y19687231D01*
X11058136Y19686700D01*
X9785928Y19686700D01*
X9718889Y19706385D01*
X9673134Y19759189D01*
X9663190Y19828347D01*
X9686976Y19885429D01*
X9698153Y19900229D01*
X9754263Y19941864D01*
X9797105Y19949500D01*
X11700912Y19949500D01*
X11767951Y19929815D01*
X11779577Y19921353D01*
X11859373Y19855865D01*
X11859376Y19855863D01*
X11969506Y19796998D01*
X12024499Y19767604D01*
X12203666Y19713254D01*
X12203668Y19713253D01*
X12220374Y19711608D01*
X12390000Y19694901D01*
X12576331Y19713253D01*
X12755501Y19767604D01*
X12920625Y19855864D01*
X13065357Y19974643D01*
X13184136Y20119375D01*
X13272396Y20284499D01*
X13326747Y20463669D01*
X13345099Y20650000D01*
X13326747Y20836331D01*
X13272396Y21015501D01*
X13184136Y21180625D01*
X13184135Y21180627D01*
X13065357Y21325358D01*
X12920626Y21444136D01*
X12920623Y21444138D01*
X12755502Y21532396D01*
X12576333Y21586747D01*
X12576331Y21586748D01*
X12390000Y21605099D01*
X12203668Y21586748D01*
X12203666Y21586747D01*
X12024497Y21532396D01*
X11859376Y21444138D01*
X11859373Y21444136D01*
X11779577Y21378647D01*
X11715268Y21351334D01*
X11700912Y21350500D01*
X9797105Y21350500D01*
X9730066Y21370185D01*
X9698151Y21399773D01*
X9650979Y21462238D01*
X9490003Y21608987D01*
X9453721Y21668698D01*
X9455482Y21738545D01*
X9492790Y21793504D01*
X9492326Y21794014D01*
X9494454Y21795955D01*
X9494725Y21796353D01*
X9495959Y21797327D01*
X9496559Y21797875D01*
X9496562Y21797876D01*
X9660981Y21947764D01*
X9795058Y22125311D01*
X9894229Y22324472D01*
X9955115Y22538464D01*
X9975643Y22760000D01*
X9955115Y22981536D01*
X9951180Y22995367D01*
X9951766Y23065232D01*
X9990033Y23123691D01*
X10053830Y23152182D01*
X10070446Y23153300D01*
X15090074Y23153300D01*
X15157113Y23133615D01*
X15202868Y23080811D01*
X15212812Y23011653D01*
X15212689Y23011078D01*
X15213503Y23010000D01*
X16144419Y23010000D01*
X16092940Y22954079D01*
X16046018Y22847108D01*
X16036372Y22730698D01*
X16065047Y22617462D01*
X16128936Y22519673D01*
X16141364Y22510000D01*
X15213505Y22510000D01*
X15266239Y22324651D01*
X15365368Y22125575D01*
X15499391Y21948100D01*
X15660401Y21801320D01*
X15696683Y21741609D01*
X15694922Y21671761D01*
X15657320Y21616374D01*
X15657674Y21615986D01*
X15656056Y21614512D01*
X15655678Y21613954D01*
X15653944Y21612587D01*
X15489020Y21462239D01*
X15354943Y21284692D01*
X15354938Y21284684D01*
X15255775Y21085539D01*
X15255769Y21085524D01*
X15194885Y20871538D01*
X15194884Y20871536D01*
X15174357Y20650001D01*
X15174357Y20650000D01*
X15194884Y20428465D01*
X15194885Y20428463D01*
X15255769Y20214477D01*
X15255775Y20214462D01*
X15354938Y20015317D01*
X15354943Y20015309D01*
X15489020Y19837762D01*
X15653437Y19687877D01*
X15653439Y19687875D01*
X15842595Y19570755D01*
X15842596Y19570755D01*
X15842599Y19570753D01*
X16050060Y19490382D01*
X16268757Y19449500D01*
X16268759Y19449500D01*
X16491241Y19449500D01*
X16491243Y19449500D01*
X16709940Y19490382D01*
X16917401Y19570753D01*
X17106562Y19687876D01*
X17270981Y19837764D01*
X17405058Y20015311D01*
X17504229Y20214472D01*
X17565115Y20428464D01*
X17585643Y20650000D01*
X17565115Y20871536D01*
X17504229Y21085528D01*
X17456877Y21180624D01*
X17405061Y21284684D01*
X17405056Y21284692D01*
X17270979Y21462239D01*
X17109626Y21609331D01*
X17073344Y21669042D01*
X17075105Y21738890D01*
X17112468Y21793928D01*
X17112024Y21794415D01*
X17114056Y21796269D01*
X17114348Y21796697D01*
X17115674Y21797744D01*
X17280608Y21948100D01*
X17414631Y22125575D01*
X17513760Y22324651D01*
X17566495Y22510000D01*
X16635581Y22510000D01*
X16687060Y22565921D01*
X16733982Y22672892D01*
X16743628Y22789302D01*
X16714953Y22902538D01*
X16651064Y23000327D01*
X16638636Y23010000D01*
X17235294Y23010000D01*
X17276248Y23003042D01*
X17337704Y22981538D01*
X17450185Y22942179D01*
X17450191Y22942179D01*
X17450193Y22942178D01*
X17629996Y22921919D01*
X17630000Y22921919D01*
X17630004Y22921919D01*
X17809806Y22942178D01*
X17809805Y22942178D01*
X17809815Y22942179D01*
X17980613Y23001944D01*
X18133830Y23098217D01*
X18261783Y23226170D01*
X18358056Y23379387D01*
X18417821Y23550185D01*
X18438081Y23730000D01*
X18430711Y23795408D01*
X18417822Y23909807D01*
X18417821Y23909813D01*
X18417821Y23909815D01*
X18358056Y24080613D01*
X18261783Y24233830D01*
X18133830Y24361783D01*
X18106129Y24379189D01*
X17980612Y24458057D01*
X17809812Y24517822D01*
X17809807Y24517823D01*
X17687280Y24531628D01*
X17622866Y24558695D01*
X17583311Y24616289D01*
X17577693Y24666289D01*
X17578494Y24674927D01*
X17595643Y24860000D01*
X17575115Y25081536D01*
X17514229Y25295528D01*
X17514224Y25295539D01*
X17415061Y25494684D01*
X17415056Y25494692D01*
X17280979Y25672239D01*
X17116562Y25822124D01*
X17116560Y25822126D01*
X16927404Y25939246D01*
X16927395Y25939250D01*
X16841431Y25972552D01*
X16732849Y26014617D01*
X16677450Y26057188D01*
X16653859Y26122954D01*
X16654425Y26144126D01*
X16667481Y26259998D01*
X16667481Y26260004D01*
X16647222Y26439807D01*
X16647221Y26439813D01*
X16647221Y26439815D01*
X16587456Y26610613D01*
X16491183Y26763830D01*
X16463394Y26791620D01*
X16429909Y26852942D01*
X16434893Y26922634D01*
X16476765Y26978567D01*
X16542229Y27002984D01*
X16551075Y27003300D01*
X17715438Y27003300D01*
X17723536Y27002770D01*
X17744307Y27000035D01*
X17757301Y26998324D01*
X17757302Y26998324D01*
X17757303Y26998324D01*
X17807484Y27004931D01*
X17907851Y27018144D01*
X18048140Y27076254D01*
X18138364Y27145485D01*
X18138364Y27145486D01*
X18161302Y27163086D01*
X18161307Y27163090D01*
X18168607Y27168691D01*
X18168609Y27168693D01*
X18189345Y27195719D01*
X18194687Y27201810D01*
X19426258Y28433380D01*
X19487581Y28466865D01*
X19513939Y28469699D01*
X20027221Y28469699D01*
X20027222Y28469699D01*
X20086833Y28476107D01*
X20221681Y28526402D01*
X20336896Y28612652D01*
X20423146Y28727867D01*
X20473441Y28862715D01*
X20479850Y28922325D01*
X20479849Y29373670D01*
X20473441Y29433281D01*
X20473441Y29433282D01*
X20471658Y29440826D01*
X20473955Y29441370D01*
X20469801Y29499338D01*
X20472255Y29507696D01*
X20473439Y29512707D01*
X20473439Y29512708D01*
X20473441Y29512713D01*
X20479850Y29572323D01*
X20479849Y30023668D01*
X20473441Y30083279D01*
X20473440Y30083282D01*
X20473440Y30083284D01*
X20471658Y30090827D01*
X20473953Y30091370D01*
X20469804Y30149352D01*
X20472256Y30157701D01*
X20473438Y30162707D01*
X20473441Y30162714D01*
X20479850Y30222324D01*
X20479849Y30673669D01*
X20473441Y30733280D01*
X20473441Y30733281D01*
X20471657Y30740831D01*
X20473952Y30741374D01*
X20469807Y30799360D01*
X20472257Y30807707D01*
X20473439Y30812707D01*
X20473439Y30812708D01*
X20473441Y30812713D01*
X20479850Y30872323D01*
X20479849Y31008696D01*
X20499533Y31075734D01*
X20552337Y31121489D01*
X20589966Y31131915D01*
X20769807Y31152178D01*
X20769808Y31152179D01*
X20769815Y31152179D01*
X20940613Y31211944D01*
X21093830Y31308217D01*
X21093830Y31308218D01*
X21096048Y31309611D01*
X21163285Y31328612D01*
X21230120Y31308245D01*
G37*
%TD.AperFunction*%
%TA.AperFunction,Conductor*%
G36*
X15316164Y25663615D02*
G01*
X15336806Y25646981D01*
X15343126Y25640661D01*
X15376611Y25579338D01*
X15371627Y25509646D01*
X15366445Y25497708D01*
X15265775Y25295539D01*
X15265769Y25295524D01*
X15204885Y25081538D01*
X15204884Y25081536D01*
X15184357Y24860001D01*
X15184357Y24860000D01*
X15204884Y24638465D01*
X15204885Y24638463D01*
X15254344Y24464634D01*
X15253758Y24394767D01*
X15215491Y24336308D01*
X15151694Y24307818D01*
X15135078Y24306700D01*
X10024403Y24306700D01*
X9957364Y24326385D01*
X9911609Y24379189D01*
X9901665Y24448347D01*
X9905136Y24464633D01*
X9946495Y24610000D01*
X9015581Y24610000D01*
X9067060Y24665921D01*
X9113982Y24772892D01*
X9123628Y24889302D01*
X9094953Y25002538D01*
X9031064Y25100327D01*
X9018636Y25110000D01*
X9946495Y25110000D01*
X9893760Y25295350D01*
X9792077Y25499556D01*
X9793202Y25500117D01*
X9776325Y25561382D01*
X9797133Y25628081D01*
X9850698Y25672943D01*
X9900308Y25683300D01*
X15249125Y25683300D01*
X15316164Y25663615D01*
G37*
%TD.AperFunction*%
%TA.AperFunction,Conductor*%
G36*
X7056577Y34850815D02*
G01*
X7077219Y34834181D01*
X7077800Y34833600D01*
X8636600Y34833600D01*
X8637181Y34834181D01*
X8698504Y34867666D01*
X8724862Y34870500D01*
X12244912Y34870500D01*
X12311951Y34850815D01*
X12357706Y34798011D01*
X12368202Y34759754D01*
X12373259Y34712711D01*
X12375042Y34705167D01*
X12372960Y34704676D01*
X12377158Y34645915D01*
X12375132Y34639014D01*
X12373751Y34633170D01*
X12367350Y34573642D01*
X12367350Y34122353D01*
X12373751Y34062825D01*
X12375536Y34055273D01*
X12373271Y34054738D01*
X12377428Y33996643D01*
X12374897Y33988022D01*
X12373751Y33983175D01*
X12367350Y33923644D01*
X12367350Y33875799D01*
X13575200Y33875799D01*
X13642239Y33856114D01*
X13687994Y33803310D01*
X13699200Y33751799D01*
X13699200Y33225797D01*
X14675450Y33225797D01*
X14675450Y33273625D01*
X14675449Y33273642D01*
X14669048Y33333170D01*
X14667263Y33340727D01*
X14669527Y33341263D01*
X14665370Y33399351D01*
X14667899Y33407964D01*
X14669048Y33412827D01*
X14675449Y33472355D01*
X14675450Y33472372D01*
X14675450Y33536289D01*
X14695135Y33603328D01*
X14747939Y33649083D01*
X14817097Y33659027D01*
X14865423Y33641282D01*
X14899387Y33619941D01*
X15070185Y33560176D01*
X15070191Y33560176D01*
X15070193Y33560175D01*
X15249996Y33539916D01*
X15250000Y33539916D01*
X15250004Y33539916D01*
X15429806Y33560175D01*
X15429805Y33560175D01*
X15429815Y33560176D01*
X15600613Y33619941D01*
X15753830Y33716214D01*
X15772594Y33734978D01*
X15833917Y33768463D01*
X15860275Y33771297D01*
X16214199Y33771297D01*
X16281238Y33751612D01*
X16326993Y33698808D01*
X16337419Y33661180D01*
X16352177Y33530194D01*
X16352178Y33530188D01*
X16411943Y33359388D01*
X16436321Y33320591D01*
X16508217Y33206170D01*
X16636170Y33078217D01*
X16789387Y32981944D01*
X16960185Y32922179D01*
X16960191Y32922179D01*
X16960193Y32922178D01*
X17139996Y32901919D01*
X17140000Y32901919D01*
X17140004Y32901919D01*
X17319806Y32922178D01*
X17319805Y32922178D01*
X17319815Y32922179D01*
X17490613Y32981944D01*
X17643830Y33078217D01*
X17650589Y33084977D01*
X17711913Y33118462D01*
X17738271Y33121296D01*
X18046750Y33121296D01*
X18113789Y33101611D01*
X18159544Y33048807D01*
X18170750Y32997297D01*
X18170750Y32822328D01*
X18170751Y32822321D01*
X18177159Y32762713D01*
X18178942Y32755168D01*
X18176649Y32754627D01*
X18180791Y32696624D01*
X18178336Y32688265D01*
X18177158Y32683279D01*
X18170751Y32623679D01*
X18170750Y32623660D01*
X18170750Y32172326D01*
X18170751Y32172320D01*
X18177159Y32112709D01*
X18178942Y32105165D01*
X18176645Y32104623D01*
X18180796Y32046646D01*
X18178340Y32038280D01*
X18177158Y32033280D01*
X18170751Y31973680D01*
X18170750Y31973661D01*
X18170750Y31522327D01*
X18170751Y31522326D01*
X18177159Y31462713D01*
X18178942Y31455168D01*
X18176649Y31454627D01*
X18180791Y31396624D01*
X18178336Y31388265D01*
X18177158Y31383279D01*
X18171788Y31333327D01*
X18170751Y31323672D01*
X18170750Y31323661D01*
X18170750Y31282947D01*
X18151065Y31215908D01*
X18098261Y31170153D01*
X18029103Y31160209D01*
X17987161Y31175609D01*
X17986886Y31175036D01*
X17981002Y31177870D01*
X17980783Y31177950D01*
X17980614Y31178056D01*
X17809812Y31237822D01*
X17809806Y31237823D01*
X17630004Y31258081D01*
X17629996Y31258081D01*
X17450193Y31237823D01*
X17450187Y31237822D01*
X17279387Y31178057D01*
X17126169Y31081783D01*
X16998217Y30953831D01*
X16901943Y30800613D01*
X16840332Y30624536D01*
X16799610Y30567759D01*
X16734657Y30542012D01*
X16682336Y30548448D01*
X16680287Y30549165D01*
X16653462Y30558552D01*
X16596687Y30599273D01*
X16570939Y30664225D01*
X16584395Y30732787D01*
X16587421Y30738070D01*
X16588051Y30739381D01*
X16588056Y30739387D01*
X16647821Y30910185D01*
X16661802Y31034270D01*
X16668081Y31089997D01*
X16668081Y31090004D01*
X16647822Y31269807D01*
X16647821Y31269813D01*
X16647821Y31269815D01*
X16588056Y31440613D01*
X16491783Y31593830D01*
X16363830Y31721783D01*
X16326002Y31745552D01*
X16210612Y31818057D01*
X16039812Y31877822D01*
X16039806Y31877823D01*
X15860004Y31898081D01*
X15859996Y31898081D01*
X15680193Y31877823D01*
X15680187Y31877822D01*
X15509387Y31818057D01*
X15356169Y31721783D01*
X15345405Y31711018D01*
X15284082Y31677533D01*
X15257724Y31674699D01*
X14519025Y31674699D01*
X14451986Y31694384D01*
X14444720Y31699429D01*
X14440566Y31702538D01*
X14398699Y31758473D01*
X14393718Y31828164D01*
X14427206Y31889486D01*
X14488531Y31922968D01*
X14514883Y31925800D01*
X14675450Y31925800D01*
X14675450Y31973636D01*
X14675449Y31973645D01*
X14669048Y32033173D01*
X14667264Y32040724D01*
X14669529Y32041260D01*
X14665370Y32099349D01*
X14667898Y32107959D01*
X14669048Y32112824D01*
X14675449Y32172355D01*
X14675450Y32172372D01*
X14675450Y32220199D01*
X13699200Y32220199D01*
X13699200Y31900299D01*
X13679515Y31833260D01*
X13626711Y31787505D01*
X13575200Y31776299D01*
X13467600Y31776299D01*
X13400561Y31795984D01*
X13354806Y31848788D01*
X13343600Y31900299D01*
X13343600Y32870197D01*
X13699200Y32870197D01*
X13699200Y32575799D01*
X14675450Y32575799D01*
X14675450Y32623627D01*
X14675449Y32623644D01*
X14669048Y32683172D01*
X14667264Y32690723D01*
X14669526Y32691258D01*
X14665375Y32749364D01*
X14667896Y32757951D01*
X14669048Y32762825D01*
X14675449Y32822353D01*
X14675450Y32822370D01*
X14675450Y32870197D01*
X13699200Y32870197D01*
X13343600Y32870197D01*
X13343600Y33520199D01*
X12367350Y33520199D01*
X12367350Y33472369D01*
X12368920Y33457766D01*
X12356514Y33389007D01*
X12308903Y33337870D01*
X12241204Y33320591D01*
X12174909Y33342656D01*
X12166965Y33348659D01*
X12050626Y33444136D01*
X12050623Y33444138D01*
X11885502Y33532396D01*
X11706333Y33586747D01*
X11706331Y33586748D01*
X11520000Y33605099D01*
X11333668Y33586748D01*
X11333666Y33586747D01*
X11154497Y33532396D01*
X10989376Y33444138D01*
X10989373Y33444136D01*
X10913476Y33381847D01*
X10849166Y33354534D01*
X10834811Y33353700D01*
X9647444Y33353700D01*
X9580405Y33373385D01*
X9534650Y33426189D01*
X9531262Y33434367D01*
X9495396Y33530529D01*
X9495392Y33530536D01*
X9409146Y33645745D01*
X9409143Y33645748D01*
X9293934Y33731994D01*
X9293927Y33731998D01*
X9159081Y33782292D01*
X9159082Y33782292D01*
X9099482Y33788699D01*
X9099480Y33788700D01*
X9099472Y33788700D01*
X9099464Y33788700D01*
X8760600Y33788700D01*
X8693561Y33808385D01*
X8647806Y33861189D01*
X8636600Y33912700D01*
X8636600Y34333600D01*
X8107200Y34333600D01*
X8107200Y33649545D01*
X8087515Y33582506D01*
X8082467Y33575235D01*
X8049005Y33530536D01*
X8049001Y33530529D01*
X7998707Y33395683D01*
X7994194Y33353700D01*
X7992300Y33336077D01*
X7992299Y33336065D01*
X7992299Y31970330D01*
X7992300Y31970325D01*
X7998707Y31910717D01*
X8022841Y31846013D01*
X8027825Y31776322D01*
X7994340Y31714999D01*
X7180162Y30900819D01*
X7118839Y30867334D01*
X7092481Y30864500D01*
X6761673Y30864500D01*
X6694634Y30884185D01*
X6660098Y30917377D01*
X6600045Y31003142D01*
X6439141Y31164046D01*
X6252734Y31294568D01*
X6252732Y31294569D01*
X6046497Y31390739D01*
X6046488Y31390742D01*
X5826697Y31449634D01*
X5826693Y31449635D01*
X5826692Y31449635D01*
X5826691Y31449636D01*
X5826686Y31449636D01*
X5600002Y31469468D01*
X5599998Y31469468D01*
X5373313Y31449636D01*
X5373302Y31449634D01*
X5153511Y31390742D01*
X5153502Y31390739D01*
X4947267Y31294569D01*
X4947265Y31294568D01*
X4760858Y31164046D01*
X4599954Y31003142D01*
X4469432Y30816735D01*
X4469431Y30816733D01*
X4373261Y30610498D01*
X4373258Y30610489D01*
X4314366Y30390698D01*
X4314364Y30390687D01*
X4294532Y30164002D01*
X4294532Y30163999D01*
X4314364Y29937314D01*
X4314366Y29937303D01*
X4373258Y29717512D01*
X4373261Y29717503D01*
X4469431Y29511268D01*
X4469432Y29511266D01*
X4599954Y29324859D01*
X4760858Y29163955D01*
X4760861Y29163953D01*
X4947266Y29033432D01*
X5153504Y28937261D01*
X5373308Y28878365D01*
X5535230Y28864199D01*
X5599998Y28858532D01*
X5600000Y28858532D01*
X5600001Y28858532D01*
X5627931Y28860976D01*
X5769412Y28873354D01*
X5837911Y28859588D01*
X5888094Y28810972D01*
X5904028Y28742944D01*
X5881646Y28679900D01*
X5881922Y28679726D01*
X5881147Y28678495D01*
X5880653Y28677100D01*
X5878454Y28674209D01*
X5781943Y28520613D01*
X5722178Y28349813D01*
X5722177Y28349807D01*
X5712827Y28266817D01*
X5685761Y28202403D01*
X5628166Y28162848D01*
X5589607Y28156700D01*
X5281862Y28156700D01*
X5273762Y28157231D01*
X5240000Y28161676D01*
X5239996Y28161676D01*
X5208287Y28157502D01*
X5208271Y28157499D01*
X5089451Y28141856D01*
X5089450Y28141856D01*
X4949163Y28083747D01*
X4949160Y28083745D01*
X4944041Y28079817D01*
X4882443Y28054977D01*
X4730192Y28037823D01*
X4730187Y28037822D01*
X4559387Y27978057D01*
X4406169Y27881783D01*
X4278217Y27753831D01*
X4181943Y27600613D01*
X4122178Y27429813D01*
X4122177Y27429807D01*
X4101919Y27250004D01*
X4101919Y27249996D01*
X4114972Y27134139D01*
X4102917Y27065317D01*
X4055568Y27013938D01*
X4032708Y27003215D01*
X3989385Y26988056D01*
X3989384Y26988055D01*
X3836169Y26891783D01*
X3708217Y26763831D01*
X3703874Y26758384D01*
X3702102Y26759797D01*
X3657819Y26720635D01*
X3588765Y26709994D01*
X3524919Y26738376D01*
X3497896Y26773806D01*
X3496743Y26773139D01*
X3494034Y26777831D01*
X3358494Y26971403D01*
X3191402Y27138494D01*
X3191396Y27138499D01*
X3005842Y27268425D01*
X2962217Y27323002D01*
X2955023Y27392500D01*
X2986546Y27454855D01*
X3005842Y27471575D01*
X3082248Y27525075D01*
X3191401Y27601505D01*
X3358495Y27768599D01*
X3494035Y27962170D01*
X3593903Y28176337D01*
X3655063Y28404592D01*
X3675659Y28640000D01*
X3655063Y28875408D01*
X3593903Y29103663D01*
X3494035Y29317829D01*
X3489112Y29324861D01*
X3358494Y29511403D01*
X3191402Y29678494D01*
X3191396Y29678499D01*
X3005842Y29808425D01*
X2962217Y29863002D01*
X2955023Y29932500D01*
X2986546Y29994855D01*
X3005842Y30011575D01*
X3044797Y30038852D01*
X3191401Y30141505D01*
X3358495Y30308599D01*
X3494035Y30502170D01*
X3593903Y30716337D01*
X3655063Y30944592D01*
X3675659Y31180000D01*
X3655063Y31415408D01*
X3593903Y31643663D01*
X3494035Y31857829D01*
X3480036Y31877823D01*
X3358494Y32051403D01*
X3191402Y32218494D01*
X3191396Y32218499D01*
X3005842Y32348425D01*
X2962217Y32403002D01*
X2955023Y32472500D01*
X2986546Y32534855D01*
X3005842Y32551575D01*
X3060360Y32589749D01*
X3189252Y32680000D01*
X3774901Y32680000D01*
X3793252Y32493669D01*
X3793253Y32493667D01*
X3847604Y32314498D01*
X3935862Y32149377D01*
X3935864Y32149374D01*
X4054642Y32004643D01*
X4199373Y31885865D01*
X4199376Y31885863D01*
X4364497Y31797605D01*
X4364499Y31797604D01*
X4543666Y31743254D01*
X4543668Y31743253D01*
X4562020Y31741446D01*
X4730000Y31724901D01*
X4916331Y31743253D01*
X5095501Y31797604D01*
X5260625Y31885864D01*
X5340423Y31951354D01*
X5404732Y31978666D01*
X5419088Y31979500D01*
X6056960Y31979500D01*
X6123999Y31959815D01*
X6169754Y31907011D01*
X6173142Y31898833D01*
X6219003Y31775872D01*
X6219007Y31775865D01*
X6305253Y31660656D01*
X6305256Y31660653D01*
X6420465Y31574407D01*
X6420472Y31574403D01*
X6465419Y31557639D01*
X6555318Y31524109D01*
X6614928Y31517700D01*
X7269473Y31517701D01*
X7329084Y31524109D01*
X7463932Y31574404D01*
X7579147Y31660654D01*
X7665397Y31775869D01*
X7715692Y31910717D01*
X7722101Y31970327D01*
X7722100Y33336072D01*
X7715692Y33395683D01*
X7711111Y33407964D01*
X7665398Y33530529D01*
X7665394Y33530536D01*
X7631933Y33575235D01*
X7607516Y33640699D01*
X7607200Y33649545D01*
X7607200Y34333600D01*
X7077800Y34333600D01*
X7077800Y33912700D01*
X7058115Y33845661D01*
X7005311Y33799906D01*
X6953800Y33788700D01*
X6614931Y33788700D01*
X6614924Y33788699D01*
X6555317Y33782292D01*
X6420472Y33731998D01*
X6420465Y33731994D01*
X6305256Y33645748D01*
X6305253Y33645745D01*
X6219007Y33530536D01*
X6219002Y33530527D01*
X6193134Y33461168D01*
X6151263Y33405234D01*
X6085799Y33380816D01*
X6076952Y33380500D01*
X5419088Y33380500D01*
X5352049Y33400185D01*
X5340423Y33408647D01*
X5260626Y33474136D01*
X5260623Y33474138D01*
X5095502Y33562396D01*
X4916333Y33616747D01*
X4916331Y33616748D01*
X4730000Y33635099D01*
X4543668Y33616748D01*
X4543666Y33616747D01*
X4364497Y33562396D01*
X4199376Y33474138D01*
X4199373Y33474136D01*
X4054642Y33355358D01*
X3935864Y33210627D01*
X3935862Y33210624D01*
X3847604Y33045503D01*
X3793253Y32866334D01*
X3793252Y32866332D01*
X3774901Y32680000D01*
X3189252Y32680000D01*
X3191401Y32681505D01*
X3358495Y32848599D01*
X3494035Y33042170D01*
X3593903Y33256337D01*
X3655063Y33484592D01*
X3675659Y33720000D01*
X3674609Y33731996D01*
X3667926Y33808385D01*
X3655063Y33955408D01*
X3627654Y34057701D01*
X3613559Y34110304D01*
X3615222Y34180154D01*
X3645651Y34230076D01*
X4249757Y34834181D01*
X4311081Y34867666D01*
X4337439Y34870500D01*
X6989538Y34870500D01*
X7056577Y34850815D01*
G37*
%TD.AperFunction*%
%TA.AperFunction,Conductor*%
G36*
X12309297Y31974378D02*
G01*
X12342466Y31950684D01*
X12367350Y31925800D01*
X12527916Y31925800D01*
X12594955Y31906115D01*
X12640710Y31853311D01*
X12650654Y31784153D01*
X12621629Y31720597D01*
X12602227Y31702533D01*
X12509806Y31633347D01*
X12509802Y31633344D01*
X12499729Y31619887D01*
X12443795Y31578017D01*
X12400464Y31570200D01*
X12367350Y31570200D01*
X12367350Y31522356D01*
X12373752Y31462823D01*
X12375537Y31455267D01*
X12373064Y31454684D01*
X12377155Y31397330D01*
X12374202Y31387275D01*
X12373258Y31383282D01*
X12366851Y31323682D01*
X12366850Y31323663D01*
X12366850Y30872329D01*
X12366851Y30872323D01*
X12373259Y30812712D01*
X12375042Y30805168D01*
X12372745Y30804626D01*
X12376896Y30746649D01*
X12374440Y30738283D01*
X12373258Y30733283D01*
X12366851Y30673683D01*
X12366851Y30673674D01*
X12366850Y30673664D01*
X12366850Y30222330D01*
X12366851Y30222324D01*
X12373259Y30162716D01*
X12375042Y30155171D01*
X12372749Y30154630D01*
X12376891Y30096627D01*
X12374436Y30088268D01*
X12373258Y30083282D01*
X12368482Y30038852D01*
X12366851Y30023673D01*
X12366850Y30023663D01*
X12366850Y29572329D01*
X12366851Y29572323D01*
X12373258Y29512720D01*
X12375042Y29505173D01*
X12372962Y29504682D01*
X12377156Y29445908D01*
X12375127Y29439000D01*
X12373751Y29433176D01*
X12367350Y29373645D01*
X12367350Y29325800D01*
X12400462Y29325800D01*
X12467501Y29306115D01*
X12499728Y29276112D01*
X12509800Y29262657D01*
X12509802Y29262656D01*
X12509804Y29262653D01*
X12602225Y29193467D01*
X12644096Y29137533D01*
X12649080Y29067841D01*
X12615595Y29006518D01*
X12554271Y28973034D01*
X12527914Y28970200D01*
X12367350Y28970200D01*
X12367350Y28922359D01*
X12371480Y28883957D01*
X12359076Y28815197D01*
X12311466Y28764059D01*
X12248191Y28746700D01*
X11195981Y28746700D01*
X11128942Y28766385D01*
X11083187Y28819189D01*
X11073243Y28888347D01*
X11102268Y28951903D01*
X11143577Y28983082D01*
X11252478Y29033864D01*
X11325472Y29084975D01*
X10644401Y29766047D01*
X10725148Y29778835D01*
X10838045Y29836359D01*
X10927641Y29925955D01*
X10985165Y30038852D01*
X10997953Y30119600D01*
X11679025Y29438528D01*
X11730136Y29511522D01*
X11826264Y29717669D01*
X11826269Y29717683D01*
X11885139Y29937390D01*
X11885141Y29937401D01*
X11904966Y30163998D01*
X11904966Y30164003D01*
X11885141Y30390600D01*
X11885139Y30390611D01*
X11826269Y30610318D01*
X11826265Y30610327D01*
X11730133Y30816484D01*
X11730131Y30816488D01*
X11679026Y30889474D01*
X11679025Y30889474D01*
X10997953Y30208402D01*
X10985165Y30289148D01*
X10927641Y30402045D01*
X10838045Y30491641D01*
X10725148Y30549165D01*
X10644400Y30561954D01*
X11325472Y31243026D01*
X11325471Y31243027D01*
X11252483Y31294134D01*
X11252481Y31294135D01*
X11046326Y31390266D01*
X11046317Y31390270D01*
X10826610Y31449140D01*
X10826599Y31449142D01*
X10600002Y31468966D01*
X10599998Y31468966D01*
X10373400Y31449142D01*
X10373389Y31449140D01*
X10153682Y31390270D01*
X10153673Y31390266D01*
X9947513Y31294132D01*
X9874527Y31243028D01*
X9874526Y31243027D01*
X10555600Y30561954D01*
X10474852Y30549165D01*
X10361955Y30491641D01*
X10272359Y30402045D01*
X10214835Y30289148D01*
X10202046Y30208402D01*
X9520973Y30889474D01*
X9469868Y30816487D01*
X9373734Y30610327D01*
X9373730Y30610318D01*
X9314860Y30390611D01*
X9314858Y30390600D01*
X9295034Y30164003D01*
X9295034Y30163998D01*
X9314858Y29937401D01*
X9314860Y29937390D01*
X9373730Y29717683D01*
X9373734Y29717674D01*
X9469865Y29511519D01*
X9469866Y29511517D01*
X9520973Y29438529D01*
X9520973Y29438528D01*
X10202046Y30119601D01*
X10214835Y30038852D01*
X10272359Y29925955D01*
X10361955Y29836359D01*
X10474852Y29778835D01*
X10555599Y29766047D01*
X9874526Y29084975D01*
X9874526Y29084974D01*
X9947512Y29033869D01*
X9947516Y29033867D01*
X10056424Y28983082D01*
X10108863Y28936910D01*
X10128015Y28869716D01*
X10107799Y28802835D01*
X10054634Y28757500D01*
X10004019Y28746700D01*
X7120275Y28746700D01*
X7053236Y28766385D01*
X7032594Y28783019D01*
X7013830Y28801783D01*
X6860612Y28898057D01*
X6689812Y28957822D01*
X6689807Y28957823D01*
X6535134Y28975250D01*
X6470720Y29002317D01*
X6431165Y29059911D01*
X6429028Y29129748D01*
X6461335Y29186150D01*
X6600047Y29324861D01*
X6634227Y29373675D01*
X6660098Y29410623D01*
X6714675Y29454248D01*
X6761673Y29463500D01*
X7410952Y29463500D01*
X7414697Y29463387D01*
X7422042Y29462943D01*
X7476606Y29459642D01*
X7514314Y29466553D01*
X7537621Y29470823D01*
X7541325Y29471387D01*
X7559170Y29473554D01*
X7602872Y29478860D01*
X7612335Y29482450D01*
X7633961Y29488478D01*
X7634893Y29488649D01*
X7643932Y29490305D01*
X7700512Y29515771D01*
X7703942Y29517191D01*
X7761930Y29539182D01*
X7770266Y29544938D01*
X7789821Y29555966D01*
X7799057Y29560122D01*
X7847896Y29598387D01*
X7850876Y29600579D01*
X7901929Y29635817D01*
X7943065Y29682252D01*
X7945599Y29684944D01*
X9251255Y30990600D01*
X9253947Y30993134D01*
X9300382Y31034270D01*
X9335635Y31085344D01*
X9337812Y31088303D01*
X9376077Y31137142D01*
X9380236Y31146384D01*
X9391261Y31165931D01*
X9397017Y31174269D01*
X9419019Y31232287D01*
X9420434Y31235704D01*
X9445893Y31292267D01*
X9447719Y31302234D01*
X9453747Y31323859D01*
X9457339Y31333327D01*
X9463889Y31387275D01*
X9464814Y31394890D01*
X9465378Y31398594D01*
X9469849Y31422997D01*
X9476556Y31459593D01*
X9472812Y31521492D01*
X9472699Y31525236D01*
X9472699Y31704280D01*
X9491393Y31767946D01*
X9491143Y31768082D01*
X9491771Y31769234D01*
X9492384Y31771319D01*
X9494851Y31774874D01*
X9495392Y31775865D01*
X9495391Y31775865D01*
X9495395Y31775869D01*
X9531262Y31872035D01*
X9573134Y31927967D01*
X9638598Y31952384D01*
X9647444Y31952700D01*
X10827013Y31952700D01*
X10894052Y31933015D01*
X10905678Y31924553D01*
X10989373Y31855865D01*
X10989380Y31855861D01*
X11140898Y31774874D01*
X11154499Y31767604D01*
X11333666Y31713254D01*
X11333668Y31713253D01*
X11350374Y31711608D01*
X11520000Y31694901D01*
X11706331Y31713253D01*
X11885501Y31767604D01*
X12050625Y31855864D01*
X12176121Y31958857D01*
X12240429Y31986169D01*
X12309297Y31974378D01*
G37*
%TD.AperFunction*%
%TA.AperFunction,Conductor*%
G36*
X18632640Y46429815D02*
G01*
X18678395Y46377011D01*
X18688339Y46307853D01*
X18659314Y46244297D01*
X18630878Y46220073D01*
X18553439Y46172126D01*
X18553437Y46172124D01*
X18389020Y46022239D01*
X18254943Y45844692D01*
X18254938Y45844684D01*
X18155775Y45645539D01*
X18155769Y45645524D01*
X18094885Y45431538D01*
X18094884Y45431536D01*
X18074357Y45210001D01*
X18074357Y45210000D01*
X18094884Y44988465D01*
X18094885Y44988463D01*
X18155769Y44774477D01*
X18155775Y44774462D01*
X18254938Y44575317D01*
X18254943Y44575309D01*
X18389020Y44397762D01*
X18532815Y44266676D01*
X18551994Y44249192D01*
X18553437Y44247877D01*
X18553439Y44247875D01*
X18742595Y44130755D01*
X18742596Y44130755D01*
X18742599Y44130753D01*
X18950060Y44050382D01*
X19168757Y44009500D01*
X19168759Y44009500D01*
X19391241Y44009500D01*
X19391243Y44009500D01*
X19609940Y44050382D01*
X19817401Y44130753D01*
X20006562Y44247876D01*
X20170981Y44397764D01*
X20305058Y44575311D01*
X20404229Y44774472D01*
X20465115Y44988464D01*
X20485643Y45210000D01*
X20465115Y45431536D01*
X20404229Y45645528D01*
X20404224Y45645539D01*
X20305061Y45844684D01*
X20305056Y45844692D01*
X20170981Y46022236D01*
X20151233Y46040239D01*
X20114953Y46099951D01*
X20116714Y46169798D01*
X20155959Y46227605D01*
X20220226Y46255019D01*
X20270766Y46250536D01*
X20371187Y46220073D01*
X20393666Y46213254D01*
X20393668Y46213253D01*
X20410374Y46211608D01*
X20580000Y46194901D01*
X20766331Y46213253D01*
X20945501Y46267604D01*
X21050676Y46323821D01*
X21115997Y46358735D01*
X21117338Y46356226D01*
X21172255Y46373570D01*
X21239680Y46355253D01*
X21286500Y46303390D01*
X21298304Y46260404D01*
X21304936Y46184597D01*
X21304938Y46184587D01*
X21366094Y45956345D01*
X21366096Y45956341D01*
X21366097Y45956337D01*
X21465965Y45742171D01*
X21465965Y45742170D01*
X21465967Y45742166D01*
X21601501Y45548605D01*
X21601506Y45548598D01*
X21768597Y45381507D01*
X21768603Y45381502D01*
X21954158Y45251575D01*
X21997783Y45196998D01*
X22004977Y45127500D01*
X21973454Y45065145D01*
X21954158Y45048425D01*
X21768597Y44918495D01*
X21601505Y44751403D01*
X21465965Y44557831D01*
X21465964Y44557829D01*
X21366098Y44343665D01*
X21366094Y44343656D01*
X21304938Y44115414D01*
X21304936Y44115404D01*
X21284341Y43880001D01*
X21284341Y43880000D01*
X21304936Y43644597D01*
X21304938Y43644587D01*
X21366094Y43416345D01*
X21366096Y43416341D01*
X21366097Y43416337D01*
X21416684Y43307853D01*
X21465965Y43202170D01*
X21465967Y43202166D01*
X21601501Y43008605D01*
X21601506Y43008598D01*
X21768597Y42841507D01*
X21768603Y42841502D01*
X21954158Y42711575D01*
X21997783Y42656998D01*
X22004977Y42587500D01*
X21973454Y42525145D01*
X21954158Y42508425D01*
X21768597Y42378495D01*
X21601505Y42211403D01*
X21465965Y42017831D01*
X21465964Y42017829D01*
X21366098Y41803665D01*
X21366094Y41803656D01*
X21304938Y41575414D01*
X21304936Y41575404D01*
X21284341Y41340001D01*
X21284341Y41340000D01*
X21304936Y41104597D01*
X21304938Y41104587D01*
X21366094Y40876345D01*
X21366096Y40876341D01*
X21366097Y40876337D01*
X21443895Y40709500D01*
X21465965Y40662170D01*
X21465967Y40662166D01*
X21601501Y40468605D01*
X21601506Y40468598D01*
X21768597Y40301507D01*
X21768603Y40301502D01*
X21954158Y40171575D01*
X21997783Y40116998D01*
X22004977Y40047500D01*
X21973454Y39985145D01*
X21954158Y39968425D01*
X21768597Y39838495D01*
X21601505Y39671403D01*
X21465965Y39477831D01*
X21465964Y39477829D01*
X21366098Y39263665D01*
X21366094Y39263656D01*
X21304938Y39035414D01*
X21304936Y39035404D01*
X21284341Y38800001D01*
X21284341Y38800000D01*
X21304936Y38564597D01*
X21304938Y38564587D01*
X21366094Y38336345D01*
X21366096Y38336341D01*
X21366097Y38336337D01*
X21404759Y38253427D01*
X21465965Y38122170D01*
X21465967Y38122166D01*
X21601501Y37928605D01*
X21601506Y37928598D01*
X21768597Y37761507D01*
X21768603Y37761502D01*
X21954158Y37631575D01*
X21997783Y37576998D01*
X22004977Y37507500D01*
X21973454Y37445145D01*
X21954158Y37428425D01*
X21768597Y37298495D01*
X21601505Y37131403D01*
X21465965Y36937831D01*
X21465964Y36937829D01*
X21366098Y36723665D01*
X21366094Y36723656D01*
X21304938Y36495414D01*
X21304936Y36495404D01*
X21284341Y36260001D01*
X21284341Y36260000D01*
X21304936Y36024597D01*
X21304938Y36024587D01*
X21366094Y35796345D01*
X21366096Y35796341D01*
X21366097Y35796337D01*
X21425062Y35669887D01*
X21465965Y35582170D01*
X21465967Y35582166D01*
X21601501Y35388605D01*
X21601506Y35388598D01*
X21768597Y35221507D01*
X21768603Y35221502D01*
X21954158Y35091575D01*
X21997783Y35036998D01*
X22004977Y34967500D01*
X21973454Y34905145D01*
X21954158Y34888425D01*
X21768597Y34758495D01*
X21601505Y34591403D01*
X21465965Y34397831D01*
X21465964Y34397829D01*
X21366098Y34183665D01*
X21366094Y34183656D01*
X21304938Y33955414D01*
X21304936Y33955404D01*
X21284341Y33720001D01*
X21284341Y33720000D01*
X21304936Y33484597D01*
X21304938Y33484587D01*
X21366094Y33256345D01*
X21366096Y33256341D01*
X21366097Y33256337D01*
X21449156Y33078217D01*
X21465965Y33042170D01*
X21465967Y33042166D01*
X21601501Y32848605D01*
X21601506Y32848598D01*
X21768597Y32681507D01*
X21768603Y32681502D01*
X21954158Y32551575D01*
X21997783Y32496998D01*
X22004977Y32427500D01*
X21973454Y32365145D01*
X21954158Y32348425D01*
X21768597Y32218495D01*
X21601503Y32051401D01*
X21598026Y32047256D01*
X21596409Y32048612D01*
X21548966Y32010691D01*
X21479467Y32003500D01*
X21417113Y32035025D01*
X21381702Y32095256D01*
X21378752Y32111558D01*
X21377822Y32119807D01*
X21377821Y32119813D01*
X21377821Y32119815D01*
X21318056Y32290613D01*
X21221783Y32443830D01*
X21203769Y32461844D01*
X21170284Y32523167D01*
X21168511Y32565710D01*
X21171676Y32589747D01*
X21166700Y32627544D01*
X21151856Y32740296D01*
X21093746Y32880585D01*
X21045057Y32944038D01*
X21024515Y32970809D01*
X21022043Y32974031D01*
X21022042Y32974031D01*
X21001307Y33001054D01*
X20992062Y33008148D01*
X20974283Y33021791D01*
X20968180Y33027144D01*
X20769527Y33225797D01*
X20569133Y33426191D01*
X20563789Y33432286D01*
X20543055Y33459306D01*
X20528362Y33470580D01*
X20487160Y33527008D01*
X20479849Y33568955D01*
X20479849Y33923667D01*
X20479848Y33923673D01*
X20473440Y33983284D01*
X20471658Y33990827D01*
X20473953Y33991370D01*
X20469804Y34049352D01*
X20472256Y34057701D01*
X20473438Y34062707D01*
X20473441Y34062714D01*
X20479850Y34122324D01*
X20479849Y34573669D01*
X20473441Y34633280D01*
X20473441Y34633281D01*
X20471657Y34640831D01*
X20473952Y34641374D01*
X20469807Y34699360D01*
X20472257Y34707707D01*
X20473439Y34712707D01*
X20473439Y34712708D01*
X20473441Y34712713D01*
X20479850Y34772323D01*
X20479849Y35223668D01*
X20473441Y35283279D01*
X20473440Y35283281D01*
X20423147Y35418125D01*
X20423143Y35418132D01*
X20336897Y35533341D01*
X20336894Y35533344D01*
X20221685Y35619590D01*
X20221678Y35619594D01*
X20086832Y35669888D01*
X20086833Y35669888D01*
X20027233Y35676295D01*
X20027231Y35676296D01*
X20027223Y35676296D01*
X20027215Y35676296D01*
X19126700Y35676296D01*
X19059661Y35695981D01*
X19013906Y35748785D01*
X19002700Y35800296D01*
X19002700Y35942708D01*
X19022385Y36009747D01*
X19055574Y36044281D01*
X19241339Y36174353D01*
X19402247Y36335261D01*
X19532768Y36521666D01*
X19628939Y36727904D01*
X19687835Y36947708D01*
X19707668Y37174400D01*
X19687835Y37401092D01*
X19628939Y37620896D01*
X19532768Y37827134D01*
X19402247Y38013539D01*
X19402245Y38013542D01*
X19241341Y38174446D01*
X19054934Y38304968D01*
X19054932Y38304969D01*
X18848697Y38401139D01*
X18848688Y38401142D01*
X18628897Y38460034D01*
X18628893Y38460035D01*
X18628892Y38460035D01*
X18628891Y38460036D01*
X18628886Y38460036D01*
X18402202Y38479868D01*
X18402198Y38479868D01*
X18170317Y38459581D01*
X18101817Y38473348D01*
X18071829Y38495428D01*
X17693588Y38873669D01*
X17028198Y39539059D01*
X17025664Y39541750D01*
X16984529Y39588183D01*
X16984528Y39588184D01*
X16984524Y39588188D01*
X16933496Y39623409D01*
X16930487Y39625623D01*
X16881660Y39663876D01*
X16881655Y39663880D01*
X16872413Y39668039D01*
X16852866Y39679064D01*
X16844531Y39684817D01*
X16844532Y39684817D01*
X16844530Y39684818D01*
X16786541Y39706811D01*
X16783090Y39708241D01*
X16726530Y39733696D01*
X16716546Y39735526D01*
X16694943Y39741549D01*
X16685474Y39745140D01*
X16685470Y39745141D01*
X16623913Y39752616D01*
X16620212Y39753179D01*
X16559208Y39764358D01*
X16559203Y39764358D01*
X16497297Y39760613D01*
X16493552Y39760500D01*
X12249088Y39760500D01*
X12182049Y39780185D01*
X12170423Y39788647D01*
X12090626Y39854136D01*
X12090623Y39854138D01*
X11925502Y39942396D01*
X11746333Y39996747D01*
X11746331Y39996748D01*
X11560000Y40015099D01*
X11373668Y39996748D01*
X11373666Y39996747D01*
X11194497Y39942396D01*
X11029376Y39854138D01*
X11029373Y39854136D01*
X10884642Y39735358D01*
X10765864Y39590627D01*
X10765862Y39590624D01*
X10677604Y39425503D01*
X10623253Y39246334D01*
X10623252Y39246332D01*
X10604901Y39060000D01*
X10623252Y38873669D01*
X10623253Y38873667D01*
X10677604Y38694498D01*
X10765862Y38529377D01*
X10765864Y38529374D01*
X10884642Y38384643D01*
X11029373Y38265865D01*
X11029376Y38265863D01*
X11194497Y38177605D01*
X11194499Y38177604D01*
X11373666Y38123254D01*
X11373668Y38123253D01*
X11384665Y38122170D01*
X11560000Y38104901D01*
X11746331Y38123253D01*
X11925501Y38177604D01*
X12090625Y38265864D01*
X12170423Y38331354D01*
X12234732Y38358666D01*
X12249088Y38359500D01*
X15050685Y38359500D01*
X15117724Y38339815D01*
X15163479Y38287011D01*
X15167710Y38262444D01*
X15857799Y37572354D01*
X15777052Y37559565D01*
X15664155Y37502041D01*
X15574559Y37412445D01*
X15517035Y37299548D01*
X15504246Y37218801D01*
X14823173Y37899874D01*
X14823172Y37899873D01*
X14772068Y37826887D01*
X14675934Y37620727D01*
X14675930Y37620718D01*
X14617060Y37401011D01*
X14617058Y37401000D01*
X14597234Y37174403D01*
X14597234Y37174398D01*
X14617058Y36947801D01*
X14617060Y36947790D01*
X14675930Y36728083D01*
X14675934Y36728074D01*
X14772065Y36521919D01*
X14772066Y36521917D01*
X14823173Y36448929D01*
X14823174Y36448928D01*
X15504246Y37130001D01*
X15517035Y37049252D01*
X15574559Y36936355D01*
X15664155Y36846759D01*
X15777052Y36789235D01*
X15857799Y36776447D01*
X15176726Y36095375D01*
X15176726Y36095374D01*
X15249712Y36044269D01*
X15249716Y36044267D01*
X15455873Y35948135D01*
X15455882Y35948131D01*
X15675589Y35889261D01*
X15675600Y35889259D01*
X15902198Y35869434D01*
X15902202Y35869434D01*
X16128799Y35889259D01*
X16128810Y35889261D01*
X16348517Y35948131D01*
X16348531Y35948136D01*
X16554678Y36044264D01*
X16627672Y36095375D01*
X15946601Y36776447D01*
X16027348Y36789235D01*
X16140245Y36846759D01*
X16229841Y36936355D01*
X16287365Y37049252D01*
X16300153Y37130000D01*
X16981225Y36448928D01*
X17032334Y36521919D01*
X17039540Y36537372D01*
X17085711Y36589813D01*
X17152904Y36608967D01*
X17219785Y36588754D01*
X17264305Y36537378D01*
X17271630Y36521670D01*
X17271632Y36521666D01*
X17402154Y36335259D01*
X17563058Y36174355D01*
X17563061Y36174353D01*
X17748824Y36044282D01*
X17792448Y35989707D01*
X17801700Y35942708D01*
X17801700Y35048697D01*
X17782015Y34981658D01*
X17729211Y34935903D01*
X17677700Y34924697D01*
X15860275Y34924697D01*
X15793236Y34944382D01*
X15772594Y34961016D01*
X15753830Y34979780D01*
X15600612Y35076054D01*
X15429812Y35135819D01*
X15429806Y35135820D01*
X15250004Y35156078D01*
X15249996Y35156078D01*
X15070193Y35135820D01*
X15070187Y35135819D01*
X14899387Y35076054D01*
X14865921Y35055025D01*
X14798685Y35036025D01*
X14731849Y35056393D01*
X14686635Y35109660D01*
X14675949Y35160019D01*
X14675949Y35223669D01*
X14675949Y35223670D01*
X14669541Y35283281D01*
X14630260Y35388598D01*
X14619247Y35418127D01*
X14619243Y35418134D01*
X14532997Y35533343D01*
X14532994Y35533346D01*
X14417785Y35619592D01*
X14417778Y35619596D01*
X14282932Y35669890D01*
X14282933Y35669890D01*
X14223333Y35676297D01*
X14223331Y35676298D01*
X14223323Y35676298D01*
X14223315Y35676298D01*
X13710039Y35676298D01*
X13643000Y35695983D01*
X13622358Y35712617D01*
X13586190Y35748785D01*
X13509581Y35825394D01*
X13504237Y35831489D01*
X13497216Y35840638D01*
X13483505Y35858507D01*
X13363036Y35950946D01*
X13363035Y35950947D01*
X13363033Y35950948D01*
X13222747Y36009056D01*
X13222745Y36009057D01*
X13109995Y36023900D01*
X13072199Y36028876D01*
X13072197Y36028876D01*
X13059203Y36027166D01*
X13038432Y36024431D01*
X13030334Y36023900D01*
X9797709Y36023900D01*
X9730670Y36043585D01*
X9710028Y36060219D01*
X8993801Y36776447D01*
X9074548Y36789235D01*
X9187445Y36846759D01*
X9277041Y36936355D01*
X9334565Y37049252D01*
X9347353Y37130001D01*
X10028425Y36448928D01*
X10079536Y36521922D01*
X10175664Y36728069D01*
X10175669Y36728083D01*
X10234539Y36947790D01*
X10234541Y36947801D01*
X10254366Y37174398D01*
X10254366Y37174403D01*
X10234541Y37401000D01*
X10234539Y37401011D01*
X10175669Y37620718D01*
X10175665Y37620727D01*
X10079533Y37826884D01*
X10079531Y37826888D01*
X10028426Y37899874D01*
X10028425Y37899874D01*
X9347353Y37218803D01*
X9334565Y37299548D01*
X9277041Y37412445D01*
X9187445Y37502041D01*
X9074548Y37559565D01*
X8993800Y37572354D01*
X9674872Y38253426D01*
X9674871Y38253427D01*
X9601883Y38304534D01*
X9601881Y38304535D01*
X9395726Y38400666D01*
X9395717Y38400670D01*
X9176010Y38459540D01*
X9175999Y38459542D01*
X8949402Y38479366D01*
X8949398Y38479366D01*
X8722800Y38459542D01*
X8722789Y38459540D01*
X8503082Y38400670D01*
X8503073Y38400666D01*
X8296913Y38304532D01*
X8223927Y38253428D01*
X8223926Y38253427D01*
X8905000Y37572354D01*
X8824252Y37559565D01*
X8711355Y37502041D01*
X8621759Y37412445D01*
X8564235Y37299548D01*
X8551446Y37218801D01*
X7870373Y37899874D01*
X7870372Y37899873D01*
X7819268Y37826888D01*
X7812056Y37811421D01*
X7765882Y37758983D01*
X7698688Y37739833D01*
X7631807Y37760050D01*
X7587293Y37811424D01*
X7579968Y37827134D01*
X7449447Y38013539D01*
X7449445Y38013542D01*
X7288541Y38174446D01*
X7102134Y38304968D01*
X7102132Y38304969D01*
X6895897Y38401139D01*
X6895888Y38401142D01*
X6676097Y38460034D01*
X6676093Y38460035D01*
X6676092Y38460035D01*
X6676091Y38460036D01*
X6676086Y38460036D01*
X6449402Y38479868D01*
X6449398Y38479868D01*
X6222713Y38460036D01*
X6222702Y38460034D01*
X6002911Y38401142D01*
X6002902Y38401139D01*
X5796667Y38304969D01*
X5796665Y38304968D01*
X5610258Y38174446D01*
X5449354Y38013542D01*
X5318832Y37827135D01*
X5318831Y37827133D01*
X5222661Y37620898D01*
X5222658Y37620889D01*
X5163766Y37401098D01*
X5163764Y37401087D01*
X5143932Y37174402D01*
X5143932Y37174399D01*
X5163764Y36947714D01*
X5163766Y36947703D01*
X5222658Y36727912D01*
X5222661Y36727903D01*
X5318831Y36521668D01*
X5318832Y36521666D01*
X5449354Y36335259D01*
X5549032Y36235581D01*
X5582517Y36174258D01*
X5577533Y36104566D01*
X5535661Y36048633D01*
X5470197Y36024216D01*
X5461351Y36023900D01*
X4089064Y36023900D01*
X4080965Y36024431D01*
X4060194Y36027166D01*
X4047201Y36028876D01*
X4047199Y36028876D01*
X4009403Y36023900D01*
X3896650Y36009056D01*
X3855559Y35992036D01*
X3833355Y35982840D01*
X3763886Y35975373D01*
X3701407Y36006650D01*
X3665757Y36066740D01*
X3662378Y36108206D01*
X3675659Y36260000D01*
X3655063Y36495408D01*
X3593903Y36723663D01*
X3494035Y36937829D01*
X3487122Y36947703D01*
X3358494Y37131403D01*
X3191402Y37298494D01*
X3191396Y37298499D01*
X3005842Y37428425D01*
X2962217Y37483002D01*
X2955023Y37552500D01*
X2986546Y37614855D01*
X3005842Y37631575D01*
X3187799Y37758983D01*
X3191401Y37761505D01*
X3358495Y37928599D01*
X3494035Y38122170D01*
X3593903Y38336337D01*
X3655063Y38564592D01*
X3675659Y38800000D01*
X3655063Y39035408D01*
X3593903Y39263663D01*
X3494035Y39477829D01*
X3450247Y39540366D01*
X3358494Y39671403D01*
X3191402Y39838494D01*
X3191396Y39838499D01*
X3005842Y39968425D01*
X2962217Y40023002D01*
X2955023Y40092500D01*
X2986546Y40154855D01*
X3005842Y40171575D01*
X3028026Y40187109D01*
X3191401Y40301505D01*
X3358495Y40468599D01*
X3494035Y40662170D01*
X3593903Y40876337D01*
X3655063Y41104592D01*
X3675659Y41340000D01*
X3655063Y41575408D01*
X3595384Y41798135D01*
X3593905Y41803656D01*
X3593904Y41803657D01*
X3593903Y41803663D01*
X3494035Y42017829D01*
X3438301Y42097427D01*
X3436500Y42099999D01*
X5020204Y42099999D01*
X5020399Y42097514D01*
X5066218Y41939802D01*
X5149814Y41798448D01*
X5149821Y41798439D01*
X5265938Y41682322D01*
X5265947Y41682315D01*
X5407303Y41598718D01*
X5407306Y41598717D01*
X5565004Y41552901D01*
X5565010Y41552900D01*
X5601850Y41550001D01*
X5601866Y41550000D01*
X5930000Y41550000D01*
X5930000Y42100000D01*
X5020205Y42100000D01*
X5020204Y42099999D01*
X3436500Y42099999D01*
X3358494Y42211403D01*
X3191402Y42378494D01*
X3191396Y42378499D01*
X3005842Y42508425D01*
X2962217Y42563002D01*
X2958387Y42600002D01*
X5020204Y42600002D01*
X5020205Y42600000D01*
X5930000Y42600000D01*
X5930000Y43050000D01*
X5020205Y43050000D01*
X5020204Y43049999D01*
X5020399Y43047512D01*
X5020400Y43047506D01*
X5066216Y42889807D01*
X5066222Y42889792D01*
X5067216Y42888112D01*
X5067593Y42886625D01*
X5069317Y42882641D01*
X5068674Y42882363D01*
X5084393Y42820387D01*
X5068878Y42767549D01*
X5069317Y42767359D01*
X5067778Y42763804D01*
X5067216Y42761888D01*
X5066222Y42760209D01*
X5066216Y42760194D01*
X5020400Y42602495D01*
X5020399Y42602489D01*
X5020204Y42600002D01*
X2958387Y42600002D01*
X2955023Y42632500D01*
X2986546Y42694855D01*
X3005842Y42711575D01*
X3077696Y42761888D01*
X3191401Y42841505D01*
X3358495Y43008599D01*
X3494035Y43202170D01*
X3593903Y43416337D01*
X3597515Y43429815D01*
X3622717Y43523874D01*
X3659081Y43583535D01*
X3721928Y43614065D01*
X3791304Y43605771D01*
X3808465Y43596775D01*
X3940688Y43513693D01*
X3959387Y43501944D01*
X4130185Y43442179D01*
X4130191Y43442179D01*
X4130193Y43442178D01*
X4309996Y43421919D01*
X4310000Y43421919D01*
X4310004Y43421919D01*
X4489806Y43442178D01*
X4489805Y43442178D01*
X4489815Y43442179D01*
X4660613Y43501944D01*
X4813830Y43598217D01*
X4813841Y43598229D01*
X4816841Y43600620D01*
X4819162Y43601568D01*
X4819726Y43601922D01*
X4819787Y43601824D01*
X4881526Y43627033D01*
X4950222Y43614281D01*
X4985217Y43587849D01*
X5020204Y43550000D01*
X5285685Y43550000D01*
X5348806Y43532732D01*
X5407102Y43498256D01*
X5425324Y43492962D01*
X5564926Y43452403D01*
X5564929Y43452403D01*
X5564931Y43452402D01*
X5601806Y43449500D01*
X5601814Y43449500D01*
X6758186Y43449500D01*
X6758194Y43449500D01*
X6795069Y43452402D01*
X6795071Y43452403D01*
X6795073Y43452403D01*
X6836691Y43464495D01*
X6952898Y43498256D01*
X7011193Y43532732D01*
X7074315Y43550000D01*
X7339794Y43550000D01*
X7364057Y43576248D01*
X7424018Y43612115D01*
X7493852Y43609871D01*
X7533512Y43585470D01*
X7534469Y43586702D01*
X7540632Y43581922D01*
X7540635Y43581919D01*
X7682102Y43498256D01*
X7700324Y43492962D01*
X7839926Y43452403D01*
X7839929Y43452403D01*
X7839931Y43452402D01*
X7876806Y43449500D01*
X8439561Y43449500D01*
X8506600Y43429815D01*
X8552355Y43377011D01*
X8562299Y43307853D01*
X8533274Y43244297D01*
X8527242Y43237819D01*
X8476242Y43186819D01*
X8414919Y43153334D01*
X8388561Y43150500D01*
X7876798Y43150500D01*
X7839932Y43147599D01*
X7839926Y43147598D01*
X7682106Y43101746D01*
X7682103Y43101745D01*
X7540637Y43018083D01*
X7534469Y43013298D01*
X7533164Y43014981D01*
X7481454Y42986754D01*
X7411763Y42991749D01*
X7364058Y43023753D01*
X7339796Y43050000D01*
X6430000Y43050000D01*
X6430000Y41550000D01*
X6440412Y41539588D01*
X6473897Y41478265D01*
X6468913Y41408573D01*
X6427041Y41352640D01*
X6366615Y41328687D01*
X6270192Y41317823D01*
X6270187Y41317822D01*
X6099387Y41258057D01*
X5946169Y41161783D01*
X5818217Y41033831D01*
X5721943Y40880613D01*
X5662178Y40709813D01*
X5662177Y40709807D01*
X5641919Y40530004D01*
X5641919Y40529997D01*
X5662177Y40350194D01*
X5662178Y40350188D01*
X5721943Y40179388D01*
X5761146Y40116998D01*
X5818217Y40026170D01*
X5946170Y39898217D01*
X6099387Y39801944D01*
X6270185Y39742179D01*
X6270191Y39742179D01*
X6270193Y39742178D01*
X6449996Y39721919D01*
X6450000Y39721919D01*
X6450004Y39721919D01*
X6629806Y39742178D01*
X6629805Y39742178D01*
X6629815Y39742179D01*
X6800613Y39801944D01*
X6814219Y39810494D01*
X6880192Y39829500D01*
X9469808Y39829500D01*
X9535780Y39810494D01*
X9549387Y39801944D01*
X9720185Y39742179D01*
X9720191Y39742179D01*
X9720193Y39742178D01*
X9899996Y39721919D01*
X9900000Y39721919D01*
X9900004Y39721919D01*
X10079806Y39742178D01*
X10079805Y39742178D01*
X10079815Y39742179D01*
X10250613Y39801944D01*
X10403830Y39898217D01*
X10531783Y40026170D01*
X10628056Y40179387D01*
X10687821Y40350185D01*
X10708081Y40530000D01*
X10687856Y40709500D01*
X10687822Y40709807D01*
X10687821Y40709813D01*
X10687821Y40709815D01*
X10657018Y40797842D01*
X10653457Y40867620D01*
X10688185Y40928247D01*
X10750179Y40960475D01*
X10819754Y40954070D01*
X10839337Y40944223D01*
X11022595Y40830755D01*
X11022596Y40830755D01*
X11022599Y40830753D01*
X11230060Y40750382D01*
X11448757Y40709500D01*
X11448759Y40709500D01*
X11671241Y40709500D01*
X11671243Y40709500D01*
X11889940Y40750382D01*
X12097401Y40830753D01*
X12286562Y40947876D01*
X12450981Y41097764D01*
X12585058Y41275311D01*
X12684229Y41474472D01*
X12745115Y41688464D01*
X12765643Y41910000D01*
X17974357Y41910000D01*
X17994884Y41688465D01*
X17994885Y41688463D01*
X18055769Y41474477D01*
X18055775Y41474462D01*
X18154938Y41275317D01*
X18154943Y41275309D01*
X18289020Y41097762D01*
X18453437Y40947877D01*
X18453439Y40947875D01*
X18642595Y40830755D01*
X18642596Y40830755D01*
X18642599Y40830753D01*
X18850060Y40750382D01*
X19068757Y40709500D01*
X19068759Y40709500D01*
X19291241Y40709500D01*
X19291243Y40709500D01*
X19509940Y40750382D01*
X19717401Y40830753D01*
X19906562Y40947876D01*
X20070981Y41097764D01*
X20205058Y41275311D01*
X20304229Y41474472D01*
X20365115Y41688464D01*
X20385643Y41910000D01*
X20365115Y42131536D01*
X20304229Y42345528D01*
X20287814Y42378494D01*
X20205061Y42544684D01*
X20205056Y42544692D01*
X20070979Y42722239D01*
X19906562Y42872124D01*
X19906560Y42872126D01*
X19717404Y42989246D01*
X19717398Y42989248D01*
X19509940Y43069618D01*
X19291243Y43110500D01*
X19068757Y43110500D01*
X18850060Y43069618D01*
X18731669Y43023753D01*
X18642601Y42989248D01*
X18642595Y42989246D01*
X18453439Y42872126D01*
X18453437Y42872124D01*
X18289020Y42722239D01*
X18154943Y42544692D01*
X18154938Y42544684D01*
X18055775Y42345539D01*
X18055769Y42345524D01*
X17994885Y42131538D01*
X17994884Y42131536D01*
X17974357Y41910001D01*
X17974357Y41910000D01*
X12765643Y41910000D01*
X12762881Y41939802D01*
X12745115Y42131536D01*
X12745114Y42131538D01*
X12744328Y42134299D01*
X12684229Y42345528D01*
X12667814Y42378494D01*
X12585061Y42544684D01*
X12585056Y42544692D01*
X12450979Y42722239D01*
X12286562Y42872124D01*
X12286560Y42872126D01*
X12097404Y42989246D01*
X12097398Y42989248D01*
X11889940Y43069618D01*
X11671243Y43110500D01*
X11448757Y43110500D01*
X11230060Y43069618D01*
X11111669Y43023753D01*
X11022601Y42989248D01*
X11022595Y42989246D01*
X10833439Y42872126D01*
X10833437Y42872124D01*
X10669020Y42722239D01*
X10534943Y42544692D01*
X10534938Y42544684D01*
X10435775Y42345539D01*
X10435769Y42345524D01*
X10374885Y42131538D01*
X10374884Y42131536D01*
X10354357Y41910001D01*
X10354357Y41910000D01*
X10374884Y41688465D01*
X10374885Y41688463D01*
X10435769Y41474477D01*
X10435777Y41474457D01*
X10480188Y41385268D01*
X10492449Y41316483D01*
X10465576Y41251988D01*
X10408100Y41212261D01*
X10338269Y41209914D01*
X10303215Y41225004D01*
X10250614Y41258056D01*
X10079812Y41317822D01*
X10079806Y41317823D01*
X9900004Y41338081D01*
X9899996Y41338081D01*
X9720193Y41317823D01*
X9720187Y41317822D01*
X9549388Y41258057D01*
X9542731Y41253874D01*
X9535780Y41249507D01*
X9469808Y41230500D01*
X6880192Y41230500D01*
X6814219Y41249507D01*
X6800613Y41258056D01*
X6800612Y41258057D01*
X6800611Y41258057D01*
X6730268Y41282671D01*
X6655142Y41308959D01*
X6598367Y41349680D01*
X6572619Y41414632D01*
X6586075Y41483194D01*
X6634462Y41533597D01*
X6696097Y41550000D01*
X6758134Y41550000D01*
X6758149Y41550001D01*
X6794989Y41552900D01*
X6794995Y41552901D01*
X6952693Y41598717D01*
X6952696Y41598718D01*
X7094052Y41682315D01*
X7094061Y41682322D01*
X7210178Y41798439D01*
X7210180Y41798442D01*
X7210472Y41798934D01*
X7210801Y41799242D01*
X7214963Y41804607D01*
X7215828Y41803936D01*
X7261538Y41846621D01*
X7330278Y41859130D01*
X7394870Y41832490D01*
X7419436Y41804142D01*
X7419639Y41804298D01*
X7422522Y41800580D01*
X7423938Y41798947D01*
X7424414Y41798141D01*
X7424423Y41798130D01*
X7540629Y41681924D01*
X7540633Y41681921D01*
X7540635Y41681919D01*
X7682102Y41598256D01*
X7723724Y41586164D01*
X7839926Y41552403D01*
X7839929Y41552403D01*
X7839931Y41552402D01*
X7876806Y41549500D01*
X7876814Y41549500D01*
X9033186Y41549500D01*
X9033194Y41549500D01*
X9070069Y41552402D01*
X9070071Y41552403D01*
X9070073Y41552403D01*
X9111691Y41564495D01*
X9227898Y41598256D01*
X9369365Y41681919D01*
X9485581Y41798135D01*
X9569244Y41939602D01*
X9615098Y42097431D01*
X9618000Y42134306D01*
X9618000Y42565694D01*
X9615098Y42602569D01*
X9614860Y42603389D01*
X9614861Y42603865D01*
X9613960Y42608799D01*
X9614875Y42608967D01*
X9615050Y42673254D01*
X9646249Y42725674D01*
X10408191Y43487616D01*
X10414281Y43492957D01*
X10441307Y43513693D01*
X10442616Y43515400D01*
X10465825Y43545643D01*
X10518491Y43614281D01*
X10533746Y43634162D01*
X10547822Y43668144D01*
X10591856Y43774451D01*
X10606700Y43887203D01*
X10606700Y43887206D01*
X10611676Y43925000D01*
X10610738Y43932118D01*
X10621504Y44001154D01*
X10645996Y44035984D01*
X10661783Y44051770D01*
X10758056Y44204987D01*
X10758056Y44204990D01*
X10761040Y44209737D01*
X10813375Y44256028D01*
X10882428Y44266676D01*
X10931311Y44249192D01*
X11122595Y44130755D01*
X11122596Y44130755D01*
X11122599Y44130753D01*
X11330060Y44050382D01*
X11548757Y44009500D01*
X11548759Y44009500D01*
X11771241Y44009500D01*
X11771243Y44009500D01*
X11989940Y44050382D01*
X12197401Y44130753D01*
X12386562Y44247876D01*
X12550981Y44397764D01*
X12685058Y44575311D01*
X12784229Y44774472D01*
X12845115Y44988464D01*
X12865643Y45210000D01*
X12852781Y45348797D01*
X12866196Y45417363D01*
X12888568Y45447913D01*
X13853837Y46413181D01*
X13915161Y46446666D01*
X13941519Y46449500D01*
X18565601Y46449500D01*
X18632640Y46429815D01*
G37*
%TD.AperFunction*%
%TA.AperFunction,Conductor*%
G36*
X8564235Y37049252D02*
G01*
X8621759Y36936355D01*
X8711355Y36846759D01*
X8824252Y36789235D01*
X8904999Y36776447D01*
X8188771Y36060219D01*
X8127448Y36026734D01*
X8101090Y36023900D01*
X7437449Y36023900D01*
X7370410Y36043585D01*
X7324655Y36096389D01*
X7314711Y36165547D01*
X7343736Y36229103D01*
X7349768Y36235581D01*
X7449445Y36335259D01*
X7449447Y36335261D01*
X7579968Y36521666D01*
X7587293Y36537377D01*
X7633462Y36589814D01*
X7700654Y36608968D01*
X7767536Y36588755D01*
X7812057Y36537377D01*
X7819265Y36521919D01*
X7819266Y36521917D01*
X7870373Y36448929D01*
X7870374Y36448928D01*
X8551446Y37130001D01*
X8564235Y37049252D01*
G37*
%TD.AperFunction*%
M02*
