%TF.GenerationSoftware,KiCad,Pcbnew,7.0.5*%
%TF.CreationDate,2023-10-28T22:09:15+09:00*%
%TF.ProjectId,EMUZ80PIC_SD_MK3.2,454d555a-3830-4504-9943-5f53445f4d4b,3.2*%
%TF.SameCoordinates,PX7aa1f66PY7f075e2*%
%TF.FileFunction,Legend,Bot*%
%TF.FilePolarity,Positive*%
%FSLAX46Y46*%
G04 Gerber Fmt 4.6, Leading zero omitted, Abs format (unit mm)*
G04 Created by KiCad (PCBNEW 7.0.5) date 2023-10-28 22:09:15*
%MOMM*%
%LPD*%
G01*
G04 APERTURE LIST*
%ADD10C,0.200000*%
%ADD11C,0.100000*%
%ADD12C,0.120000*%
G04 APERTURE END LIST*
D10*
X20120802Y54796591D02*
X19787469Y54796591D01*
X19710088Y54272781D02*
X20186279Y54272781D01*
X20186279Y54272781D02*
X20061279Y55272781D01*
X20061279Y55272781D02*
X19585088Y55272781D01*
X19281517Y54272781D02*
X19156517Y55272781D01*
X19156517Y55272781D02*
X18912469Y54558496D01*
X18912469Y54558496D02*
X18489850Y55272781D01*
X18489850Y55272781D02*
X18614850Y54272781D01*
X18013660Y55272781D02*
X18114850Y54463258D01*
X18114850Y54463258D02*
X18079136Y54368020D01*
X18079136Y54368020D02*
X18037469Y54320400D01*
X18037469Y54320400D02*
X17948183Y54272781D01*
X17948183Y54272781D02*
X17757707Y54272781D01*
X17757707Y54272781D02*
X17656517Y54320400D01*
X17656517Y54320400D02*
X17602945Y54368020D01*
X17602945Y54368020D02*
X17543422Y54463258D01*
X17543422Y54463258D02*
X17442231Y55272781D01*
X17061279Y55272781D02*
X16394612Y55272781D01*
X16394612Y55272781D02*
X17186279Y54272781D01*
X17186279Y54272781D02*
X16519612Y54272781D01*
X15924374Y54844210D02*
X16013660Y54891829D01*
X16013660Y54891829D02*
X16055326Y54939448D01*
X16055326Y54939448D02*
X16091041Y55034686D01*
X16091041Y55034686D02*
X16085088Y55082305D01*
X16085088Y55082305D02*
X16025564Y55177543D01*
X16025564Y55177543D02*
X15971993Y55225162D01*
X15971993Y55225162D02*
X15870803Y55272781D01*
X15870803Y55272781D02*
X15680326Y55272781D01*
X15680326Y55272781D02*
X15591041Y55225162D01*
X15591041Y55225162D02*
X15549374Y55177543D01*
X15549374Y55177543D02*
X15513660Y55082305D01*
X15513660Y55082305D02*
X15519612Y55034686D01*
X15519612Y55034686D02*
X15579136Y54939448D01*
X15579136Y54939448D02*
X15632707Y54891829D01*
X15632707Y54891829D02*
X15733898Y54844210D01*
X15733898Y54844210D02*
X15924374Y54844210D01*
X15924374Y54844210D02*
X16025564Y54796591D01*
X16025564Y54796591D02*
X16079136Y54748972D01*
X16079136Y54748972D02*
X16138660Y54653734D01*
X16138660Y54653734D02*
X16162469Y54463258D01*
X16162469Y54463258D02*
X16126755Y54368020D01*
X16126755Y54368020D02*
X16085088Y54320400D01*
X16085088Y54320400D02*
X15995803Y54272781D01*
X15995803Y54272781D02*
X15805326Y54272781D01*
X15805326Y54272781D02*
X15704136Y54320400D01*
X15704136Y54320400D02*
X15650564Y54368020D01*
X15650564Y54368020D02*
X15591041Y54463258D01*
X15591041Y54463258D02*
X15567231Y54653734D01*
X15567231Y54653734D02*
X15602945Y54748972D01*
X15602945Y54748972D02*
X15644612Y54796591D01*
X15644612Y54796591D02*
X15733898Y54844210D01*
X14870802Y55272781D02*
X14775564Y55272781D01*
X14775564Y55272781D02*
X14686279Y55225162D01*
X14686279Y55225162D02*
X14644612Y55177543D01*
X14644612Y55177543D02*
X14608898Y55082305D01*
X14608898Y55082305D02*
X14585088Y54891829D01*
X14585088Y54891829D02*
X14614850Y54653734D01*
X14614850Y54653734D02*
X14686279Y54463258D01*
X14686279Y54463258D02*
X14745802Y54368020D01*
X14745802Y54368020D02*
X14799374Y54320400D01*
X14799374Y54320400D02*
X14900564Y54272781D01*
X14900564Y54272781D02*
X14995802Y54272781D01*
X14995802Y54272781D02*
X15085088Y54320400D01*
X15085088Y54320400D02*
X15126755Y54368020D01*
X15126755Y54368020D02*
X15162469Y54463258D01*
X15162469Y54463258D02*
X15186279Y54653734D01*
X15186279Y54653734D02*
X15156517Y54891829D01*
X15156517Y54891829D02*
X15085088Y55082305D01*
X15085088Y55082305D02*
X15025564Y55177543D01*
X15025564Y55177543D02*
X14971993Y55225162D01*
X14971993Y55225162D02*
X14870802Y55272781D01*
X14233898Y54272781D02*
X14108898Y55272781D01*
X14108898Y55272781D02*
X13727945Y55272781D01*
X13727945Y55272781D02*
X13638660Y55225162D01*
X13638660Y55225162D02*
X13596993Y55177543D01*
X13596993Y55177543D02*
X13561279Y55082305D01*
X13561279Y55082305D02*
X13579136Y54939448D01*
X13579136Y54939448D02*
X13638660Y54844210D01*
X13638660Y54844210D02*
X13692231Y54796591D01*
X13692231Y54796591D02*
X13793421Y54748972D01*
X13793421Y54748972D02*
X14174374Y54748972D01*
X13233898Y54272781D02*
X13108898Y55272781D01*
X12174374Y54368020D02*
X12227946Y54320400D01*
X12227946Y54320400D02*
X12376755Y54272781D01*
X12376755Y54272781D02*
X12471993Y54272781D01*
X12471993Y54272781D02*
X12608898Y54320400D01*
X12608898Y54320400D02*
X12692231Y54415639D01*
X12692231Y54415639D02*
X12727946Y54510877D01*
X12727946Y54510877D02*
X12751755Y54701353D01*
X12751755Y54701353D02*
X12733898Y54844210D01*
X12733898Y54844210D02*
X12662470Y55034686D01*
X12662470Y55034686D02*
X12602946Y55129924D01*
X12602946Y55129924D02*
X12495803Y55225162D01*
X12495803Y55225162D02*
X12346993Y55272781D01*
X12346993Y55272781D02*
X12251755Y55272781D01*
X12251755Y55272781D02*
X12114851Y55225162D01*
X12114851Y55225162D02*
X12073184Y55177543D01*
X12007708Y54177543D02*
X11245803Y54177543D01*
X11037469Y54320400D02*
X10900565Y54272781D01*
X10900565Y54272781D02*
X10662469Y54272781D01*
X10662469Y54272781D02*
X10561279Y54320400D01*
X10561279Y54320400D02*
X10507707Y54368020D01*
X10507707Y54368020D02*
X10448184Y54463258D01*
X10448184Y54463258D02*
X10436279Y54558496D01*
X10436279Y54558496D02*
X10471993Y54653734D01*
X10471993Y54653734D02*
X10513660Y54701353D01*
X10513660Y54701353D02*
X10602946Y54748972D01*
X10602946Y54748972D02*
X10787469Y54796591D01*
X10787469Y54796591D02*
X10876755Y54844210D01*
X10876755Y54844210D02*
X10918422Y54891829D01*
X10918422Y54891829D02*
X10954136Y54987067D01*
X10954136Y54987067D02*
X10942231Y55082305D01*
X10942231Y55082305D02*
X10882707Y55177543D01*
X10882707Y55177543D02*
X10829136Y55225162D01*
X10829136Y55225162D02*
X10727946Y55272781D01*
X10727946Y55272781D02*
X10489850Y55272781D01*
X10489850Y55272781D02*
X10352946Y55225162D01*
X10043422Y54272781D02*
X9918422Y55272781D01*
X9918422Y55272781D02*
X9680326Y55272781D01*
X9680326Y55272781D02*
X9543422Y55225162D01*
X9543422Y55225162D02*
X9460088Y55129924D01*
X9460088Y55129924D02*
X9424374Y55034686D01*
X9424374Y55034686D02*
X9400565Y54844210D01*
X9400565Y54844210D02*
X9418422Y54701353D01*
X9418422Y54701353D02*
X9489850Y54510877D01*
X9489850Y54510877D02*
X9549374Y54415639D01*
X9549374Y54415639D02*
X9656517Y54320400D01*
X9656517Y54320400D02*
X9805326Y54272781D01*
X9805326Y54272781D02*
X10043422Y54272781D01*
X9293422Y54177543D02*
X8531517Y54177543D01*
X8281517Y54272781D02*
X8156517Y55272781D01*
X8156517Y55272781D02*
X7912469Y54558496D01*
X7912469Y54558496D02*
X7489850Y55272781D01*
X7489850Y55272781D02*
X7614850Y54272781D01*
X7138660Y54272781D02*
X7013660Y55272781D01*
X6567231Y54272781D02*
X6924374Y54844210D01*
X6442231Y55272781D02*
X7085088Y54701353D01*
X6108898Y55272781D02*
X5489850Y55272781D01*
X5489850Y55272781D02*
X5870803Y54891829D01*
X5870803Y54891829D02*
X5727945Y54891829D01*
X5727945Y54891829D02*
X5638660Y54844210D01*
X5638660Y54844210D02*
X5596993Y54796591D01*
X5596993Y54796591D02*
X5561279Y54701353D01*
X5561279Y54701353D02*
X5591041Y54463258D01*
X5591041Y54463258D02*
X5650564Y54368020D01*
X5650564Y54368020D02*
X5704136Y54320400D01*
X5704136Y54320400D02*
X5805326Y54272781D01*
X5805326Y54272781D02*
X6091041Y54272781D01*
X6091041Y54272781D02*
X6180326Y54320400D01*
X6180326Y54320400D02*
X6221993Y54368020D01*
X5174374Y54368020D02*
X5132707Y54320400D01*
X5132707Y54320400D02*
X5186279Y54272781D01*
X5186279Y54272781D02*
X5227945Y54320400D01*
X5227945Y54320400D02*
X5174374Y54368020D01*
X5174374Y54368020D02*
X5186279Y54272781D01*
X4644612Y55177543D02*
X4591041Y55225162D01*
X4591041Y55225162D02*
X4489851Y55272781D01*
X4489851Y55272781D02*
X4251755Y55272781D01*
X4251755Y55272781D02*
X4162470Y55225162D01*
X4162470Y55225162D02*
X4120803Y55177543D01*
X4120803Y55177543D02*
X4085089Y55082305D01*
X4085089Y55082305D02*
X4096993Y54987067D01*
X4096993Y54987067D02*
X4162470Y54844210D01*
X4162470Y54844210D02*
X4805327Y54272781D01*
X4805327Y54272781D02*
X4186279Y54272781D01*
D11*
X18399047Y8752581D02*
X18399047Y9419248D01*
X18399047Y9324010D02*
X18351428Y9371629D01*
X18351428Y9371629D02*
X18256190Y9419248D01*
X18256190Y9419248D02*
X18113333Y9419248D01*
X18113333Y9419248D02*
X18018095Y9371629D01*
X18018095Y9371629D02*
X17970476Y9276391D01*
X17970476Y9276391D02*
X17970476Y8752581D01*
X17970476Y9276391D02*
X17922857Y9371629D01*
X17922857Y9371629D02*
X17827619Y9419248D01*
X17827619Y9419248D02*
X17684762Y9419248D01*
X17684762Y9419248D02*
X17589523Y9371629D01*
X17589523Y9371629D02*
X17541904Y9276391D01*
X17541904Y9276391D02*
X17541904Y8752581D01*
X17065714Y8752581D02*
X17065714Y9419248D01*
X17065714Y9752581D02*
X17113333Y9704962D01*
X17113333Y9704962D02*
X17065714Y9657343D01*
X17065714Y9657343D02*
X17018095Y9704962D01*
X17018095Y9704962D02*
X17065714Y9752581D01*
X17065714Y9752581D02*
X17065714Y9657343D01*
X16160953Y8800200D02*
X16256191Y8752581D01*
X16256191Y8752581D02*
X16446667Y8752581D01*
X16446667Y8752581D02*
X16541905Y8800200D01*
X16541905Y8800200D02*
X16589524Y8847820D01*
X16589524Y8847820D02*
X16637143Y8943058D01*
X16637143Y8943058D02*
X16637143Y9228772D01*
X16637143Y9228772D02*
X16589524Y9324010D01*
X16589524Y9324010D02*
X16541905Y9371629D01*
X16541905Y9371629D02*
X16446667Y9419248D01*
X16446667Y9419248D02*
X16256191Y9419248D01*
X16256191Y9419248D02*
X16160953Y9371629D01*
X15732381Y8752581D02*
X15732381Y9419248D01*
X15732381Y9228772D02*
X15684762Y9324010D01*
X15684762Y9324010D02*
X15637143Y9371629D01*
X15637143Y9371629D02*
X15541905Y9419248D01*
X15541905Y9419248D02*
X15446667Y9419248D01*
X14970476Y8752581D02*
X15065714Y8800200D01*
X15065714Y8800200D02*
X15113333Y8847820D01*
X15113333Y8847820D02*
X15160952Y8943058D01*
X15160952Y8943058D02*
X15160952Y9228772D01*
X15160952Y9228772D02*
X15113333Y9324010D01*
X15113333Y9324010D02*
X15065714Y9371629D01*
X15065714Y9371629D02*
X14970476Y9419248D01*
X14970476Y9419248D02*
X14827619Y9419248D01*
X14827619Y9419248D02*
X14732381Y9371629D01*
X14732381Y9371629D02*
X14684762Y9324010D01*
X14684762Y9324010D02*
X14637143Y9228772D01*
X14637143Y9228772D02*
X14637143Y8943058D01*
X14637143Y8943058D02*
X14684762Y8847820D01*
X14684762Y8847820D02*
X14732381Y8800200D01*
X14732381Y8800200D02*
X14827619Y8752581D01*
X14827619Y8752581D02*
X14970476Y8752581D01*
X14256190Y8800200D02*
X14113333Y8752581D01*
X14113333Y8752581D02*
X13875238Y8752581D01*
X13875238Y8752581D02*
X13780000Y8800200D01*
X13780000Y8800200D02*
X13732381Y8847820D01*
X13732381Y8847820D02*
X13684762Y8943058D01*
X13684762Y8943058D02*
X13684762Y9038296D01*
X13684762Y9038296D02*
X13732381Y9133534D01*
X13732381Y9133534D02*
X13780000Y9181153D01*
X13780000Y9181153D02*
X13875238Y9228772D01*
X13875238Y9228772D02*
X14065714Y9276391D01*
X14065714Y9276391D02*
X14160952Y9324010D01*
X14160952Y9324010D02*
X14208571Y9371629D01*
X14208571Y9371629D02*
X14256190Y9466867D01*
X14256190Y9466867D02*
X14256190Y9562105D01*
X14256190Y9562105D02*
X14208571Y9657343D01*
X14208571Y9657343D02*
X14160952Y9704962D01*
X14160952Y9704962D02*
X14065714Y9752581D01*
X14065714Y9752581D02*
X13827619Y9752581D01*
X13827619Y9752581D02*
X13684762Y9704962D01*
X13256190Y8752581D02*
X13256190Y9752581D01*
X13256190Y9752581D02*
X13018095Y9752581D01*
X13018095Y9752581D02*
X12875238Y9704962D01*
X12875238Y9704962D02*
X12780000Y9609724D01*
X12780000Y9609724D02*
X12732381Y9514486D01*
X12732381Y9514486D02*
X12684762Y9324010D01*
X12684762Y9324010D02*
X12684762Y9181153D01*
X12684762Y9181153D02*
X12732381Y8990677D01*
X12732381Y8990677D02*
X12780000Y8895439D01*
X12780000Y8895439D02*
X12875238Y8800200D01*
X12875238Y8800200D02*
X13018095Y8752581D01*
X13018095Y8752581D02*
X13256190Y8752581D01*
X12494286Y8657343D02*
X11732381Y8657343D01*
X10922857Y8847820D02*
X10970476Y8800200D01*
X10970476Y8800200D02*
X11113333Y8752581D01*
X11113333Y8752581D02*
X11208571Y8752581D01*
X11208571Y8752581D02*
X11351428Y8800200D01*
X11351428Y8800200D02*
X11446666Y8895439D01*
X11446666Y8895439D02*
X11494285Y8990677D01*
X11494285Y8990677D02*
X11541904Y9181153D01*
X11541904Y9181153D02*
X11541904Y9324010D01*
X11541904Y9324010D02*
X11494285Y9514486D01*
X11494285Y9514486D02*
X11446666Y9609724D01*
X11446666Y9609724D02*
X11351428Y9704962D01*
X11351428Y9704962D02*
X11208571Y9752581D01*
X11208571Y9752581D02*
X11113333Y9752581D01*
X11113333Y9752581D02*
X10970476Y9704962D01*
X10970476Y9704962D02*
X10922857Y9657343D01*
X10541904Y9038296D02*
X10065714Y9038296D01*
X10637142Y8752581D02*
X10303809Y9752581D01*
X10303809Y9752581D02*
X9970476Y8752581D01*
X9065714Y8752581D02*
X9399047Y9228772D01*
X9637142Y8752581D02*
X9637142Y9752581D01*
X9637142Y9752581D02*
X9256190Y9752581D01*
X9256190Y9752581D02*
X9160952Y9704962D01*
X9160952Y9704962D02*
X9113333Y9657343D01*
X9113333Y9657343D02*
X9065714Y9562105D01*
X9065714Y9562105D02*
X9065714Y9419248D01*
X9065714Y9419248D02*
X9113333Y9324010D01*
X9113333Y9324010D02*
X9160952Y9276391D01*
X9160952Y9276391D02*
X9256190Y9228772D01*
X9256190Y9228772D02*
X9637142Y9228772D01*
X8637142Y8752581D02*
X8637142Y9752581D01*
X8637142Y9752581D02*
X8399047Y9752581D01*
X8399047Y9752581D02*
X8256190Y9704962D01*
X8256190Y9704962D02*
X8160952Y9609724D01*
X8160952Y9609724D02*
X8113333Y9514486D01*
X8113333Y9514486D02*
X8065714Y9324010D01*
X8065714Y9324010D02*
X8065714Y9181153D01*
X8065714Y9181153D02*
X8113333Y8990677D01*
X8113333Y8990677D02*
X8160952Y8895439D01*
X8160952Y8895439D02*
X8256190Y8800200D01*
X8256190Y8800200D02*
X8399047Y8752581D01*
X8399047Y8752581D02*
X8637142Y8752581D01*
X7113333Y8752581D02*
X7684761Y8752581D01*
X7399047Y8752581D02*
X7399047Y9752581D01*
X7399047Y9752581D02*
X7494285Y9609724D01*
X7494285Y9609724D02*
X7589523Y9514486D01*
X7589523Y9514486D02*
X7684761Y9466867D01*
D12*
X3650000Y1910000D02*
X990000Y1910000D01*
X3650000Y50230000D02*
X3650000Y1910000D01*
X3650000Y50230000D02*
X990000Y50230000D01*
X2320000Y52830000D02*
X990000Y52830000D01*
X990000Y50230000D02*
X990000Y1910000D01*
X990000Y52830000D02*
X990000Y51500000D01*
X23970000Y1910000D02*
X21310000Y1910000D01*
X23970000Y50230000D02*
X23970000Y1910000D01*
X23970000Y50230000D02*
X21310000Y50230000D01*
X22640000Y52830000D02*
X21310000Y52830000D01*
X21310000Y50230000D02*
X21310000Y1910000D01*
X21310000Y52830000D02*
X21310000Y51500000D01*
M02*
