M48
; DRILL file {KiCad 7.0.5} date Sat Oct 28 22:09:12 2023
; FORMAT={-:-/ absolute / metric / decimal}
; #@! TF.CreationDate,2023-10-28T22:09:12+09:00
; #@! TF.GenerationSoftware,Kicad,Pcbnew,7.0.5
; #@! TF.FileFunction,MixedPlating,1,2
FMAT,2
METRIC
; #@! TA.AperFunction,Plated,PTH,ViaDrill
T1C0.300
; #@! TA.AperFunction,Plated,PTH,ViaDrill
T2C0.500
; #@! TA.AperFunction,Plated,PTH,ComponentDrill
T3C0.700
; #@! TA.AperFunction,Plated,PTH,ComponentDrill
T4C0.800
; #@! TA.AperFunction,Plated,PTH,ComponentDrill
T5C0.900
; #@! TA.AperFunction,Plated,PTH,ComponentDrill
T6C1.000
%
G90
G05
T1
X4.31Y44.23
X4.34Y26.26
X4.6Y4.92
X4.84Y51.35
X4.91Y27.25
X5.05Y49.08
X5.33Y39.33
X5.56Y18.46
X5.57Y34.14
X5.58Y9.83
X6.05Y15.94
X6.45Y40.53
X6.51Y28.17
X7.26Y19.11
X8.72Y29.72
X9.08Y18.39
X9.16Y53.51
X9.49Y39.11
X9.9Y40.53
X10.0Y46.42
X10.03Y44.556
X10.15Y34.45
X10.54Y18.21
X11.4Y26.88
X12.5Y49.15
X12.89Y43.58
X12.98Y24.9
X13.01Y22.6
X13.12Y40.3
X13.15Y37.19
X14.555Y18.861
X14.69Y29.79
X14.69Y26.88
X15.21Y30.47
X15.24Y28.13
X15.25Y34.348
X15.859Y26.26
X15.86Y31.09
X16.22Y32.6
X16.38Y18.38
X16.39Y29.8
X16.72Y53.44
X17.14Y33.71
X17.63Y30.45
X17.63Y23.73
X18.65Y19.98
X19.06Y26.28
X19.2Y39.51
X19.32Y52.1
X20.2Y9.86
X20.2Y5.23
X20.47Y49.19
X20.59Y31.94
X20.59Y18.38
T2
X4.73Y32.68
X5.59Y20.65
X11.52Y32.65
X11.56Y39.06
X12.39Y20.65
X12.39Y18.33
X18.91Y21.61
X19.81Y15.44
X20.58Y47.15
T3
X8.76Y20.65
X8.77Y24.86
X8.77Y22.76
X11.56Y41.91
X11.66Y45.21
X16.38Y20.65
X16.39Y24.86
X16.39Y22.76
X19.18Y41.91
X19.28Y45.21
T4
X5.6Y30.164
X6.449Y37.174
X8.949Y37.174
X10.6Y30.164
X15.902Y37.174
X18.402Y37.174
T5
X7.73Y50.662
X10.27Y50.662
X15.35Y50.662
X17.89Y50.662
T6
X2.32Y51.5
X2.32Y48.96
X2.32Y46.42
X2.32Y43.88
X2.32Y41.34
X2.32Y38.8
X2.32Y36.26
X2.32Y33.72
X2.32Y31.18
X2.32Y28.64
X2.32Y26.1
X2.32Y23.56
X2.32Y21.02
X2.32Y18.48
X2.32Y15.94
X2.32Y13.4
X2.32Y10.86
X2.32Y8.32
X2.32Y5.78
X2.32Y3.24
X22.64Y51.5
X22.64Y48.96
X22.64Y46.42
X22.64Y43.88
X22.64Y41.34
X22.64Y38.8
X22.64Y36.26
X22.64Y33.72
X22.64Y31.18
X22.64Y28.64
X22.64Y26.1
X22.64Y23.56
X22.64Y21.02
X22.64Y18.48
X22.64Y15.94
X22.64Y13.4
X22.64Y10.86
X22.64Y8.32
X22.64Y5.78
X22.64Y3.24
T0
M30
