%TF.GenerationSoftware,KiCad,Pcbnew,7.0.5*%
%TF.CreationDate,2023-10-28T22:09:15+09:00*%
%TF.ProjectId,EMUZ80PIC_SD_MK3.2,454d555a-3830-4504-9943-5f53445f4d4b,3.2*%
%TF.SameCoordinates,PX7aa1f66PY7f075e2*%
%TF.FileFunction,Copper,L2,Bot*%
%TF.FilePolarity,Positive*%
%FSLAX46Y46*%
G04 Gerber Fmt 4.6, Leading zero omitted, Abs format (unit mm)*
G04 Created by KiCad (PCBNEW 7.0.5) date 2023-10-28 22:09:15*
%MOMM*%
%LPD*%
G01*
G04 APERTURE LIST*
%TA.AperFunction,ComponentPad*%
%ADD10C,1.600000*%
%TD*%
%TA.AperFunction,ComponentPad*%
%ADD11C,1.400000*%
%TD*%
%TA.AperFunction,ComponentPad*%
%ADD12O,1.400000X1.400000*%
%TD*%
%TA.AperFunction,ComponentPad*%
%ADD13R,1.800000X1.800000*%
%TD*%
%TA.AperFunction,ComponentPad*%
%ADD14C,1.800000*%
%TD*%
%TA.AperFunction,ComponentPad*%
%ADD15R,1.700000X1.700000*%
%TD*%
%TA.AperFunction,ComponentPad*%
%ADD16O,1.700000X1.700000*%
%TD*%
%TA.AperFunction,ViaPad*%
%ADD17C,0.605000*%
%TD*%
%TA.AperFunction,ViaPad*%
%ADD18C,0.900000*%
%TD*%
%TA.AperFunction,Conductor*%
%ADD19C,0.400000*%
%TD*%
%TA.AperFunction,Conductor*%
%ADD20C,0.152400*%
%TD*%
G04 APERTURE END LIST*
D10*
X6449400Y37174400D03*
X8949400Y37174400D03*
D11*
X19280000Y45210000D03*
D12*
X11660000Y45210000D03*
D13*
X15350200Y50661800D03*
D14*
X17890200Y50661800D03*
D11*
X8770000Y22760000D03*
D12*
X16390000Y22760000D03*
D11*
X16390000Y24860000D03*
D12*
X8770000Y24860000D03*
D10*
X18402200Y37174400D03*
X15902200Y37174400D03*
D11*
X11560000Y41910000D03*
D12*
X19180000Y41910000D03*
D13*
X7730200Y50661800D03*
D14*
X10270200Y50661800D03*
D11*
X8760000Y20650000D03*
D12*
X16380000Y20650000D03*
D10*
X5600000Y30164000D03*
X10600000Y30164000D03*
D15*
X2320000Y51500000D03*
D16*
X2320000Y48960000D03*
X2320000Y46420000D03*
X2320000Y43880000D03*
X2320000Y41340000D03*
X2320000Y38800000D03*
X2320000Y36260000D03*
X2320000Y33720000D03*
X2320000Y31180000D03*
X2320000Y28640000D03*
X2320000Y26100000D03*
X2320000Y23560000D03*
X2320000Y21020000D03*
X2320000Y18480000D03*
X2320000Y15940000D03*
X2320000Y13400000D03*
X2320000Y10860000D03*
X2320000Y8320000D03*
X2320000Y5780000D03*
X2320000Y3240000D03*
D15*
X22640000Y51500000D03*
D16*
X22640000Y48960000D03*
X22640000Y46420000D03*
X22640000Y43880000D03*
X22640000Y41340000D03*
X22640000Y38800000D03*
X22640000Y36260000D03*
X22640000Y33720000D03*
X22640000Y31180000D03*
X22640000Y28640000D03*
X22640000Y26100000D03*
X22640000Y23560000D03*
X22640000Y21020000D03*
X22640000Y18480000D03*
X22640000Y15940000D03*
X22640000Y13400000D03*
X22640000Y10860000D03*
X22640000Y8320000D03*
X22640000Y5780000D03*
X22640000Y3240000D03*
D17*
X9160000Y53510000D03*
X16720000Y53440000D03*
X10150000Y34450000D03*
X5570000Y34140000D03*
X8720000Y29720000D03*
X16220000Y32600000D03*
X4600000Y4920000D03*
X20200000Y5230000D03*
X20200000Y9860000D03*
X5580000Y9830000D03*
X10540000Y18210000D03*
X5560000Y18460000D03*
X9490000Y39110000D03*
X5330000Y39330000D03*
X13150000Y37190000D03*
X19200000Y39510000D03*
X13120000Y40300000D03*
X12890000Y43580000D03*
X20470000Y49190000D03*
X12500000Y49150000D03*
X5050000Y49080000D03*
X4840000Y51350000D03*
X19060000Y26280000D03*
X18650000Y19980000D03*
X13010000Y22600000D03*
X12980000Y24900000D03*
D18*
X18910000Y21610000D03*
X4730000Y32680000D03*
X19810000Y15440000D03*
D17*
X6450000Y40530000D03*
D18*
X20580000Y47150000D03*
D17*
X9900000Y40530000D03*
X15250000Y34347997D03*
X10000000Y46420000D03*
X4310000Y44230000D03*
X15210000Y30470000D03*
X15240000Y28130000D03*
X6510000Y28170000D03*
X6050000Y15940000D03*
X15860000Y31090000D03*
X15859400Y26260000D03*
X4340000Y26260000D03*
X4910000Y27250000D03*
X20590000Y31940000D03*
X20590000Y18380000D03*
X16380000Y18380000D03*
X16390000Y29800000D03*
X14555057Y18860560D03*
D18*
X12390000Y18330000D03*
X12390000Y20650000D03*
X11560000Y39060000D03*
X5590000Y20650000D03*
X11520000Y32650000D03*
D17*
X17630000Y23730000D03*
X7260000Y19110000D03*
X17630000Y30450000D03*
X17140000Y33710000D03*
X10030000Y44555600D03*
X14690000Y26880000D03*
X14690000Y29790000D03*
X9080000Y18390000D03*
X11400000Y26880000D03*
X19320000Y52100000D03*
D19*
X4740000Y32690000D02*
X4740000Y35465000D01*
X4740000Y35465000D02*
X6449400Y37174400D01*
X4070000Y27850000D02*
X4070000Y32020000D01*
X4070000Y32020000D02*
X4730000Y32680000D01*
X9900000Y40530000D02*
X9900000Y43450000D01*
X6449400Y40529400D02*
X6450000Y40530000D01*
X20580000Y33240000D02*
X20580000Y47150000D01*
X2320000Y26100000D02*
X4070000Y27850000D01*
X6449400Y37174400D02*
X6449400Y40529400D01*
X22640000Y31180000D02*
X20580000Y33240000D01*
X9900000Y43450000D02*
X11660000Y45210000D01*
D20*
X15250000Y34347997D02*
X14629852Y34968145D01*
X12190000Y46420000D02*
X10000000Y46420000D01*
X14629852Y34968145D02*
X14629852Y43980148D01*
X14629852Y43980148D02*
X12190000Y46420000D01*
X4310000Y35710000D02*
X2320000Y33720000D01*
X4310000Y44230000D02*
X4310000Y35710000D01*
X15240000Y28130000D02*
X15240000Y30440000D01*
X6510000Y16400000D02*
X6510000Y28170000D01*
X6050000Y15940000D02*
X6510000Y16400000D01*
X15859400Y26260000D02*
X15859400Y31089400D01*
X4340000Y15420000D02*
X4340000Y26260000D01*
X2320000Y13400000D02*
X4340000Y15420000D01*
X2320000Y10860000D02*
X4910000Y13450000D01*
X4910000Y13450000D02*
X4910000Y27250000D01*
X17890200Y50661800D02*
X17890200Y43199800D01*
X17890200Y43199800D02*
X19180000Y41910000D01*
X20590000Y20650000D02*
X20590000Y31940000D01*
X20590000Y18380000D02*
X20590000Y20650000D01*
X16380000Y20650000D02*
X16380000Y18380000D01*
X16390000Y24860000D02*
X16390000Y29800000D01*
X14555057Y23025057D02*
X16390000Y24860000D01*
X14555057Y18860560D02*
X14555057Y23025057D01*
D19*
X11560000Y39060000D02*
X11560000Y41910000D01*
D20*
X11520000Y32650000D02*
X11560000Y32690000D01*
D19*
X11560000Y32690000D02*
X11560000Y39060000D01*
X5600400Y30164000D02*
X5600400Y20660400D01*
X12390000Y18330000D02*
X12390000Y20650000D01*
D20*
X7260000Y21250000D02*
X8770000Y22760000D01*
X7260000Y19110000D02*
X7260000Y21250000D01*
X17630000Y23730000D02*
X17630000Y30450000D01*
X15350200Y40959800D02*
X17140000Y39170000D01*
X17140000Y39170000D02*
X17140000Y33710000D01*
X15350200Y50661800D02*
X15350200Y40959800D01*
X7730200Y46855400D02*
X7730200Y50661800D01*
X10030000Y44555600D02*
X7730200Y46855400D01*
X14690000Y26880000D02*
X14690000Y29790000D01*
X11400000Y20710000D02*
X11400000Y26880000D01*
X9080000Y18390000D02*
X11400000Y20710000D01*
X19280000Y52060000D02*
X19280000Y45210000D01*
%TA.AperFunction,Conductor*%
G36*
X5782707Y19712414D02*
G01*
X5843144Y19712967D01*
X5902265Y19675733D01*
X5931871Y19612446D01*
X5933300Y19593675D01*
X5933300Y16837889D01*
X5913615Y16770850D01*
X5860811Y16725095D01*
X5850255Y16720847D01*
X5699386Y16668056D01*
X5676671Y16653783D01*
X5609434Y16634784D01*
X5542599Y16655153D01*
X5497385Y16708421D01*
X5486700Y16758778D01*
X5486700Y19572340D01*
X5506385Y19639379D01*
X5559189Y19685134D01*
X5598544Y19695743D01*
X5776331Y19713253D01*
X5776330Y19713253D01*
X5782304Y19714441D01*
X5782707Y19712414D01*
G37*
%TD.AperFunction*%
%TA.AperFunction,Conductor*%
G36*
X3434925Y22798627D02*
G01*
X3434926Y22798627D01*
X3493598Y22882418D01*
X3493602Y22882426D01*
X3526918Y22953871D01*
X3573090Y23006311D01*
X3640283Y23025463D01*
X3707165Y23005248D01*
X3752499Y22952082D01*
X3763300Y22901467D01*
X3763300Y21679717D01*
X3743615Y21612678D01*
X3690811Y21566923D01*
X3621653Y21556979D01*
X3558097Y21586004D01*
X3526918Y21627312D01*
X3494035Y21697829D01*
X3494034Y21697831D01*
X3358494Y21891403D01*
X3191402Y22058494D01*
X3191401Y22058495D01*
X3005405Y22188731D01*
X2961781Y22243308D01*
X2954588Y22312807D01*
X2986110Y22375161D01*
X3005405Y22391881D01*
X3081373Y22445075D01*
X2452533Y23073914D01*
X2462315Y23075320D01*
X2593100Y23135048D01*
X2701761Y23229202D01*
X2779493Y23350156D01*
X2803076Y23430476D01*
X3434925Y22798627D01*
G37*
%TD.AperFunction*%
%TA.AperFunction,Conductor*%
G36*
X3707165Y25544065D02*
G01*
X3752499Y25490899D01*
X3763300Y25440284D01*
X3763300Y24218533D01*
X3743615Y24151494D01*
X3690811Y24105739D01*
X3621653Y24095795D01*
X3558097Y24124820D01*
X3526918Y24166128D01*
X3493600Y24237577D01*
X3493599Y24237579D01*
X3434925Y24321374D01*
X3434925Y24321375D01*
X2803076Y23689525D01*
X2779493Y23769844D01*
X2701761Y23890798D01*
X2593100Y23984952D01*
X2462315Y24044680D01*
X2452532Y24046087D01*
X3081373Y24674927D01*
X3081373Y24674928D01*
X3005405Y24728120D01*
X2961780Y24782696D01*
X2954586Y24852195D01*
X2986108Y24914549D01*
X3005399Y24931266D01*
X3191401Y25061505D01*
X3358495Y25228599D01*
X3494035Y25422170D01*
X3526918Y25492689D01*
X3573090Y25545128D01*
X3640283Y25564280D01*
X3707165Y25544065D01*
G37*
%TD.AperFunction*%
%TA.AperFunction,Conductor*%
G36*
X22180507Y28430156D02*
G01*
X22258239Y28309202D01*
X22366900Y28215048D01*
X22497685Y28155320D01*
X22507466Y28153914D01*
X21878625Y27525075D01*
X21954594Y27471881D01*
X21998219Y27417304D01*
X22005413Y27347806D01*
X21973890Y27285451D01*
X21954595Y27268731D01*
X21768594Y27138492D01*
X21601505Y26971403D01*
X21465965Y26777831D01*
X21465964Y26777829D01*
X21403082Y26642977D01*
X21356910Y26590538D01*
X21289716Y26571386D01*
X21222835Y26591602D01*
X21177500Y26644767D01*
X21166700Y26695382D01*
X21166700Y28045803D01*
X21186385Y28112842D01*
X21239189Y28158597D01*
X21308347Y28168541D01*
X21371903Y28139516D01*
X21403082Y28098208D01*
X21466400Y27962421D01*
X21466402Y27962417D01*
X21525072Y27878627D01*
X21525073Y27878627D01*
X22156923Y28510477D01*
X22180507Y28430156D01*
G37*
%TD.AperFunction*%
%TA.AperFunction,Conductor*%
G36*
X21371903Y30678332D02*
G01*
X21403080Y30637027D01*
X21453894Y30528056D01*
X21465965Y30502170D01*
X21465967Y30502166D01*
X21544087Y30390600D01*
X21601505Y30308599D01*
X21768599Y30141505D01*
X21915203Y30038852D01*
X21954594Y30011270D01*
X21998218Y29956693D01*
X22005411Y29887194D01*
X21973889Y29824840D01*
X21954593Y29808120D01*
X21878626Y29754929D01*
X21878625Y29754927D01*
X22507466Y29126087D01*
X22497685Y29124680D01*
X22366900Y29064952D01*
X22258239Y28970798D01*
X22180507Y28849844D01*
X22156923Y28769525D01*
X21525073Y29401375D01*
X21525072Y29401375D01*
X21466401Y29317581D01*
X21403082Y29181793D01*
X21356909Y29129354D01*
X21289716Y29110202D01*
X21222835Y29130418D01*
X21177500Y29183583D01*
X21166700Y29234198D01*
X21166700Y30584619D01*
X21186385Y30651658D01*
X21239189Y30697413D01*
X21308347Y30707357D01*
X21371903Y30678332D01*
G37*
%TD.AperFunction*%
%TA.AperFunction,Conductor*%
G36*
X16898263Y49661808D02*
G01*
X16930066Y49636957D01*
X16937502Y49628880D01*
X16938415Y49627888D01*
X16938422Y49627882D01*
X17121565Y49485336D01*
X17121576Y49485329D01*
X17248517Y49416632D01*
X17298108Y49367413D01*
X17313500Y49307577D01*
X17313500Y43241665D01*
X17312969Y43233564D01*
X17308524Y43199802D01*
X17308524Y43199799D01*
X17328343Y43049253D01*
X17328344Y43049251D01*
X17386453Y42908963D01*
X17438215Y42841505D01*
X17478890Y42788496D01*
X17478891Y42788495D01*
X17478893Y42788493D01*
X17496179Y42775229D01*
X17505911Y42767761D01*
X17512006Y42762417D01*
X17749278Y42525145D01*
X17976140Y42298283D01*
X18009625Y42236960D01*
X18007726Y42176671D01*
X17994885Y42131537D01*
X17994884Y42131535D01*
X17974357Y41910001D01*
X17974357Y41910000D01*
X17994884Y41688465D01*
X17994885Y41688463D01*
X18055769Y41474477D01*
X18055775Y41474462D01*
X18154938Y41275317D01*
X18154943Y41275309D01*
X18289020Y41097762D01*
X18453437Y40947877D01*
X18453439Y40947875D01*
X18642595Y40830755D01*
X18642596Y40830755D01*
X18642599Y40830753D01*
X18850060Y40750382D01*
X19068757Y40709500D01*
X19068759Y40709500D01*
X19291241Y40709500D01*
X19291243Y40709500D01*
X19509940Y40750382D01*
X19710708Y40828161D01*
X19780329Y40834022D01*
X19842070Y40801312D01*
X19876325Y40740416D01*
X19879500Y40712533D01*
X19879500Y37627665D01*
X19859815Y37560626D01*
X19807011Y37514871D01*
X19737853Y37504927D01*
X19674297Y37533952D01*
X19636523Y37592730D01*
X19635725Y37595571D01*
X19633045Y37605571D01*
X19628939Y37620896D01*
X19532768Y37827134D01*
X19435039Y37966707D01*
X19402245Y38013542D01*
X19241341Y38174446D01*
X19054934Y38304968D01*
X19054932Y38304969D01*
X18848697Y38401139D01*
X18848688Y38401142D01*
X18628897Y38460034D01*
X18628893Y38460035D01*
X18628892Y38460035D01*
X18628891Y38460036D01*
X18628886Y38460036D01*
X18402202Y38479868D01*
X18402198Y38479868D01*
X18175513Y38460036D01*
X18175502Y38460034D01*
X17955711Y38401142D01*
X17955706Y38401140D01*
X17893104Y38371948D01*
X17824026Y38361457D01*
X17760243Y38389977D01*
X17722004Y38448454D01*
X17716700Y38484331D01*
X17716700Y39128139D01*
X17717231Y39136241D01*
X17721676Y39170001D01*
X17712080Y39242888D01*
X17701856Y39320548D01*
X17701856Y39320549D01*
X17656379Y39430339D01*
X17643747Y39460836D01*
X17643746Y39460837D01*
X17643746Y39460838D01*
X17551307Y39581307D01*
X17551305Y39581309D01*
X17551304Y39581310D01*
X17524283Y39602044D01*
X17518180Y39607397D01*
X15963219Y41162358D01*
X15929734Y41223681D01*
X15926900Y41250039D01*
X15926900Y49137301D01*
X15946585Y49204340D01*
X15999389Y49250095D01*
X16050900Y49261301D01*
X16298071Y49261301D01*
X16298072Y49261301D01*
X16357683Y49267709D01*
X16492531Y49318004D01*
X16607746Y49404254D01*
X16693996Y49519469D01*
X16722654Y49596307D01*
X16764526Y49652241D01*
X16829990Y49676659D01*
X16898263Y49661808D01*
G37*
%TD.AperFunction*%
%TA.AperFunction,Conductor*%
G36*
X23743391Y56699385D02*
G01*
X23752410Y56699385D01*
X23752413Y56699384D01*
X23796962Y56699385D01*
X23803041Y56699086D01*
X23909079Y56688645D01*
X23963316Y56683304D01*
X23987156Y56678562D01*
X24132496Y56634477D01*
X24154955Y56625175D01*
X24288911Y56553575D01*
X24309122Y56540070D01*
X24426528Y56443719D01*
X24443718Y56426529D01*
X24540069Y56309123D01*
X24553574Y56288912D01*
X24625174Y56154956D01*
X24634476Y56132496D01*
X24678561Y55987157D01*
X24683303Y55963316D01*
X24699085Y55803043D01*
X24699384Y55796963D01*
X24699384Y55742426D01*
X24699385Y55742413D01*
X24699499Y1302718D01*
X24699263Y1297310D01*
X24685257Y1137257D01*
X24681503Y1115971D01*
X24642025Y968649D01*
X24634632Y948337D01*
X24570170Y810107D01*
X24559362Y791390D01*
X24471878Y666455D01*
X24457983Y649896D01*
X24350125Y542045D01*
X24333569Y528153D01*
X24208637Y440678D01*
X24189917Y429871D01*
X24051673Y365411D01*
X24031362Y358019D01*
X23884042Y318548D01*
X23862754Y314795D01*
X23702017Y300737D01*
X23696613Y300501D01*
X23642424Y300501D01*
X23642412Y300500D01*
X1302717Y300500D01*
X1297311Y300736D01*
X1262620Y303772D01*
X1137249Y314743D01*
X1115964Y318497D01*
X968642Y357974D01*
X948331Y365366D01*
X810085Y429833D01*
X791367Y440641D01*
X666429Y528125D01*
X649872Y542018D01*
X542017Y649873D01*
X528124Y666430D01*
X528106Y666455D01*
X440640Y791368D01*
X429832Y810086D01*
X429822Y810107D01*
X365363Y948337D01*
X357975Y968637D01*
X318494Y1115971D01*
X314742Y1137251D01*
X314741Y1137257D01*
X300735Y1297311D01*
X300500Y1302717D01*
X300513Y3240000D01*
X964341Y3240000D01*
X984936Y3004597D01*
X984938Y3004587D01*
X1046094Y2776345D01*
X1046096Y2776341D01*
X1046097Y2776337D01*
X1145965Y2562170D01*
X1145967Y2562166D01*
X1254281Y2407479D01*
X1281505Y2368599D01*
X1448599Y2201505D01*
X1545384Y2133735D01*
X1642165Y2065968D01*
X1642167Y2065967D01*
X1642170Y2065965D01*
X1856337Y1966097D01*
X2084592Y1904937D01*
X2272918Y1888461D01*
X2319999Y1884341D01*
X2320000Y1884341D01*
X2320001Y1884341D01*
X2359234Y1887774D01*
X2555408Y1904937D01*
X2783663Y1966097D01*
X2997830Y2065965D01*
X3191401Y2201505D01*
X3358495Y2368599D01*
X3494035Y2562170D01*
X3593903Y2776337D01*
X3655063Y3004592D01*
X3675659Y3240000D01*
X3655063Y3475408D01*
X3593903Y3703663D01*
X3494035Y3917829D01*
X3358495Y4111401D01*
X3358494Y4111403D01*
X3191402Y4278494D01*
X3191396Y4278499D01*
X3005842Y4408425D01*
X2962217Y4463002D01*
X2955023Y4532500D01*
X2986546Y4594855D01*
X3005842Y4611575D01*
X3028026Y4627109D01*
X3191401Y4741505D01*
X3358495Y4908599D01*
X3494035Y5102170D01*
X3593903Y5316337D01*
X3655063Y5544592D01*
X3675659Y5780000D01*
X3655063Y6015408D01*
X3593903Y6243663D01*
X3494035Y6457829D01*
X3358495Y6651401D01*
X3358494Y6651403D01*
X3191402Y6818494D01*
X3191396Y6818499D01*
X3005842Y6948425D01*
X2962217Y7003002D01*
X2955023Y7072500D01*
X2986546Y7134855D01*
X3005842Y7151575D01*
X3028026Y7167109D01*
X3191401Y7281505D01*
X3358495Y7448599D01*
X3494035Y7642170D01*
X3593903Y7856337D01*
X3655063Y8084592D01*
X3675659Y8320000D01*
X3655063Y8555408D01*
X3593903Y8783663D01*
X3494035Y8997829D01*
X3358495Y9191401D01*
X3358494Y9191403D01*
X3191402Y9358494D01*
X3191396Y9358499D01*
X3005842Y9488425D01*
X2962217Y9543002D01*
X2955023Y9612500D01*
X2986546Y9674855D01*
X3005842Y9691575D01*
X3028026Y9707109D01*
X3191401Y9821505D01*
X3358495Y9988599D01*
X3494035Y10182170D01*
X3593903Y10396337D01*
X3655063Y10624592D01*
X3675659Y10860000D01*
X3655063Y11095408D01*
X3613559Y11250304D01*
X3615222Y11320154D01*
X3645651Y11370076D01*
X5288191Y13012616D01*
X5294281Y13017957D01*
X5321307Y13038693D01*
X5413746Y13159162D01*
X5471856Y13299451D01*
X5486700Y13412203D01*
X5486700Y13412204D01*
X5491676Y13450000D01*
X5487231Y13483764D01*
X5486700Y13491865D01*
X5486700Y15121223D01*
X5506385Y15188262D01*
X5559189Y15234017D01*
X5628347Y15243961D01*
X5676673Y15226216D01*
X5699386Y15211944D01*
X5756319Y15192023D01*
X5870185Y15152179D01*
X5870191Y15152179D01*
X5870193Y15152178D01*
X6049996Y15131919D01*
X6050000Y15131919D01*
X6050004Y15131919D01*
X6229806Y15152178D01*
X6229805Y15152178D01*
X6229815Y15152179D01*
X6400613Y15211944D01*
X6553830Y15308217D01*
X6681783Y15436170D01*
X6685285Y15441745D01*
X6737617Y15488038D01*
X6806670Y15498690D01*
X6870520Y15470319D01*
X6908895Y15411931D01*
X6914280Y15376512D01*
X6993633Y1966095D01*
X7000000Y890000D01*
X18770000Y890000D01*
X18780000Y16100000D01*
X7193410Y16100000D01*
X7126371Y16119685D01*
X7080616Y16172489D01*
X7070672Y16241647D01*
X7071107Y16243772D01*
X7071854Y16249447D01*
X7071856Y16249451D01*
X7086700Y16362203D01*
X7086700Y16362204D01*
X7091676Y16400000D01*
X7087231Y16433764D01*
X7086700Y16441865D01*
X7086700Y18182690D01*
X7106385Y18249729D01*
X7159189Y18295484D01*
X7224582Y18305910D01*
X7260000Y18301919D01*
X7260000Y18301920D01*
X7260001Y18301919D01*
X7260004Y18301919D01*
X7439806Y18322178D01*
X7439805Y18322178D01*
X7439815Y18322179D01*
X7610613Y18381944D01*
X7763830Y18478217D01*
X7891783Y18606170D01*
X7988056Y18759387D01*
X8047821Y18930185D01*
X8057838Y19019089D01*
X8068081Y19109997D01*
X8068081Y19110004D01*
X8047822Y19289807D01*
X8047821Y19289813D01*
X8047821Y19289815D01*
X8002452Y19419473D01*
X7989801Y19455627D01*
X7986240Y19525406D01*
X8020969Y19586033D01*
X8082962Y19618260D01*
X8152538Y19611854D01*
X8172120Y19602008D01*
X8222595Y19570755D01*
X8222596Y19570755D01*
X8222599Y19570753D01*
X8430060Y19490382D01*
X8648757Y19449500D01*
X8648759Y19449500D01*
X8871242Y19449500D01*
X8871243Y19449500D01*
X9034384Y19479997D01*
X9103897Y19472967D01*
X9158576Y19429470D01*
X9181059Y19363317D01*
X9164207Y19295510D01*
X9144849Y19270428D01*
X9102233Y19227812D01*
X9040910Y19194327D01*
X9028436Y19192273D01*
X8900190Y19177823D01*
X8729387Y19118057D01*
X8576169Y19021783D01*
X8448217Y18893831D01*
X8351943Y18740613D01*
X8292178Y18569813D01*
X8292177Y18569807D01*
X8271919Y18390004D01*
X8271919Y18389997D01*
X8292177Y18210194D01*
X8292178Y18210188D01*
X8351943Y18039388D01*
X8358227Y18029387D01*
X8448217Y17886170D01*
X8576170Y17758217D01*
X8729387Y17661944D01*
X8900185Y17602179D01*
X8900191Y17602179D01*
X8900193Y17602178D01*
X9079996Y17581919D01*
X9080000Y17581919D01*
X9080004Y17581919D01*
X9259806Y17602178D01*
X9259805Y17602178D01*
X9259815Y17602179D01*
X9430613Y17661944D01*
X9583830Y17758217D01*
X9711783Y17886170D01*
X9808056Y18039387D01*
X9840639Y18132504D01*
X9867819Y18210178D01*
X9867822Y18210191D01*
X9882271Y18338436D01*
X9909337Y18402851D01*
X9917800Y18412225D01*
X11477818Y19972243D01*
X11539142Y20005728D01*
X11608834Y20000744D01*
X11664767Y19958872D01*
X11689184Y19893408D01*
X11689500Y19884562D01*
X11689500Y19019089D01*
X11669815Y18952050D01*
X11661353Y18940424D01*
X11595864Y18860627D01*
X11595862Y18860624D01*
X11507604Y18695503D01*
X11453253Y18516334D01*
X11453252Y18516332D01*
X11434901Y18330001D01*
X11453252Y18143669D01*
X11453253Y18143667D01*
X11507604Y17964498D01*
X11595862Y17799377D01*
X11595864Y17799374D01*
X11714642Y17654643D01*
X11859373Y17535865D01*
X11859376Y17535863D01*
X12024497Y17447605D01*
X12024499Y17447604D01*
X12203666Y17393254D01*
X12203668Y17393253D01*
X12220374Y17391608D01*
X12390000Y17374901D01*
X12576331Y17393253D01*
X12755501Y17447604D01*
X12920625Y17535864D01*
X13065357Y17654643D01*
X13184136Y17799375D01*
X13272396Y17964499D01*
X13326747Y18143669D01*
X13345099Y18330000D01*
X13326747Y18516331D01*
X13272396Y18695501D01*
X13261752Y18715414D01*
X13184173Y18860557D01*
X13746976Y18860557D01*
X13767234Y18680754D01*
X13767235Y18680748D01*
X13827000Y18509948D01*
X13846938Y18478217D01*
X13923274Y18356730D01*
X14051227Y18228777D01*
X14204444Y18132504D01*
X14375242Y18072739D01*
X14375248Y18072739D01*
X14375250Y18072738D01*
X14555053Y18052479D01*
X14555057Y18052479D01*
X14555061Y18052479D01*
X14734863Y18072738D01*
X14734862Y18072738D01*
X14734872Y18072739D01*
X14905670Y18132504D01*
X15058887Y18228777D01*
X15186840Y18356730D01*
X15283113Y18509947D01*
X15342878Y18680745D01*
X15348497Y18730613D01*
X15363138Y18860557D01*
X15363138Y18860564D01*
X15342879Y19040367D01*
X15342878Y19040373D01*
X15342878Y19040375D01*
X15283113Y19211173D01*
X15186840Y19364390D01*
X15186838Y19364393D01*
X15168074Y19383157D01*
X15134590Y19444480D01*
X15131757Y19470836D01*
X15131757Y19940890D01*
X15151442Y20007929D01*
X15204246Y20053684D01*
X15273404Y20063628D01*
X15336960Y20034603D01*
X15354711Y20015617D01*
X15489020Y19837762D01*
X15653434Y19687879D01*
X15653436Y19687878D01*
X15653438Y19687876D01*
X15744580Y19631444D01*
X15791213Y19579419D01*
X15803300Y19526019D01*
X15803300Y18990276D01*
X15783615Y18923237D01*
X15766983Y18902597D01*
X15748217Y18883831D01*
X15651943Y18730613D01*
X15592178Y18559813D01*
X15592177Y18559807D01*
X15571919Y18380004D01*
X15571919Y18379997D01*
X15592177Y18200194D01*
X15592178Y18200188D01*
X15651943Y18029388D01*
X15731056Y17903481D01*
X15748217Y17876170D01*
X15876170Y17748217D01*
X16029387Y17651944D01*
X16200185Y17592179D01*
X16200191Y17592179D01*
X16200193Y17592178D01*
X16379996Y17571919D01*
X16380000Y17571919D01*
X16380004Y17571919D01*
X16559806Y17592178D01*
X16559805Y17592178D01*
X16559815Y17592179D01*
X16730613Y17651944D01*
X16883830Y17748217D01*
X17011783Y17876170D01*
X17108056Y18029387D01*
X17167821Y18200185D01*
X17168949Y18210194D01*
X17188081Y18379997D01*
X17188081Y18380004D01*
X17167822Y18559807D01*
X17167821Y18559813D01*
X17167821Y18559815D01*
X17108056Y18730613D01*
X17011783Y18883830D01*
X17011779Y18883834D01*
X16993017Y18902597D01*
X16959533Y18963920D01*
X16956700Y18990276D01*
X16956700Y19526019D01*
X16976385Y19593058D01*
X17015418Y19631443D01*
X17106562Y19687876D01*
X17270981Y19837764D01*
X17405058Y20015311D01*
X17504229Y20214472D01*
X17565115Y20428464D01*
X17585643Y20650000D01*
X17565115Y20871536D01*
X17504229Y21085528D01*
X17456877Y21180624D01*
X17405061Y21284684D01*
X17405056Y21284692D01*
X17270979Y21462239D01*
X17109626Y21609331D01*
X17073344Y21669042D01*
X17075105Y21738890D01*
X17112468Y21793928D01*
X17112024Y21794415D01*
X17114056Y21796269D01*
X17114348Y21796697D01*
X17115674Y21797744D01*
X17280608Y21948100D01*
X17414631Y22125575D01*
X17513760Y22324651D01*
X17566495Y22510000D01*
X16635581Y22510000D01*
X16687060Y22565921D01*
X16733982Y22672892D01*
X16743628Y22789302D01*
X16714953Y22902538D01*
X16651064Y23000327D01*
X16638636Y23010000D01*
X17235294Y23010000D01*
X17276248Y23003042D01*
X17309817Y22991296D01*
X17450185Y22942179D01*
X17450191Y22942179D01*
X17450193Y22942178D01*
X17629996Y22921919D01*
X17630000Y22921919D01*
X17630004Y22921919D01*
X17809806Y22942178D01*
X17809805Y22942178D01*
X17809815Y22942179D01*
X17980613Y23001944D01*
X18133830Y23098217D01*
X18261783Y23226170D01*
X18358056Y23379387D01*
X18417821Y23550185D01*
X18438081Y23730000D01*
X18430711Y23795408D01*
X18417822Y23909807D01*
X18417821Y23909813D01*
X18417821Y23909815D01*
X18358056Y24080613D01*
X18261783Y24233830D01*
X18243019Y24252594D01*
X18209534Y24313917D01*
X18206700Y24340275D01*
X18206700Y29839725D01*
X18226385Y29906764D01*
X18243019Y29927406D01*
X18248113Y29932500D01*
X18261783Y29946170D01*
X18358056Y30099387D01*
X18417821Y30270185D01*
X18423920Y30324316D01*
X18438081Y30449997D01*
X18438081Y30450004D01*
X18417822Y30629807D01*
X18417821Y30629813D01*
X18417821Y30629815D01*
X18358056Y30800613D01*
X18261783Y30953830D01*
X18133830Y31081783D01*
X18002910Y31164046D01*
X17980612Y31178057D01*
X17809812Y31237822D01*
X17809806Y31237823D01*
X17630004Y31258081D01*
X17629996Y31258081D01*
X17450193Y31237823D01*
X17450187Y31237822D01*
X17279387Y31178057D01*
X17126169Y31081783D01*
X16998217Y30953831D01*
X16901943Y30800613D01*
X16840332Y30624536D01*
X16799610Y30567759D01*
X16734657Y30542012D01*
X16682336Y30548448D01*
X16680287Y30549165D01*
X16653462Y30558552D01*
X16596687Y30599273D01*
X16570939Y30664225D01*
X16584395Y30732787D01*
X16587421Y30738070D01*
X16588051Y30739381D01*
X16588056Y30739387D01*
X16647821Y30910185D01*
X16658295Y31003142D01*
X16668081Y31089997D01*
X16668081Y31090004D01*
X16647822Y31269807D01*
X16647821Y31269813D01*
X16647821Y31269815D01*
X16588056Y31440613D01*
X16491783Y31593830D01*
X16363830Y31721783D01*
X16302709Y31760188D01*
X16210612Y31818057D01*
X16039812Y31877822D01*
X16039806Y31877823D01*
X15860004Y31898081D01*
X15859996Y31898081D01*
X15680193Y31877823D01*
X15680187Y31877822D01*
X15509387Y31818057D01*
X15356169Y31721783D01*
X15228217Y31593831D01*
X15131942Y31440611D01*
X15092977Y31329256D01*
X15052255Y31272480D01*
X15016892Y31253170D01*
X14957287Y31232313D01*
X14859386Y31198056D01*
X14706169Y31101783D01*
X14578217Y30973831D01*
X14481943Y30820613D01*
X14422177Y30649810D01*
X14418845Y30620231D01*
X14391779Y30555817D01*
X14344809Y30522849D01*
X14345662Y30521078D01*
X14339391Y30518059D01*
X14186169Y30421783D01*
X14058217Y30293831D01*
X13961943Y30140613D01*
X13902178Y29969813D01*
X13902177Y29969807D01*
X13881919Y29790004D01*
X13881919Y29789997D01*
X13902177Y29610194D01*
X13902178Y29610188D01*
X13961943Y29439388D01*
X14058217Y29286170D01*
X14076981Y29267406D01*
X14110466Y29206083D01*
X14113300Y29179725D01*
X14113300Y27490277D01*
X14093615Y27423238D01*
X14076983Y27402598D01*
X14058219Y27383834D01*
X13961943Y27230613D01*
X13902178Y27059813D01*
X13902177Y27059807D01*
X13881919Y26880004D01*
X13881919Y26879997D01*
X13902177Y26700194D01*
X13902178Y26700188D01*
X13961943Y26529388D01*
X13961944Y26529387D01*
X14058217Y26376170D01*
X14186170Y26248217D01*
X14339387Y26151944D01*
X14510185Y26092179D01*
X14510191Y26092179D01*
X14510193Y26092178D01*
X14689996Y26071919D01*
X14690000Y26071919D01*
X14690004Y26071919D01*
X14869806Y26092178D01*
X14869805Y26092178D01*
X14869815Y26092179D01*
X14928789Y26112816D01*
X14998566Y26116378D01*
X15059194Y26081649D01*
X15086785Y26036729D01*
X15131344Y25909387D01*
X15227617Y25756170D01*
X15343126Y25640661D01*
X15376611Y25579338D01*
X15371627Y25509646D01*
X15366445Y25497708D01*
X15265775Y25295539D01*
X15265769Y25295524D01*
X15204885Y25081538D01*
X15204884Y25081536D01*
X15184357Y24860001D01*
X15184357Y24860000D01*
X15204884Y24638467D01*
X15204885Y24638464D01*
X15216257Y24598494D01*
X15217726Y24593333D01*
X15217138Y24523466D01*
X15186140Y24471719D01*
X14176870Y23462448D01*
X14170767Y23457097D01*
X14143751Y23436365D01*
X14108078Y23389877D01*
X14101346Y23381103D01*
X14051310Y23315896D01*
X13993201Y23175607D01*
X13993200Y23175605D01*
X13982765Y23096336D01*
X13980549Y23079500D01*
X13973381Y23025057D01*
X13976279Y23003042D01*
X13977826Y22991296D01*
X13978357Y22983194D01*
X13978357Y19470835D01*
X13958672Y19403796D01*
X13942038Y19383154D01*
X13923274Y19364391D01*
X13827000Y19211173D01*
X13767235Y19040373D01*
X13767234Y19040367D01*
X13746976Y18860564D01*
X13746976Y18860557D01*
X13184173Y18860557D01*
X13184137Y18860624D01*
X13184135Y18860627D01*
X13118647Y18940424D01*
X13091334Y19004734D01*
X13090500Y19019089D01*
X13090500Y19960912D01*
X13110185Y20027951D01*
X13118647Y20039577D01*
X13184135Y20119374D01*
X13184137Y20119377D01*
X13199760Y20148605D01*
X13272396Y20284499D01*
X13326747Y20463669D01*
X13345099Y20650000D01*
X13326747Y20836331D01*
X13272396Y21015501D01*
X13184136Y21180625D01*
X13184135Y21180627D01*
X13065357Y21325358D01*
X12920626Y21444136D01*
X12920623Y21444138D01*
X12755502Y21532396D01*
X12576333Y21586747D01*
X12576331Y21586748D01*
X12390000Y21605099D01*
X12203669Y21586748D01*
X12136694Y21566431D01*
X12066828Y21565808D01*
X12007715Y21603057D01*
X11978124Y21666351D01*
X11976700Y21685092D01*
X11976700Y26269725D01*
X11996385Y26336764D01*
X12013019Y26357406D01*
X12013018Y26357406D01*
X12031783Y26376170D01*
X12128056Y26529387D01*
X12187821Y26700185D01*
X12196569Y26777829D01*
X12208081Y26879997D01*
X12208081Y26880004D01*
X12187822Y27059807D01*
X12187821Y27059813D01*
X12187821Y27059815D01*
X12128056Y27230613D01*
X12031783Y27383830D01*
X11903830Y27511783D01*
X11761036Y27601507D01*
X11750612Y27608057D01*
X11579812Y27667822D01*
X11579806Y27667823D01*
X11400004Y27688081D01*
X11399996Y27688081D01*
X11220193Y27667823D01*
X11220187Y27667822D01*
X11049387Y27608057D01*
X10896169Y27511783D01*
X10768217Y27383831D01*
X10671943Y27230613D01*
X10612178Y27059813D01*
X10612177Y27059807D01*
X10591919Y26880004D01*
X10591919Y26879997D01*
X10612177Y26700194D01*
X10612178Y26700188D01*
X10671943Y26529388D01*
X10768217Y26376170D01*
X10786981Y26357406D01*
X10820466Y26296083D01*
X10823300Y26269725D01*
X10823300Y21000240D01*
X10803615Y20933201D01*
X10786981Y20912559D01*
X10140446Y20266024D01*
X10079123Y20232539D01*
X10009431Y20237523D01*
X9953498Y20279395D01*
X9929081Y20344859D01*
X9933498Y20387637D01*
X9945115Y20428464D01*
X9965643Y20650000D01*
X9945115Y20871536D01*
X9884229Y21085528D01*
X9836877Y21180624D01*
X9785061Y21284684D01*
X9785056Y21284692D01*
X9650979Y21462239D01*
X9490003Y21608987D01*
X9453721Y21668698D01*
X9455482Y21738545D01*
X9492790Y21793504D01*
X9492326Y21794014D01*
X9494454Y21795955D01*
X9494725Y21796353D01*
X9495959Y21797327D01*
X9496559Y21797875D01*
X9496562Y21797876D01*
X9660981Y21947764D01*
X9795058Y22125311D01*
X9894229Y22324472D01*
X9955115Y22538464D01*
X9975643Y22760000D01*
X9964322Y22882170D01*
X9955115Y22981536D01*
X9955114Y22981538D01*
X9950204Y22998794D01*
X9894229Y23195528D01*
X9878971Y23226170D01*
X9795061Y23394684D01*
X9795056Y23394692D01*
X9660981Y23572236D01*
X9500316Y23718702D01*
X9464035Y23778414D01*
X9465796Y23848261D01*
X9500317Y23901976D01*
X9660608Y24048101D01*
X9794631Y24225575D01*
X9893760Y24424651D01*
X9946495Y24610000D01*
X9015581Y24610000D01*
X9067060Y24665921D01*
X9113982Y24772892D01*
X9123628Y24889302D01*
X9094953Y25002538D01*
X9031064Y25100327D01*
X8938885Y25172072D01*
X8828405Y25210000D01*
X8740995Y25210000D01*
X8654784Y25195614D01*
X8552053Y25140019D01*
X8472940Y25054079D01*
X8426018Y24947108D01*
X8416372Y24830698D01*
X8445047Y24717462D01*
X8508936Y24619673D01*
X8521364Y24610000D01*
X7593505Y24610000D01*
X7646239Y24424651D01*
X7745368Y24225575D01*
X7879391Y24048100D01*
X8039682Y23901976D01*
X8075964Y23842265D01*
X8074203Y23772417D01*
X8039683Y23718702D01*
X7879018Y23572236D01*
X7744943Y23394692D01*
X7744938Y23394684D01*
X7645775Y23195539D01*
X7645769Y23195524D01*
X7584885Y22981538D01*
X7584884Y22981536D01*
X7564357Y22760001D01*
X7564357Y22760000D01*
X7584884Y22538467D01*
X7597726Y22493333D01*
X7597138Y22423466D01*
X7566140Y22371719D01*
X7298381Y22103959D01*
X7237058Y22070474D01*
X7167367Y22075458D01*
X7111433Y22117329D01*
X7087016Y22182794D01*
X7086700Y22191640D01*
X7086700Y25110000D01*
X7593505Y25110000D01*
X8520000Y25110000D01*
X8520000Y26034054D01*
X9020000Y26034054D01*
X9020000Y25110000D01*
X9946495Y25110000D01*
X9893760Y25295350D01*
X9794631Y25494426D01*
X9660608Y25671901D01*
X9496261Y25821722D01*
X9307179Y25938798D01*
X9307177Y25938799D01*
X9099799Y26019136D01*
X9020000Y26034054D01*
X8520000Y26034054D01*
X8440200Y26019136D01*
X8232822Y25938799D01*
X8232820Y25938798D01*
X8043738Y25821722D01*
X7879391Y25671901D01*
X7745368Y25494426D01*
X7646239Y25295350D01*
X7593505Y25110000D01*
X7086700Y25110000D01*
X7086700Y27559725D01*
X7106385Y27626764D01*
X7123021Y27647408D01*
X7141782Y27666169D01*
X7142821Y27667822D01*
X7238056Y27819387D01*
X7297821Y27990185D01*
X7311641Y28112842D01*
X7318081Y28169997D01*
X7318081Y28170004D01*
X7297822Y28349807D01*
X7297821Y28349813D01*
X7297821Y28349815D01*
X7238056Y28520613D01*
X7141783Y28673830D01*
X7013830Y28801783D01*
X6922716Y28859034D01*
X6860612Y28898057D01*
X6689812Y28957822D01*
X6689807Y28957823D01*
X6535134Y28975250D01*
X6470720Y29002317D01*
X6431165Y29059911D01*
X6429028Y29129748D01*
X6461335Y29186150D01*
X6600047Y29324861D01*
X6730568Y29511266D01*
X6826739Y29717504D01*
X6885635Y29937308D01*
X6905468Y30163998D01*
X9295034Y30163998D01*
X9314858Y29937401D01*
X9314860Y29937390D01*
X9373730Y29717683D01*
X9373734Y29717674D01*
X9469865Y29511519D01*
X9469866Y29511517D01*
X9520973Y29438529D01*
X9520973Y29438528D01*
X10202046Y30119601D01*
X10214835Y30038852D01*
X10272359Y29925955D01*
X10361955Y29836359D01*
X10474852Y29778835D01*
X10555599Y29766047D01*
X9874526Y29084975D01*
X9874526Y29084974D01*
X9947512Y29033869D01*
X9947516Y29033867D01*
X10153673Y28937735D01*
X10153682Y28937731D01*
X10373389Y28878861D01*
X10373400Y28878859D01*
X10599998Y28859034D01*
X10600002Y28859034D01*
X10826599Y28878859D01*
X10826610Y28878861D01*
X11046317Y28937731D01*
X11046331Y28937736D01*
X11252478Y29033864D01*
X11325472Y29084975D01*
X10644401Y29766047D01*
X10725148Y29778835D01*
X10838045Y29836359D01*
X10927641Y29925955D01*
X10985165Y30038852D01*
X10997953Y30119600D01*
X11679025Y29438528D01*
X11730136Y29511522D01*
X11826264Y29717669D01*
X11826269Y29717683D01*
X11885139Y29937390D01*
X11885141Y29937401D01*
X11904966Y30163998D01*
X11904966Y30164003D01*
X11885141Y30390600D01*
X11885139Y30390611D01*
X11826269Y30610318D01*
X11826265Y30610327D01*
X11730133Y30816484D01*
X11730131Y30816488D01*
X11679026Y30889474D01*
X11679025Y30889474D01*
X10997953Y30208402D01*
X10985165Y30289148D01*
X10927641Y30402045D01*
X10838045Y30491641D01*
X10725148Y30549165D01*
X10644400Y30561954D01*
X11325472Y31243026D01*
X11325471Y31243027D01*
X11252483Y31294134D01*
X11252481Y31294135D01*
X11046326Y31390266D01*
X11046317Y31390270D01*
X10826610Y31449140D01*
X10826599Y31449142D01*
X10600002Y31468966D01*
X10599998Y31468966D01*
X10373400Y31449142D01*
X10373389Y31449140D01*
X10153682Y31390270D01*
X10153673Y31390266D01*
X9947513Y31294132D01*
X9874527Y31243028D01*
X9874526Y31243027D01*
X10555600Y30561954D01*
X10474852Y30549165D01*
X10361955Y30491641D01*
X10272359Y30402045D01*
X10214835Y30289148D01*
X10202046Y30208402D01*
X9520973Y30889474D01*
X9469868Y30816487D01*
X9373734Y30610327D01*
X9373730Y30610318D01*
X9314860Y30390611D01*
X9314858Y30390600D01*
X9295034Y30164003D01*
X9295034Y30163998D01*
X6905468Y30163998D01*
X6905468Y30164000D01*
X6885635Y30390692D01*
X6826739Y30610496D01*
X6730568Y30816734D01*
X6620569Y30973830D01*
X6600045Y31003142D01*
X6439141Y31164046D01*
X6252734Y31294568D01*
X6252732Y31294569D01*
X6046497Y31390739D01*
X6046488Y31390742D01*
X5826697Y31449634D01*
X5826693Y31449635D01*
X5826692Y31449635D01*
X5826691Y31449636D01*
X5826686Y31449636D01*
X5600002Y31469468D01*
X5599998Y31469468D01*
X5373313Y31449636D01*
X5373302Y31449634D01*
X5153511Y31390742D01*
X5153502Y31390738D01*
X4946904Y31294400D01*
X4877826Y31283908D01*
X4814042Y31312428D01*
X4775803Y31370905D01*
X4770499Y31406782D01*
X4770499Y31449636D01*
X4770499Y31616506D01*
X4790184Y31683542D01*
X4842988Y31729297D01*
X4882344Y31739906D01*
X4916331Y31743253D01*
X5095501Y31797604D01*
X5260625Y31885864D01*
X5405357Y32004643D01*
X5524136Y32149375D01*
X5612396Y32314499D01*
X5666747Y32493669D01*
X5685099Y32680000D01*
X5666747Y32866331D01*
X5666746Y32866333D01*
X5666746Y32866334D01*
X5664135Y32874940D01*
X5612396Y33045501D01*
X5612395Y33045503D01*
X5524137Y33210624D01*
X5524135Y33210627D01*
X5468647Y33278239D01*
X5441334Y33342549D01*
X5440500Y33356904D01*
X5440500Y35123482D01*
X5460185Y35190521D01*
X5476819Y35211163D01*
X5790543Y35524887D01*
X6119030Y35853375D01*
X6180351Y35886858D01*
X6217517Y35889220D01*
X6222703Y35888767D01*
X6222708Y35888765D01*
X6427663Y35870834D01*
X6449399Y35868932D01*
X6449400Y35868932D01*
X6449402Y35868932D01*
X6506073Y35873891D01*
X6676092Y35888765D01*
X6895896Y35947661D01*
X7102134Y36043832D01*
X7288539Y36174353D01*
X7449447Y36335261D01*
X7579968Y36521666D01*
X7587293Y36537377D01*
X7633462Y36589814D01*
X7700654Y36608968D01*
X7767536Y36588755D01*
X7812057Y36537377D01*
X7819265Y36521919D01*
X7819266Y36521917D01*
X7870373Y36448929D01*
X7870374Y36448928D01*
X8551446Y37130001D01*
X8564235Y37049252D01*
X8621759Y36936355D01*
X8711355Y36846759D01*
X8824252Y36789235D01*
X8904999Y36776447D01*
X8223926Y36095375D01*
X8223926Y36095374D01*
X8296912Y36044269D01*
X8296916Y36044267D01*
X8503073Y35948135D01*
X8503082Y35948131D01*
X8722789Y35889261D01*
X8722800Y35889259D01*
X8949398Y35869434D01*
X8949402Y35869434D01*
X9175999Y35889259D01*
X9176010Y35889261D01*
X9395717Y35948131D01*
X9395731Y35948136D01*
X9601878Y36044264D01*
X9674872Y36095375D01*
X8993801Y36776447D01*
X9074548Y36789235D01*
X9187445Y36846759D01*
X9277041Y36936355D01*
X9334565Y37049252D01*
X9347353Y37130001D01*
X10028425Y36448928D01*
X10079536Y36521922D01*
X10175664Y36728069D01*
X10175669Y36728083D01*
X10234539Y36947790D01*
X10234541Y36947801D01*
X10254366Y37174398D01*
X10254366Y37174403D01*
X10234541Y37401000D01*
X10234539Y37401011D01*
X10175669Y37620718D01*
X10175665Y37620727D01*
X10079533Y37826884D01*
X10079531Y37826888D01*
X10028426Y37899874D01*
X10028425Y37899874D01*
X9347353Y37218803D01*
X9334565Y37299548D01*
X9277041Y37412445D01*
X9187445Y37502041D01*
X9074548Y37559565D01*
X8993800Y37572354D01*
X9674872Y38253426D01*
X9674871Y38253427D01*
X9601883Y38304534D01*
X9601881Y38304535D01*
X9395726Y38400666D01*
X9395717Y38400670D01*
X9176010Y38459540D01*
X9175999Y38459542D01*
X8949402Y38479366D01*
X8949398Y38479366D01*
X8722800Y38459542D01*
X8722789Y38459540D01*
X8503082Y38400670D01*
X8503073Y38400666D01*
X8296913Y38304532D01*
X8223927Y38253428D01*
X8223926Y38253427D01*
X8905000Y37572354D01*
X8824252Y37559565D01*
X8711355Y37502041D01*
X8621759Y37412445D01*
X8564235Y37299548D01*
X8551446Y37218801D01*
X7870373Y37899874D01*
X7870372Y37899873D01*
X7819268Y37826888D01*
X7812056Y37811421D01*
X7765882Y37758983D01*
X7698688Y37739833D01*
X7631807Y37760050D01*
X7587293Y37811424D01*
X7579968Y37827134D01*
X7508918Y37928605D01*
X7449448Y38013538D01*
X7375509Y38087477D01*
X7288539Y38174447D01*
X7202776Y38234499D01*
X7159151Y38289076D01*
X7149900Y38336074D01*
X7149900Y40098854D01*
X7168908Y40164828D01*
X7178053Y40179382D01*
X7178053Y40179383D01*
X7178056Y40179387D01*
X7237821Y40350185D01*
X7251163Y40468599D01*
X7258081Y40529997D01*
X7258081Y40530004D01*
X7237822Y40709807D01*
X7237821Y40709813D01*
X7237821Y40709815D01*
X7178056Y40880613D01*
X7081783Y41033830D01*
X6953830Y41161783D01*
X6895114Y41198677D01*
X6800612Y41258057D01*
X6629812Y41317822D01*
X6629806Y41317823D01*
X6450004Y41338081D01*
X6449996Y41338081D01*
X6270193Y41317823D01*
X6270187Y41317822D01*
X6099387Y41258057D01*
X5946169Y41161783D01*
X5818217Y41033831D01*
X5721943Y40880613D01*
X5662178Y40709813D01*
X5662177Y40709807D01*
X5641919Y40530004D01*
X5641919Y40529997D01*
X5662177Y40350194D01*
X5662178Y40350188D01*
X5721944Y40179385D01*
X5729892Y40166737D01*
X5748900Y40100763D01*
X5748900Y38336074D01*
X5729215Y38269035D01*
X5696024Y38234499D01*
X5610263Y38174449D01*
X5449351Y38013538D01*
X5318832Y37827135D01*
X5318831Y37827133D01*
X5222661Y37620898D01*
X5222658Y37620889D01*
X5163766Y37401098D01*
X5163764Y37401087D01*
X5143932Y37174402D01*
X5143932Y37174399D01*
X5164219Y36942519D01*
X5150452Y36874019D01*
X5128373Y36844032D01*
X5098381Y36814040D01*
X5037060Y36780554D01*
X4967368Y36785538D01*
X4911434Y36827408D01*
X4887016Y36892872D01*
X4886700Y36901720D01*
X4886700Y43619725D01*
X4906385Y43686764D01*
X4923019Y43707406D01*
X4932100Y43716487D01*
X4941783Y43726170D01*
X5038056Y43879387D01*
X5097821Y44050185D01*
X5105170Y44115408D01*
X5118081Y44229997D01*
X5118081Y44230004D01*
X5097822Y44409807D01*
X5097821Y44409813D01*
X5097821Y44409815D01*
X5038056Y44580613D01*
X4941783Y44733830D01*
X4813830Y44861783D01*
X4777834Y44884401D01*
X4660612Y44958057D01*
X4489812Y45017822D01*
X4489806Y45017823D01*
X4310004Y45038081D01*
X4309996Y45038081D01*
X4130193Y45017823D01*
X4130187Y45017822D01*
X3959387Y44958057D01*
X3806169Y44861783D01*
X3678217Y44733831D01*
X3678215Y44733828D01*
X3632224Y44660635D01*
X3579889Y44614344D01*
X3510835Y44603697D01*
X3446987Y44632073D01*
X3425656Y44655485D01*
X3358494Y44751403D01*
X3191402Y44918494D01*
X3191396Y44918499D01*
X3005842Y45048425D01*
X2962217Y45103002D01*
X2955023Y45172500D01*
X2986546Y45234855D01*
X3005842Y45251575D01*
X3137014Y45343423D01*
X3191401Y45381505D01*
X3358495Y45548599D01*
X3494035Y45742170D01*
X3593903Y45956337D01*
X3655063Y46184592D01*
X3675659Y46420000D01*
X3675581Y46420886D01*
X3655063Y46655404D01*
X3655063Y46655408D01*
X3593903Y46883663D01*
X3494035Y47097829D01*
X3479015Y47119281D01*
X3358494Y47291403D01*
X3191402Y47458494D01*
X3191396Y47458499D01*
X3005842Y47588425D01*
X2962217Y47643002D01*
X2955023Y47712500D01*
X2986546Y47774855D01*
X3005842Y47791575D01*
X3028026Y47807109D01*
X3191401Y47921505D01*
X3358495Y48088599D01*
X3494035Y48282170D01*
X3593903Y48496337D01*
X3655063Y48724592D01*
X3675659Y48960000D01*
X3655063Y49195408D01*
X3606979Y49374862D01*
X3593905Y49423656D01*
X3593904Y49423657D01*
X3593903Y49423663D01*
X3494035Y49637829D01*
X3440749Y49713930D01*
X6329700Y49713930D01*
X6329701Y49713924D01*
X6336108Y49654317D01*
X6386402Y49519472D01*
X6386406Y49519465D01*
X6472652Y49404256D01*
X6472655Y49404253D01*
X6587864Y49318007D01*
X6587871Y49318003D01*
X6615825Y49307577D01*
X6722717Y49267709D01*
X6782327Y49261300D01*
X7029501Y49261301D01*
X7096539Y49241617D01*
X7142294Y49188813D01*
X7153500Y49137301D01*
X7153500Y46897265D01*
X7152969Y46889164D01*
X7148524Y46855402D01*
X7148524Y46855400D01*
X7152825Y46822727D01*
X7152829Y46822696D01*
X7153500Y46817604D01*
X7153500Y46817603D01*
X7168344Y46704852D01*
X7168344Y46704851D01*
X7226452Y46564565D01*
X7226453Y46564563D01*
X7226454Y46564562D01*
X7318893Y46444093D01*
X7336762Y46430382D01*
X7345911Y46423361D01*
X7352006Y46418017D01*
X8300193Y45469830D01*
X9192188Y44577835D01*
X9225673Y44516512D01*
X9227727Y44504038D01*
X9242177Y44375791D01*
X9301943Y44204988D01*
X9387037Y44069562D01*
X9406037Y44002325D01*
X9385669Y43935490D01*
X9374863Y43921368D01*
X9371819Y43917932D01*
X9336586Y43866891D01*
X9334368Y43863876D01*
X9296124Y43815061D01*
X9296119Y43815052D01*
X9291960Y43805812D01*
X9280942Y43786277D01*
X9275187Y43777939D01*
X9275183Y43777933D01*
X9275182Y43777930D01*
X9275180Y43777926D01*
X9275179Y43777923D01*
X9253189Y43719945D01*
X9251757Y43716487D01*
X9226305Y43659932D01*
X9224477Y43649958D01*
X9218453Y43628347D01*
X9214860Y43618873D01*
X9214859Y43618872D01*
X9207384Y43557315D01*
X9206821Y43553614D01*
X9195642Y43492610D01*
X9195642Y43492605D01*
X9199387Y43430698D01*
X9199500Y43426953D01*
X9199500Y40960193D01*
X9180494Y40894222D01*
X9171944Y40880616D01*
X9112178Y40709813D01*
X9112177Y40709807D01*
X9091919Y40530004D01*
X9091919Y40529997D01*
X9112177Y40350194D01*
X9112178Y40350188D01*
X9171943Y40179388D01*
X9240677Y40070000D01*
X9268217Y40026170D01*
X9396170Y39898217D01*
X9549387Y39801944D01*
X9720185Y39742179D01*
X9720191Y39742179D01*
X9720193Y39742178D01*
X9899996Y39721919D01*
X9900000Y39721919D01*
X9900004Y39721919D01*
X10079806Y39742178D01*
X10079805Y39742178D01*
X10079815Y39742179D01*
X10250613Y39801944D01*
X10403830Y39898217D01*
X10531783Y40026170D01*
X10628056Y40179387D01*
X10628055Y40179387D01*
X10630506Y40183286D01*
X10682841Y40229577D01*
X10751895Y40240225D01*
X10815743Y40211850D01*
X10854115Y40153460D01*
X10859500Y40117314D01*
X10859500Y39749089D01*
X10839815Y39682050D01*
X10831353Y39670424D01*
X10765864Y39590627D01*
X10765862Y39590624D01*
X10677604Y39425503D01*
X10623253Y39246334D01*
X10623252Y39246332D01*
X10604901Y39060000D01*
X10623252Y38873669D01*
X10623253Y38873667D01*
X10677604Y38694498D01*
X10765862Y38529377D01*
X10765864Y38529374D01*
X10831353Y38449577D01*
X10858666Y38385268D01*
X10859500Y38370912D01*
X10859500Y33387829D01*
X10839815Y33320790D01*
X10831353Y33309164D01*
X10725864Y33180627D01*
X10725862Y33180624D01*
X10637604Y33015503D01*
X10583253Y32836334D01*
X10583252Y32836332D01*
X10564901Y32650001D01*
X10583252Y32463669D01*
X10583253Y32463667D01*
X10637604Y32284498D01*
X10725862Y32119377D01*
X10725864Y32119374D01*
X10844642Y31974643D01*
X10989373Y31855865D01*
X10989376Y31855863D01*
X11154497Y31767605D01*
X11154499Y31767604D01*
X11305550Y31721783D01*
X11333666Y31713254D01*
X11333668Y31713253D01*
X11350374Y31711608D01*
X11520000Y31694901D01*
X11706331Y31713253D01*
X11885501Y31767604D01*
X12050625Y31855864D01*
X12195357Y31974643D01*
X12314136Y32119375D01*
X12402396Y32284499D01*
X12456747Y32463669D01*
X12475099Y32650000D01*
X12457897Y32824651D01*
X12456747Y32836332D01*
X12456746Y32836334D01*
X12453026Y32848598D01*
X12402396Y33015501D01*
X12368874Y33078217D01*
X12314137Y33180624D01*
X12314135Y33180627D01*
X12288647Y33211684D01*
X12261334Y33275994D01*
X12260500Y33290349D01*
X12260500Y38370912D01*
X12280185Y38437951D01*
X12288647Y38449577D01*
X12354135Y38529374D01*
X12354137Y38529377D01*
X12442395Y38694498D01*
X12442396Y38694499D01*
X12496747Y38873669D01*
X12515099Y39060000D01*
X12496747Y39246331D01*
X12442396Y39425501D01*
X12410971Y39484294D01*
X12354137Y39590624D01*
X12354135Y39590627D01*
X12288647Y39670424D01*
X12261334Y39734734D01*
X12260500Y39749089D01*
X12260500Y40869366D01*
X12280185Y40936405D01*
X12300962Y40961003D01*
X12450979Y41097762D01*
X12499326Y41161783D01*
X12585058Y41275311D01*
X12684229Y41474472D01*
X12745115Y41688464D01*
X12765643Y41910000D01*
X12745115Y42131536D01*
X12684229Y42345528D01*
X12667814Y42378494D01*
X12585061Y42544684D01*
X12585056Y42544692D01*
X12450979Y42722239D01*
X12286562Y42872124D01*
X12286560Y42872126D01*
X12097404Y42989246D01*
X12097398Y42989248D01*
X12083392Y42994674D01*
X11889940Y43069618D01*
X11671243Y43110500D01*
X11448757Y43110500D01*
X11230060Y43069618D01*
X11177487Y43049251D01*
X11022601Y42989248D01*
X11022595Y42989246D01*
X10833439Y42872126D01*
X10833437Y42872124D01*
X10808037Y42848969D01*
X10745232Y42818352D01*
X10675845Y42826551D01*
X10621906Y42870962D01*
X10600539Y42937484D01*
X10600500Y42940607D01*
X10600500Y43108482D01*
X10620185Y43175521D01*
X10636819Y43196163D01*
X10997971Y43557315D01*
X11419469Y43978814D01*
X11480790Y44012297D01*
X11529932Y44013019D01*
X11548757Y44009500D01*
X11548759Y44009500D01*
X11771241Y44009500D01*
X11771243Y44009500D01*
X11989940Y44050382D01*
X12197401Y44130753D01*
X12386562Y44247876D01*
X12550981Y44397764D01*
X12685058Y44575311D01*
X12727545Y44660635D01*
X12785769Y44777564D01*
X12833272Y44828801D01*
X12900935Y44846222D01*
X12967275Y44824296D01*
X12984450Y44809973D01*
X14016834Y43777589D01*
X14050318Y43716268D01*
X14053152Y43689910D01*
X14053152Y35010010D01*
X14052621Y35001909D01*
X14048176Y34968147D01*
X14048176Y34968144D01*
X14067995Y34817598D01*
X14067996Y34817596D01*
X14126105Y34677307D01*
X14185964Y34599296D01*
X14185965Y34599296D01*
X14185966Y34599295D01*
X14218545Y34556838D01*
X14239850Y34540490D01*
X14245563Y34536106D01*
X14251658Y34530762D01*
X14336692Y34445728D01*
X14412188Y34370232D01*
X14445673Y34308909D01*
X14447727Y34296435D01*
X14462177Y34168188D01*
X14521943Y33997385D01*
X14589539Y33889807D01*
X14618217Y33844167D01*
X14746170Y33716214D01*
X14899387Y33619941D01*
X15070185Y33560176D01*
X15070191Y33560176D01*
X15070193Y33560175D01*
X15249996Y33539916D01*
X15250000Y33539916D01*
X15250004Y33539916D01*
X15429806Y33560175D01*
X15429805Y33560175D01*
X15429815Y33560176D01*
X15600613Y33619941D01*
X15753830Y33716214D01*
X15881783Y33844167D01*
X15978056Y33997384D01*
X16037821Y34168182D01*
X16039565Y34183663D01*
X16058081Y34347994D01*
X16058081Y34348001D01*
X16037822Y34527804D01*
X16037821Y34527810D01*
X16037821Y34527812D01*
X15978056Y34698610D01*
X15881783Y34851827D01*
X15753830Y34979780D01*
X15712194Y35005942D01*
X15600612Y35076054D01*
X15429809Y35135820D01*
X15316668Y35148568D01*
X15252254Y35175635D01*
X15212699Y35233230D01*
X15206552Y35271788D01*
X15206552Y35869754D01*
X15226237Y35936793D01*
X15279041Y35982548D01*
X15348199Y35992492D01*
X15382957Y35982136D01*
X15455873Y35948134D01*
X15455882Y35948131D01*
X15675589Y35889261D01*
X15675600Y35889259D01*
X15902198Y35869434D01*
X15902202Y35869434D01*
X16128799Y35889259D01*
X16128810Y35889261D01*
X16348517Y35948131D01*
X16348521Y35948133D01*
X16386894Y35966026D01*
X16455971Y35976518D01*
X16519756Y35947999D01*
X16557996Y35889523D01*
X16563300Y35853644D01*
X16563300Y34320275D01*
X16543615Y34253236D01*
X16526981Y34232594D01*
X16508217Y34213831D01*
X16411943Y34060613D01*
X16352178Y33889813D01*
X16352177Y33889807D01*
X16331919Y33710004D01*
X16331919Y33709997D01*
X16352177Y33530194D01*
X16352178Y33530188D01*
X16411943Y33359388D01*
X16476690Y33256345D01*
X16508217Y33206170D01*
X16636170Y33078217D01*
X16789387Y32981944D01*
X16960185Y32922179D01*
X16960191Y32922179D01*
X16960193Y32922178D01*
X17139996Y32901919D01*
X17140000Y32901919D01*
X17140004Y32901919D01*
X17319806Y32922178D01*
X17319805Y32922178D01*
X17319815Y32922179D01*
X17490613Y32981944D01*
X17643830Y33078217D01*
X17771783Y33206170D01*
X17868056Y33359387D01*
X17927821Y33530185D01*
X17948081Y33710000D01*
X17946954Y33720000D01*
X17927822Y33889807D01*
X17927821Y33889813D01*
X17927821Y33889815D01*
X17868056Y34060613D01*
X17771783Y34213830D01*
X17753019Y34232594D01*
X17719534Y34293917D01*
X17716700Y34320275D01*
X17716700Y35864470D01*
X17736385Y35931509D01*
X17789189Y35977264D01*
X17858347Y35987208D01*
X17893102Y35976853D01*
X17955704Y35947661D01*
X18175508Y35888765D01*
X18337430Y35874599D01*
X18402198Y35868932D01*
X18402200Y35868932D01*
X18402202Y35868932D01*
X18458873Y35873891D01*
X18628892Y35888765D01*
X18848696Y35947661D01*
X19054934Y36043832D01*
X19241339Y36174353D01*
X19402247Y36335261D01*
X19532768Y36521666D01*
X19628939Y36727904D01*
X19635724Y36753229D01*
X19672090Y36812889D01*
X19734936Y36843419D01*
X19804312Y36835125D01*
X19858190Y36790640D01*
X19879465Y36724088D01*
X19879500Y36721136D01*
X19879500Y33263049D01*
X19879387Y33259304D01*
X19876443Y33210627D01*
X19875642Y33197394D01*
X19878715Y33180625D01*
X19886821Y33136388D01*
X19887384Y33132687D01*
X19894859Y33071130D01*
X19894860Y33071126D01*
X19898451Y33061657D01*
X19904474Y33040054D01*
X19906304Y33030070D01*
X19931759Y32973510D01*
X19933189Y32970059D01*
X19955182Y32912070D01*
X19955183Y32912069D01*
X19960936Y32903734D01*
X19971961Y32884187D01*
X19976120Y32874945D01*
X19976124Y32874940D01*
X19982867Y32866333D01*
X20006372Y32836331D01*
X20014371Y32826122D01*
X20016591Y32823104D01*
X20051812Y32772076D01*
X20051815Y32772072D01*
X20061384Y32763595D01*
X20077634Y32749199D01*
X20114761Y32690013D01*
X20113995Y32620147D01*
X20083090Y32568703D01*
X19958216Y32443829D01*
X19861943Y32290613D01*
X19802178Y32119813D01*
X19802177Y32119807D01*
X19781919Y31940004D01*
X19781919Y31939997D01*
X19802177Y31760194D01*
X19802178Y31760188D01*
X19861943Y31589388D01*
X19958217Y31436170D01*
X19976981Y31417406D01*
X20010466Y31356083D01*
X20013300Y31329725D01*
X20013300Y18990277D01*
X19993615Y18923238D01*
X19976983Y18902598D01*
X19958219Y18883834D01*
X19861943Y18730613D01*
X19802178Y18559813D01*
X19802177Y18559807D01*
X19781919Y18380004D01*
X19781919Y18379997D01*
X19802177Y18200194D01*
X19802178Y18200188D01*
X19861943Y18029388D01*
X19941056Y17903481D01*
X19958217Y17876170D01*
X20086170Y17748217D01*
X20239387Y17651944D01*
X20410185Y17592179D01*
X20410191Y17592179D01*
X20410193Y17592178D01*
X20589996Y17571919D01*
X20590000Y17571919D01*
X20590004Y17571919D01*
X20769806Y17592178D01*
X20769805Y17592178D01*
X20769815Y17592179D01*
X20940613Y17651944D01*
X21093830Y17748217D01*
X21221783Y17876170D01*
X21221786Y17876176D01*
X21226126Y17881616D01*
X21227411Y17880591D01*
X21273326Y17921205D01*
X21342380Y17931855D01*
X21406229Y17903481D01*
X21438370Y17861348D01*
X21465965Y17802170D01*
X21465967Y17802166D01*
X21601501Y17608605D01*
X21601506Y17608598D01*
X21768597Y17441507D01*
X21768603Y17441502D01*
X21954158Y17311575D01*
X21997783Y17256998D01*
X22004977Y17187500D01*
X21973454Y17125145D01*
X21954158Y17108425D01*
X21768597Y16978495D01*
X21601505Y16811403D01*
X21465965Y16617831D01*
X21465964Y16617829D01*
X21366098Y16403665D01*
X21366094Y16403656D01*
X21304938Y16175414D01*
X21304936Y16175404D01*
X21284341Y15940001D01*
X21284341Y15940000D01*
X21304936Y15704597D01*
X21304938Y15704587D01*
X21366094Y15476345D01*
X21366096Y15476341D01*
X21366097Y15476337D01*
X21444493Y15308217D01*
X21465965Y15262170D01*
X21465967Y15262166D01*
X21601501Y15068605D01*
X21601506Y15068598D01*
X21768597Y14901507D01*
X21768603Y14901502D01*
X21954158Y14771575D01*
X21997783Y14716998D01*
X22004977Y14647500D01*
X21973454Y14585145D01*
X21954158Y14568425D01*
X21768597Y14438495D01*
X21601505Y14271403D01*
X21465965Y14077831D01*
X21465964Y14077829D01*
X21366098Y13863665D01*
X21366094Y13863656D01*
X21304938Y13635414D01*
X21304936Y13635404D01*
X21284341Y13400001D01*
X21284341Y13400000D01*
X21304936Y13164597D01*
X21304938Y13164587D01*
X21366094Y12936345D01*
X21366096Y12936341D01*
X21366097Y12936337D01*
X21465965Y12722171D01*
X21465965Y12722170D01*
X21465967Y12722166D01*
X21601501Y12528605D01*
X21601506Y12528598D01*
X21768597Y12361507D01*
X21768603Y12361502D01*
X21954158Y12231575D01*
X21997783Y12176998D01*
X22004977Y12107500D01*
X21973454Y12045145D01*
X21954158Y12028425D01*
X21768597Y11898495D01*
X21601505Y11731403D01*
X21465965Y11537831D01*
X21465964Y11537829D01*
X21366098Y11323665D01*
X21366094Y11323656D01*
X21304938Y11095414D01*
X21304936Y11095404D01*
X21284341Y10860001D01*
X21284341Y10860000D01*
X21304936Y10624597D01*
X21304938Y10624587D01*
X21366094Y10396345D01*
X21366096Y10396341D01*
X21366097Y10396337D01*
X21465964Y10182171D01*
X21465965Y10182170D01*
X21465967Y10182166D01*
X21601501Y9988605D01*
X21601506Y9988598D01*
X21768597Y9821507D01*
X21768603Y9821502D01*
X21954158Y9691575D01*
X21997783Y9636998D01*
X22004977Y9567500D01*
X21973454Y9505145D01*
X21954158Y9488425D01*
X21768597Y9358495D01*
X21601505Y9191403D01*
X21465965Y8997831D01*
X21465964Y8997829D01*
X21366098Y8783665D01*
X21366094Y8783656D01*
X21304938Y8555414D01*
X21304936Y8555404D01*
X21284341Y8320001D01*
X21284341Y8320000D01*
X21304936Y8084597D01*
X21304938Y8084587D01*
X21366094Y7856345D01*
X21366096Y7856341D01*
X21366097Y7856337D01*
X21465965Y7642170D01*
X21465967Y7642166D01*
X21601501Y7448605D01*
X21601506Y7448598D01*
X21768597Y7281507D01*
X21768603Y7281502D01*
X21954158Y7151575D01*
X21997783Y7096998D01*
X22004977Y7027500D01*
X21973454Y6965145D01*
X21954158Y6948425D01*
X21768597Y6818495D01*
X21601505Y6651403D01*
X21465965Y6457831D01*
X21465964Y6457829D01*
X21366098Y6243665D01*
X21366094Y6243656D01*
X21304938Y6015414D01*
X21304936Y6015404D01*
X21284341Y5780001D01*
X21284341Y5780000D01*
X21304936Y5544597D01*
X21304938Y5544587D01*
X21366094Y5316345D01*
X21366096Y5316341D01*
X21366097Y5316337D01*
X21465964Y5102171D01*
X21465965Y5102170D01*
X21465967Y5102166D01*
X21601501Y4908605D01*
X21601506Y4908598D01*
X21768597Y4741507D01*
X21768603Y4741502D01*
X21954158Y4611575D01*
X21997783Y4556998D01*
X22004977Y4487500D01*
X21973454Y4425145D01*
X21954158Y4408425D01*
X21768597Y4278495D01*
X21601505Y4111403D01*
X21465965Y3917831D01*
X21465964Y3917829D01*
X21366098Y3703665D01*
X21366094Y3703656D01*
X21304938Y3475414D01*
X21304936Y3475404D01*
X21284341Y3240001D01*
X21284341Y3240000D01*
X21304936Y3004597D01*
X21304938Y3004587D01*
X21366094Y2776345D01*
X21366096Y2776341D01*
X21366097Y2776337D01*
X21465965Y2562170D01*
X21465967Y2562166D01*
X21574281Y2407479D01*
X21601505Y2368599D01*
X21768599Y2201505D01*
X21865384Y2133735D01*
X21962165Y2065968D01*
X21962167Y2065967D01*
X21962170Y2065965D01*
X22176337Y1966097D01*
X22404592Y1904937D01*
X22592918Y1888461D01*
X22639999Y1884341D01*
X22640000Y1884341D01*
X22640001Y1884341D01*
X22679234Y1887774D01*
X22875408Y1904937D01*
X23103663Y1966097D01*
X23317830Y2065965D01*
X23511401Y2201505D01*
X23678495Y2368599D01*
X23814035Y2562170D01*
X23913903Y2776337D01*
X23975063Y3004592D01*
X23995659Y3240000D01*
X23975063Y3475408D01*
X23913903Y3703663D01*
X23814035Y3917829D01*
X23678495Y4111401D01*
X23678494Y4111403D01*
X23511402Y4278494D01*
X23511396Y4278499D01*
X23325842Y4408425D01*
X23282217Y4463002D01*
X23275023Y4532500D01*
X23306546Y4594855D01*
X23325842Y4611575D01*
X23348026Y4627109D01*
X23511401Y4741505D01*
X23678495Y4908599D01*
X23814035Y5102170D01*
X23913903Y5316337D01*
X23975063Y5544592D01*
X23995659Y5780000D01*
X23975063Y6015408D01*
X23913903Y6243663D01*
X23814035Y6457829D01*
X23678495Y6651401D01*
X23678494Y6651403D01*
X23511402Y6818494D01*
X23511396Y6818499D01*
X23325842Y6948425D01*
X23282217Y7003002D01*
X23275023Y7072500D01*
X23306546Y7134855D01*
X23325842Y7151575D01*
X23348026Y7167109D01*
X23511401Y7281505D01*
X23678495Y7448599D01*
X23814035Y7642170D01*
X23913903Y7856337D01*
X23975063Y8084592D01*
X23995659Y8320000D01*
X23975063Y8555408D01*
X23913903Y8783663D01*
X23814035Y8997829D01*
X23678495Y9191401D01*
X23678494Y9191403D01*
X23511402Y9358494D01*
X23511396Y9358499D01*
X23325842Y9488425D01*
X23282217Y9543002D01*
X23275023Y9612500D01*
X23306546Y9674855D01*
X23325842Y9691575D01*
X23348026Y9707109D01*
X23511401Y9821505D01*
X23678495Y9988599D01*
X23814035Y10182170D01*
X23913903Y10396337D01*
X23975063Y10624592D01*
X23995659Y10860000D01*
X23975063Y11095408D01*
X23913903Y11323663D01*
X23814035Y11537829D01*
X23678495Y11731401D01*
X23678494Y11731403D01*
X23511402Y11898494D01*
X23511396Y11898499D01*
X23325842Y12028425D01*
X23282217Y12083002D01*
X23275023Y12152500D01*
X23306546Y12214855D01*
X23325842Y12231575D01*
X23348026Y12247109D01*
X23511401Y12361505D01*
X23678495Y12528599D01*
X23814035Y12722170D01*
X23913903Y12936337D01*
X23975063Y13164592D01*
X23995659Y13400000D01*
X23975063Y13635408D01*
X23913903Y13863663D01*
X23814035Y14077829D01*
X23678495Y14271401D01*
X23678494Y14271403D01*
X23511402Y14438494D01*
X23511396Y14438499D01*
X23325842Y14568425D01*
X23282217Y14623002D01*
X23275023Y14692500D01*
X23306546Y14754855D01*
X23325842Y14771575D01*
X23348026Y14787109D01*
X23511401Y14901505D01*
X23678495Y15068599D01*
X23814035Y15262170D01*
X23913903Y15476337D01*
X23975063Y15704592D01*
X23995659Y15940000D01*
X23975063Y16175408D01*
X23925010Y16362210D01*
X23913905Y16403656D01*
X23913904Y16403657D01*
X23913903Y16403663D01*
X23814035Y16617829D01*
X23741902Y16720847D01*
X23678494Y16811403D01*
X23511402Y16978494D01*
X23511396Y16978499D01*
X23325842Y17108425D01*
X23282217Y17163002D01*
X23275023Y17232500D01*
X23306546Y17294855D01*
X23325842Y17311575D01*
X23348026Y17327109D01*
X23511401Y17441505D01*
X23678495Y17608599D01*
X23814035Y17802170D01*
X23913903Y18016337D01*
X23975063Y18244592D01*
X23995659Y18480000D01*
X23975063Y18715408D01*
X23915176Y18938913D01*
X23913905Y18943656D01*
X23913904Y18943657D01*
X23913903Y18943663D01*
X23814035Y19157829D01*
X23800036Y19177823D01*
X23678494Y19351403D01*
X23511402Y19518494D01*
X23511396Y19518499D01*
X23325842Y19648425D01*
X23282217Y19703002D01*
X23275023Y19772500D01*
X23306546Y19834855D01*
X23325842Y19851575D01*
X23372952Y19884562D01*
X23511401Y19981505D01*
X23678495Y20148599D01*
X23814035Y20342170D01*
X23913903Y20556337D01*
X23975063Y20784592D01*
X23995659Y21020000D01*
X23975063Y21255408D01*
X23919644Y21462236D01*
X23913905Y21483656D01*
X23913904Y21483657D01*
X23913903Y21483663D01*
X23814035Y21697829D01*
X23785526Y21738545D01*
X23678494Y21891403D01*
X23511402Y22058494D01*
X23511396Y22058499D01*
X23325842Y22188425D01*
X23282217Y22243002D01*
X23275023Y22312500D01*
X23306546Y22374855D01*
X23325842Y22391575D01*
X23348026Y22407109D01*
X23511401Y22521505D01*
X23678495Y22688599D01*
X23814035Y22882170D01*
X23913903Y23096337D01*
X23975063Y23324592D01*
X23995659Y23560000D01*
X23994588Y23572236D01*
X23981774Y23718702D01*
X23975063Y23795408D01*
X23913903Y24023663D01*
X23814035Y24237829D01*
X23803697Y24252594D01*
X23678494Y24431403D01*
X23511402Y24598494D01*
X23511396Y24598499D01*
X23325842Y24728425D01*
X23282217Y24783002D01*
X23275023Y24852500D01*
X23306546Y24914855D01*
X23325842Y24931575D01*
X23427187Y25002538D01*
X23511401Y25061505D01*
X23678495Y25228599D01*
X23814035Y25422170D01*
X23913903Y25636337D01*
X23975063Y25864592D01*
X23995659Y26100000D01*
X23975063Y26335408D01*
X23913903Y26563663D01*
X23814035Y26777829D01*
X23742497Y26879997D01*
X23678494Y26971403D01*
X23511402Y27138494D01*
X23511401Y27138495D01*
X23325405Y27268731D01*
X23281781Y27323308D01*
X23274588Y27392807D01*
X23306110Y27455161D01*
X23325405Y27471881D01*
X23401373Y27525075D01*
X22772533Y28153914D01*
X22782315Y28155320D01*
X22913100Y28215048D01*
X23021761Y28309202D01*
X23099493Y28430156D01*
X23123076Y28510476D01*
X23754925Y27878627D01*
X23754926Y27878627D01*
X23813598Y27962418D01*
X23813600Y27962422D01*
X23913429Y28176508D01*
X23913433Y28176517D01*
X23974567Y28404674D01*
X23974569Y28404685D01*
X23995157Y28639999D01*
X23995157Y28640002D01*
X23974569Y28875316D01*
X23974567Y28875327D01*
X23913433Y29103484D01*
X23913429Y29103493D01*
X23813600Y29317577D01*
X23813599Y29317579D01*
X23754925Y29401374D01*
X23754925Y29401375D01*
X23123076Y28769525D01*
X23099493Y28849844D01*
X23021761Y28970798D01*
X22913100Y29064952D01*
X22782315Y29124680D01*
X22772531Y29126087D01*
X23401373Y29754927D01*
X23401373Y29754928D01*
X23325405Y29808120D01*
X23281780Y29862696D01*
X23274586Y29932195D01*
X23306108Y29994549D01*
X23325399Y30011266D01*
X23511401Y30141505D01*
X23678495Y30308599D01*
X23814035Y30502170D01*
X23913903Y30716337D01*
X23975063Y30944592D01*
X23995659Y31180000D01*
X23975063Y31415408D01*
X23913903Y31643663D01*
X23814035Y31857829D01*
X23800036Y31877823D01*
X23678494Y32051403D01*
X23511402Y32218494D01*
X23511396Y32218499D01*
X23325842Y32348425D01*
X23282217Y32403002D01*
X23275023Y32472500D01*
X23306546Y32534855D01*
X23325842Y32551575D01*
X23354702Y32571783D01*
X23511401Y32681505D01*
X23678495Y32848599D01*
X23814035Y33042170D01*
X23913903Y33256337D01*
X23975063Y33484592D01*
X23995659Y33720000D01*
X23975063Y33955408D01*
X23918050Y34168185D01*
X23913905Y34183656D01*
X23913904Y34183657D01*
X23913903Y34183663D01*
X23814035Y34397829D01*
X23809509Y34404294D01*
X23678494Y34591403D01*
X23511402Y34758494D01*
X23511396Y34758499D01*
X23325842Y34888425D01*
X23282217Y34943002D01*
X23275023Y35012500D01*
X23306546Y35074855D01*
X23325842Y35091575D01*
X23444762Y35174844D01*
X23511401Y35221505D01*
X23678495Y35388599D01*
X23814035Y35582170D01*
X23913903Y35796337D01*
X23975063Y36024592D01*
X23995659Y36260000D01*
X23975063Y36495408D01*
X23913903Y36723663D01*
X23814035Y36937829D01*
X23809509Y36944294D01*
X23678494Y37131403D01*
X23511402Y37298494D01*
X23511396Y37298499D01*
X23325842Y37428425D01*
X23282217Y37483002D01*
X23275023Y37552500D01*
X23306546Y37614855D01*
X23325842Y37631575D01*
X23507799Y37758983D01*
X23511401Y37761505D01*
X23678495Y37928599D01*
X23814035Y38122170D01*
X23913903Y38336337D01*
X23975063Y38564592D01*
X23995659Y38800000D01*
X23975063Y39035408D01*
X23913903Y39263663D01*
X23814035Y39477829D01*
X23809509Y39484294D01*
X23678494Y39671403D01*
X23511402Y39838494D01*
X23511396Y39838499D01*
X23325842Y39968425D01*
X23282217Y40023002D01*
X23275023Y40092500D01*
X23306546Y40154855D01*
X23325842Y40171575D01*
X23348026Y40187109D01*
X23511401Y40301505D01*
X23678495Y40468599D01*
X23814035Y40662170D01*
X23913903Y40876337D01*
X23975063Y41104592D01*
X23995659Y41340000D01*
X23975063Y41575408D01*
X23913903Y41803663D01*
X23814035Y42017829D01*
X23809509Y42024294D01*
X23678494Y42211403D01*
X23511402Y42378494D01*
X23511396Y42378499D01*
X23325842Y42508425D01*
X23282217Y42563002D01*
X23275023Y42632500D01*
X23306546Y42694855D01*
X23325842Y42711575D01*
X23402549Y42765286D01*
X23511401Y42841505D01*
X23678495Y43008599D01*
X23814035Y43202170D01*
X23913903Y43416337D01*
X23975063Y43644592D01*
X23995659Y43880000D01*
X23975063Y44115408D01*
X23928626Y44288715D01*
X23913905Y44343656D01*
X23913904Y44343657D01*
X23913903Y44343663D01*
X23814035Y44557829D01*
X23809509Y44564294D01*
X23678494Y44751403D01*
X23511402Y44918494D01*
X23511396Y44918499D01*
X23325842Y45048425D01*
X23282217Y45103002D01*
X23275023Y45172500D01*
X23306546Y45234855D01*
X23325842Y45251575D01*
X23457014Y45343423D01*
X23511401Y45381505D01*
X23678495Y45548599D01*
X23814035Y45742170D01*
X23913903Y45956337D01*
X23975063Y46184592D01*
X23995659Y46420000D01*
X23995581Y46420886D01*
X23975063Y46655404D01*
X23975063Y46655408D01*
X23913903Y46883663D01*
X23814035Y47097829D01*
X23799015Y47119281D01*
X23678494Y47291403D01*
X23511402Y47458494D01*
X23511396Y47458499D01*
X23325842Y47588425D01*
X23282217Y47643002D01*
X23275023Y47712500D01*
X23306546Y47774855D01*
X23325842Y47791575D01*
X23348026Y47807109D01*
X23511401Y47921505D01*
X23678495Y48088599D01*
X23814035Y48282170D01*
X23913903Y48496337D01*
X23975063Y48724592D01*
X23995659Y48960000D01*
X23975063Y49195408D01*
X23926979Y49374862D01*
X23913905Y49423656D01*
X23913904Y49423657D01*
X23913903Y49423663D01*
X23814035Y49637829D01*
X23701425Y49798653D01*
X23678496Y49831400D01*
X23664532Y49845364D01*
X23556567Y49953329D01*
X23523084Y50014649D01*
X23528068Y50084341D01*
X23569939Y50140275D01*
X23600915Y50157190D01*
X23732331Y50206204D01*
X23847546Y50292454D01*
X23933796Y50407669D01*
X23984091Y50542517D01*
X23990500Y50602127D01*
X23990499Y52397872D01*
X23984091Y52457483D01*
X23933796Y52592331D01*
X23933795Y52592332D01*
X23933793Y52592336D01*
X23847547Y52707545D01*
X23847544Y52707548D01*
X23732335Y52793794D01*
X23732328Y52793798D01*
X23597482Y52844092D01*
X23597483Y52844092D01*
X23537883Y52850499D01*
X23537881Y52850500D01*
X23537873Y52850500D01*
X23537864Y52850500D01*
X21742129Y52850500D01*
X21742123Y52850499D01*
X21682516Y52844092D01*
X21547671Y52793798D01*
X21547664Y52793794D01*
X21432455Y52707548D01*
X21432452Y52707545D01*
X21346206Y52592336D01*
X21346202Y52592329D01*
X21295908Y52457483D01*
X21289501Y52397884D01*
X21289501Y52397877D01*
X21289500Y52397865D01*
X21289500Y50602130D01*
X21289501Y50602124D01*
X21295908Y50542517D01*
X21346202Y50407672D01*
X21346206Y50407665D01*
X21432452Y50292456D01*
X21432455Y50292453D01*
X21547664Y50206207D01*
X21547671Y50206203D01*
X21679081Y50157190D01*
X21735015Y50115319D01*
X21759432Y50049855D01*
X21744580Y49981582D01*
X21723430Y49953327D01*
X21601503Y49831400D01*
X21465965Y49637831D01*
X21465964Y49637829D01*
X21366098Y49423665D01*
X21366094Y49423656D01*
X21304938Y49195414D01*
X21304936Y49195404D01*
X21284341Y48960001D01*
X21284341Y48960000D01*
X21304936Y48724597D01*
X21304938Y48724587D01*
X21366094Y48496345D01*
X21366096Y48496341D01*
X21366097Y48496337D01*
X21465965Y48282170D01*
X21465967Y48282166D01*
X21601501Y48088605D01*
X21601506Y48088598D01*
X21768597Y47921507D01*
X21768603Y47921502D01*
X21954158Y47791575D01*
X21997783Y47736998D01*
X22004977Y47667500D01*
X21973454Y47605145D01*
X21954158Y47588425D01*
X21768597Y47458495D01*
X21693218Y47383115D01*
X21631895Y47349630D01*
X21562203Y47354614D01*
X21506270Y47396486D01*
X21486877Y47434800D01*
X21462395Y47515503D01*
X21374137Y47680624D01*
X21374135Y47680627D01*
X21255357Y47825358D01*
X21110626Y47944136D01*
X21110623Y47944138D01*
X20945502Y48032396D01*
X20766333Y48086747D01*
X20766331Y48086748D01*
X20580000Y48105099D01*
X20393668Y48086748D01*
X20393666Y48086747D01*
X20214497Y48032396D01*
X20044003Y47941265D01*
X20043424Y47942348D01*
X19982901Y47923403D01*
X19915523Y47941894D01*
X19868838Y47993877D01*
X19856700Y48047383D01*
X19856700Y51449725D01*
X19876385Y51516764D01*
X19893019Y51537407D01*
X19951783Y51596170D01*
X20048056Y51749387D01*
X20107821Y51920185D01*
X20117444Y52005594D01*
X20128081Y52099997D01*
X20128081Y52100004D01*
X20107822Y52279807D01*
X20107821Y52279813D01*
X20107821Y52279815D01*
X20048056Y52450613D01*
X19951783Y52603830D01*
X19823830Y52731783D01*
X19823830Y52731784D01*
X19670612Y52828057D01*
X19499812Y52887822D01*
X19499806Y52887823D01*
X19320004Y52908081D01*
X19319996Y52908081D01*
X19140193Y52887823D01*
X19140187Y52887822D01*
X18969387Y52828057D01*
X18816169Y52731783D01*
X18688217Y52603831D01*
X18591943Y52450613D01*
X18532178Y52279813D01*
X18532177Y52279807D01*
X18511139Y52093081D01*
X18509140Y52093307D01*
X18492234Y52035728D01*
X18439430Y51989973D01*
X18370272Y51980029D01*
X18347656Y51985486D01*
X18235184Y52024098D01*
X18044650Y52055892D01*
X18006249Y52062300D01*
X17774151Y52062300D01*
X17735750Y52055892D01*
X17545215Y52024098D01*
X17325704Y51948739D01*
X17325695Y51948736D01*
X17121571Y51838269D01*
X17121565Y51838265D01*
X16938422Y51695719D01*
X16938418Y51695715D01*
X16930066Y51686642D01*
X16870179Y51650652D01*
X16800341Y51652753D01*
X16742725Y51692278D01*
X16722655Y51727293D01*
X16693997Y51804129D01*
X16693993Y51804136D01*
X16607747Y51919345D01*
X16607744Y51919348D01*
X16492535Y52005594D01*
X16492528Y52005598D01*
X16357682Y52055892D01*
X16357683Y52055892D01*
X16298083Y52062299D01*
X16298081Y52062300D01*
X16298073Y52062300D01*
X16298064Y52062300D01*
X14402329Y52062300D01*
X14402323Y52062299D01*
X14342716Y52055892D01*
X14207871Y52005598D01*
X14207864Y52005594D01*
X14092655Y51919348D01*
X14092652Y51919345D01*
X14006406Y51804136D01*
X14006402Y51804129D01*
X13956108Y51669283D01*
X13949701Y51609684D01*
X13949700Y51609665D01*
X13949700Y49713930D01*
X13949701Y49713924D01*
X13956108Y49654317D01*
X14006402Y49519472D01*
X14006406Y49519465D01*
X14092652Y49404256D01*
X14092655Y49404253D01*
X14207864Y49318007D01*
X14207871Y49318003D01*
X14235825Y49307577D01*
X14342717Y49267709D01*
X14402327Y49261300D01*
X14649501Y49261301D01*
X14716539Y49241617D01*
X14762294Y49188813D01*
X14773500Y49137301D01*
X14773500Y44951440D01*
X14753815Y44884401D01*
X14701011Y44838646D01*
X14631853Y44828702D01*
X14568297Y44857727D01*
X14561819Y44863759D01*
X13160662Y46264915D01*
X12627383Y46798194D01*
X12622039Y46804289D01*
X12611822Y46817604D01*
X12601307Y46831307D01*
X12601305Y46831309D01*
X12601304Y46831310D01*
X12569909Y46855399D01*
X12569907Y46855402D01*
X12480838Y46923746D01*
X12480835Y46923748D01*
X12340549Y46981856D01*
X12340547Y46981857D01*
X12190001Y47001676D01*
X12189999Y47001676D01*
X12177005Y46999966D01*
X12156234Y46997231D01*
X12148136Y46996700D01*
X10610275Y46996700D01*
X10543236Y47016385D01*
X10522594Y47033019D01*
X10503830Y47051783D01*
X10350612Y47148057D01*
X10179812Y47207822D01*
X10179806Y47207823D01*
X10000004Y47228081D01*
X9999996Y47228081D01*
X9820193Y47207823D01*
X9820187Y47207822D01*
X9649387Y47148057D01*
X9496169Y47051783D01*
X9368217Y46923831D01*
X9271943Y46770613D01*
X9212178Y46599813D01*
X9212177Y46599808D01*
X9199407Y46486468D01*
X9172340Y46422054D01*
X9114745Y46382499D01*
X9044908Y46380362D01*
X8988506Y46412671D01*
X8343219Y47057958D01*
X8309734Y47119281D01*
X8306900Y47145639D01*
X8306900Y49137301D01*
X8326585Y49204340D01*
X8379389Y49250095D01*
X8430900Y49261301D01*
X8678071Y49261301D01*
X8678072Y49261301D01*
X8737683Y49267709D01*
X8872531Y49318004D01*
X8987746Y49404254D01*
X9073996Y49519469D01*
X9102654Y49596307D01*
X9144526Y49652241D01*
X9209990Y49676659D01*
X9278263Y49661808D01*
X9310066Y49636957D01*
X9317502Y49628880D01*
X9318415Y49627888D01*
X9318422Y49627882D01*
X9501565Y49485336D01*
X9501571Y49485332D01*
X9501574Y49485330D01*
X9705697Y49374864D01*
X9819687Y49335732D01*
X9925215Y49299503D01*
X9925217Y49299503D01*
X9925219Y49299502D01*
X10154151Y49261300D01*
X10154152Y49261300D01*
X10386248Y49261300D01*
X10386249Y49261300D01*
X10615181Y49299502D01*
X10834703Y49374864D01*
X11038826Y49485330D01*
X11221984Y49627887D01*
X11379179Y49798647D01*
X11506124Y49992951D01*
X11599357Y50205500D01*
X11656334Y50430495D01*
X11656335Y50430503D01*
X11675500Y50661794D01*
X11675500Y50661807D01*
X11656335Y50893098D01*
X11656333Y50893109D01*
X11599357Y51118101D01*
X11506124Y51330649D01*
X11379183Y51524948D01*
X11379180Y51524951D01*
X11379179Y51524953D01*
X11221984Y51695713D01*
X11221979Y51695717D01*
X11221977Y51695719D01*
X11038834Y51838265D01*
X11038828Y51838269D01*
X10834704Y51948736D01*
X10834695Y51948739D01*
X10615184Y52024098D01*
X10424650Y52055892D01*
X10386249Y52062300D01*
X10154151Y52062300D01*
X10115750Y52055892D01*
X9925215Y52024098D01*
X9705704Y51948739D01*
X9705695Y51948736D01*
X9501571Y51838269D01*
X9501565Y51838265D01*
X9318422Y51695719D01*
X9318418Y51695715D01*
X9310066Y51686642D01*
X9250179Y51650652D01*
X9180341Y51652753D01*
X9122725Y51692278D01*
X9102655Y51727293D01*
X9073997Y51804129D01*
X9073993Y51804136D01*
X8987747Y51919345D01*
X8987744Y51919348D01*
X8872535Y52005594D01*
X8872528Y52005598D01*
X8737682Y52055892D01*
X8737683Y52055892D01*
X8678083Y52062299D01*
X8678081Y52062300D01*
X8678073Y52062300D01*
X8678064Y52062300D01*
X6782329Y52062300D01*
X6782323Y52062299D01*
X6722716Y52055892D01*
X6587871Y52005598D01*
X6587864Y52005594D01*
X6472655Y51919348D01*
X6472652Y51919345D01*
X6386406Y51804136D01*
X6386402Y51804129D01*
X6336108Y51669283D01*
X6329701Y51609684D01*
X6329700Y51609665D01*
X6329700Y49713930D01*
X3440749Y49713930D01*
X3381425Y49798653D01*
X3358496Y49831400D01*
X3344532Y49845364D01*
X3236567Y49953329D01*
X3203084Y50014649D01*
X3208068Y50084341D01*
X3249939Y50140275D01*
X3280915Y50157190D01*
X3412331Y50206204D01*
X3527546Y50292454D01*
X3613796Y50407669D01*
X3664091Y50542517D01*
X3670500Y50602127D01*
X3670499Y52397872D01*
X3664091Y52457483D01*
X3613796Y52592331D01*
X3613795Y52592332D01*
X3613793Y52592336D01*
X3527547Y52707545D01*
X3527544Y52707548D01*
X3412335Y52793794D01*
X3412328Y52793798D01*
X3277482Y52844092D01*
X3277483Y52844092D01*
X3217883Y52850499D01*
X3217881Y52850500D01*
X3217873Y52850500D01*
X3217864Y52850500D01*
X1422129Y52850500D01*
X1422123Y52850499D01*
X1362516Y52844092D01*
X1227671Y52793798D01*
X1227664Y52793794D01*
X1112455Y52707548D01*
X1112452Y52707545D01*
X1026206Y52592336D01*
X1026202Y52592329D01*
X975908Y52457483D01*
X969501Y52397884D01*
X969501Y52397877D01*
X969500Y52397865D01*
X969500Y50602130D01*
X969501Y50602124D01*
X975908Y50542517D01*
X1026202Y50407672D01*
X1026206Y50407665D01*
X1112452Y50292456D01*
X1112455Y50292453D01*
X1227664Y50206207D01*
X1227671Y50206203D01*
X1359081Y50157190D01*
X1415015Y50115319D01*
X1439432Y50049855D01*
X1424580Y49981582D01*
X1403430Y49953327D01*
X1281503Y49831400D01*
X1145965Y49637831D01*
X1145964Y49637829D01*
X1046098Y49423665D01*
X1046094Y49423656D01*
X984938Y49195414D01*
X984936Y49195404D01*
X964341Y48960001D01*
X964341Y48960000D01*
X984936Y48724597D01*
X984938Y48724587D01*
X1046094Y48496345D01*
X1046096Y48496341D01*
X1046097Y48496337D01*
X1145965Y48282170D01*
X1145967Y48282166D01*
X1281501Y48088605D01*
X1281506Y48088598D01*
X1448597Y47921507D01*
X1448603Y47921502D01*
X1634158Y47791575D01*
X1677783Y47736998D01*
X1684977Y47667500D01*
X1653454Y47605145D01*
X1634158Y47588425D01*
X1448597Y47458495D01*
X1281505Y47291403D01*
X1145965Y47097831D01*
X1145964Y47097829D01*
X1046098Y46883665D01*
X1046094Y46883656D01*
X984938Y46655414D01*
X984936Y46655404D01*
X964341Y46420001D01*
X964341Y46420000D01*
X984936Y46184597D01*
X984938Y46184587D01*
X1046094Y45956345D01*
X1046096Y45956341D01*
X1046097Y45956337D01*
X1098807Y45843300D01*
X1145965Y45742170D01*
X1145967Y45742166D01*
X1222982Y45632178D01*
X1281501Y45548604D01*
X1281506Y45548598D01*
X1448597Y45381507D01*
X1448603Y45381502D01*
X1634158Y45251575D01*
X1677783Y45196998D01*
X1684977Y45127500D01*
X1653454Y45065145D01*
X1634158Y45048425D01*
X1448597Y44918495D01*
X1281505Y44751403D01*
X1145965Y44557831D01*
X1145964Y44557829D01*
X1046098Y44343665D01*
X1046094Y44343656D01*
X984938Y44115414D01*
X984936Y44115404D01*
X964341Y43880001D01*
X964341Y43880000D01*
X984936Y43644597D01*
X984938Y43644587D01*
X1046094Y43416345D01*
X1046096Y43416341D01*
X1046097Y43416337D01*
X1109698Y43279945D01*
X1145965Y43202170D01*
X1145967Y43202166D01*
X1235876Y43073764D01*
X1281501Y43008604D01*
X1281506Y43008598D01*
X1448597Y42841507D01*
X1448603Y42841502D01*
X1634158Y42711575D01*
X1677783Y42656998D01*
X1684977Y42587500D01*
X1653454Y42525145D01*
X1634158Y42508425D01*
X1448597Y42378495D01*
X1281505Y42211403D01*
X1145965Y42017831D01*
X1145964Y42017829D01*
X1046098Y41803665D01*
X1046094Y41803656D01*
X984938Y41575414D01*
X984936Y41575404D01*
X964341Y41340001D01*
X964341Y41340000D01*
X984936Y41104597D01*
X984938Y41104587D01*
X1046094Y40876345D01*
X1046096Y40876341D01*
X1046097Y40876337D01*
X1123895Y40709500D01*
X1145965Y40662170D01*
X1145967Y40662166D01*
X1238514Y40529997D01*
X1281501Y40468604D01*
X1281506Y40468598D01*
X1448597Y40301507D01*
X1448603Y40301502D01*
X1634158Y40171575D01*
X1677783Y40116998D01*
X1684977Y40047500D01*
X1653454Y39985145D01*
X1634158Y39968425D01*
X1448597Y39838495D01*
X1281505Y39671403D01*
X1145965Y39477831D01*
X1145964Y39477829D01*
X1046098Y39263665D01*
X1046094Y39263656D01*
X984938Y39035414D01*
X984936Y39035404D01*
X964341Y38800001D01*
X964341Y38800000D01*
X984936Y38564597D01*
X984938Y38564587D01*
X1046094Y38336345D01*
X1046096Y38336341D01*
X1046097Y38336337D01*
X1084759Y38253427D01*
X1145965Y38122170D01*
X1145967Y38122166D01*
X1222027Y38013542D01*
X1281501Y37928604D01*
X1281506Y37928598D01*
X1448597Y37761507D01*
X1448603Y37761502D01*
X1634158Y37631575D01*
X1677783Y37576998D01*
X1684977Y37507500D01*
X1653454Y37445145D01*
X1634158Y37428425D01*
X1448597Y37298495D01*
X1281505Y37131403D01*
X1145965Y36937831D01*
X1145964Y36937829D01*
X1046098Y36723665D01*
X1046094Y36723656D01*
X984938Y36495414D01*
X984936Y36495404D01*
X964341Y36260001D01*
X964341Y36260000D01*
X984936Y36024597D01*
X984938Y36024587D01*
X1046094Y35796345D01*
X1046096Y35796341D01*
X1046097Y35796337D01*
X1145964Y35582171D01*
X1145965Y35582170D01*
X1145967Y35582166D01*
X1235876Y35453764D01*
X1281501Y35388604D01*
X1281506Y35388598D01*
X1448597Y35221507D01*
X1448603Y35221502D01*
X1634158Y35091575D01*
X1677783Y35036998D01*
X1684977Y34967500D01*
X1653454Y34905145D01*
X1634158Y34888425D01*
X1448597Y34758495D01*
X1281505Y34591403D01*
X1145965Y34397831D01*
X1145964Y34397829D01*
X1046098Y34183665D01*
X1046094Y34183656D01*
X984938Y33955414D01*
X984936Y33955404D01*
X964341Y33720001D01*
X964341Y33720000D01*
X984936Y33484597D01*
X984938Y33484587D01*
X1046094Y33256345D01*
X1046096Y33256341D01*
X1046097Y33256337D01*
X1129156Y33078217D01*
X1145965Y33042170D01*
X1145967Y33042166D01*
X1281501Y32848605D01*
X1281506Y32848598D01*
X1448597Y32681507D01*
X1448603Y32681502D01*
X1634158Y32551575D01*
X1677783Y32496998D01*
X1684977Y32427500D01*
X1653454Y32365145D01*
X1634158Y32348425D01*
X1448597Y32218495D01*
X1281505Y32051403D01*
X1145965Y31857831D01*
X1145964Y31857829D01*
X1046098Y31643665D01*
X1046094Y31643656D01*
X984938Y31415414D01*
X984936Y31415404D01*
X964341Y31180001D01*
X964341Y31180000D01*
X984936Y30944597D01*
X984938Y30944587D01*
X1046094Y30716345D01*
X1046096Y30716341D01*
X1046097Y30716337D01*
X1095535Y30610318D01*
X1145965Y30502170D01*
X1145967Y30502166D01*
X1281501Y30308605D01*
X1281506Y30308598D01*
X1448597Y30141507D01*
X1448603Y30141502D01*
X1634158Y30011575D01*
X1677783Y29956998D01*
X1684977Y29887500D01*
X1653454Y29825145D01*
X1634158Y29808425D01*
X1448597Y29678495D01*
X1281505Y29511403D01*
X1145965Y29317831D01*
X1145964Y29317829D01*
X1046098Y29103665D01*
X1046094Y29103656D01*
X984938Y28875414D01*
X984936Y28875404D01*
X964341Y28640001D01*
X964341Y28640000D01*
X984936Y28404597D01*
X984938Y28404587D01*
X1046094Y28176345D01*
X1046096Y28176341D01*
X1046097Y28176337D01*
X1101771Y28056944D01*
X1145965Y27962170D01*
X1145967Y27962166D01*
X1281501Y27768605D01*
X1281506Y27768598D01*
X1448597Y27601507D01*
X1448603Y27601502D01*
X1634158Y27471575D01*
X1677783Y27416998D01*
X1684977Y27347500D01*
X1653454Y27285145D01*
X1634158Y27268425D01*
X1448597Y27138495D01*
X1281505Y26971403D01*
X1145965Y26777831D01*
X1145964Y26777829D01*
X1046098Y26563665D01*
X1046094Y26563656D01*
X984938Y26335414D01*
X984936Y26335404D01*
X964341Y26100001D01*
X964341Y26100000D01*
X984936Y25864597D01*
X984938Y25864587D01*
X1046094Y25636345D01*
X1046096Y25636341D01*
X1046097Y25636337D01*
X1113082Y25492688D01*
X1145965Y25422170D01*
X1145967Y25422166D01*
X1234765Y25295350D01*
X1281505Y25228599D01*
X1448599Y25061505D01*
X1532813Y25002538D01*
X1634594Y24931270D01*
X1678218Y24876693D01*
X1685411Y24807194D01*
X1653889Y24744840D01*
X1634593Y24728120D01*
X1558626Y24674928D01*
X1558625Y24674927D01*
X2187465Y24046087D01*
X2177685Y24044680D01*
X2046900Y23984952D01*
X1938239Y23890798D01*
X1860507Y23769844D01*
X1836923Y23689524D01*
X1205072Y24321375D01*
X1146401Y24237581D01*
X1046570Y24023493D01*
X1046566Y24023484D01*
X985432Y23795327D01*
X985430Y23795316D01*
X964843Y23560002D01*
X964843Y23559999D01*
X985430Y23324685D01*
X985432Y23324674D01*
X1046566Y23096517D01*
X1046570Y23096508D01*
X1146400Y22882421D01*
X1146402Y22882417D01*
X1205072Y22798627D01*
X1205073Y22798627D01*
X1836923Y23430477D01*
X1860507Y23350156D01*
X1938239Y23229202D01*
X2046900Y23135048D01*
X2177685Y23075320D01*
X2187466Y23073914D01*
X1558625Y22445075D01*
X1634594Y22391881D01*
X1678219Y22337304D01*
X1685413Y22267806D01*
X1653890Y22205451D01*
X1634595Y22188731D01*
X1448594Y22058492D01*
X1281505Y21891403D01*
X1145965Y21697831D01*
X1145964Y21697829D01*
X1046098Y21483665D01*
X1046094Y21483656D01*
X984938Y21255414D01*
X984936Y21255404D01*
X964341Y21020001D01*
X964341Y21020000D01*
X984936Y20784597D01*
X984938Y20784587D01*
X1046094Y20556345D01*
X1046096Y20556341D01*
X1046097Y20556337D01*
X1105726Y20428463D01*
X1145965Y20342170D01*
X1145967Y20342166D01*
X1281501Y20148605D01*
X1281506Y20148598D01*
X1448597Y19981507D01*
X1448603Y19981502D01*
X1634158Y19851575D01*
X1677783Y19796998D01*
X1684977Y19727500D01*
X1653454Y19665145D01*
X1634158Y19648425D01*
X1448597Y19518495D01*
X1281505Y19351403D01*
X1145965Y19157831D01*
X1145964Y19157829D01*
X1046098Y18943665D01*
X1046094Y18943656D01*
X984938Y18715414D01*
X984936Y18715404D01*
X964341Y18480001D01*
X964341Y18480000D01*
X984936Y18244597D01*
X984938Y18244587D01*
X1046094Y18016345D01*
X1046096Y18016341D01*
X1046097Y18016337D01*
X1090458Y17921205D01*
X1145965Y17802170D01*
X1145967Y17802166D01*
X1281501Y17608605D01*
X1281506Y17608598D01*
X1448597Y17441507D01*
X1448603Y17441502D01*
X1634158Y17311575D01*
X1677783Y17256998D01*
X1684977Y17187500D01*
X1653454Y17125145D01*
X1634158Y17108425D01*
X1448597Y16978495D01*
X1281505Y16811403D01*
X1145965Y16617831D01*
X1145964Y16617829D01*
X1046098Y16403665D01*
X1046094Y16403656D01*
X984938Y16175414D01*
X984936Y16175404D01*
X964341Y15940001D01*
X964341Y15940000D01*
X984936Y15704597D01*
X984938Y15704587D01*
X1046094Y15476345D01*
X1046096Y15476341D01*
X1046097Y15476337D01*
X1124493Y15308217D01*
X1145965Y15262170D01*
X1145967Y15262166D01*
X1281501Y15068605D01*
X1281506Y15068598D01*
X1448597Y14901507D01*
X1448603Y14901502D01*
X1634158Y14771575D01*
X1677783Y14716998D01*
X1684977Y14647500D01*
X1653454Y14585145D01*
X1634158Y14568425D01*
X1448597Y14438495D01*
X1281505Y14271403D01*
X1145965Y14077831D01*
X1145964Y14077829D01*
X1046098Y13863665D01*
X1046094Y13863656D01*
X984938Y13635414D01*
X984936Y13635404D01*
X964341Y13400001D01*
X964341Y13400000D01*
X984936Y13164597D01*
X984938Y13164587D01*
X1046094Y12936345D01*
X1046096Y12936341D01*
X1046097Y12936337D01*
X1145965Y12722171D01*
X1145965Y12722170D01*
X1145967Y12722166D01*
X1281501Y12528605D01*
X1281506Y12528598D01*
X1448597Y12361507D01*
X1448603Y12361502D01*
X1634158Y12231575D01*
X1677783Y12176998D01*
X1684977Y12107500D01*
X1653454Y12045145D01*
X1634158Y12028425D01*
X1448597Y11898495D01*
X1281505Y11731403D01*
X1145965Y11537831D01*
X1145964Y11537829D01*
X1046098Y11323665D01*
X1046094Y11323656D01*
X984938Y11095414D01*
X984936Y11095404D01*
X964341Y10860001D01*
X964341Y10860000D01*
X984936Y10624597D01*
X984938Y10624587D01*
X1046094Y10396345D01*
X1046096Y10396341D01*
X1046097Y10396337D01*
X1145964Y10182171D01*
X1145965Y10182170D01*
X1145967Y10182166D01*
X1281501Y9988605D01*
X1281506Y9988598D01*
X1448597Y9821507D01*
X1448603Y9821502D01*
X1634158Y9691575D01*
X1677783Y9636998D01*
X1684977Y9567500D01*
X1653454Y9505145D01*
X1634158Y9488425D01*
X1448597Y9358495D01*
X1281505Y9191403D01*
X1145965Y8997831D01*
X1145964Y8997829D01*
X1046098Y8783665D01*
X1046094Y8783656D01*
X984938Y8555414D01*
X984936Y8555404D01*
X964341Y8320001D01*
X964341Y8320000D01*
X984936Y8084597D01*
X984938Y8084587D01*
X1046094Y7856345D01*
X1046096Y7856341D01*
X1046097Y7856337D01*
X1145965Y7642170D01*
X1145967Y7642166D01*
X1281501Y7448605D01*
X1281506Y7448598D01*
X1448597Y7281507D01*
X1448603Y7281502D01*
X1634158Y7151575D01*
X1677783Y7096998D01*
X1684977Y7027500D01*
X1653454Y6965145D01*
X1634158Y6948425D01*
X1448597Y6818495D01*
X1281505Y6651403D01*
X1145965Y6457831D01*
X1145964Y6457829D01*
X1046098Y6243665D01*
X1046094Y6243656D01*
X984938Y6015414D01*
X984936Y6015404D01*
X964341Y5780001D01*
X964341Y5780000D01*
X984936Y5544597D01*
X984938Y5544587D01*
X1046094Y5316345D01*
X1046096Y5316341D01*
X1046097Y5316337D01*
X1145964Y5102171D01*
X1145965Y5102170D01*
X1145967Y5102166D01*
X1281501Y4908605D01*
X1281506Y4908598D01*
X1448597Y4741507D01*
X1448603Y4741502D01*
X1634158Y4611575D01*
X1677783Y4556998D01*
X1684977Y4487500D01*
X1653454Y4425145D01*
X1634158Y4408425D01*
X1448597Y4278495D01*
X1281505Y4111403D01*
X1145965Y3917831D01*
X1145964Y3917829D01*
X1046098Y3703665D01*
X1046094Y3703656D01*
X984938Y3475414D01*
X984936Y3475404D01*
X964341Y3240001D01*
X964341Y3240000D01*
X300513Y3240000D01*
X300524Y4908605D01*
X300865Y55737978D01*
X300867Y55737987D01*
X300867Y55752411D01*
X300868Y55752413D01*
X300867Y55796964D01*
X301164Y55803026D01*
X316943Y55963279D01*
X321681Y55987101D01*
X365760Y56132426D01*
X375054Y56154866D01*
X446638Y56288798D01*
X460135Y56308997D01*
X556468Y56426385D01*
X573647Y56443564D01*
X691027Y56539900D01*
X711223Y56553397D01*
X845148Y56624986D01*
X867596Y56634285D01*
X1012911Y56678369D01*
X1036732Y56683108D01*
X1196376Y56698836D01*
X1202430Y56699134D01*
X23741932Y56699499D01*
X23743391Y56699385D01*
G37*
%TD.AperFunction*%
M02*
