%TF.GenerationSoftware,KiCad,Pcbnew,7.0.5*%
%TF.CreationDate,2023-11-03T15:53:39+09:00*%
%TF.ProjectId,EMUZ80SD_MK2,454d555a-3830-4534-945f-4d4b322e6b69,2.2*%
%TF.SameCoordinates,PX7560bf6PY775100a*%
%TF.FileFunction,Legend,Top*%
%TF.FilePolarity,Positive*%
%FSLAX46Y46*%
G04 Gerber Fmt 4.6, Leading zero omitted, Abs format (unit mm)*
G04 Created by KiCad (PCBNEW 7.0.5) date 2023-11-03 15:53:39*
%MOMM*%
%LPD*%
G01*
G04 APERTURE LIST*
%ADD10C,0.150000*%
%ADD11C,0.200000*%
%ADD12C,0.120000*%
G04 APERTURE END LIST*
D10*
X12000000Y59000000D02*
X22500000Y59000000D01*
X22500000Y59000000D02*
G75*
G03*
X24500000Y59000000I1000000J0D01*
G01*
X574000Y26110000D02*
X32210000Y26110000D01*
X32210000Y1120000D01*
X574000Y1120000D01*
X574000Y26110000D01*
X750000Y21220000D02*
X17290000Y21220000D01*
X17290000Y5980000D01*
X750000Y5980000D01*
X750000Y21220000D01*
X24500000Y59000000D02*
X34646250Y59000000D01*
X22476779Y59400181D02*
X22476779Y60400181D01*
X23524397Y59495420D02*
X23476778Y59447800D01*
X23476778Y59447800D02*
X23333921Y59400181D01*
X23333921Y59400181D02*
X23238683Y59400181D01*
X23238683Y59400181D02*
X23095826Y59447800D01*
X23095826Y59447800D02*
X23000588Y59543039D01*
X23000588Y59543039D02*
X22952969Y59638277D01*
X22952969Y59638277D02*
X22905350Y59828753D01*
X22905350Y59828753D02*
X22905350Y59971610D01*
X22905350Y59971610D02*
X22952969Y60162086D01*
X22952969Y60162086D02*
X23000588Y60257324D01*
X23000588Y60257324D02*
X23095826Y60352562D01*
X23095826Y60352562D02*
X23238683Y60400181D01*
X23238683Y60400181D02*
X23333921Y60400181D01*
X23333921Y60400181D02*
X23476778Y60352562D01*
X23476778Y60352562D02*
X23524397Y60304943D01*
X24476778Y59400181D02*
X23905350Y59400181D01*
X24191064Y59400181D02*
X24191064Y60400181D01*
X24191064Y60400181D02*
X24095826Y60257324D01*
X24095826Y60257324D02*
X24000588Y60162086D01*
X24000588Y60162086D02*
X23905350Y60114467D01*
D11*
X16032809Y28145398D02*
X16032809Y28478731D01*
X16556619Y28556112D02*
X16556619Y28079921D01*
X16556619Y28079921D02*
X15556619Y28204921D01*
X15556619Y28204921D02*
X15556619Y28681112D01*
X16556619Y28984683D02*
X15556619Y29109683D01*
X15556619Y29109683D02*
X16270904Y29353731D01*
X16270904Y29353731D02*
X15556619Y29776350D01*
X15556619Y29776350D02*
X16556619Y29651350D01*
X15556619Y30252540D02*
X16366142Y30151350D01*
X16366142Y30151350D02*
X16461380Y30187064D01*
X16461380Y30187064D02*
X16509000Y30228731D01*
X16509000Y30228731D02*
X16556619Y30318017D01*
X16556619Y30318017D02*
X16556619Y30508493D01*
X16556619Y30508493D02*
X16509000Y30609683D01*
X16509000Y30609683D02*
X16461380Y30663255D01*
X16461380Y30663255D02*
X16366142Y30722778D01*
X16366142Y30722778D02*
X15556619Y30823969D01*
X15556619Y31204921D02*
X15556619Y31871588D01*
X15556619Y31871588D02*
X16556619Y31079921D01*
X16556619Y31079921D02*
X16556619Y31746588D01*
X15985190Y32341826D02*
X15937571Y32252540D01*
X15937571Y32252540D02*
X15889952Y32210874D01*
X15889952Y32210874D02*
X15794714Y32175159D01*
X15794714Y32175159D02*
X15747095Y32181112D01*
X15747095Y32181112D02*
X15651857Y32240636D01*
X15651857Y32240636D02*
X15604238Y32294207D01*
X15604238Y32294207D02*
X15556619Y32395397D01*
X15556619Y32395397D02*
X15556619Y32585874D01*
X15556619Y32585874D02*
X15604238Y32675159D01*
X15604238Y32675159D02*
X15651857Y32716826D01*
X15651857Y32716826D02*
X15747095Y32752540D01*
X15747095Y32752540D02*
X15794714Y32746588D01*
X15794714Y32746588D02*
X15889952Y32687064D01*
X15889952Y32687064D02*
X15937571Y32633493D01*
X15937571Y32633493D02*
X15985190Y32532302D01*
X15985190Y32532302D02*
X15985190Y32341826D01*
X15985190Y32341826D02*
X16032809Y32240636D01*
X16032809Y32240636D02*
X16080428Y32187064D01*
X16080428Y32187064D02*
X16175666Y32127540D01*
X16175666Y32127540D02*
X16366142Y32103731D01*
X16366142Y32103731D02*
X16461380Y32139445D01*
X16461380Y32139445D02*
X16509000Y32181112D01*
X16509000Y32181112D02*
X16556619Y32270397D01*
X16556619Y32270397D02*
X16556619Y32460874D01*
X16556619Y32460874D02*
X16509000Y32562064D01*
X16509000Y32562064D02*
X16461380Y32615636D01*
X16461380Y32615636D02*
X16366142Y32675159D01*
X16366142Y32675159D02*
X16175666Y32698969D01*
X16175666Y32698969D02*
X16080428Y32663255D01*
X16080428Y32663255D02*
X16032809Y32621588D01*
X16032809Y32621588D02*
X15985190Y32532302D01*
X15556619Y33395398D02*
X15556619Y33490636D01*
X15556619Y33490636D02*
X15604238Y33579921D01*
X15604238Y33579921D02*
X15651857Y33621588D01*
X15651857Y33621588D02*
X15747095Y33657302D01*
X15747095Y33657302D02*
X15937571Y33681112D01*
X15937571Y33681112D02*
X16175666Y33651350D01*
X16175666Y33651350D02*
X16366142Y33579921D01*
X16366142Y33579921D02*
X16461380Y33520398D01*
X16461380Y33520398D02*
X16509000Y33466826D01*
X16509000Y33466826D02*
X16556619Y33365636D01*
X16556619Y33365636D02*
X16556619Y33270398D01*
X16556619Y33270398D02*
X16509000Y33181112D01*
X16509000Y33181112D02*
X16461380Y33139445D01*
X16461380Y33139445D02*
X16366142Y33103731D01*
X16366142Y33103731D02*
X16175666Y33079921D01*
X16175666Y33079921D02*
X15937571Y33109683D01*
X15937571Y33109683D02*
X15747095Y33181112D01*
X15747095Y33181112D02*
X15651857Y33240636D01*
X15651857Y33240636D02*
X15604238Y33294207D01*
X15604238Y33294207D02*
X15556619Y33395398D01*
X16556619Y34032302D02*
X15556619Y34157302D01*
X15556619Y34157302D02*
X15556619Y34538255D01*
X15556619Y34538255D02*
X15604238Y34627540D01*
X15604238Y34627540D02*
X15651857Y34669207D01*
X15651857Y34669207D02*
X15747095Y34704921D01*
X15747095Y34704921D02*
X15889952Y34687064D01*
X15889952Y34687064D02*
X15985190Y34627540D01*
X15985190Y34627540D02*
X16032809Y34573969D01*
X16032809Y34573969D02*
X16080428Y34472779D01*
X16080428Y34472779D02*
X16080428Y34091826D01*
X16556619Y35032302D02*
X15556619Y35157302D01*
X16461380Y36091826D02*
X16509000Y36038254D01*
X16509000Y36038254D02*
X16556619Y35889445D01*
X16556619Y35889445D02*
X16556619Y35794207D01*
X16556619Y35794207D02*
X16509000Y35657302D01*
X16509000Y35657302D02*
X16413761Y35573969D01*
X16413761Y35573969D02*
X16318523Y35538254D01*
X16318523Y35538254D02*
X16128047Y35514445D01*
X16128047Y35514445D02*
X15985190Y35532302D01*
X15985190Y35532302D02*
X15794714Y35603730D01*
X15794714Y35603730D02*
X15699476Y35663254D01*
X15699476Y35663254D02*
X15604238Y35770397D01*
X15604238Y35770397D02*
X15556619Y35919207D01*
X15556619Y35919207D02*
X15556619Y36014445D01*
X15556619Y36014445D02*
X15604238Y36151349D01*
X15604238Y36151349D02*
X15651857Y36193016D01*
X16651857Y36258492D02*
X16651857Y37020397D01*
X16509000Y37228731D02*
X16556619Y37365635D01*
X16556619Y37365635D02*
X16556619Y37603731D01*
X16556619Y37603731D02*
X16509000Y37704921D01*
X16509000Y37704921D02*
X16461380Y37758493D01*
X16461380Y37758493D02*
X16366142Y37818016D01*
X16366142Y37818016D02*
X16270904Y37829921D01*
X16270904Y37829921D02*
X16175666Y37794207D01*
X16175666Y37794207D02*
X16128047Y37752540D01*
X16128047Y37752540D02*
X16080428Y37663254D01*
X16080428Y37663254D02*
X16032809Y37478731D01*
X16032809Y37478731D02*
X15985190Y37389445D01*
X15985190Y37389445D02*
X15937571Y37347778D01*
X15937571Y37347778D02*
X15842333Y37312064D01*
X15842333Y37312064D02*
X15747095Y37323969D01*
X15747095Y37323969D02*
X15651857Y37383493D01*
X15651857Y37383493D02*
X15604238Y37437064D01*
X15604238Y37437064D02*
X15556619Y37538254D01*
X15556619Y37538254D02*
X15556619Y37776350D01*
X15556619Y37776350D02*
X15604238Y37913254D01*
X16556619Y38222778D02*
X15556619Y38347778D01*
X15556619Y38347778D02*
X15556619Y38585874D01*
X15556619Y38585874D02*
X15604238Y38722778D01*
X15604238Y38722778D02*
X15699476Y38806112D01*
X15699476Y38806112D02*
X15794714Y38841826D01*
X15794714Y38841826D02*
X15985190Y38865635D01*
X15985190Y38865635D02*
X16128047Y38847778D01*
X16128047Y38847778D02*
X16318523Y38776350D01*
X16318523Y38776350D02*
X16413761Y38716826D01*
X16413761Y38716826D02*
X16509000Y38609683D01*
X16509000Y38609683D02*
X16556619Y38460874D01*
X16556619Y38460874D02*
X16556619Y38222778D01*
X16556619Y39984683D02*
X15556619Y40109683D01*
X15556619Y40109683D02*
X16270904Y40353731D01*
X16270904Y40353731D02*
X15556619Y40776350D01*
X15556619Y40776350D02*
X16556619Y40651350D01*
X16556619Y41127540D02*
X15556619Y41252540D01*
X16556619Y41698969D02*
X15985190Y41341826D01*
X15556619Y41823969D02*
X16128047Y41181112D01*
X15651857Y42193017D02*
X15604238Y42246588D01*
X15604238Y42246588D02*
X15556619Y42347778D01*
X15556619Y42347778D02*
X15556619Y42585874D01*
X15556619Y42585874D02*
X15604238Y42675159D01*
X15604238Y42675159D02*
X15651857Y42716826D01*
X15651857Y42716826D02*
X15747095Y42752540D01*
X15747095Y42752540D02*
X15842333Y42740636D01*
X15842333Y42740636D02*
X15985190Y42675159D01*
X15985190Y42675159D02*
X16556619Y42032302D01*
X16556619Y42032302D02*
X16556619Y42651350D01*
X16461380Y43091826D02*
X16509000Y43133493D01*
X16509000Y43133493D02*
X16556619Y43079921D01*
X16556619Y43079921D02*
X16509000Y43038255D01*
X16509000Y43038255D02*
X16461380Y43091826D01*
X16461380Y43091826D02*
X16556619Y43079921D01*
X15651857Y43621588D02*
X15604238Y43675159D01*
X15604238Y43675159D02*
X15556619Y43776349D01*
X15556619Y43776349D02*
X15556619Y44014445D01*
X15556619Y44014445D02*
X15604238Y44103730D01*
X15604238Y44103730D02*
X15651857Y44145397D01*
X15651857Y44145397D02*
X15747095Y44181111D01*
X15747095Y44181111D02*
X15842333Y44169207D01*
X15842333Y44169207D02*
X15985190Y44103730D01*
X15985190Y44103730D02*
X16556619Y43460873D01*
X16556619Y43460873D02*
X16556619Y44079921D01*
D10*
X17228560Y27144000D02*
X17371417Y27096381D01*
X17371417Y27096381D02*
X17609512Y27096381D01*
X17609512Y27096381D02*
X17704750Y27144000D01*
X17704750Y27144000D02*
X17752369Y27191620D01*
X17752369Y27191620D02*
X17799988Y27286858D01*
X17799988Y27286858D02*
X17799988Y27382096D01*
X17799988Y27382096D02*
X17752369Y27477334D01*
X17752369Y27477334D02*
X17704750Y27524953D01*
X17704750Y27524953D02*
X17609512Y27572572D01*
X17609512Y27572572D02*
X17419036Y27620191D01*
X17419036Y27620191D02*
X17323798Y27667810D01*
X17323798Y27667810D02*
X17276179Y27715429D01*
X17276179Y27715429D02*
X17228560Y27810667D01*
X17228560Y27810667D02*
X17228560Y27905905D01*
X17228560Y27905905D02*
X17276179Y28001143D01*
X17276179Y28001143D02*
X17323798Y28048762D01*
X17323798Y28048762D02*
X17419036Y28096381D01*
X17419036Y28096381D02*
X17657131Y28096381D01*
X17657131Y28096381D02*
X17799988Y28048762D01*
X18228560Y27096381D02*
X18228560Y28096381D01*
X18228560Y28096381D02*
X18609512Y28096381D01*
X18609512Y28096381D02*
X18704750Y28048762D01*
X18704750Y28048762D02*
X18752369Y28001143D01*
X18752369Y28001143D02*
X18799988Y27905905D01*
X18799988Y27905905D02*
X18799988Y27763048D01*
X18799988Y27763048D02*
X18752369Y27667810D01*
X18752369Y27667810D02*
X18704750Y27620191D01*
X18704750Y27620191D02*
X18609512Y27572572D01*
X18609512Y27572572D02*
X18228560Y27572572D01*
X19228560Y27096381D02*
X19228560Y28096381D01*
X19466655Y27001143D02*
X20228559Y27001143D01*
X21038083Y27191620D02*
X20990464Y27144000D01*
X20990464Y27144000D02*
X20847607Y27096381D01*
X20847607Y27096381D02*
X20752369Y27096381D01*
X20752369Y27096381D02*
X20609512Y27144000D01*
X20609512Y27144000D02*
X20514274Y27239239D01*
X20514274Y27239239D02*
X20466655Y27334477D01*
X20466655Y27334477D02*
X20419036Y27524953D01*
X20419036Y27524953D02*
X20419036Y27667810D01*
X20419036Y27667810D02*
X20466655Y27858286D01*
X20466655Y27858286D02*
X20514274Y27953524D01*
X20514274Y27953524D02*
X20609512Y28048762D01*
X20609512Y28048762D02*
X20752369Y28096381D01*
X20752369Y28096381D02*
X20847607Y28096381D01*
X20847607Y28096381D02*
X20990464Y28048762D01*
X20990464Y28048762D02*
X21038083Y28001143D01*
X21419036Y27144000D02*
X21561893Y27096381D01*
X21561893Y27096381D02*
X21799988Y27096381D01*
X21799988Y27096381D02*
X21895226Y27144000D01*
X21895226Y27144000D02*
X21942845Y27191620D01*
X21942845Y27191620D02*
X21990464Y27286858D01*
X21990464Y27286858D02*
X21990464Y27382096D01*
X21990464Y27382096D02*
X21942845Y27477334D01*
X21942845Y27477334D02*
X21895226Y27524953D01*
X21895226Y27524953D02*
X21799988Y27572572D01*
X21799988Y27572572D02*
X21609512Y27620191D01*
X21609512Y27620191D02*
X21514274Y27667810D01*
X21514274Y27667810D02*
X21466655Y27715429D01*
X21466655Y27715429D02*
X21419036Y27810667D01*
X21419036Y27810667D02*
X21419036Y27905905D01*
X21419036Y27905905D02*
X21466655Y28001143D01*
X21466655Y28001143D02*
X21514274Y28048762D01*
X21514274Y28048762D02*
X21609512Y28096381D01*
X21609512Y28096381D02*
X21847607Y28096381D01*
X21847607Y28096381D02*
X21990464Y28048762D01*
X17138084Y28374000D02*
X22080941Y28374000D01*
X31276179Y30346381D02*
X31276179Y31346381D01*
X31847607Y30346381D02*
X31419036Y30917810D01*
X31847607Y31346381D02*
X31276179Y30774953D01*
X17626779Y14396848D02*
X17626779Y13396848D01*
X18102969Y13873039D02*
X18150588Y13777800D01*
X18150588Y13777800D02*
X18245826Y13730181D01*
X17626779Y13873039D02*
X17674398Y13777800D01*
X17674398Y13777800D02*
X17769636Y13730181D01*
X17769636Y13730181D02*
X17960112Y13730181D01*
X17960112Y13730181D02*
X18055350Y13777800D01*
X18055350Y13777800D02*
X18102969Y13873039D01*
X18102969Y13873039D02*
X18102969Y14396848D01*
X18626779Y13777800D02*
X18769636Y13730181D01*
X18769636Y13730181D02*
X19007731Y13730181D01*
X19007731Y13730181D02*
X19102969Y13777800D01*
X19102969Y13777800D02*
X19150588Y13825420D01*
X19150588Y13825420D02*
X19198207Y13920658D01*
X19198207Y13920658D02*
X19198207Y14015896D01*
X19198207Y14015896D02*
X19150588Y14111134D01*
X19150588Y14111134D02*
X19102969Y14158753D01*
X19102969Y14158753D02*
X19007731Y14206372D01*
X19007731Y14206372D02*
X18817255Y14253991D01*
X18817255Y14253991D02*
X18722017Y14301610D01*
X18722017Y14301610D02*
X18674398Y14349229D01*
X18674398Y14349229D02*
X18626779Y14444467D01*
X18626779Y14444467D02*
X18626779Y14539705D01*
X18626779Y14539705D02*
X18674398Y14634943D01*
X18674398Y14634943D02*
X18722017Y14682562D01*
X18722017Y14682562D02*
X18817255Y14730181D01*
X18817255Y14730181D02*
X19055350Y14730181D01*
X19055350Y14730181D02*
X19198207Y14682562D01*
X19626779Y13730181D02*
X19626779Y14730181D01*
X19626779Y14730181D02*
X19864874Y14730181D01*
X19864874Y14730181D02*
X20007731Y14682562D01*
X20007731Y14682562D02*
X20102969Y14587324D01*
X20102969Y14587324D02*
X20150588Y14492086D01*
X20150588Y14492086D02*
X20198207Y14301610D01*
X20198207Y14301610D02*
X20198207Y14158753D01*
X20198207Y14158753D02*
X20150588Y13968277D01*
X20150588Y13968277D02*
X20102969Y13873039D01*
X20102969Y13873039D02*
X20007731Y13777800D01*
X20007731Y13777800D02*
X19864874Y13730181D01*
X19864874Y13730181D02*
X19626779Y13730181D01*
X22526179Y30346381D02*
X22526179Y31346381D01*
X23097607Y30346381D02*
X22669036Y30917810D01*
X23097607Y31346381D02*
X22526179Y30774953D01*
X26109512Y27620191D02*
X26252369Y27572572D01*
X26252369Y27572572D02*
X26299988Y27524953D01*
X26299988Y27524953D02*
X26347607Y27429715D01*
X26347607Y27429715D02*
X26347607Y27286858D01*
X26347607Y27286858D02*
X26299988Y27191620D01*
X26299988Y27191620D02*
X26252369Y27144000D01*
X26252369Y27144000D02*
X26157131Y27096381D01*
X26157131Y27096381D02*
X25776179Y27096381D01*
X25776179Y27096381D02*
X25776179Y28096381D01*
X25776179Y28096381D02*
X26109512Y28096381D01*
X26109512Y28096381D02*
X26204750Y28048762D01*
X26204750Y28048762D02*
X26252369Y28001143D01*
X26252369Y28001143D02*
X26299988Y27905905D01*
X26299988Y27905905D02*
X26299988Y27810667D01*
X26299988Y27810667D02*
X26252369Y27715429D01*
X26252369Y27715429D02*
X26204750Y27667810D01*
X26204750Y27667810D02*
X26109512Y27620191D01*
X26109512Y27620191D02*
X25776179Y27620191D01*
X26776179Y28096381D02*
X26776179Y27286858D01*
X26776179Y27286858D02*
X26823798Y27191620D01*
X26823798Y27191620D02*
X26871417Y27144000D01*
X26871417Y27144000D02*
X26966655Y27096381D01*
X26966655Y27096381D02*
X27157131Y27096381D01*
X27157131Y27096381D02*
X27252369Y27144000D01*
X27252369Y27144000D02*
X27299988Y27191620D01*
X27299988Y27191620D02*
X27347607Y27286858D01*
X27347607Y27286858D02*
X27347607Y28096381D01*
X27776179Y27144000D02*
X27919036Y27096381D01*
X27919036Y27096381D02*
X28157131Y27096381D01*
X28157131Y27096381D02*
X28252369Y27144000D01*
X28252369Y27144000D02*
X28299988Y27191620D01*
X28299988Y27191620D02*
X28347607Y27286858D01*
X28347607Y27286858D02*
X28347607Y27382096D01*
X28347607Y27382096D02*
X28299988Y27477334D01*
X28299988Y27477334D02*
X28252369Y27524953D01*
X28252369Y27524953D02*
X28157131Y27572572D01*
X28157131Y27572572D02*
X27966655Y27620191D01*
X27966655Y27620191D02*
X27871417Y27667810D01*
X27871417Y27667810D02*
X27823798Y27715429D01*
X27823798Y27715429D02*
X27776179Y27810667D01*
X27776179Y27810667D02*
X27776179Y27905905D01*
X27776179Y27905905D02*
X27823798Y28001143D01*
X27823798Y28001143D02*
X27871417Y28048762D01*
X27871417Y28048762D02*
X27966655Y28096381D01*
X27966655Y28096381D02*
X28204750Y28096381D01*
X28204750Y28096381D02*
X28347607Y28048762D01*
X29347607Y27096381D02*
X29014274Y27572572D01*
X28776179Y27096381D02*
X28776179Y28096381D01*
X28776179Y28096381D02*
X29157131Y28096381D01*
X29157131Y28096381D02*
X29252369Y28048762D01*
X29252369Y28048762D02*
X29299988Y28001143D01*
X29299988Y28001143D02*
X29347607Y27905905D01*
X29347607Y27905905D02*
X29347607Y27763048D01*
X29347607Y27763048D02*
X29299988Y27667810D01*
X29299988Y27667810D02*
X29252369Y27620191D01*
X29252369Y27620191D02*
X29157131Y27572572D01*
X29157131Y27572572D02*
X28776179Y27572572D01*
X30442845Y27001143D02*
X30347607Y27048762D01*
X30347607Y27048762D02*
X30252369Y27144000D01*
X30252369Y27144000D02*
X30109512Y27286858D01*
X30109512Y27286858D02*
X30014274Y27334477D01*
X30014274Y27334477D02*
X29919036Y27334477D01*
X29966655Y27096381D02*
X29871417Y27144000D01*
X29871417Y27144000D02*
X29776179Y27239239D01*
X29776179Y27239239D02*
X29728560Y27429715D01*
X29728560Y27429715D02*
X29728560Y27763048D01*
X29728560Y27763048D02*
X29776179Y27953524D01*
X29776179Y27953524D02*
X29871417Y28048762D01*
X29871417Y28048762D02*
X29966655Y28096381D01*
X29966655Y28096381D02*
X30157131Y28096381D01*
X30157131Y28096381D02*
X30252369Y28048762D01*
X30252369Y28048762D02*
X30347607Y27953524D01*
X30347607Y27953524D02*
X30395226Y27763048D01*
X30395226Y27763048D02*
X30395226Y27429715D01*
X30395226Y27429715D02*
X30347607Y27239239D01*
X30347607Y27239239D02*
X30252369Y27144000D01*
X30252369Y27144000D02*
X30157131Y27096381D01*
X30157131Y27096381D02*
X29966655Y27096381D01*
X25638084Y28374000D02*
X30485703Y28374000D01*
X10389160Y2605896D02*
X10865350Y2605896D01*
X10293922Y2320181D02*
X10627255Y3320181D01*
X10627255Y3320181D02*
X10960588Y2320181D01*
X11293922Y2843991D02*
X11627255Y2843991D01*
X11770112Y2320181D02*
X11293922Y2320181D01*
X11293922Y2320181D02*
X11293922Y3320181D01*
X11293922Y3320181D02*
X11770112Y3320181D01*
X12198684Y2701134D02*
X12960589Y2701134D01*
X13436779Y2320181D02*
X13436779Y2986848D01*
X13436779Y2891610D02*
X13484398Y2939229D01*
X13484398Y2939229D02*
X13579636Y2986848D01*
X13579636Y2986848D02*
X13722493Y2986848D01*
X13722493Y2986848D02*
X13817731Y2939229D01*
X13817731Y2939229D02*
X13865350Y2843991D01*
X13865350Y2843991D02*
X13865350Y2320181D01*
X13865350Y2843991D02*
X13912969Y2939229D01*
X13912969Y2939229D02*
X14008207Y2986848D01*
X14008207Y2986848D02*
X14151064Y2986848D01*
X14151064Y2986848D02*
X14246303Y2939229D01*
X14246303Y2939229D02*
X14293922Y2843991D01*
X14293922Y2843991D02*
X14293922Y2320181D01*
X14770112Y2320181D02*
X14770112Y2986848D01*
X14770112Y3320181D02*
X14722493Y3272562D01*
X14722493Y3272562D02*
X14770112Y3224943D01*
X14770112Y3224943D02*
X14817731Y3272562D01*
X14817731Y3272562D02*
X14770112Y3320181D01*
X14770112Y3320181D02*
X14770112Y3224943D01*
X15674873Y2367800D02*
X15579635Y2320181D01*
X15579635Y2320181D02*
X15389159Y2320181D01*
X15389159Y2320181D02*
X15293921Y2367800D01*
X15293921Y2367800D02*
X15246302Y2415420D01*
X15246302Y2415420D02*
X15198683Y2510658D01*
X15198683Y2510658D02*
X15198683Y2796372D01*
X15198683Y2796372D02*
X15246302Y2891610D01*
X15246302Y2891610D02*
X15293921Y2939229D01*
X15293921Y2939229D02*
X15389159Y2986848D01*
X15389159Y2986848D02*
X15579635Y2986848D01*
X15579635Y2986848D02*
X15674873Y2939229D01*
X16103445Y2320181D02*
X16103445Y2986848D01*
X16103445Y2796372D02*
X16151064Y2891610D01*
X16151064Y2891610D02*
X16198683Y2939229D01*
X16198683Y2939229D02*
X16293921Y2986848D01*
X16293921Y2986848D02*
X16389159Y2986848D01*
X16865350Y2320181D02*
X16770112Y2367800D01*
X16770112Y2367800D02*
X16722493Y2415420D01*
X16722493Y2415420D02*
X16674874Y2510658D01*
X16674874Y2510658D02*
X16674874Y2796372D01*
X16674874Y2796372D02*
X16722493Y2891610D01*
X16722493Y2891610D02*
X16770112Y2939229D01*
X16770112Y2939229D02*
X16865350Y2986848D01*
X16865350Y2986848D02*
X17008207Y2986848D01*
X17008207Y2986848D02*
X17103445Y2939229D01*
X17103445Y2939229D02*
X17151064Y2891610D01*
X17151064Y2891610D02*
X17198683Y2796372D01*
X17198683Y2796372D02*
X17198683Y2510658D01*
X17198683Y2510658D02*
X17151064Y2415420D01*
X17151064Y2415420D02*
X17103445Y2367800D01*
X17103445Y2367800D02*
X17008207Y2320181D01*
X17008207Y2320181D02*
X16865350Y2320181D01*
X17579636Y2367800D02*
X17722493Y2320181D01*
X17722493Y2320181D02*
X17960588Y2320181D01*
X17960588Y2320181D02*
X18055826Y2367800D01*
X18055826Y2367800D02*
X18103445Y2415420D01*
X18103445Y2415420D02*
X18151064Y2510658D01*
X18151064Y2510658D02*
X18151064Y2605896D01*
X18151064Y2605896D02*
X18103445Y2701134D01*
X18103445Y2701134D02*
X18055826Y2748753D01*
X18055826Y2748753D02*
X17960588Y2796372D01*
X17960588Y2796372D02*
X17770112Y2843991D01*
X17770112Y2843991D02*
X17674874Y2891610D01*
X17674874Y2891610D02*
X17627255Y2939229D01*
X17627255Y2939229D02*
X17579636Y3034467D01*
X17579636Y3034467D02*
X17579636Y3129705D01*
X17579636Y3129705D02*
X17627255Y3224943D01*
X17627255Y3224943D02*
X17674874Y3272562D01*
X17674874Y3272562D02*
X17770112Y3320181D01*
X17770112Y3320181D02*
X18008207Y3320181D01*
X18008207Y3320181D02*
X18151064Y3272562D01*
X18579636Y2320181D02*
X18579636Y3320181D01*
X18579636Y3320181D02*
X18817731Y3320181D01*
X18817731Y3320181D02*
X18960588Y3272562D01*
X18960588Y3272562D02*
X19055826Y3177324D01*
X19055826Y3177324D02*
X19103445Y3082086D01*
X19103445Y3082086D02*
X19151064Y2891610D01*
X19151064Y2891610D02*
X19151064Y2748753D01*
X19151064Y2748753D02*
X19103445Y2558277D01*
X19103445Y2558277D02*
X19055826Y2463039D01*
X19055826Y2463039D02*
X18960588Y2367800D01*
X18960588Y2367800D02*
X18817731Y2320181D01*
X18817731Y2320181D02*
X18579636Y2320181D01*
X19579636Y2701134D02*
X20341541Y2701134D01*
X21293921Y2320181D02*
X20817731Y2320181D01*
X20817731Y2320181D02*
X20817731Y3320181D01*
X22103445Y2320181D02*
X21627255Y2320181D01*
X21627255Y2320181D02*
X21627255Y3320181D01*
X23008207Y2415420D02*
X22960588Y2367800D01*
X22960588Y2367800D02*
X22817731Y2320181D01*
X22817731Y2320181D02*
X22722493Y2320181D01*
X22722493Y2320181D02*
X22579636Y2367800D01*
X22579636Y2367800D02*
X22484398Y2463039D01*
X22484398Y2463039D02*
X22436779Y2558277D01*
X22436779Y2558277D02*
X22389160Y2748753D01*
X22389160Y2748753D02*
X22389160Y2891610D01*
X22389160Y2891610D02*
X22436779Y3082086D01*
X22436779Y3082086D02*
X22484398Y3177324D01*
X22484398Y3177324D02*
X22579636Y3272562D01*
X22579636Y3272562D02*
X22722493Y3320181D01*
X22722493Y3320181D02*
X22817731Y3320181D01*
X22817731Y3320181D02*
X22960588Y3272562D01*
X22960588Y3272562D02*
X23008207Y3224943D01*
X23436779Y2320181D02*
X23436779Y3320181D01*
X23436779Y3320181D02*
X24008207Y2320181D01*
X24008207Y2320181D02*
X24008207Y3320181D01*
X24341541Y3320181D02*
X24674874Y2320181D01*
X24674874Y2320181D02*
X25008207Y3320181D01*
X24677495Y55011381D02*
X24677495Y54201858D01*
X24677495Y54201858D02*
X24725114Y54106620D01*
X24725114Y54106620D02*
X24772733Y54059000D01*
X24772733Y54059000D02*
X24867971Y54011381D01*
X24867971Y54011381D02*
X25058447Y54011381D01*
X25058447Y54011381D02*
X25153685Y54059000D01*
X25153685Y54059000D02*
X25201304Y54106620D01*
X25201304Y54106620D02*
X25248923Y54201858D01*
X25248923Y54201858D02*
X25248923Y55011381D01*
X26248923Y54011381D02*
X25677495Y54011381D01*
X25963209Y54011381D02*
X25963209Y55011381D01*
X25963209Y55011381D02*
X25867971Y54868524D01*
X25867971Y54868524D02*
X25772733Y54773286D01*
X25772733Y54773286D02*
X25677495Y54725667D01*
X18726305Y33261381D02*
X18726305Y34261381D01*
X18726305Y34261381D02*
X18964400Y34261381D01*
X18964400Y34261381D02*
X19107257Y34213762D01*
X19107257Y34213762D02*
X19202495Y34118524D01*
X19202495Y34118524D02*
X19250114Y34023286D01*
X19250114Y34023286D02*
X19297733Y33832810D01*
X19297733Y33832810D02*
X19297733Y33689953D01*
X19297733Y33689953D02*
X19250114Y33499477D01*
X19250114Y33499477D02*
X19202495Y33404239D01*
X19202495Y33404239D02*
X19107257Y33309000D01*
X19107257Y33309000D02*
X18964400Y33261381D01*
X18964400Y33261381D02*
X18726305Y33261381D01*
X19678686Y34166143D02*
X19726305Y34213762D01*
X19726305Y34213762D02*
X19821543Y34261381D01*
X19821543Y34261381D02*
X20059638Y34261381D01*
X20059638Y34261381D02*
X20154876Y34213762D01*
X20154876Y34213762D02*
X20202495Y34166143D01*
X20202495Y34166143D02*
X20250114Y34070905D01*
X20250114Y34070905D02*
X20250114Y33975667D01*
X20250114Y33975667D02*
X20202495Y33832810D01*
X20202495Y33832810D02*
X19631067Y33261381D01*
X19631067Y33261381D02*
X20250114Y33261381D01*
X17022733Y56511381D02*
X16689400Y56987572D01*
X16451305Y56511381D02*
X16451305Y57511381D01*
X16451305Y57511381D02*
X16832257Y57511381D01*
X16832257Y57511381D02*
X16927495Y57463762D01*
X16927495Y57463762D02*
X16975114Y57416143D01*
X16975114Y57416143D02*
X17022733Y57320905D01*
X17022733Y57320905D02*
X17022733Y57178048D01*
X17022733Y57178048D02*
X16975114Y57082810D01*
X16975114Y57082810D02*
X16927495Y57035191D01*
X16927495Y57035191D02*
X16832257Y56987572D01*
X16832257Y56987572D02*
X16451305Y56987572D01*
X17403686Y57416143D02*
X17451305Y57463762D01*
X17451305Y57463762D02*
X17546543Y57511381D01*
X17546543Y57511381D02*
X17784638Y57511381D01*
X17784638Y57511381D02*
X17879876Y57463762D01*
X17879876Y57463762D02*
X17927495Y57416143D01*
X17927495Y57416143D02*
X17975114Y57320905D01*
X17975114Y57320905D02*
X17975114Y57225667D01*
X17975114Y57225667D02*
X17927495Y57082810D01*
X17927495Y57082810D02*
X17356067Y56511381D01*
X17356067Y56511381D02*
X17975114Y56511381D01*
X27201305Y33261381D02*
X27201305Y34261381D01*
X27201305Y34261381D02*
X27439400Y34261381D01*
X27439400Y34261381D02*
X27582257Y34213762D01*
X27582257Y34213762D02*
X27677495Y34118524D01*
X27677495Y34118524D02*
X27725114Y34023286D01*
X27725114Y34023286D02*
X27772733Y33832810D01*
X27772733Y33832810D02*
X27772733Y33689953D01*
X27772733Y33689953D02*
X27725114Y33499477D01*
X27725114Y33499477D02*
X27677495Y33404239D01*
X27677495Y33404239D02*
X27582257Y33309000D01*
X27582257Y33309000D02*
X27439400Y33261381D01*
X27439400Y33261381D02*
X27201305Y33261381D01*
X28725114Y33261381D02*
X28153686Y33261381D01*
X28439400Y33261381D02*
X28439400Y34261381D01*
X28439400Y34261381D02*
X28344162Y34118524D01*
X28344162Y34118524D02*
X28248924Y34023286D01*
X28248924Y34023286D02*
X28153686Y33975667D01*
X28772733Y56656620D02*
X28725114Y56609000D01*
X28725114Y56609000D02*
X28582257Y56561381D01*
X28582257Y56561381D02*
X28487019Y56561381D01*
X28487019Y56561381D02*
X28344162Y56609000D01*
X28344162Y56609000D02*
X28248924Y56704239D01*
X28248924Y56704239D02*
X28201305Y56799477D01*
X28201305Y56799477D02*
X28153686Y56989953D01*
X28153686Y56989953D02*
X28153686Y57132810D01*
X28153686Y57132810D02*
X28201305Y57323286D01*
X28201305Y57323286D02*
X28248924Y57418524D01*
X28248924Y57418524D02*
X28344162Y57513762D01*
X28344162Y57513762D02*
X28487019Y57561381D01*
X28487019Y57561381D02*
X28582257Y57561381D01*
X28582257Y57561381D02*
X28725114Y57513762D01*
X28725114Y57513762D02*
X28772733Y57466143D01*
X29725114Y56561381D02*
X29153686Y56561381D01*
X29439400Y56561381D02*
X29439400Y57561381D01*
X29439400Y57561381D02*
X29344162Y57418524D01*
X29344162Y57418524D02*
X29248924Y57323286D01*
X29248924Y57323286D02*
X29153686Y57275667D01*
X17772733Y40511381D02*
X17439400Y40987572D01*
X17201305Y40511381D02*
X17201305Y41511381D01*
X17201305Y41511381D02*
X17582257Y41511381D01*
X17582257Y41511381D02*
X17677495Y41463762D01*
X17677495Y41463762D02*
X17725114Y41416143D01*
X17725114Y41416143D02*
X17772733Y41320905D01*
X17772733Y41320905D02*
X17772733Y41178048D01*
X17772733Y41178048D02*
X17725114Y41082810D01*
X17725114Y41082810D02*
X17677495Y41035191D01*
X17677495Y41035191D02*
X17582257Y40987572D01*
X17582257Y40987572D02*
X17201305Y40987572D01*
X18106067Y41511381D02*
X18725114Y41511381D01*
X18725114Y41511381D02*
X18391781Y41130429D01*
X18391781Y41130429D02*
X18534638Y41130429D01*
X18534638Y41130429D02*
X18629876Y41082810D01*
X18629876Y41082810D02*
X18677495Y41035191D01*
X18677495Y41035191D02*
X18725114Y40939953D01*
X18725114Y40939953D02*
X18725114Y40701858D01*
X18725114Y40701858D02*
X18677495Y40606620D01*
X18677495Y40606620D02*
X18629876Y40559000D01*
X18629876Y40559000D02*
X18534638Y40511381D01*
X18534638Y40511381D02*
X18248924Y40511381D01*
X18248924Y40511381D02*
X18153686Y40559000D01*
X18153686Y40559000D02*
X18106067Y40606620D01*
X20272733Y56511381D02*
X19939400Y56987572D01*
X19701305Y56511381D02*
X19701305Y57511381D01*
X19701305Y57511381D02*
X20082257Y57511381D01*
X20082257Y57511381D02*
X20177495Y57463762D01*
X20177495Y57463762D02*
X20225114Y57416143D01*
X20225114Y57416143D02*
X20272733Y57320905D01*
X20272733Y57320905D02*
X20272733Y57178048D01*
X20272733Y57178048D02*
X20225114Y57082810D01*
X20225114Y57082810D02*
X20177495Y57035191D01*
X20177495Y57035191D02*
X20082257Y56987572D01*
X20082257Y56987572D02*
X19701305Y56987572D01*
X21225114Y56511381D02*
X20653686Y56511381D01*
X20939400Y56511381D02*
X20939400Y57511381D01*
X20939400Y57511381D02*
X20844162Y57368524D01*
X20844162Y57368524D02*
X20748924Y57273286D01*
X20748924Y57273286D02*
X20653686Y57225667D01*
X13116666Y57555181D02*
X13116666Y56840896D01*
X13116666Y56840896D02*
X13069047Y56698039D01*
X13069047Y56698039D02*
X12973809Y56602800D01*
X12973809Y56602800D02*
X12830952Y56555181D01*
X12830952Y56555181D02*
X12735714Y56555181D01*
X14116666Y56555181D02*
X13545238Y56555181D01*
X13830952Y56555181D02*
X13830952Y57555181D01*
X13830952Y57555181D02*
X13735714Y57412324D01*
X13735714Y57412324D02*
X13640476Y57317086D01*
X13640476Y57317086D02*
X13545238Y57269467D01*
X33436666Y57555181D02*
X33436666Y56840896D01*
X33436666Y56840896D02*
X33389047Y56698039D01*
X33389047Y56698039D02*
X33293809Y56602800D01*
X33293809Y56602800D02*
X33150952Y56555181D01*
X33150952Y56555181D02*
X33055714Y56555181D01*
X33865238Y57459943D02*
X33912857Y57507562D01*
X33912857Y57507562D02*
X34008095Y57555181D01*
X34008095Y57555181D02*
X34246190Y57555181D01*
X34246190Y57555181D02*
X34341428Y57507562D01*
X34341428Y57507562D02*
X34389047Y57459943D01*
X34389047Y57459943D02*
X34436666Y57364705D01*
X34436666Y57364705D02*
X34436666Y57269467D01*
X34436666Y57269467D02*
X34389047Y57126610D01*
X34389047Y57126610D02*
X33817619Y56555181D01*
X33817619Y56555181D02*
X34436666Y56555181D01*
D12*
X24099400Y53030000D02*
X24099400Y35130000D01*
X24099400Y35130000D02*
X29399400Y35130000D01*
X25749400Y53030000D02*
X24099400Y53030000D01*
X29399400Y53030000D02*
X27749400Y53030000D01*
X29399400Y35130000D02*
X29399400Y53030000D01*
X25749400Y53030000D02*
G75*
G03*
X27749400Y53030000I1000000J0D01*
G01*
X21004400Y29730200D02*
X21004400Y29886200D01*
X21004400Y32046200D02*
X21004400Y32202200D01*
X17772066Y29887592D02*
G75*
G03*
X21004399Y29730685I1672334J1078608D01*
G01*
X18403271Y29886364D02*
G75*
G03*
X20485360Y29886201I1041129J1079836D01*
G01*
X20485360Y32046199D02*
G75*
G03*
X18403271Y32046036I-1040960J-1079999D01*
G01*
X21004399Y32201715D02*
G75*
G03*
X17772066Y32044808I-1559999J-1235515D01*
G01*
X32130000Y4720000D02*
X32130000Y25100000D01*
X32130000Y4720000D02*
X29470000Y4720000D01*
X32130000Y25100000D02*
X29470000Y25100000D01*
X30800000Y2120000D02*
X29470000Y2120000D01*
X29470000Y2120000D02*
X29470000Y3450000D01*
X29470000Y4720000D02*
X29470000Y25100000D01*
X17189400Y48346200D02*
X17189400Y49296200D01*
X16269400Y49296200D02*
X18109400Y49296200D01*
X18109400Y49296200D02*
X18109400Y53136200D01*
X16269400Y53136200D02*
X16269400Y49296200D01*
X18109400Y53136200D02*
X16269400Y53136200D01*
X17189400Y54086200D02*
X17189400Y53136200D01*
X29479400Y29730200D02*
X29479400Y29886200D01*
X29479400Y32046200D02*
X29479400Y32202200D01*
X26247066Y29887592D02*
G75*
G03*
X29479399Y29730685I1672334J1078608D01*
G01*
X26878271Y29886364D02*
G75*
G03*
X28960360Y29886201I1041129J1079836D01*
G01*
X28960360Y32046199D02*
G75*
G03*
X26878271Y32046036I-1040960J-1079999D01*
G01*
X29479399Y32201715D02*
G75*
G03*
X26247066Y32044808I-1559999J-1235515D01*
G01*
X28310400Y55886200D02*
X29568400Y55886200D01*
X28310400Y54046200D02*
X29568400Y54046200D01*
X19939400Y38096200D02*
X19939400Y39046200D01*
X19019400Y39046200D02*
X20859400Y39046200D01*
X20859400Y39046200D02*
X20859400Y42886200D01*
X19019400Y42886200D02*
X19019400Y39046200D01*
X20859400Y42886200D02*
X19019400Y42886200D01*
X19939400Y43836200D02*
X19939400Y42886200D01*
X20189400Y48406200D02*
X20189400Y49356200D01*
X19269400Y49356200D02*
X21109400Y49356200D01*
X21109400Y49356200D02*
X21109400Y53196200D01*
X19269400Y53196200D02*
X19269400Y49356200D01*
X21109400Y53196200D02*
X19269400Y53196200D01*
X20189400Y54146200D02*
X20189400Y53196200D01*
M02*
