M48
; DRILL file {KiCad 7.0.5} date Fri Nov  3 15:53:35 2023
; FORMAT={-:-/ absolute / metric / decimal}
; #@! TF.CreationDate,2023-11-03T15:53:35+09:00
; #@! TF.GenerationSoftware,Kicad,Pcbnew,7.0.5
; #@! TF.FileFunction,MixedPlating,1,2
FMAT,2
METRIC
; #@! TA.AperFunction,Plated,PTH,ViaDrill
T1C0.300
; #@! TA.AperFunction,Plated,PTH,ComponentDrill
T2C0.700
; #@! TA.AperFunction,Plated,PTH,ViaDrill
T3C0.800
; #@! TA.AperFunction,Plated,PTH,ComponentDrill
T4C0.800
; #@! TA.AperFunction,Plated,PTH,ComponentDrill
T5C0.900
; #@! TA.AperFunction,Plated,PTH,ViaDrill
T6C1.000
; #@! TA.AperFunction,Plated,PTH,ComponentDrill
T7C1.000
%
G90
G05
T1
X2.86Y18.69
X2.86Y14.88
X2.86Y9.8
X2.86Y5.355
X7.94Y23.77
X7.94Y18.69
X7.94Y14.88
X7.94Y9.8
X7.94Y4.72
X11.07Y25.54
X11.115Y23.77
X11.115Y18.69
X11.115Y14.88
X11.115Y9.8
X11.115Y4.72
X14.8Y59.77
X15.24Y47.85
X15.24Y43.12
X15.8Y56.77
X17.19Y33.62
X18.17Y17.17
X18.46Y24.36
X18.7Y50.98
X18.72Y43.23
X19.15Y9.19
X19.47Y35.07
X19.5Y20.86
X19.71Y39.78
X19.8Y59.77
X21.43Y42.86
X21.49Y39.58
X21.8Y56.77
X22.41Y17.03
X22.43Y9.85
X22.95Y20.96
X23.02Y55.16
X23.14Y24.41
X23.58Y28.89
X23.942Y32.66
X23.942Y31.898
X24.704Y40.534
X25.21Y21.23
X25.68Y51.18
X26.05Y47.12
X26.15Y17.22
X26.27Y42.35
X26.44Y6.08
X26.59Y45.47
X26.59Y37.32
X26.6Y24.49
X26.8Y59.77
X26.8Y56.77
X27.04Y11.06
X27.82Y13.61
X27.89Y44.08
X28.48Y51.11
X28.56Y47.42
X28.81Y42.33
X28.95Y37.42
X29.01Y26.58
X31.72Y29.35
X31.8Y59.77
X31.8Y56.77
X31.93Y50.44
X31.96Y47.89
X34.13Y2.44
T2
X17.189Y55.026
X17.189Y47.406
X19.939Y44.776
X19.939Y37.156
X20.189Y55.086
X20.189Y47.466
T3
X19.17Y5.08
T4
X22.939Y51.7
X22.939Y49.16
X22.939Y46.62
X22.939Y44.08
X22.939Y41.54
X22.939Y39.0
X22.939Y36.46
X27.689Y54.966
X30.189Y54.966
X30.559Y51.7
X30.559Y49.16
X30.559Y46.62
X30.559Y44.08
X30.559Y41.54
X30.559Y39.0
X30.559Y36.46
T5
X18.174Y30.966
X20.714Y30.966
X26.649Y30.966
X29.189Y30.966
T6
X2.86Y23.77
X2.86Y3.45
X5.4Y23.77
X5.4Y3.45
T7
X13.45Y54.24
X13.45Y51.7
X13.45Y49.16
X13.45Y46.62
X13.45Y44.08
X13.45Y41.54
X13.45Y39.0
X13.45Y36.46
X13.45Y33.92
X13.45Y31.38
X13.45Y28.84
X13.45Y26.3
X13.45Y23.76
X13.45Y21.22
X13.45Y18.68
X13.45Y16.14
X13.45Y13.6
X13.45Y11.06
X13.45Y8.52
X13.45Y5.98
X30.8Y23.77
X30.8Y21.23
X30.8Y18.69
X30.8Y16.15
X30.8Y13.61
X30.8Y11.07
X30.8Y8.53
X30.8Y5.99
X30.8Y3.45
X33.77Y54.24
X33.77Y51.7
X33.77Y49.16
X33.77Y46.62
X33.77Y44.08
X33.77Y41.54
X33.77Y39.0
X33.77Y36.46
X33.77Y33.92
X33.77Y31.38
X33.77Y28.84
X33.77Y26.3
X33.77Y23.76
X33.77Y21.22
X33.77Y18.68
X33.77Y16.14
X33.77Y13.6
X33.77Y11.06
X33.77Y8.52
X33.77Y5.98
T0
M30
