%TF.GenerationSoftware,KiCad,Pcbnew,7.0.5*%
%TF.CreationDate,2023-11-03T15:53:39+09:00*%
%TF.ProjectId,EMUZ80SD_MK2,454d555a-3830-4534-945f-4d4b322e6b69,2.2*%
%TF.SameCoordinates,PX7560bf6PY775100a*%
%TF.FileFunction,Soldermask,Bot*%
%TF.FilePolarity,Negative*%
%FSLAX46Y46*%
G04 Gerber Fmt 4.6, Leading zero omitted, Abs format (unit mm)*
G04 Created by KiCad (PCBNEW 7.0.5) date 2023-11-03 15:53:39*
%MOMM*%
%LPD*%
G01*
G04 APERTURE LIST*
%ADD10R,1.600000X1.600000*%
%ADD11O,1.600000X1.600000*%
%ADD12R,1.800000X1.800000*%
%ADD13C,1.800000*%
%ADD14R,1.700000X1.700000*%
%ADD15O,1.700000X1.700000*%
%ADD16C,1.400000*%
%ADD17O,1.400000X1.400000*%
%ADD18C,1.600000*%
%ADD19C,0.605000*%
%ADD20C,1.200000*%
%ADD21C,1.500000*%
G04 APERTURE END LIST*
D10*
X22939400Y51700000D03*
D11*
X22939400Y49160000D03*
X22939400Y46620000D03*
X22939400Y44080000D03*
X22939400Y41540000D03*
X22939400Y39000000D03*
X22939400Y36460000D03*
X30559400Y36460000D03*
X30559400Y39000000D03*
X30559400Y41540000D03*
X30559400Y44080000D03*
X30559400Y46620000D03*
X30559400Y49160000D03*
X30559400Y51700000D03*
D12*
X20714400Y30966200D03*
D13*
X18174400Y30966200D03*
D14*
X30800000Y3450000D03*
D15*
X30800000Y5990000D03*
X30800000Y8530000D03*
X30800000Y11070000D03*
X30800000Y13610000D03*
X30800000Y16150000D03*
X30800000Y18690000D03*
X30800000Y21230000D03*
X30800000Y23770000D03*
D16*
X17189400Y47406200D03*
D17*
X17189400Y55026200D03*
D12*
X29189400Y30966200D03*
D13*
X26649400Y30966200D03*
D18*
X27689400Y54966200D03*
X30189400Y54966200D03*
D16*
X19939400Y37156200D03*
D17*
X19939400Y44776200D03*
D16*
X20189400Y47466200D03*
D17*
X20189400Y55086200D03*
D14*
X13450000Y54240000D03*
D15*
X13450000Y51700000D03*
X13450000Y49160000D03*
X13450000Y46620000D03*
X13450000Y44080000D03*
X13450000Y41540000D03*
X13450000Y39000000D03*
X13450000Y36460000D03*
X13450000Y33920000D03*
X13450000Y31380000D03*
X13450000Y28840000D03*
X13450000Y26300000D03*
X13450000Y23760000D03*
X13450000Y21220000D03*
X13450000Y18680000D03*
X13450000Y16140000D03*
X13450000Y13600000D03*
X13450000Y11060000D03*
X13450000Y8520000D03*
X13450000Y5980000D03*
D14*
X33770000Y54240000D03*
D15*
X33770000Y51700000D03*
X33770000Y49160000D03*
X33770000Y46620000D03*
X33770000Y44080000D03*
X33770000Y41540000D03*
X33770000Y39000000D03*
X33770000Y36460000D03*
X33770000Y33920000D03*
X33770000Y31380000D03*
X33770000Y28840000D03*
X33770000Y26300000D03*
X33770000Y23760000D03*
X33770000Y21220000D03*
X33770000Y18680000D03*
X33770000Y16140000D03*
X33770000Y13600000D03*
X33770000Y11060000D03*
X33770000Y8520000D03*
X33770000Y5980000D03*
D19*
X26600000Y24490000D03*
X23580000Y28890000D03*
X31720000Y29350000D03*
X26270000Y42350000D03*
X28810000Y42330000D03*
X28950000Y37420000D03*
X31960000Y47890000D03*
X31930000Y50440000D03*
X23020000Y55160000D03*
X18700000Y50980000D03*
X18720000Y43230000D03*
X15240000Y43120000D03*
X15240000Y47850000D03*
X26050000Y47120000D03*
X28560000Y47420000D03*
X28480000Y51110000D03*
X25680000Y51180000D03*
X19500000Y20860000D03*
X22950000Y20960000D03*
X23140000Y24410000D03*
X18460000Y24360000D03*
X34130000Y2440000D03*
X27040000Y11060000D03*
X19150000Y9190000D03*
X26150000Y17220000D03*
X18170000Y17170000D03*
X26440000Y6080000D03*
X17190000Y33620000D03*
X19470000Y35070000D03*
X22430000Y9850000D03*
X22410000Y17030000D03*
X29010000Y26580000D03*
X21430000Y42860000D03*
X21490000Y39580000D03*
X19710000Y39780000D03*
X26590000Y45470000D03*
X26590000Y37320000D03*
X27820000Y13610000D03*
X27890000Y44080000D03*
X25210000Y21230000D03*
D20*
X19170000Y5080000D03*
D21*
X5400000Y3450000D03*
X5400000Y23770000D03*
X2860000Y3450000D03*
X2860000Y23770000D03*
D19*
X11115000Y4720000D03*
X21800000Y56770000D03*
X7940000Y18690000D03*
X2860000Y9800000D03*
X26800000Y59770000D03*
X14800000Y59770000D03*
X7940000Y14880000D03*
X31800000Y56770000D03*
X2860000Y18690000D03*
X7940000Y23770000D03*
X7940000Y4720000D03*
X11115000Y14880000D03*
X2860000Y14880000D03*
X11115000Y9800000D03*
X19800000Y59770000D03*
X11115000Y18690000D03*
X2860000Y5355000D03*
X15800000Y56770000D03*
X31800000Y59770000D03*
X11115000Y23770000D03*
X7940000Y9800000D03*
X11070000Y25540000D03*
X26800000Y56770000D03*
X24704000Y40534000D03*
X23942000Y31898000D03*
X23942000Y32660000D03*
M02*
