%TF.GenerationSoftware,KiCad,Pcbnew,7.0.5*%
%TF.CreationDate,2023-11-03T15:53:39+09:00*%
%TF.ProjectId,EMUZ80SD_MK2,454d555a-3830-4534-945f-4d4b322e6b69,2.2*%
%TF.SameCoordinates,PX7560bf6PY775100a*%
%TF.FileFunction,Copper,L2,Bot*%
%TF.FilePolarity,Positive*%
%FSLAX46Y46*%
G04 Gerber Fmt 4.6, Leading zero omitted, Abs format (unit mm)*
G04 Created by KiCad (PCBNEW 7.0.5) date 2023-11-03 15:53:39*
%MOMM*%
%LPD*%
G01*
G04 APERTURE LIST*
%TA.AperFunction,ComponentPad*%
%ADD10R,1.600000X1.600000*%
%TD*%
%TA.AperFunction,ComponentPad*%
%ADD11O,1.600000X1.600000*%
%TD*%
%TA.AperFunction,ComponentPad*%
%ADD12R,1.800000X1.800000*%
%TD*%
%TA.AperFunction,ComponentPad*%
%ADD13C,1.800000*%
%TD*%
%TA.AperFunction,ComponentPad*%
%ADD14R,1.700000X1.700000*%
%TD*%
%TA.AperFunction,ComponentPad*%
%ADD15O,1.700000X1.700000*%
%TD*%
%TA.AperFunction,ComponentPad*%
%ADD16C,1.400000*%
%TD*%
%TA.AperFunction,ComponentPad*%
%ADD17O,1.400000X1.400000*%
%TD*%
%TA.AperFunction,ComponentPad*%
%ADD18C,1.600000*%
%TD*%
%TA.AperFunction,ViaPad*%
%ADD19C,0.605000*%
%TD*%
%TA.AperFunction,ViaPad*%
%ADD20C,1.200000*%
%TD*%
%TA.AperFunction,ViaPad*%
%ADD21C,1.500000*%
%TD*%
%TA.AperFunction,Conductor*%
%ADD22C,0.152400*%
%TD*%
%TA.AperFunction,Conductor*%
%ADD23C,0.800000*%
%TD*%
%TA.AperFunction,Conductor*%
%ADD24C,0.400000*%
%TD*%
G04 APERTURE END LIST*
D10*
X22939400Y51700000D03*
D11*
X22939400Y49160000D03*
X22939400Y46620000D03*
X22939400Y44080000D03*
X22939400Y41540000D03*
X22939400Y39000000D03*
X22939400Y36460000D03*
X30559400Y36460000D03*
X30559400Y39000000D03*
X30559400Y41540000D03*
X30559400Y44080000D03*
X30559400Y46620000D03*
X30559400Y49160000D03*
X30559400Y51700000D03*
D12*
X20714400Y30966200D03*
D13*
X18174400Y30966200D03*
D14*
X30800000Y3450000D03*
D15*
X30800000Y5990000D03*
X30800000Y8530000D03*
X30800000Y11070000D03*
X30800000Y13610000D03*
X30800000Y16150000D03*
X30800000Y18690000D03*
X30800000Y21230000D03*
X30800000Y23770000D03*
D16*
X17189400Y47406200D03*
D17*
X17189400Y55026200D03*
D12*
X29189400Y30966200D03*
D13*
X26649400Y30966200D03*
D18*
X27689400Y54966200D03*
X30189400Y54966200D03*
D16*
X19939400Y37156200D03*
D17*
X19939400Y44776200D03*
D16*
X20189400Y47466200D03*
D17*
X20189400Y55086200D03*
D14*
X13450000Y54240000D03*
D15*
X13450000Y51700000D03*
X13450000Y49160000D03*
X13450000Y46620000D03*
X13450000Y44080000D03*
X13450000Y41540000D03*
X13450000Y39000000D03*
X13450000Y36460000D03*
X13450000Y33920000D03*
X13450000Y31380000D03*
X13450000Y28840000D03*
X13450000Y26300000D03*
X13450000Y23760000D03*
X13450000Y21220000D03*
X13450000Y18680000D03*
X13450000Y16140000D03*
X13450000Y13600000D03*
X13450000Y11060000D03*
X13450000Y8520000D03*
X13450000Y5980000D03*
D14*
X33770000Y54240000D03*
D15*
X33770000Y51700000D03*
X33770000Y49160000D03*
X33770000Y46620000D03*
X33770000Y44080000D03*
X33770000Y41540000D03*
X33770000Y39000000D03*
X33770000Y36460000D03*
X33770000Y33920000D03*
X33770000Y31380000D03*
X33770000Y28840000D03*
X33770000Y26300000D03*
X33770000Y23760000D03*
X33770000Y21220000D03*
X33770000Y18680000D03*
X33770000Y16140000D03*
X33770000Y13600000D03*
X33770000Y11060000D03*
X33770000Y8520000D03*
X33770000Y5980000D03*
D19*
X26600000Y24490000D03*
X23580000Y28890000D03*
X31720000Y29350000D03*
X26270000Y42350000D03*
X28810000Y42330000D03*
X28950000Y37420000D03*
X31960000Y47890000D03*
X31930000Y50440000D03*
X23020000Y55160000D03*
X18700000Y50980000D03*
X18720000Y43230000D03*
X15240000Y43120000D03*
X15240000Y47850000D03*
X26050000Y47120000D03*
X28560000Y47420000D03*
X28480000Y51110000D03*
X25680000Y51180000D03*
X19500000Y20860000D03*
X22950000Y20960000D03*
X23140000Y24410000D03*
X18460000Y24360000D03*
X34130000Y2440000D03*
X27040000Y11060000D03*
X19150000Y9190000D03*
X26150000Y17220000D03*
X18170000Y17170000D03*
X26440000Y6080000D03*
X17190000Y33620000D03*
X19470000Y35070000D03*
X22430000Y9850000D03*
X22410000Y17030000D03*
X29010000Y26580000D03*
X21430000Y42860000D03*
X21490000Y39580000D03*
X19710000Y39780000D03*
X26590000Y45470000D03*
X26590000Y37320000D03*
X27820000Y13610000D03*
X27890000Y44080000D03*
X25210000Y21230000D03*
D20*
X19170000Y5080000D03*
D21*
X5400000Y3450000D03*
X5400000Y23770000D03*
X2860000Y3450000D03*
X2860000Y23770000D03*
D19*
X11115000Y4720000D03*
X21800000Y56770000D03*
X7940000Y18690000D03*
X2860000Y9800000D03*
X26800000Y59770000D03*
X14800000Y59770000D03*
X7940000Y14880000D03*
X31800000Y56770000D03*
X2860000Y18690000D03*
X7940000Y23770000D03*
X7940000Y4720000D03*
X11115000Y14880000D03*
X2860000Y14880000D03*
X11115000Y9800000D03*
X19800000Y59770000D03*
X11115000Y18690000D03*
X2860000Y5355000D03*
X15800000Y56770000D03*
X31800000Y59770000D03*
X11115000Y23770000D03*
X7940000Y9800000D03*
X11070000Y25540000D03*
X26800000Y56770000D03*
X24704000Y40534000D03*
X23942000Y31898000D03*
X23942000Y32660000D03*
D22*
X18190000Y30981800D02*
X18174400Y30966200D01*
X16260800Y37049200D02*
X18190000Y35120000D01*
X17189400Y55026200D02*
X16260800Y54097600D01*
X16260800Y54097600D02*
X16260800Y37049200D01*
X18190000Y35120000D02*
X18190000Y30981800D01*
X27805200Y13624800D02*
X27820000Y13610000D01*
X27805200Y43995200D02*
X27805200Y13624800D01*
X27890000Y44080000D02*
X27805200Y43995200D01*
X24172900Y42846500D02*
X22939400Y44080000D01*
X24172900Y40314011D02*
X24172900Y42846500D01*
X25212000Y21232000D02*
X25210000Y21230000D01*
X25212000Y39274911D02*
X24172900Y40314011D01*
X25212000Y39274911D02*
X25212000Y21232000D01*
X28110000Y18840000D02*
X28110000Y23103290D01*
X30800000Y16150000D02*
X28110000Y18840000D01*
D23*
X19170000Y5050000D02*
X19130000Y5090000D01*
X19170000Y5080000D02*
X19170000Y5050000D01*
X19140000Y5080000D02*
X19170000Y5080000D01*
X15864000Y26426000D02*
X15864000Y8356000D01*
X13450000Y28840000D02*
X15864000Y26426000D01*
X15864000Y8356000D02*
X19140000Y5080000D01*
D24*
X11830000Y26300000D02*
X11070000Y25540000D01*
X13450000Y26300000D02*
X11830000Y26300000D01*
D23*
X20189400Y47466200D02*
X20189400Y51331212D01*
X22471988Y53613800D02*
X28837000Y53613800D01*
X17189400Y39906200D02*
X17189400Y47406200D01*
X28837000Y53613800D02*
X30189400Y54966200D01*
X19939400Y37156200D02*
X17189400Y39906200D01*
X30189400Y54966200D02*
X30189400Y52070000D01*
X20189400Y51331212D02*
X22471988Y53613800D01*
X30189400Y52070000D02*
X30559400Y51700000D01*
D22*
X30559400Y32336200D02*
X29189400Y30966200D01*
X30559400Y36460000D02*
X30559400Y32336200D01*
X24704000Y40534000D02*
X24704000Y49935400D01*
X24704000Y49935400D02*
X22939400Y51700000D01*
X20868000Y34972000D02*
X20868000Y43847600D01*
X20868000Y43847600D02*
X19939400Y44776200D01*
X23942000Y31898000D02*
X20868000Y34972000D01*
X30559400Y46620000D02*
X31588000Y45591400D01*
X31588000Y32626974D02*
X30318000Y31356974D01*
X31588000Y45591400D02*
X31588000Y32626974D01*
X30318000Y31356974D02*
X30318000Y25311290D01*
X30318000Y25311290D02*
X28110000Y23103290D01*
X23968000Y32686000D02*
X23968000Y37971400D01*
X23968000Y37971400D02*
X22939400Y39000000D01*
X22939400Y46620000D02*
X22939400Y44080000D01*
%TA.AperFunction,Conductor*%
G36*
X29684339Y29546016D02*
G01*
X29730094Y29493212D01*
X29741300Y29441701D01*
X29741300Y25601529D01*
X29721615Y25534490D01*
X29704981Y25513848D01*
X28593581Y24402448D01*
X28532258Y24368963D01*
X28462566Y24373947D01*
X28406633Y24415819D01*
X28382216Y24481283D01*
X28381900Y24490129D01*
X28381900Y29441701D01*
X28401585Y29508740D01*
X28454389Y29554495D01*
X28505900Y29565701D01*
X29617300Y29565701D01*
X29684339Y29546016D01*
G37*
%TD.AperFunction*%
%TA.AperFunction,Conductor*%
G36*
X29202655Y52759133D02*
G01*
X29260518Y52719972D01*
X29288023Y52655744D01*
X29288900Y52641021D01*
X29288900Y52150627D01*
X29287373Y52131228D01*
X29285181Y52117389D01*
X29288815Y52048044D01*
X29288900Y52044799D01*
X29288900Y52022797D01*
X29289490Y52017185D01*
X29285944Y51972150D01*
X29273765Y51926692D01*
X29253932Y51700001D01*
X29253932Y51699999D01*
X29273764Y51473314D01*
X29273766Y51473303D01*
X29332658Y51253512D01*
X29332661Y51253503D01*
X29428831Y51047268D01*
X29428832Y51047266D01*
X29559354Y50860859D01*
X29720258Y50699955D01*
X29720261Y50699953D01*
X29906666Y50569432D01*
X29964675Y50542382D01*
X30017114Y50496209D01*
X30036266Y50429016D01*
X30016050Y50362135D01*
X29964675Y50317619D01*
X29947672Y50309690D01*
X29906667Y50290569D01*
X29906665Y50290568D01*
X29720258Y50160046D01*
X29559354Y49999142D01*
X29428832Y49812735D01*
X29428831Y49812733D01*
X29332661Y49606498D01*
X29332658Y49606489D01*
X29273766Y49386698D01*
X29273764Y49386687D01*
X29253932Y49160002D01*
X29253932Y49159999D01*
X29273764Y48933314D01*
X29273766Y48933303D01*
X29332658Y48713512D01*
X29332661Y48713503D01*
X29428831Y48507268D01*
X29428832Y48507266D01*
X29559354Y48320859D01*
X29720258Y48159955D01*
X29720261Y48159953D01*
X29906666Y48029432D01*
X29964675Y48002382D01*
X30017114Y47956209D01*
X30036266Y47889016D01*
X30016050Y47822135D01*
X29964675Y47777618D01*
X29906667Y47750569D01*
X29906665Y47750568D01*
X29720258Y47620046D01*
X29559354Y47459142D01*
X29428832Y47272735D01*
X29428831Y47272733D01*
X29332661Y47066498D01*
X29332658Y47066489D01*
X29273766Y46846698D01*
X29273764Y46846687D01*
X29253932Y46620002D01*
X29253932Y46619999D01*
X29273764Y46393314D01*
X29273766Y46393303D01*
X29332658Y46173512D01*
X29332661Y46173503D01*
X29428831Y45967268D01*
X29428832Y45967266D01*
X29559354Y45780859D01*
X29720258Y45619955D01*
X29720261Y45619953D01*
X29906666Y45489432D01*
X29911097Y45487366D01*
X29964675Y45462382D01*
X30017114Y45416209D01*
X30036266Y45349016D01*
X30016050Y45282135D01*
X29964675Y45237618D01*
X29906667Y45210569D01*
X29906665Y45210568D01*
X29720258Y45080046D01*
X29559354Y44919142D01*
X29428832Y44732735D01*
X29428831Y44732733D01*
X29332661Y44526498D01*
X29332658Y44526489D01*
X29273766Y44306698D01*
X29273764Y44306687D01*
X29253932Y44080002D01*
X29253932Y44079999D01*
X29273764Y43853314D01*
X29273766Y43853303D01*
X29332658Y43633512D01*
X29332661Y43633503D01*
X29428831Y43427268D01*
X29428832Y43427266D01*
X29559354Y43240859D01*
X29720258Y43079955D01*
X29720261Y43079953D01*
X29906666Y42949432D01*
X29964675Y42922382D01*
X30017114Y42876209D01*
X30036266Y42809016D01*
X30016050Y42742135D01*
X29964675Y42697618D01*
X29906667Y42670569D01*
X29906665Y42670568D01*
X29720258Y42540046D01*
X29559354Y42379142D01*
X29428832Y42192735D01*
X29428831Y42192733D01*
X29332661Y41986498D01*
X29332658Y41986489D01*
X29273766Y41766698D01*
X29273764Y41766687D01*
X29253932Y41540002D01*
X29253932Y41539999D01*
X29273764Y41313314D01*
X29273766Y41313303D01*
X29332658Y41093512D01*
X29332661Y41093503D01*
X29428831Y40887268D01*
X29428832Y40887266D01*
X29559354Y40700859D01*
X29720258Y40539955D01*
X29720261Y40539953D01*
X29906666Y40409432D01*
X29965265Y40382107D01*
X30017705Y40335935D01*
X30036857Y40268742D01*
X30016642Y40201861D01*
X29965267Y40157343D01*
X29906911Y40130131D01*
X29833926Y40079027D01*
X30514999Y39397954D01*
X30434252Y39385165D01*
X30321355Y39327641D01*
X30231759Y39238045D01*
X30174235Y39125148D01*
X30161446Y39044402D01*
X29480373Y39725474D01*
X29429268Y39652487D01*
X29333134Y39446327D01*
X29333130Y39446318D01*
X29274260Y39226611D01*
X29274258Y39226600D01*
X29254434Y39000003D01*
X29254434Y38999998D01*
X29274258Y38773401D01*
X29274260Y38773390D01*
X29333130Y38553683D01*
X29333134Y38553674D01*
X29429265Y38347519D01*
X29429266Y38347517D01*
X29480373Y38274529D01*
X29480373Y38274528D01*
X30161445Y38955601D01*
X30174235Y38874852D01*
X30231759Y38761955D01*
X30321355Y38672359D01*
X30434252Y38614835D01*
X30514997Y38602047D01*
X29833926Y37920975D01*
X29833926Y37920974D01*
X29906912Y37869869D01*
X29906920Y37869865D01*
X29965265Y37842658D01*
X30017705Y37796486D01*
X30036857Y37729293D01*
X30016642Y37662411D01*
X29965267Y37617895D01*
X29964085Y37617343D01*
X29906664Y37590567D01*
X29720258Y37460046D01*
X29559354Y37299142D01*
X29428832Y37112735D01*
X29428831Y37112733D01*
X29332661Y36906498D01*
X29332658Y36906489D01*
X29273766Y36686698D01*
X29273764Y36686687D01*
X29253932Y36460002D01*
X29253932Y36459999D01*
X29273764Y36233314D01*
X29273766Y36233303D01*
X29332658Y36013512D01*
X29332661Y36013503D01*
X29428831Y35807268D01*
X29428832Y35807266D01*
X29559354Y35620859D01*
X29720258Y35459955D01*
X29720261Y35459953D01*
X29906666Y35329432D01*
X29911099Y35327365D01*
X29963540Y35281197D01*
X29982700Y35214981D01*
X29982700Y32626440D01*
X29963015Y32559401D01*
X29946381Y32538759D01*
X29810641Y32403019D01*
X29749318Y32369534D01*
X29722960Y32366700D01*
X28505900Y32366700D01*
X28438861Y32386385D01*
X28393106Y32439189D01*
X28381900Y32490700D01*
X28381900Y43384926D01*
X28401585Y43451965D01*
X28418210Y43472598D01*
X28521783Y43576170D01*
X28618056Y43729387D01*
X28677821Y43900185D01*
X28698081Y44080000D01*
X28696376Y44095130D01*
X28677822Y44259807D01*
X28677821Y44259813D01*
X28677821Y44259815D01*
X28618056Y44430613D01*
X28521783Y44583830D01*
X28393830Y44711783D01*
X28240612Y44808057D01*
X28069812Y44867822D01*
X28069806Y44867823D01*
X27890004Y44888081D01*
X27889996Y44888081D01*
X27710193Y44867823D01*
X27710187Y44867822D01*
X27539387Y44808057D01*
X27386169Y44711783D01*
X27258217Y44583831D01*
X27161943Y44430613D01*
X27102178Y44259813D01*
X27102177Y44259807D01*
X27081919Y44080004D01*
X27081919Y44079997D01*
X27102177Y43900194D01*
X27102179Y43900183D01*
X27142348Y43785388D01*
X27161944Y43729387D01*
X27209493Y43653714D01*
X27228500Y43587742D01*
X27228500Y32421798D01*
X27208815Y32354759D01*
X27156011Y32309004D01*
X27086853Y32299060D01*
X27064237Y32304517D01*
X26994384Y32328498D01*
X26803850Y32360292D01*
X26765449Y32366700D01*
X26533351Y32366700D01*
X26494950Y32360292D01*
X26304415Y32328498D01*
X26084904Y32253139D01*
X26084890Y32253133D01*
X25971717Y32191887D01*
X25903389Y32177292D01*
X25838017Y32201955D01*
X25796356Y32258046D01*
X25788700Y32300942D01*
X25788700Y39233049D01*
X25789231Y39241150D01*
X25793676Y39274911D01*
X25793676Y39274913D01*
X25773856Y39425459D01*
X25773856Y39425460D01*
X25715746Y39565749D01*
X25649001Y39652733D01*
X25645260Y39657609D01*
X25645252Y39657619D01*
X25642043Y39661800D01*
X25623307Y39686218D01*
X25614062Y39693312D01*
X25596283Y39706955D01*
X25590180Y39712308D01*
X25381217Y39921271D01*
X25347732Y39982594D01*
X25352716Y40052286D01*
X25363904Y40074924D01*
X25415691Y40157343D01*
X25432056Y40183387D01*
X25491821Y40354185D01*
X25503853Y40460975D01*
X25512081Y40533997D01*
X25512081Y40534004D01*
X25491822Y40713807D01*
X25491821Y40713813D01*
X25491821Y40713815D01*
X25432056Y40884613D01*
X25335783Y41037830D01*
X25335781Y41037832D01*
X25317017Y41056597D01*
X25283533Y41117920D01*
X25280700Y41144276D01*
X25280700Y49893538D01*
X25281231Y49901639D01*
X25285676Y49935400D01*
X25285676Y49935402D01*
X25265856Y50085948D01*
X25265856Y50085949D01*
X25207746Y50226238D01*
X25158384Y50290568D01*
X25137260Y50318098D01*
X25137252Y50318108D01*
X25129335Y50328425D01*
X25115307Y50346707D01*
X25095201Y50362135D01*
X25088283Y50367444D01*
X25082180Y50372797D01*
X24276218Y51178759D01*
X24242733Y51240082D01*
X24239899Y51266440D01*
X24239899Y52547871D01*
X24239899Y52547872D01*
X24236870Y52576047D01*
X24249276Y52644805D01*
X24296887Y52695942D01*
X24360160Y52713300D01*
X28756373Y52713300D01*
X28775772Y52711773D01*
X28789612Y52709581D01*
X28858959Y52713216D01*
X28862203Y52713300D01*
X28884191Y52713300D01*
X28884192Y52713300D01*
X28900988Y52715066D01*
X28906064Y52715599D01*
X28909284Y52715853D01*
X28978646Y52719487D01*
X28992187Y52723117D01*
X29011313Y52726662D01*
X29025256Y52728126D01*
X29091306Y52749588D01*
X29094393Y52750502D01*
X29132807Y52760795D01*
X29202655Y52759133D01*
G37*
%TD.AperFunction*%
%TA.AperFunction,Conductor*%
G36*
X22554235Y36334852D02*
G01*
X22611759Y36221955D01*
X22701355Y36132359D01*
X22814252Y36074835D01*
X22894997Y36062047D01*
X22213926Y35380975D01*
X22213926Y35380974D01*
X22286912Y35329869D01*
X22286916Y35329867D01*
X22493073Y35233735D01*
X22493082Y35233731D01*
X22712789Y35174861D01*
X22712800Y35174859D01*
X22939398Y35155034D01*
X22939402Y35155034D01*
X23165999Y35174859D01*
X23166006Y35174860D01*
X23235206Y35193402D01*
X23305056Y35191739D01*
X23362919Y35152577D01*
X23390423Y35088349D01*
X23391300Y35073627D01*
X23391300Y33563640D01*
X23371615Y33496601D01*
X23318811Y33450846D01*
X23249653Y33440902D01*
X23186097Y33469927D01*
X23179619Y33475959D01*
X21481019Y35174559D01*
X21447534Y35235882D01*
X21444700Y35262240D01*
X21444700Y36073606D01*
X21464385Y36140645D01*
X21517189Y36186400D01*
X21586347Y36196344D01*
X21649903Y36167319D01*
X21687677Y36108541D01*
X21688475Y36105699D01*
X21713130Y36013683D01*
X21713134Y36013674D01*
X21809265Y35807519D01*
X21809266Y35807517D01*
X21860373Y35734529D01*
X21860374Y35734528D01*
X22541446Y36415601D01*
X22554235Y36334852D01*
G37*
%TD.AperFunction*%
%TA.AperFunction,Conductor*%
G36*
X21649903Y38705388D02*
G01*
X21687677Y38646610D01*
X21688475Y38643768D01*
X21712658Y38553512D01*
X21712661Y38553503D01*
X21808831Y38347268D01*
X21808832Y38347266D01*
X21939354Y38160859D01*
X22100258Y37999955D01*
X22100261Y37999953D01*
X22286666Y37869432D01*
X22345265Y37842107D01*
X22397705Y37795935D01*
X22416857Y37728742D01*
X22396642Y37661861D01*
X22345267Y37617343D01*
X22286911Y37590131D01*
X22213926Y37539027D01*
X22894999Y36857954D01*
X22814252Y36845165D01*
X22701355Y36787641D01*
X22611759Y36698045D01*
X22554235Y36585148D01*
X22541446Y36504401D01*
X21860373Y37185474D01*
X21860372Y37185473D01*
X21809268Y37112487D01*
X21713134Y36906327D01*
X21713131Y36906321D01*
X21688475Y36814301D01*
X21652110Y36754641D01*
X21589263Y36724112D01*
X21519887Y36732407D01*
X21466009Y36776892D01*
X21444735Y36843444D01*
X21444700Y36846395D01*
X21444700Y38611675D01*
X21464385Y38678714D01*
X21517189Y38724469D01*
X21586347Y38734413D01*
X21649903Y38705388D01*
G37*
%TD.AperFunction*%
%TA.AperFunction,Conductor*%
G36*
X22554235Y41414852D02*
G01*
X22611759Y41301955D01*
X22701355Y41212359D01*
X22814252Y41154835D01*
X22894997Y41142047D01*
X22213926Y40460975D01*
X22213926Y40460974D01*
X22286912Y40409869D01*
X22286920Y40409865D01*
X22345265Y40382658D01*
X22397705Y40336486D01*
X22416857Y40269293D01*
X22396642Y40202411D01*
X22345267Y40157895D01*
X22344085Y40157343D01*
X22286664Y40130567D01*
X22100258Y40000046D01*
X21939354Y39839142D01*
X21808832Y39652735D01*
X21808831Y39652733D01*
X21712661Y39446498D01*
X21712658Y39446489D01*
X21688475Y39356233D01*
X21652110Y39296572D01*
X21589263Y39266043D01*
X21519888Y39274338D01*
X21466010Y39318823D01*
X21444735Y39385375D01*
X21444700Y39388326D01*
X21444700Y41153606D01*
X21464385Y41220645D01*
X21517189Y41266400D01*
X21586347Y41276344D01*
X21649903Y41247319D01*
X21687677Y41188541D01*
X21688475Y41185699D01*
X21713130Y41093683D01*
X21713134Y41093674D01*
X21809265Y40887519D01*
X21809266Y40887517D01*
X21860373Y40814529D01*
X21860373Y40814528D01*
X22541445Y41495601D01*
X22554235Y41414852D01*
G37*
%TD.AperFunction*%
%TA.AperFunction,Conductor*%
G36*
X21649903Y43785388D02*
G01*
X21687677Y43726610D01*
X21688475Y43723768D01*
X21712658Y43633512D01*
X21712661Y43633503D01*
X21808831Y43427268D01*
X21808832Y43427266D01*
X21939354Y43240859D01*
X22100258Y43079955D01*
X22100261Y43079953D01*
X22286666Y42949432D01*
X22345265Y42922107D01*
X22397705Y42875935D01*
X22416857Y42808742D01*
X22396642Y42741861D01*
X22345267Y42697343D01*
X22286911Y42670131D01*
X22213926Y42619027D01*
X22894999Y41937954D01*
X22814252Y41925165D01*
X22701355Y41867641D01*
X22611759Y41778045D01*
X22554235Y41665148D01*
X22541446Y41584402D01*
X21860373Y42265474D01*
X21809268Y42192487D01*
X21713134Y41986327D01*
X21713131Y41986321D01*
X21688475Y41894301D01*
X21652110Y41834641D01*
X21589263Y41804112D01*
X21519887Y41812407D01*
X21466009Y41856892D01*
X21444735Y41923444D01*
X21444700Y41926395D01*
X21444700Y43691675D01*
X21464385Y43758714D01*
X21517189Y43804469D01*
X21586347Y43814413D01*
X21649903Y43785388D01*
G37*
%TD.AperFunction*%
%TA.AperFunction,Conductor*%
G36*
X35192437Y60699499D02*
G01*
X35202413Y60699500D01*
X35202417Y60699498D01*
X35245942Y60699500D01*
X35254042Y60698969D01*
X35311607Y60691394D01*
X35350164Y60686319D01*
X35381430Y60677942D01*
X35449258Y60649848D01*
X35459678Y60645532D01*
X35487710Y60629348D01*
X35554903Y60577790D01*
X35577789Y60554904D01*
X35602329Y60522923D01*
X35629346Y60487713D01*
X35645531Y60459679D01*
X35677940Y60381434D01*
X35686318Y60350163D01*
X35698968Y60254043D01*
X35699499Y60245943D01*
X35699498Y60192438D01*
X35699500Y60192413D01*
X35699500Y1003062D01*
X35699201Y996980D01*
X35687254Y875709D01*
X35682511Y851870D01*
X35649798Y744035D01*
X35640496Y721579D01*
X35587377Y622200D01*
X35573873Y601989D01*
X35502386Y514880D01*
X35485199Y497692D01*
X35398088Y426199D01*
X35377878Y412695D01*
X35278503Y359573D01*
X35256046Y350270D01*
X35148209Y317553D01*
X35124371Y312810D01*
X35045913Y305078D01*
X35002495Y300799D01*
X34996420Y300500D01*
X1003061Y300500D01*
X996979Y300799D01*
X875696Y312747D01*
X851855Y317490D01*
X744008Y350208D01*
X721552Y359510D01*
X622157Y412639D01*
X601946Y426144D01*
X514828Y497641D01*
X497640Y514829D01*
X426143Y601947D01*
X412638Y622158D01*
X412616Y622200D01*
X359508Y721556D01*
X350207Y744009D01*
X317487Y851862D01*
X312747Y875693D01*
X306035Y943827D01*
X300799Y996981D01*
X300500Y1003062D01*
X300500Y3449998D01*
X1604723Y3449998D01*
X1623793Y3232025D01*
X1623793Y3232021D01*
X1680422Y3020678D01*
X1680424Y3020674D01*
X1680425Y3020670D01*
X1702382Y2973584D01*
X1772897Y2822362D01*
X1772898Y2822361D01*
X1898402Y2643123D01*
X2053123Y2488402D01*
X2232361Y2362898D01*
X2430670Y2270425D01*
X2642023Y2213793D01*
X2824926Y2197792D01*
X2859998Y2194723D01*
X2860000Y2194723D01*
X2860002Y2194723D01*
X2888254Y2197195D01*
X3077977Y2213793D01*
X3289330Y2270425D01*
X3487639Y2362898D01*
X3666877Y2488402D01*
X3821598Y2643123D01*
X3947102Y2822361D01*
X4017618Y2973586D01*
X4063790Y3026023D01*
X4130984Y3045175D01*
X4197865Y3024959D01*
X4242381Y2973586D01*
X4312898Y2822361D01*
X4438402Y2643123D01*
X4593123Y2488402D01*
X4772361Y2362898D01*
X4970670Y2270425D01*
X5182023Y2213793D01*
X5364926Y2197792D01*
X5399998Y2194723D01*
X5400000Y2194723D01*
X5400002Y2194723D01*
X5428254Y2197195D01*
X5617977Y2213793D01*
X5829330Y2270425D01*
X6027639Y2362898D01*
X6206877Y2488402D01*
X6361598Y2643123D01*
X6487102Y2822361D01*
X6579575Y3020670D01*
X6636207Y3232023D01*
X6655277Y3450000D01*
X6636207Y3667977D01*
X6579575Y3879330D01*
X6487102Y4077638D01*
X6487099Y4077642D01*
X6487099Y4077643D01*
X6361599Y4256876D01*
X6361596Y4256879D01*
X6206877Y4411598D01*
X6027639Y4537102D01*
X6027640Y4537102D01*
X6027638Y4537103D01*
X5928484Y4583339D01*
X5829330Y4629575D01*
X5829326Y4629576D01*
X5829322Y4629578D01*
X5617977Y4686207D01*
X5400002Y4705277D01*
X5399998Y4705277D01*
X5254682Y4692564D01*
X5182023Y4686207D01*
X5182020Y4686207D01*
X4970677Y4629578D01*
X4970668Y4629574D01*
X4772361Y4537102D01*
X4772357Y4537100D01*
X4593121Y4411598D01*
X4438402Y4256879D01*
X4312900Y4077643D01*
X4312900Y4077642D01*
X4242381Y3926416D01*
X4196208Y3873977D01*
X4129014Y3854826D01*
X4062133Y3875042D01*
X4017618Y3926416D01*
X3947102Y4077638D01*
X3947099Y4077642D01*
X3947099Y4077643D01*
X3821599Y4256876D01*
X3821596Y4256879D01*
X3666877Y4411598D01*
X3487639Y4537102D01*
X3487640Y4537102D01*
X3487638Y4537103D01*
X3388484Y4583339D01*
X3289330Y4629575D01*
X3289326Y4629576D01*
X3289322Y4629578D01*
X3077977Y4686207D01*
X2860002Y4705277D01*
X2859998Y4705277D01*
X2714681Y4692564D01*
X2642023Y4686207D01*
X2642020Y4686207D01*
X2430677Y4629578D01*
X2430668Y4629574D01*
X2232361Y4537102D01*
X2232357Y4537100D01*
X2053121Y4411598D01*
X1898402Y4256879D01*
X1772900Y4077643D01*
X1772898Y4077639D01*
X1680426Y3879332D01*
X1680422Y3879323D01*
X1623793Y3667980D01*
X1623793Y3667976D01*
X1604723Y3450003D01*
X1604723Y3449998D01*
X300500Y3449998D01*
X300500Y5980000D01*
X12094341Y5980000D01*
X12114936Y5744597D01*
X12114938Y5744587D01*
X12176094Y5516345D01*
X12176096Y5516341D01*
X12176097Y5516337D01*
X12193386Y5479261D01*
X12275965Y5302170D01*
X12275967Y5302166D01*
X12384281Y5147479D01*
X12411505Y5108599D01*
X12578599Y4941505D01*
X12666303Y4880094D01*
X12772165Y4805968D01*
X12772167Y4805967D01*
X12772170Y4805965D01*
X12986337Y4706097D01*
X13214592Y4644937D01*
X13390188Y4629574D01*
X13449999Y4624341D01*
X13450000Y4624341D01*
X13450001Y4624341D01*
X13509812Y4629574D01*
X13685408Y4644937D01*
X13913663Y4706097D01*
X14127830Y4805965D01*
X14321401Y4941505D01*
X14488495Y5108599D01*
X14624035Y5302170D01*
X14723903Y5516337D01*
X14785063Y5744592D01*
X14805659Y5980000D01*
X14785063Y6215408D01*
X14723903Y6443663D01*
X14624035Y6657829D01*
X14488495Y6851401D01*
X14488494Y6851403D01*
X14321402Y7018494D01*
X14321396Y7018499D01*
X14135842Y7148425D01*
X14092217Y7203002D01*
X14085023Y7272500D01*
X14116546Y7334855D01*
X14135842Y7351575D01*
X14158026Y7367109D01*
X14321401Y7481505D01*
X14488495Y7648599D01*
X14624035Y7842170D01*
X14723903Y8056337D01*
X14746904Y8142180D01*
X14783268Y8201839D01*
X14846115Y8232369D01*
X14915491Y8224075D01*
X14969369Y8179590D01*
X14984609Y8148406D01*
X14999784Y8101702D01*
X15000705Y8098591D01*
X15018679Y8031514D01*
X15018684Y8031502D01*
X15025043Y8019022D01*
X15032488Y8001051D01*
X15036820Y7987718D01*
X15071537Y7927586D01*
X15073085Y7924734D01*
X15094992Y7881741D01*
X15104617Y7862851D01*
X15104619Y7862849D01*
X15104620Y7862847D01*
X15113438Y7851957D01*
X15124454Y7835930D01*
X15131465Y7823787D01*
X15131470Y7823780D01*
X15177939Y7772169D01*
X15180043Y7769705D01*
X15193882Y7752618D01*
X15209423Y7737078D01*
X15211657Y7734723D01*
X15258128Y7683113D01*
X15269468Y7674874D01*
X15284265Y7662236D01*
X18066406Y4880094D01*
X18097991Y4826348D01*
X18139418Y4680747D01*
X18230327Y4498179D01*
X18353237Y4335419D01*
X18503958Y4198020D01*
X18503960Y4198018D01*
X18603141Y4136608D01*
X18677363Y4090652D01*
X18867544Y4016976D01*
X19068024Y3979500D01*
X19068026Y3979500D01*
X19271974Y3979500D01*
X19271976Y3979500D01*
X19472456Y4016976D01*
X19662637Y4090652D01*
X19836041Y4198019D01*
X19986764Y4335421D01*
X20109673Y4498179D01*
X20200582Y4680750D01*
X20256397Y4876917D01*
X20275215Y5080000D01*
X20271638Y5118598D01*
X20256397Y5283083D01*
X20248121Y5312170D01*
X20200582Y5479250D01*
X20182115Y5516336D01*
X20156272Y5568236D01*
X20109673Y5661821D01*
X19986764Y5824579D01*
X19986762Y5824582D01*
X19836041Y5961981D01*
X19836039Y5961983D01*
X19662642Y6069345D01*
X19662635Y6069349D01*
X19472454Y6143025D01*
X19360173Y6164015D01*
X19297892Y6195683D01*
X19295278Y6198222D01*
X16800819Y8692681D01*
X16767334Y8754004D01*
X16764500Y8780362D01*
X16764500Y26345373D01*
X16766027Y26364774D01*
X16767154Y26371889D01*
X16768219Y26378611D01*
X16764584Y26447959D01*
X16764500Y26451202D01*
X16764500Y26473187D01*
X16764500Y26473192D01*
X16762200Y26495069D01*
X16761947Y26498281D01*
X16758313Y26567645D01*
X16754685Y26581186D01*
X16751139Y26600312D01*
X16749674Y26614256D01*
X16728213Y26680303D01*
X16727297Y26683396D01*
X16709320Y26750487D01*
X16702953Y26762982D01*
X16695511Y26780949D01*
X16691179Y26794284D01*
X16656458Y26854423D01*
X16654912Y26857271D01*
X16623386Y26919145D01*
X16623383Y26919150D01*
X16614560Y26930045D01*
X16603539Y26946081D01*
X16596534Y26958214D01*
X16596533Y26958216D01*
X16559092Y26999798D01*
X16550075Y27009813D01*
X16547967Y27012281D01*
X16534125Y27029374D01*
X16534116Y27029384D01*
X16518567Y27044933D01*
X16516332Y27047288D01*
X16469875Y27098884D01*
X16469869Y27098890D01*
X16458529Y27107129D01*
X16443736Y27119764D01*
X14839935Y28723565D01*
X14806450Y28784888D01*
X14804088Y28822051D01*
X14805659Y28840000D01*
X14785063Y29075408D01*
X14723903Y29303663D01*
X14624035Y29517829D01*
X14612876Y29533767D01*
X14488494Y29711403D01*
X14321402Y29878494D01*
X14321401Y29878495D01*
X14135842Y30008425D01*
X14135841Y30008426D01*
X14092216Y30063003D01*
X14085024Y30132502D01*
X14116546Y30194856D01*
X14135836Y30211572D01*
X14321401Y30341505D01*
X14488495Y30508599D01*
X14624035Y30702170D01*
X14723903Y30916337D01*
X14785063Y31144592D01*
X14805659Y31380000D01*
X14785063Y31615408D01*
X14723903Y31843663D01*
X14624035Y32057829D01*
X14588534Y32108531D01*
X14488494Y32251403D01*
X14321402Y32418494D01*
X14321396Y32418499D01*
X14135842Y32548425D01*
X14092217Y32603002D01*
X14085023Y32672500D01*
X14116546Y32734855D01*
X14135842Y32751575D01*
X14158026Y32767109D01*
X14321401Y32881505D01*
X14488495Y33048599D01*
X14624035Y33242170D01*
X14723903Y33456337D01*
X14785063Y33684592D01*
X14805659Y33920000D01*
X14785063Y34155408D01*
X14723903Y34383663D01*
X14652174Y34537486D01*
X14624035Y34597830D01*
X14624034Y34597831D01*
X14488494Y34791403D01*
X14321402Y34958494D01*
X14321401Y34958495D01*
X14156976Y35073627D01*
X14135841Y35088426D01*
X14092216Y35143003D01*
X14085024Y35212502D01*
X14116546Y35274856D01*
X14135836Y35291572D01*
X14321401Y35421505D01*
X14488495Y35588599D01*
X14624035Y35782170D01*
X14723903Y35996337D01*
X14785063Y36224592D01*
X14805659Y36460000D01*
X14785063Y36695408D01*
X14723903Y36923663D01*
X14665364Y37049199D01*
X15679124Y37049199D01*
X15698943Y36898653D01*
X15698944Y36898651D01*
X15757054Y36758361D01*
X15785974Y36720672D01*
X15849490Y36637896D01*
X15849491Y36637895D01*
X15849493Y36637893D01*
X15866779Y36624629D01*
X15876511Y36617161D01*
X15882606Y36611817D01*
X16759894Y35734529D01*
X17576981Y34917442D01*
X17610466Y34856119D01*
X17613300Y34829761D01*
X17613300Y32328866D01*
X17593615Y32261827D01*
X17548318Y32219812D01*
X17534959Y32212582D01*
X17405771Y32142669D01*
X17405765Y32142665D01*
X17222622Y32000119D01*
X17222619Y32000116D01*
X17222616Y32000114D01*
X17222616Y32000113D01*
X17177719Y31951342D01*
X17065416Y31829348D01*
X16938475Y31635049D01*
X16845242Y31422501D01*
X16788266Y31197509D01*
X16788264Y31197498D01*
X16769100Y30966207D01*
X16769100Y30966194D01*
X16788264Y30734903D01*
X16788266Y30734892D01*
X16845242Y30509900D01*
X16938475Y30297352D01*
X17065416Y30103053D01*
X17065419Y30103049D01*
X17065421Y30103047D01*
X17222616Y29932287D01*
X17222619Y29932285D01*
X17222622Y29932282D01*
X17405765Y29789736D01*
X17405771Y29789732D01*
X17405774Y29789730D01*
X17609897Y29679264D01*
X17723887Y29640132D01*
X17829415Y29603903D01*
X17829417Y29603903D01*
X17829419Y29603902D01*
X18058351Y29565700D01*
X18058352Y29565700D01*
X18290448Y29565700D01*
X18290449Y29565700D01*
X18519381Y29603902D01*
X18738903Y29679264D01*
X18943026Y29789730D01*
X19126184Y29932287D01*
X19134530Y29941354D01*
X19194410Y29977346D01*
X19264249Y29975251D01*
X19321868Y29935731D01*
X19341944Y29900709D01*
X19370603Y29823870D01*
X19370606Y29823865D01*
X19456852Y29708656D01*
X19456855Y29708653D01*
X19572064Y29622407D01*
X19572071Y29622403D01*
X19706917Y29572109D01*
X19706916Y29572109D01*
X19713844Y29571365D01*
X19766527Y29565700D01*
X21662272Y29565701D01*
X21721883Y29572109D01*
X21856731Y29622404D01*
X21971946Y29708654D01*
X22058196Y29823869D01*
X22108491Y29958717D01*
X22114900Y30018327D01*
X22114899Y31914072D01*
X22108491Y31973683D01*
X22098633Y32000113D01*
X22058197Y32108529D01*
X22058193Y32108536D01*
X21971947Y32223745D01*
X21971944Y32223748D01*
X21856735Y32309994D01*
X21856728Y32309998D01*
X21721882Y32360292D01*
X21721883Y32360292D01*
X21662283Y32366699D01*
X21662281Y32366700D01*
X21662273Y32366700D01*
X21662264Y32366700D01*
X19766529Y32366700D01*
X19766523Y32366699D01*
X19706916Y32360292D01*
X19572071Y32309998D01*
X19572064Y32309994D01*
X19456855Y32223748D01*
X19456852Y32223745D01*
X19370606Y32108536D01*
X19370603Y32108530D01*
X19341944Y32031692D01*
X19300072Y31975759D01*
X19234608Y31951342D01*
X19166335Y31966194D01*
X19134535Y31991042D01*
X19126184Y32000113D01*
X19126178Y32000118D01*
X19126177Y32000119D01*
X18943034Y32142665D01*
X18943019Y32142675D01*
X18831682Y32202928D01*
X18782092Y32252147D01*
X18766700Y32311982D01*
X18766700Y35078138D01*
X18767231Y35086239D01*
X18768258Y35094035D01*
X18771676Y35120000D01*
X18764453Y35174861D01*
X18751856Y35270548D01*
X18751854Y35270553D01*
X18747445Y35281197D01*
X18706117Y35380975D01*
X18693748Y35410837D01*
X18693746Y35410839D01*
X18656059Y35459953D01*
X18624515Y35501062D01*
X18624514Y35501063D01*
X18601307Y35531307D01*
X18601305Y35531308D01*
X18601305Y35531309D01*
X18574283Y35552044D01*
X18568180Y35557397D01*
X16873819Y37251759D01*
X16840334Y37313082D01*
X16837500Y37339440D01*
X16837500Y38685239D01*
X16857185Y38752278D01*
X16909989Y38798033D01*
X16979147Y38807977D01*
X17042703Y38778952D01*
X17049181Y38772920D01*
X18709027Y37113074D01*
X18742512Y37051751D01*
X18744817Y37036835D01*
X18754285Y36934665D01*
X18754285Y36934663D01*
X18815169Y36720677D01*
X18815175Y36720662D01*
X18914338Y36521517D01*
X18914343Y36521509D01*
X19048420Y36343962D01*
X19212837Y36194077D01*
X19212839Y36194075D01*
X19401995Y36076955D01*
X19401996Y36076955D01*
X19401999Y36076953D01*
X19609460Y35996582D01*
X19828157Y35955700D01*
X19828159Y35955700D01*
X20050642Y35955700D01*
X20050643Y35955700D01*
X20144514Y35973248D01*
X20214029Y35966218D01*
X20268708Y35922721D01*
X20291191Y35856568D01*
X20291300Y35851360D01*
X20291300Y35013865D01*
X20290769Y35005764D01*
X20286324Y34972002D01*
X20286324Y34971999D01*
X20306143Y34821453D01*
X20306144Y34821451D01*
X20364253Y34681162D01*
X20428195Y34597830D01*
X20428196Y34597830D01*
X20428197Y34597829D01*
X20456693Y34560693D01*
X20477998Y34544345D01*
X20483711Y34539961D01*
X20489806Y34534617D01*
X21831509Y33192914D01*
X23104188Y31920235D01*
X23137673Y31858912D01*
X23139727Y31846438D01*
X23154177Y31718191D01*
X23213943Y31547388D01*
X23292415Y31422501D01*
X23310217Y31394170D01*
X23438170Y31266217D01*
X23591387Y31169944D01*
X23762185Y31110179D01*
X23762191Y31110179D01*
X23762193Y31110178D01*
X23941996Y31089919D01*
X23942000Y31089919D01*
X23942004Y31089919D01*
X24121806Y31110178D01*
X24121805Y31110178D01*
X24121815Y31110179D01*
X24292613Y31169944D01*
X24445327Y31265902D01*
X24512564Y31284902D01*
X24579399Y31264535D01*
X24624614Y31211267D01*
X24635300Y31160908D01*
X24635300Y21842276D01*
X24615615Y21775237D01*
X24598981Y21754595D01*
X24578219Y21733834D01*
X24481943Y21580613D01*
X24422178Y21409813D01*
X24422177Y21409807D01*
X24401919Y21230004D01*
X24401919Y21229997D01*
X24422177Y21050194D01*
X24422178Y21050188D01*
X24481943Y20879388D01*
X24481944Y20879387D01*
X24578217Y20726170D01*
X24706170Y20598217D01*
X24859387Y20501944D01*
X25030185Y20442179D01*
X25030191Y20442179D01*
X25030193Y20442178D01*
X25209996Y20421919D01*
X25210000Y20421919D01*
X25210004Y20421919D01*
X25389806Y20442178D01*
X25389805Y20442178D01*
X25389815Y20442179D01*
X25560613Y20501944D01*
X25713830Y20598217D01*
X25841783Y20726170D01*
X25938056Y20879387D01*
X25997821Y21050185D01*
X25998630Y21057366D01*
X26018081Y21229997D01*
X26018081Y21230004D01*
X25997822Y21409807D01*
X25997821Y21409813D01*
X25997821Y21409815D01*
X25938056Y21580613D01*
X25841783Y21733830D01*
X25825019Y21750594D01*
X25791534Y21811917D01*
X25788700Y21838275D01*
X25788700Y29631459D01*
X25808385Y29698498D01*
X25861189Y29744253D01*
X25930347Y29754197D01*
X25971715Y29740515D01*
X26084897Y29679264D01*
X26198887Y29640132D01*
X26304415Y29603903D01*
X26304417Y29603903D01*
X26304419Y29603902D01*
X26533351Y29565700D01*
X26533352Y29565700D01*
X26765448Y29565700D01*
X26765449Y29565700D01*
X26994381Y29603902D01*
X27064238Y29627885D01*
X27134034Y29631034D01*
X27194456Y29595949D01*
X27226317Y29533767D01*
X27228500Y29510603D01*
X27228500Y14205475D01*
X27208815Y14138436D01*
X27192181Y14117794D01*
X27188217Y14113831D01*
X27091943Y13960613D01*
X27032178Y13789813D01*
X27032177Y13789807D01*
X27011919Y13610004D01*
X27011919Y13609997D01*
X27032177Y13430194D01*
X27032178Y13430188D01*
X27091943Y13259388D01*
X27091944Y13259387D01*
X27188217Y13106170D01*
X27316170Y12978217D01*
X27469387Y12881944D01*
X27640185Y12822179D01*
X27640191Y12822179D01*
X27640193Y12822178D01*
X27819996Y12801919D01*
X27820000Y12801919D01*
X27820004Y12801919D01*
X27999806Y12822178D01*
X27999805Y12822178D01*
X27999815Y12822179D01*
X28170613Y12881944D01*
X28323830Y12978217D01*
X28451783Y13106170D01*
X28548056Y13259387D01*
X28607821Y13430185D01*
X28608630Y13437366D01*
X28628081Y13609997D01*
X28628081Y13610004D01*
X28607822Y13789807D01*
X28607821Y13789813D01*
X28607821Y13789815D01*
X28548056Y13960613D01*
X28451783Y14113830D01*
X28418219Y14147394D01*
X28384734Y14208717D01*
X28381900Y14235075D01*
X28381900Y17453161D01*
X28401585Y17520200D01*
X28454389Y17565955D01*
X28523547Y17575899D01*
X28587103Y17546874D01*
X28593581Y17540842D01*
X29474346Y16660077D01*
X29507831Y16598754D01*
X29506440Y16540303D01*
X29464938Y16385414D01*
X29464936Y16385404D01*
X29444341Y16150001D01*
X29444341Y16150000D01*
X29464936Y15914597D01*
X29464938Y15914587D01*
X29526094Y15686345D01*
X29526096Y15686341D01*
X29526097Y15686337D01*
X29530761Y15676336D01*
X29625965Y15472170D01*
X29625967Y15472166D01*
X29761501Y15278605D01*
X29761506Y15278598D01*
X29928597Y15111507D01*
X29928603Y15111502D01*
X30114158Y14981575D01*
X30157783Y14926998D01*
X30164977Y14857500D01*
X30133454Y14795145D01*
X30114158Y14778425D01*
X29928597Y14648495D01*
X29761505Y14481403D01*
X29625965Y14287831D01*
X29625964Y14287829D01*
X29526098Y14073665D01*
X29526094Y14073656D01*
X29464938Y13845414D01*
X29464936Y13845404D01*
X29444341Y13610001D01*
X29444341Y13610000D01*
X29464936Y13374597D01*
X29464938Y13374587D01*
X29526094Y13146345D01*
X29526096Y13146341D01*
X29526097Y13146337D01*
X29604493Y12978217D01*
X29625965Y12932170D01*
X29625967Y12932166D01*
X29761501Y12738605D01*
X29761506Y12738598D01*
X29928597Y12571507D01*
X29928603Y12571502D01*
X30114594Y12441270D01*
X30158219Y12386693D01*
X30165413Y12317195D01*
X30133890Y12254840D01*
X30114595Y12238120D01*
X29928922Y12108110D01*
X29928920Y12108109D01*
X29761891Y11941080D01*
X29761886Y11941074D01*
X29626400Y11747580D01*
X29626399Y11747578D01*
X29526570Y11533493D01*
X29526567Y11533487D01*
X29469364Y11320001D01*
X29469364Y11320000D01*
X30366314Y11320000D01*
X30340507Y11279844D01*
X30300000Y11141889D01*
X30300000Y10998111D01*
X30340507Y10860156D01*
X30366314Y10820000D01*
X29469364Y10820000D01*
X29526567Y10606514D01*
X29526570Y10606508D01*
X29626399Y10392422D01*
X29761894Y10198918D01*
X29928917Y10031895D01*
X30114595Y9901881D01*
X30158219Y9847304D01*
X30165412Y9777805D01*
X30133890Y9715451D01*
X30114595Y9698731D01*
X29928594Y9568492D01*
X29761505Y9401403D01*
X29625965Y9207831D01*
X29625964Y9207829D01*
X29526098Y8993665D01*
X29526094Y8993656D01*
X29464938Y8765414D01*
X29464936Y8765404D01*
X29444341Y8530001D01*
X29444341Y8530000D01*
X29464936Y8294597D01*
X29464938Y8294587D01*
X29526094Y8066345D01*
X29526096Y8066341D01*
X29526097Y8066337D01*
X29562758Y7987718D01*
X29625965Y7852170D01*
X29625967Y7852166D01*
X29695672Y7752618D01*
X29758958Y7662236D01*
X29761501Y7658605D01*
X29761506Y7658598D01*
X29928597Y7491507D01*
X29928603Y7491502D01*
X30114158Y7361575D01*
X30157783Y7306998D01*
X30164977Y7237500D01*
X30133454Y7175145D01*
X30114158Y7158425D01*
X29928597Y7028495D01*
X29761505Y6861403D01*
X29625965Y6667831D01*
X29625964Y6667829D01*
X29526098Y6453665D01*
X29526094Y6453656D01*
X29464938Y6225414D01*
X29464936Y6225404D01*
X29444341Y5990001D01*
X29444341Y5990000D01*
X29464936Y5754597D01*
X29464938Y5754587D01*
X29526094Y5526345D01*
X29526096Y5526341D01*
X29526097Y5526337D01*
X29548055Y5479248D01*
X29625965Y5312170D01*
X29625967Y5312166D01*
X29734281Y5157479D01*
X29761501Y5118604D01*
X29761506Y5118598D01*
X29883430Y4996674D01*
X29916915Y4935351D01*
X29911931Y4865659D01*
X29870059Y4809726D01*
X29839083Y4792811D01*
X29707669Y4743797D01*
X29707664Y4743794D01*
X29592455Y4657548D01*
X29592452Y4657545D01*
X29506206Y4542336D01*
X29506202Y4542329D01*
X29455908Y4407483D01*
X29449501Y4347884D01*
X29449501Y4347877D01*
X29449500Y4347865D01*
X29449500Y2552130D01*
X29449501Y2552124D01*
X29455908Y2492517D01*
X29506202Y2357672D01*
X29506206Y2357665D01*
X29592452Y2242456D01*
X29592455Y2242453D01*
X29707664Y2156207D01*
X29707671Y2156203D01*
X29842517Y2105909D01*
X29842516Y2105909D01*
X29849444Y2105165D01*
X29902127Y2099500D01*
X31697872Y2099501D01*
X31757483Y2105909D01*
X31892331Y2156204D01*
X32007546Y2242454D01*
X32093796Y2357669D01*
X32144091Y2492517D01*
X32150500Y2552127D01*
X32150499Y4347872D01*
X32144091Y4407483D01*
X32142556Y4411598D01*
X32093797Y4542329D01*
X32093793Y4542336D01*
X32007547Y4657545D01*
X32007544Y4657548D01*
X31892335Y4743794D01*
X31892328Y4743798D01*
X31760917Y4792811D01*
X31704983Y4834682D01*
X31680566Y4900147D01*
X31695418Y4968420D01*
X31716563Y4996668D01*
X31838495Y5118599D01*
X31974035Y5312170D01*
X32073903Y5526337D01*
X32135063Y5754592D01*
X32154784Y5980000D01*
X32414341Y5980000D01*
X32434936Y5744597D01*
X32434938Y5744587D01*
X32496094Y5516345D01*
X32496096Y5516341D01*
X32496097Y5516337D01*
X32513386Y5479261D01*
X32595965Y5302170D01*
X32595967Y5302166D01*
X32704281Y5147479D01*
X32731505Y5108599D01*
X32898599Y4941505D01*
X32986303Y4880094D01*
X33092165Y4805968D01*
X33092167Y4805967D01*
X33092170Y4805965D01*
X33306337Y4706097D01*
X33534592Y4644937D01*
X33710188Y4629574D01*
X33769999Y4624341D01*
X33770000Y4624341D01*
X33770001Y4624341D01*
X33829812Y4629574D01*
X34005408Y4644937D01*
X34233663Y4706097D01*
X34447830Y4805965D01*
X34641401Y4941505D01*
X34808495Y5108599D01*
X34944035Y5302170D01*
X35043903Y5516337D01*
X35105063Y5744592D01*
X35125659Y5980000D01*
X35105063Y6215408D01*
X35043903Y6443663D01*
X34944035Y6657829D01*
X34808495Y6851401D01*
X34808494Y6851403D01*
X34641402Y7018494D01*
X34641396Y7018499D01*
X34455842Y7148425D01*
X34412217Y7203002D01*
X34405023Y7272500D01*
X34436546Y7334855D01*
X34455842Y7351575D01*
X34478026Y7367109D01*
X34641401Y7481505D01*
X34808495Y7648599D01*
X34944035Y7842170D01*
X35043903Y8056337D01*
X35105063Y8284592D01*
X35125659Y8520000D01*
X35105063Y8755408D01*
X35043903Y8983663D01*
X34944035Y9197829D01*
X34808495Y9391401D01*
X34808494Y9391403D01*
X34641402Y9558494D01*
X34641401Y9558495D01*
X34455842Y9688425D01*
X34455841Y9688426D01*
X34412216Y9743003D01*
X34405024Y9812502D01*
X34436546Y9874856D01*
X34455836Y9891572D01*
X34641401Y10021505D01*
X34808495Y10188599D01*
X34944035Y10382170D01*
X35043903Y10596337D01*
X35105063Y10824592D01*
X35125659Y11060000D01*
X35105063Y11295408D01*
X35043903Y11523663D01*
X34944035Y11737829D01*
X34937208Y11747580D01*
X34808494Y11931403D01*
X34641402Y12098494D01*
X34641396Y12098499D01*
X34455842Y12228425D01*
X34412217Y12283002D01*
X34405023Y12352500D01*
X34436546Y12414855D01*
X34455842Y12431575D01*
X34478026Y12447109D01*
X34641401Y12561505D01*
X34808495Y12728599D01*
X34944035Y12922170D01*
X35043903Y13136337D01*
X35105063Y13364592D01*
X35125659Y13600000D01*
X35105063Y13835408D01*
X35043903Y14063663D01*
X34944035Y14277829D01*
X34808495Y14471401D01*
X34808494Y14471403D01*
X34641402Y14638494D01*
X34641401Y14638495D01*
X34455842Y14768425D01*
X34455841Y14768426D01*
X34412216Y14823003D01*
X34405024Y14892502D01*
X34436546Y14954856D01*
X34455836Y14971572D01*
X34641401Y15101505D01*
X34808495Y15268599D01*
X34944035Y15462170D01*
X35043903Y15676337D01*
X35105063Y15904592D01*
X35125659Y16140000D01*
X35105063Y16375408D01*
X35043903Y16603663D01*
X34944035Y16817829D01*
X34808495Y17011401D01*
X34808494Y17011403D01*
X34641402Y17178494D01*
X34641396Y17178499D01*
X34455842Y17308425D01*
X34412217Y17363002D01*
X34405023Y17432500D01*
X34436546Y17494855D01*
X34455842Y17511575D01*
X34506254Y17546874D01*
X34641401Y17641505D01*
X34808495Y17808599D01*
X34944035Y18002170D01*
X35043903Y18216337D01*
X35105063Y18444592D01*
X35125659Y18680000D01*
X35105063Y18915408D01*
X35043903Y19143663D01*
X34944035Y19357829D01*
X34808495Y19551401D01*
X34808494Y19551403D01*
X34641402Y19718494D01*
X34641401Y19718495D01*
X34455842Y19848425D01*
X34455841Y19848426D01*
X34412216Y19903003D01*
X34405024Y19972502D01*
X34436546Y20034856D01*
X34455836Y20051572D01*
X34641401Y20181505D01*
X34808495Y20348599D01*
X34944035Y20542170D01*
X35043903Y20756337D01*
X35105063Y20984592D01*
X35125659Y21220000D01*
X35105063Y21455408D01*
X35043903Y21683663D01*
X34944035Y21897829D01*
X34808495Y22091401D01*
X34808494Y22091403D01*
X34641402Y22258494D01*
X34641396Y22258499D01*
X34455842Y22388425D01*
X34412217Y22443002D01*
X34405023Y22512500D01*
X34436546Y22574855D01*
X34455842Y22591575D01*
X34478026Y22607109D01*
X34641401Y22721505D01*
X34808495Y22888599D01*
X34944035Y23082170D01*
X35043903Y23296337D01*
X35105063Y23524592D01*
X35125659Y23760000D01*
X35105063Y23995408D01*
X35043903Y24223663D01*
X34944035Y24437829D01*
X34913609Y24481283D01*
X34808494Y24631403D01*
X34641402Y24798494D01*
X34641401Y24798495D01*
X34455842Y24928425D01*
X34455841Y24928426D01*
X34412216Y24983003D01*
X34405024Y25052502D01*
X34436546Y25114856D01*
X34455836Y25131572D01*
X34641401Y25261505D01*
X34808495Y25428599D01*
X34944035Y25622170D01*
X35043903Y25836337D01*
X35105063Y26064592D01*
X35125659Y26300000D01*
X35105063Y26535408D01*
X35047434Y26750485D01*
X35043905Y26763656D01*
X35043904Y26763657D01*
X35043903Y26763663D01*
X34944035Y26977829D01*
X34934118Y26991993D01*
X34808494Y27171403D01*
X34641402Y27338494D01*
X34641396Y27338499D01*
X34455842Y27468425D01*
X34412217Y27523002D01*
X34405023Y27592500D01*
X34436546Y27654855D01*
X34455842Y27671575D01*
X34489959Y27695464D01*
X34641401Y27801505D01*
X34808495Y27968599D01*
X34944035Y28162170D01*
X35043903Y28376337D01*
X35105063Y28604592D01*
X35125659Y28840000D01*
X35105063Y29075408D01*
X35043903Y29303663D01*
X34944035Y29517829D01*
X34932876Y29533767D01*
X34808494Y29711403D01*
X34641402Y29878494D01*
X34641401Y29878495D01*
X34455842Y30008425D01*
X34455405Y30008731D01*
X34411781Y30063308D01*
X34404588Y30132807D01*
X34436110Y30195161D01*
X34455405Y30211881D01*
X34641082Y30341895D01*
X34808105Y30508918D01*
X34943600Y30702422D01*
X35043429Y30916508D01*
X35043432Y30916514D01*
X35100636Y31130000D01*
X34203686Y31130000D01*
X34229493Y31170156D01*
X34270000Y31308111D01*
X34270000Y31451889D01*
X34229493Y31589844D01*
X34203686Y31630000D01*
X35100636Y31630000D01*
X35100635Y31630001D01*
X35043432Y31843487D01*
X35043429Y31843493D01*
X34943600Y32057578D01*
X34943599Y32057580D01*
X34808113Y32251074D01*
X34808108Y32251080D01*
X34641078Y32418110D01*
X34455405Y32548121D01*
X34411780Y32602698D01*
X34404588Y32672196D01*
X34436110Y32734551D01*
X34455406Y32751270D01*
X34455842Y32751575D01*
X34641401Y32881505D01*
X34808495Y33048599D01*
X34944035Y33242170D01*
X35043903Y33456337D01*
X35105063Y33684592D01*
X35125659Y33920000D01*
X35105063Y34155408D01*
X35043903Y34383663D01*
X34972174Y34537486D01*
X34944035Y34597830D01*
X34944034Y34597831D01*
X34808494Y34791403D01*
X34641402Y34958494D01*
X34641401Y34958495D01*
X34476976Y35073627D01*
X34455841Y35088426D01*
X34412216Y35143003D01*
X34405024Y35212502D01*
X34436546Y35274856D01*
X34455836Y35291572D01*
X34641401Y35421505D01*
X34808495Y35588599D01*
X34944035Y35782170D01*
X35043903Y35996337D01*
X35105063Y36224592D01*
X35125659Y36460000D01*
X35105063Y36695408D01*
X35043903Y36923663D01*
X34944035Y37137829D01*
X34910675Y37185473D01*
X34808494Y37331403D01*
X34641402Y37498494D01*
X34641396Y37498499D01*
X34455842Y37628425D01*
X34412217Y37683002D01*
X34405023Y37752500D01*
X34436546Y37814855D01*
X34455842Y37831575D01*
X34509909Y37869433D01*
X34641401Y37961505D01*
X34808495Y38128599D01*
X34944035Y38322170D01*
X35043903Y38536337D01*
X35105063Y38764592D01*
X35125659Y39000000D01*
X35105063Y39235408D01*
X35043903Y39463663D01*
X34944035Y39677829D01*
X34808495Y39871401D01*
X34808494Y39871403D01*
X34641402Y40038494D01*
X34641401Y40038495D01*
X34455842Y40168425D01*
X34455841Y40168426D01*
X34412216Y40223003D01*
X34405024Y40292502D01*
X34436546Y40354856D01*
X34455836Y40371572D01*
X34641401Y40501505D01*
X34808495Y40668599D01*
X34944035Y40862170D01*
X35043903Y41076337D01*
X35105063Y41304592D01*
X35125659Y41540000D01*
X35105063Y41775408D01*
X35043903Y42003663D01*
X34944035Y42217829D01*
X34808495Y42411401D01*
X34808494Y42411403D01*
X34641402Y42578494D01*
X34641396Y42578499D01*
X34455842Y42708425D01*
X34412217Y42763002D01*
X34405023Y42832500D01*
X34436546Y42894855D01*
X34455842Y42911575D01*
X34509909Y42949433D01*
X34641401Y43041505D01*
X34808495Y43208599D01*
X34944035Y43402170D01*
X35043903Y43616337D01*
X35105063Y43844592D01*
X35125659Y44080000D01*
X35105063Y44315408D01*
X35043903Y44543663D01*
X34944035Y44757829D01*
X34908866Y44808057D01*
X34808494Y44951403D01*
X34641402Y45118494D01*
X34641396Y45118499D01*
X34455842Y45248425D01*
X34412217Y45303002D01*
X34405023Y45372500D01*
X34436546Y45434855D01*
X34455842Y45451575D01*
X34601554Y45553604D01*
X34641401Y45581505D01*
X34808495Y45748599D01*
X34944035Y45942170D01*
X35043903Y46156337D01*
X35105063Y46384592D01*
X35125659Y46620000D01*
X35105063Y46855408D01*
X35043903Y47083663D01*
X34944035Y47297829D01*
X34890115Y47374836D01*
X34808494Y47491403D01*
X34641402Y47658494D01*
X34641396Y47658499D01*
X34455842Y47788425D01*
X34412217Y47843002D01*
X34405023Y47912500D01*
X34436546Y47974855D01*
X34455842Y47991575D01*
X34526262Y48040884D01*
X34641401Y48121505D01*
X34808495Y48288599D01*
X34944035Y48482170D01*
X35043903Y48696337D01*
X35105063Y48924592D01*
X35125659Y49160000D01*
X35105063Y49395408D01*
X35043903Y49623663D01*
X34944035Y49837829D01*
X34905028Y49893538D01*
X34808494Y50031403D01*
X34641402Y50198494D01*
X34641396Y50198499D01*
X34455842Y50328425D01*
X34412217Y50383002D01*
X34405023Y50452500D01*
X34436546Y50514855D01*
X34455842Y50531575D01*
X34509909Y50569433D01*
X34641401Y50661505D01*
X34808495Y50828599D01*
X34944035Y51022170D01*
X35043903Y51236337D01*
X35105063Y51464592D01*
X35125659Y51700000D01*
X35105063Y51935408D01*
X35043903Y52163663D01*
X34944035Y52377829D01*
X34808495Y52571401D01*
X34686567Y52693329D01*
X34653084Y52754649D01*
X34658068Y52824341D01*
X34699939Y52880275D01*
X34730915Y52897190D01*
X34862331Y52946204D01*
X34977546Y53032454D01*
X35063796Y53147669D01*
X35114091Y53282517D01*
X35120500Y53342127D01*
X35120499Y55137872D01*
X35114091Y55197483D01*
X35072969Y55307736D01*
X35063797Y55332329D01*
X35063793Y55332336D01*
X34977547Y55447545D01*
X34977544Y55447548D01*
X34862335Y55533794D01*
X34862328Y55533798D01*
X34727482Y55584092D01*
X34727483Y55584092D01*
X34667883Y55590499D01*
X34667881Y55590500D01*
X34667873Y55590500D01*
X34667864Y55590500D01*
X32872129Y55590500D01*
X32872123Y55590499D01*
X32812516Y55584092D01*
X32677671Y55533798D01*
X32677664Y55533794D01*
X32562455Y55447548D01*
X32562452Y55447545D01*
X32476206Y55332336D01*
X32476202Y55332329D01*
X32425908Y55197483D01*
X32419501Y55137884D01*
X32419501Y55137877D01*
X32419500Y55137865D01*
X32419500Y53342130D01*
X32419501Y53342124D01*
X32425908Y53282517D01*
X32476202Y53147672D01*
X32476206Y53147665D01*
X32562452Y53032456D01*
X32562455Y53032453D01*
X32677664Y52946207D01*
X32677671Y52946203D01*
X32809081Y52897190D01*
X32865015Y52855319D01*
X32889432Y52789855D01*
X32874580Y52721582D01*
X32853430Y52693327D01*
X32731503Y52571400D01*
X32595965Y52377831D01*
X32595964Y52377829D01*
X32496098Y52163665D01*
X32496094Y52163656D01*
X32434938Y51935414D01*
X32434936Y51935404D01*
X32414341Y51700001D01*
X32414341Y51700000D01*
X32434936Y51464597D01*
X32434938Y51464587D01*
X32496094Y51236345D01*
X32496096Y51236341D01*
X32496097Y51236337D01*
X32584262Y51047268D01*
X32595965Y51022170D01*
X32595967Y51022166D01*
X32731501Y50828605D01*
X32731506Y50828598D01*
X32898597Y50661507D01*
X32898603Y50661502D01*
X33084158Y50531575D01*
X33127783Y50476998D01*
X33134977Y50407500D01*
X33103454Y50345145D01*
X33084158Y50328425D01*
X32898597Y50198495D01*
X32731505Y50031403D01*
X32595965Y49837831D01*
X32595964Y49837829D01*
X32496098Y49623665D01*
X32496094Y49623656D01*
X32434938Y49395414D01*
X32434936Y49395404D01*
X32414341Y49160001D01*
X32414341Y49160000D01*
X32434936Y48924597D01*
X32434938Y48924587D01*
X32496094Y48696345D01*
X32496096Y48696341D01*
X32496097Y48696337D01*
X32556959Y48565818D01*
X32595965Y48482170D01*
X32595967Y48482166D01*
X32675681Y48368324D01*
X32724903Y48298027D01*
X32731501Y48288605D01*
X32731506Y48288598D01*
X32898597Y48121507D01*
X32898603Y48121502D01*
X33084158Y47991575D01*
X33127783Y47936998D01*
X33134977Y47867500D01*
X33103454Y47805145D01*
X33084158Y47788425D01*
X32898597Y47658495D01*
X32731505Y47491403D01*
X32595965Y47297831D01*
X32595964Y47297829D01*
X32496098Y47083665D01*
X32496094Y47083656D01*
X32434938Y46855414D01*
X32434936Y46855404D01*
X32414341Y46620001D01*
X32414341Y46620000D01*
X32434936Y46384597D01*
X32434938Y46384587D01*
X32496094Y46156345D01*
X32496096Y46156341D01*
X32496097Y46156337D01*
X32555570Y46028797D01*
X32595965Y45942170D01*
X32595967Y45942166D01*
X32731501Y45748605D01*
X32731506Y45748598D01*
X32898597Y45581507D01*
X32898603Y45581502D01*
X33084158Y45451575D01*
X33127783Y45396998D01*
X33134977Y45327500D01*
X33103454Y45265145D01*
X33084158Y45248425D01*
X32898597Y45118495D01*
X32731505Y44951403D01*
X32595965Y44757831D01*
X32595964Y44757829D01*
X32496098Y44543665D01*
X32496094Y44543656D01*
X32434938Y44315414D01*
X32434936Y44315404D01*
X32414341Y44080001D01*
X32414341Y44080000D01*
X32434936Y43844597D01*
X32434938Y43844587D01*
X32496094Y43616345D01*
X32496096Y43616341D01*
X32496097Y43616337D01*
X32530425Y43542721D01*
X32595965Y43402170D01*
X32595967Y43402166D01*
X32731501Y43208605D01*
X32731506Y43208598D01*
X32898597Y43041507D01*
X32898603Y43041502D01*
X33084158Y42911575D01*
X33127783Y42856998D01*
X33134977Y42787500D01*
X33103454Y42725145D01*
X33084158Y42708425D01*
X32898597Y42578495D01*
X32731505Y42411403D01*
X32595965Y42217831D01*
X32595964Y42217829D01*
X32496098Y42003665D01*
X32496094Y42003656D01*
X32434938Y41775414D01*
X32434936Y41775404D01*
X32414341Y41540001D01*
X32414341Y41540000D01*
X32434936Y41304597D01*
X32434938Y41304587D01*
X32496094Y41076345D01*
X32496096Y41076341D01*
X32496097Y41076337D01*
X32584262Y40887268D01*
X32595965Y40862170D01*
X32595967Y40862166D01*
X32731501Y40668605D01*
X32731506Y40668598D01*
X32898597Y40501507D01*
X32898603Y40501502D01*
X33084158Y40371575D01*
X33127783Y40316998D01*
X33134977Y40247500D01*
X33103454Y40185145D01*
X33084158Y40168425D01*
X32898597Y40038495D01*
X32731505Y39871403D01*
X32595965Y39677831D01*
X32595964Y39677829D01*
X32496098Y39463665D01*
X32496094Y39463656D01*
X32434938Y39235414D01*
X32434936Y39235404D01*
X32414341Y39000001D01*
X32414341Y39000000D01*
X32434936Y38764597D01*
X32434938Y38764587D01*
X32496094Y38536345D01*
X32496096Y38536341D01*
X32496097Y38536337D01*
X32584262Y38347268D01*
X32595965Y38322170D01*
X32595967Y38322166D01*
X32731501Y38128605D01*
X32731506Y38128598D01*
X32898597Y37961507D01*
X32898603Y37961502D01*
X33084158Y37831575D01*
X33127783Y37776998D01*
X33134977Y37707500D01*
X33103454Y37645145D01*
X33084158Y37628425D01*
X32898597Y37498495D01*
X32731505Y37331403D01*
X32595965Y37137831D01*
X32595964Y37137829D01*
X32496098Y36923665D01*
X32496094Y36923656D01*
X32434938Y36695414D01*
X32434936Y36695404D01*
X32414341Y36460001D01*
X32414341Y36460000D01*
X32434936Y36224597D01*
X32434938Y36224587D01*
X32496094Y35996345D01*
X32496096Y35996341D01*
X32496097Y35996337D01*
X32584262Y35807268D01*
X32595965Y35782170D01*
X32595967Y35782166D01*
X32731501Y35588605D01*
X32731506Y35588598D01*
X32898597Y35421507D01*
X32898603Y35421502D01*
X33084158Y35291575D01*
X33127783Y35236998D01*
X33134977Y35167500D01*
X33103454Y35105145D01*
X33084158Y35088425D01*
X32898597Y34958495D01*
X32731505Y34791403D01*
X32595965Y34597831D01*
X32595965Y34597830D01*
X32496098Y34383665D01*
X32496094Y34383656D01*
X32434938Y34155414D01*
X32434936Y34155404D01*
X32414341Y33920001D01*
X32414341Y33920000D01*
X32434936Y33684597D01*
X32434938Y33684587D01*
X32496094Y33456345D01*
X32496096Y33456341D01*
X32496097Y33456337D01*
X32585656Y33264277D01*
X32595965Y33242170D01*
X32595967Y33242166D01*
X32731501Y33048605D01*
X32731506Y33048598D01*
X32898597Y32881507D01*
X32898603Y32881502D01*
X33084594Y32751270D01*
X33128219Y32696693D01*
X33135413Y32627195D01*
X33103890Y32564840D01*
X33084595Y32548120D01*
X32898922Y32418110D01*
X32898920Y32418109D01*
X32731891Y32251080D01*
X32731886Y32251074D01*
X32596400Y32057580D01*
X32596399Y32057578D01*
X32496570Y31843493D01*
X32496567Y31843487D01*
X32439364Y31630001D01*
X32439364Y31630000D01*
X33336314Y31630000D01*
X33310507Y31589844D01*
X33270000Y31451889D01*
X33270000Y31308111D01*
X33310507Y31170156D01*
X33336314Y31130000D01*
X32439364Y31130000D01*
X32496567Y30916514D01*
X32496570Y30916508D01*
X32596399Y30702422D01*
X32731894Y30508918D01*
X32898917Y30341895D01*
X33084595Y30211881D01*
X33128219Y30157304D01*
X33135412Y30087805D01*
X33103890Y30025451D01*
X33084595Y30008731D01*
X32898594Y29878492D01*
X32731505Y29711403D01*
X32595965Y29517831D01*
X32595964Y29517829D01*
X32496098Y29303665D01*
X32496094Y29303656D01*
X32434938Y29075414D01*
X32434936Y29075404D01*
X32414341Y28840001D01*
X32414341Y28840000D01*
X32434936Y28604597D01*
X32434938Y28604587D01*
X32496094Y28376345D01*
X32496096Y28376341D01*
X32496097Y28376337D01*
X32595965Y28162171D01*
X32595965Y28162170D01*
X32595967Y28162166D01*
X32731501Y27968605D01*
X32731506Y27968598D01*
X32898597Y27801507D01*
X32898603Y27801502D01*
X33084158Y27671575D01*
X33127783Y27616998D01*
X33134977Y27547500D01*
X33103454Y27485145D01*
X33084158Y27468425D01*
X32898597Y27338495D01*
X32731505Y27171403D01*
X32595965Y26977831D01*
X32595964Y26977829D01*
X32496098Y26763665D01*
X32496094Y26763656D01*
X32434938Y26535414D01*
X32434936Y26535404D01*
X32414341Y26300001D01*
X32414341Y26300000D01*
X32434936Y26064597D01*
X32434938Y26064587D01*
X32496094Y25836345D01*
X32496096Y25836341D01*
X32496097Y25836337D01*
X32595847Y25622422D01*
X32595965Y25622170D01*
X32595967Y25622166D01*
X32731501Y25428605D01*
X32731506Y25428598D01*
X32898597Y25261507D01*
X32898603Y25261502D01*
X33084158Y25131575D01*
X33127783Y25076998D01*
X33134977Y25007500D01*
X33103454Y24945145D01*
X33084158Y24928425D01*
X32898597Y24798495D01*
X32731505Y24631403D01*
X32595965Y24437831D01*
X32595964Y24437829D01*
X32496098Y24223665D01*
X32496094Y24223656D01*
X32434938Y23995414D01*
X32434936Y23995404D01*
X32414341Y23760001D01*
X32414341Y23760000D01*
X32434936Y23524597D01*
X32434938Y23524587D01*
X32496094Y23296345D01*
X32496096Y23296341D01*
X32496097Y23296337D01*
X32591302Y23092170D01*
X32595965Y23082170D01*
X32595967Y23082166D01*
X32731501Y22888605D01*
X32731506Y22888598D01*
X32898597Y22721507D01*
X32898603Y22721502D01*
X33084158Y22591575D01*
X33127783Y22536998D01*
X33134977Y22467500D01*
X33103454Y22405145D01*
X33084158Y22388425D01*
X32898597Y22258495D01*
X32731505Y22091403D01*
X32595965Y21897831D01*
X32595964Y21897829D01*
X32496098Y21683665D01*
X32496094Y21683656D01*
X32434938Y21455414D01*
X32434936Y21455404D01*
X32414341Y21220001D01*
X32414341Y21220000D01*
X32434936Y20984597D01*
X32434938Y20984587D01*
X32496094Y20756345D01*
X32496096Y20756341D01*
X32496097Y20756337D01*
X32569829Y20598218D01*
X32595965Y20542170D01*
X32595967Y20542166D01*
X32731501Y20348605D01*
X32731506Y20348598D01*
X32898597Y20181507D01*
X32898603Y20181502D01*
X33084158Y20051575D01*
X33127783Y19996998D01*
X33134977Y19927500D01*
X33103454Y19865145D01*
X33084158Y19848425D01*
X32898597Y19718495D01*
X32731505Y19551403D01*
X32595965Y19357831D01*
X32595964Y19357829D01*
X32496098Y19143665D01*
X32496094Y19143656D01*
X32434938Y18915414D01*
X32434936Y18915404D01*
X32414341Y18680001D01*
X32414341Y18680000D01*
X32434936Y18444597D01*
X32434938Y18444587D01*
X32496094Y18216345D01*
X32496096Y18216341D01*
X32496097Y18216337D01*
X32591302Y18012170D01*
X32595965Y18002170D01*
X32595967Y18002166D01*
X32731501Y17808605D01*
X32731506Y17808598D01*
X32898597Y17641507D01*
X32898603Y17641502D01*
X33084158Y17511575D01*
X33127783Y17456998D01*
X33134977Y17387500D01*
X33103454Y17325145D01*
X33084158Y17308425D01*
X32898597Y17178495D01*
X32731505Y17011403D01*
X32595965Y16817831D01*
X32595964Y16817829D01*
X32496098Y16603665D01*
X32496094Y16603656D01*
X32434938Y16375414D01*
X32434936Y16375404D01*
X32414341Y16140001D01*
X32414341Y16140000D01*
X32434936Y15904597D01*
X32434938Y15904587D01*
X32496094Y15676345D01*
X32496096Y15676341D01*
X32496097Y15676337D01*
X32591302Y15472170D01*
X32595965Y15462170D01*
X32595967Y15462166D01*
X32731501Y15268605D01*
X32731506Y15268598D01*
X32898597Y15101507D01*
X32898603Y15101502D01*
X33084158Y14971575D01*
X33127783Y14916998D01*
X33134977Y14847500D01*
X33103454Y14785145D01*
X33084158Y14768425D01*
X32898597Y14638495D01*
X32731505Y14471403D01*
X32595965Y14277831D01*
X32595964Y14277829D01*
X32496098Y14063665D01*
X32496094Y14063656D01*
X32434938Y13835414D01*
X32434936Y13835404D01*
X32414341Y13600001D01*
X32414341Y13600000D01*
X32434936Y13364597D01*
X32434938Y13364587D01*
X32496094Y13136345D01*
X32496096Y13136341D01*
X32496097Y13136337D01*
X32569829Y12978218D01*
X32595965Y12922170D01*
X32595967Y12922166D01*
X32731501Y12728605D01*
X32731506Y12728598D01*
X32898597Y12561507D01*
X32898603Y12561502D01*
X33084158Y12431575D01*
X33127783Y12376998D01*
X33134977Y12307500D01*
X33103454Y12245145D01*
X33084158Y12228425D01*
X32898597Y12098495D01*
X32731505Y11931403D01*
X32595965Y11737831D01*
X32595964Y11737829D01*
X32496098Y11523665D01*
X32496094Y11523656D01*
X32434938Y11295414D01*
X32434936Y11295404D01*
X32414341Y11060001D01*
X32414341Y11060000D01*
X32434936Y10824597D01*
X32434938Y10824587D01*
X32496094Y10596345D01*
X32496096Y10596341D01*
X32496097Y10596337D01*
X32591184Y10392422D01*
X32595965Y10382170D01*
X32595967Y10382166D01*
X32731501Y10188605D01*
X32731506Y10188598D01*
X32898597Y10021507D01*
X32898603Y10021502D01*
X33084158Y9891575D01*
X33127783Y9836998D01*
X33134977Y9767500D01*
X33103454Y9705145D01*
X33084158Y9688425D01*
X32898597Y9558495D01*
X32731505Y9391403D01*
X32595965Y9197831D01*
X32595964Y9197829D01*
X32496098Y8983665D01*
X32496094Y8983656D01*
X32434938Y8755414D01*
X32434936Y8755404D01*
X32414341Y8520001D01*
X32414341Y8520000D01*
X32434936Y8284597D01*
X32434938Y8284587D01*
X32496094Y8056345D01*
X32496096Y8056341D01*
X32496097Y8056337D01*
X32528095Y7987718D01*
X32595965Y7842170D01*
X32595967Y7842166D01*
X32658670Y7752618D01*
X32717123Y7669138D01*
X32731501Y7648605D01*
X32731506Y7648598D01*
X32898597Y7481507D01*
X32898603Y7481502D01*
X33084158Y7351575D01*
X33127783Y7296998D01*
X33134977Y7227500D01*
X33103454Y7165145D01*
X33084158Y7148425D01*
X32898597Y7018495D01*
X32731505Y6851403D01*
X32595965Y6657831D01*
X32595964Y6657829D01*
X32496098Y6443665D01*
X32496094Y6443656D01*
X32434938Y6215414D01*
X32434936Y6215404D01*
X32414341Y5980001D01*
X32414341Y5980000D01*
X32154784Y5980000D01*
X32155659Y5990000D01*
X32135063Y6225408D01*
X32076584Y6443656D01*
X32073905Y6453656D01*
X32073904Y6453657D01*
X32073903Y6453663D01*
X31974035Y6667829D01*
X31838495Y6861401D01*
X31838494Y6861403D01*
X31671402Y7028494D01*
X31671396Y7028499D01*
X31485842Y7158425D01*
X31442217Y7213002D01*
X31435023Y7282500D01*
X31466546Y7344855D01*
X31485842Y7361575D01*
X31657115Y7481502D01*
X31671401Y7491505D01*
X31838495Y7658599D01*
X31974035Y7852170D01*
X32073903Y8066337D01*
X32135063Y8294592D01*
X32155659Y8530000D01*
X32135063Y8765408D01*
X32076584Y8983656D01*
X32073905Y8993656D01*
X32073904Y8993657D01*
X32073903Y8993663D01*
X31974035Y9207829D01*
X31838495Y9401401D01*
X31838494Y9401403D01*
X31671402Y9568494D01*
X31671401Y9568495D01*
X31500122Y9688426D01*
X31485405Y9698731D01*
X31441781Y9753308D01*
X31434588Y9822807D01*
X31466110Y9885161D01*
X31485405Y9901881D01*
X31671082Y10031895D01*
X31838105Y10198918D01*
X31973600Y10392422D01*
X32073429Y10606508D01*
X32073432Y10606514D01*
X32130636Y10820000D01*
X31233686Y10820000D01*
X31259493Y10860156D01*
X31300000Y10998111D01*
X31300000Y11141889D01*
X31259493Y11279844D01*
X31233686Y11320000D01*
X32130636Y11320000D01*
X32130635Y11320001D01*
X32073432Y11533487D01*
X32073429Y11533493D01*
X31973600Y11747578D01*
X31973599Y11747580D01*
X31838113Y11941074D01*
X31838108Y11941080D01*
X31671078Y12108110D01*
X31485405Y12238121D01*
X31441780Y12292698D01*
X31434588Y12362196D01*
X31466110Y12424551D01*
X31485406Y12441270D01*
X31657115Y12561502D01*
X31671401Y12571505D01*
X31838495Y12738599D01*
X31974035Y12932170D01*
X32073903Y13146337D01*
X32135063Y13374592D01*
X32155659Y13610000D01*
X32135063Y13845408D01*
X32076584Y14063656D01*
X32073905Y14073656D01*
X32073904Y14073657D01*
X32073903Y14073663D01*
X31974035Y14287829D01*
X31838495Y14481401D01*
X31838494Y14481403D01*
X31671402Y14648494D01*
X31671396Y14648499D01*
X31485842Y14778425D01*
X31442217Y14833002D01*
X31435023Y14902500D01*
X31466546Y14964855D01*
X31485842Y14981575D01*
X31657115Y15101502D01*
X31671401Y15111505D01*
X31838495Y15278599D01*
X31974035Y15472170D01*
X32073903Y15686337D01*
X32135063Y15914592D01*
X32155659Y16150000D01*
X32135063Y16385408D01*
X32076584Y16603656D01*
X32073905Y16613656D01*
X32073904Y16613657D01*
X32073903Y16613663D01*
X31974035Y16827829D01*
X31838495Y17021401D01*
X31838494Y17021403D01*
X31671402Y17188494D01*
X31671396Y17188499D01*
X31485842Y17318425D01*
X31442217Y17373002D01*
X31435023Y17442500D01*
X31466546Y17504855D01*
X31485842Y17521575D01*
X31549223Y17565955D01*
X31671401Y17651505D01*
X31838495Y17818599D01*
X31974035Y18012170D01*
X32073903Y18226337D01*
X32135063Y18454592D01*
X32155659Y18690000D01*
X32135063Y18925408D01*
X32076584Y19143656D01*
X32073905Y19153656D01*
X32073904Y19153657D01*
X32073903Y19153663D01*
X31974035Y19367829D01*
X31838495Y19561401D01*
X31838494Y19561403D01*
X31671402Y19728494D01*
X31671396Y19728499D01*
X31485842Y19858425D01*
X31442217Y19913002D01*
X31435023Y19982500D01*
X31466546Y20044855D01*
X31485842Y20061575D01*
X31657115Y20181502D01*
X31671401Y20191505D01*
X31838495Y20358599D01*
X31974035Y20552170D01*
X32073903Y20766337D01*
X32135063Y20994592D01*
X32155659Y21230000D01*
X32135063Y21465408D01*
X32076584Y21683656D01*
X32073905Y21693656D01*
X32073904Y21693657D01*
X32073903Y21693663D01*
X31974035Y21907829D01*
X31838495Y22101401D01*
X31838494Y22101403D01*
X31671402Y22268494D01*
X31671396Y22268499D01*
X31485842Y22398425D01*
X31442217Y22453002D01*
X31435023Y22522500D01*
X31466546Y22584855D01*
X31485842Y22601575D01*
X31657115Y22721502D01*
X31671401Y22731505D01*
X31838495Y22898599D01*
X31974035Y23092170D01*
X32073903Y23306337D01*
X32135063Y23534592D01*
X32155659Y23770000D01*
X32135063Y24005408D01*
X32076584Y24223656D01*
X32073905Y24233656D01*
X32073904Y24233657D01*
X32073903Y24233663D01*
X31974035Y24447829D01*
X31950611Y24481283D01*
X31838494Y24641403D01*
X31671402Y24808494D01*
X31671395Y24808499D01*
X31477834Y24944033D01*
X31477830Y24944035D01*
X31394263Y24983003D01*
X31263663Y25043903D01*
X31263659Y25043904D01*
X31263655Y25043906D01*
X31035413Y25105062D01*
X31035403Y25105064D01*
X31003417Y25107862D01*
X30938349Y25133315D01*
X30897371Y25189907D01*
X30891287Y25247573D01*
X30899676Y25311290D01*
X30895230Y25345055D01*
X30894699Y25353158D01*
X30894699Y31066735D01*
X30914384Y31133774D01*
X30931018Y31154416D01*
X31411651Y31635049D01*
X31966191Y32189590D01*
X31972281Y32194931D01*
X31999307Y32215667D01*
X32005506Y32223745D01*
X32024590Y32248614D01*
X32091746Y32336136D01*
X32101752Y32360292D01*
X32149856Y32476425D01*
X32169676Y32626974D01*
X32165230Y32660739D01*
X32164699Y32668842D01*
X32164699Y45549533D01*
X32165230Y45557636D01*
X32169676Y45591401D01*
X32149856Y45741948D01*
X32149856Y45741949D01*
X32091746Y45882238D01*
X32026502Y45967266D01*
X32021260Y45974098D01*
X32021252Y45974108D01*
X32018043Y45978289D01*
X31999307Y46002707D01*
X31990062Y46009801D01*
X31972283Y46023444D01*
X31966180Y46028797D01*
X31844228Y46150749D01*
X31810743Y46212072D01*
X31812133Y46270522D01*
X31845035Y46393308D01*
X31864868Y46620000D01*
X31845035Y46846692D01*
X31786139Y47066496D01*
X31689968Y47272734D01*
X31559447Y47459139D01*
X31559445Y47459142D01*
X31398541Y47620046D01*
X31212134Y47750568D01*
X31212128Y47750571D01*
X31154125Y47777618D01*
X31101685Y47823790D01*
X31082533Y47890983D01*
X31102748Y47957865D01*
X31154125Y48002382D01*
X31212134Y48029432D01*
X31398539Y48159953D01*
X31559447Y48320861D01*
X31689968Y48507266D01*
X31786139Y48713504D01*
X31845035Y48933308D01*
X31864868Y49160000D01*
X31845035Y49386692D01*
X31786139Y49606496D01*
X31689968Y49812734D01*
X31559447Y49999139D01*
X31559445Y49999142D01*
X31398541Y50160046D01*
X31212134Y50290568D01*
X31212128Y50290571D01*
X31184438Y50303483D01*
X31154124Y50317619D01*
X31101685Y50363790D01*
X31082533Y50430983D01*
X31102748Y50497865D01*
X31154125Y50542382D01*
X31212134Y50569432D01*
X31398539Y50699953D01*
X31559447Y50860861D01*
X31689968Y51047266D01*
X31786139Y51253504D01*
X31845035Y51473308D01*
X31864868Y51700000D01*
X31845035Y51926692D01*
X31786139Y52146496D01*
X31689968Y52352734D01*
X31559447Y52539139D01*
X31559445Y52539142D01*
X31398541Y52700046D01*
X31212135Y52830568D01*
X31212131Y52830570D01*
X31161493Y52854184D01*
X31109055Y52900357D01*
X31089900Y52966565D01*
X31089900Y53976152D01*
X31109585Y54043191D01*
X31126214Y54063829D01*
X31189447Y54127061D01*
X31319968Y54313466D01*
X31416139Y54519704D01*
X31475035Y54739508D01*
X31494868Y54966200D01*
X31475035Y55192892D01*
X31416139Y55412696D01*
X31319968Y55618934D01*
X31189447Y55805339D01*
X31189445Y55805342D01*
X31028541Y55966246D01*
X30842134Y56096768D01*
X30842132Y56096769D01*
X30635897Y56192939D01*
X30635888Y56192942D01*
X30416097Y56251834D01*
X30416093Y56251835D01*
X30416092Y56251835D01*
X30416091Y56251836D01*
X30416086Y56251836D01*
X30189402Y56271668D01*
X30189398Y56271668D01*
X29962713Y56251836D01*
X29962702Y56251834D01*
X29742911Y56192942D01*
X29742902Y56192939D01*
X29536667Y56096769D01*
X29536665Y56096768D01*
X29350258Y55966246D01*
X29189354Y55805342D01*
X29058832Y55618935D01*
X29058830Y55618931D01*
X29051505Y55603222D01*
X29005331Y55550783D01*
X28938137Y55531633D01*
X28871257Y55551850D01*
X28826741Y55603226D01*
X28819532Y55618685D01*
X28819531Y55618688D01*
X28768425Y55691674D01*
X28087353Y55010602D01*
X28074565Y55091348D01*
X28017041Y55204245D01*
X27927445Y55293841D01*
X27814548Y55351365D01*
X27733800Y55364154D01*
X28414872Y56045226D01*
X28414871Y56045227D01*
X28341883Y56096334D01*
X28341881Y56096335D01*
X28135726Y56192466D01*
X28135717Y56192470D01*
X27916010Y56251340D01*
X27915999Y56251342D01*
X27689402Y56271166D01*
X27689398Y56271166D01*
X27462800Y56251342D01*
X27462789Y56251340D01*
X27243082Y56192470D01*
X27243073Y56192466D01*
X27036913Y56096332D01*
X26963927Y56045228D01*
X26963926Y56045227D01*
X27645000Y55364154D01*
X27564252Y55351365D01*
X27451355Y55293841D01*
X27361759Y55204245D01*
X27304235Y55091348D01*
X27291446Y55010600D01*
X26610373Y55691673D01*
X26559268Y55618687D01*
X26463134Y55412527D01*
X26463130Y55412518D01*
X26404260Y55192811D01*
X26404258Y55192800D01*
X26384434Y54966203D01*
X26384434Y54966198D01*
X26404258Y54739601D01*
X26404259Y54739594D01*
X26422802Y54670394D01*
X26421139Y54600544D01*
X26381977Y54542681D01*
X26317749Y54515177D01*
X26303027Y54514300D01*
X22552615Y54514300D01*
X22533216Y54515827D01*
X22519376Y54518019D01*
X22450029Y54514385D01*
X22446786Y54514300D01*
X22424796Y54514300D01*
X22418547Y54513644D01*
X22402929Y54512003D01*
X22399698Y54511749D01*
X22330346Y54508114D01*
X22330341Y54508113D01*
X22316791Y54504483D01*
X22297679Y54500941D01*
X22283737Y54499475D01*
X22283725Y54499473D01*
X22231457Y54482490D01*
X22217675Y54478012D01*
X22214595Y54477099D01*
X22177683Y54467209D01*
X22147502Y54459121D01*
X22135008Y54452755D01*
X22117041Y54445313D01*
X22103702Y54440979D01*
X22043579Y54406267D01*
X22040728Y54404719D01*
X21978838Y54373183D01*
X21967939Y54364358D01*
X21951919Y54353348D01*
X21939775Y54346336D01*
X21939771Y54346333D01*
X21888178Y54299879D01*
X21885714Y54297774D01*
X21868608Y54283921D01*
X21853044Y54268357D01*
X21850707Y54266140D01*
X21830728Y54248150D01*
X21799101Y54219673D01*
X21799093Y54219664D01*
X21790860Y54208332D01*
X21778226Y54193540D01*
X19609663Y52024976D01*
X19594874Y52012343D01*
X19583526Y52004098D01*
X19537066Y51952499D01*
X19534835Y51950147D01*
X19519290Y51934602D01*
X19519275Y51934585D01*
X19505439Y51917502D01*
X19503336Y51915040D01*
X19456869Y51863431D01*
X19456866Y51863427D01*
X19449858Y51851289D01*
X19438844Y51835264D01*
X19430026Y51824375D01*
X19430016Y51824359D01*
X19398482Y51762472D01*
X19396933Y51759620D01*
X19362221Y51699499D01*
X19357887Y51686159D01*
X19350445Y51668192D01*
X19344080Y51655700D01*
X19326106Y51588628D01*
X19325185Y51585520D01*
X19303726Y51519470D01*
X19303725Y51519467D01*
X19302260Y51505526D01*
X19298715Y51486400D01*
X19295086Y51472860D01*
X19291451Y51403502D01*
X19291197Y51400271D01*
X19288900Y51378402D01*
X19288900Y51356415D01*
X19288815Y51353170D01*
X19285181Y51283825D01*
X19287373Y51269987D01*
X19288900Y51250586D01*
X19288900Y48307392D01*
X19269215Y48240353D01*
X19263854Y48232666D01*
X19164347Y48100898D01*
X19164338Y48100884D01*
X19065175Y47901739D01*
X19065169Y47901724D01*
X19004285Y47687738D01*
X19004284Y47687736D01*
X18983757Y47466201D01*
X18983757Y47466200D01*
X19004284Y47244665D01*
X19004285Y47244663D01*
X19065169Y47030677D01*
X19065175Y47030662D01*
X19164338Y46831517D01*
X19164343Y46831509D01*
X19298420Y46653962D01*
X19462837Y46504077D01*
X19462839Y46504075D01*
X19651995Y46386955D01*
X19651996Y46386955D01*
X19651999Y46386953D01*
X19859460Y46306582D01*
X20078157Y46265700D01*
X20078159Y46265700D01*
X20300641Y46265700D01*
X20300643Y46265700D01*
X20519340Y46306582D01*
X20726801Y46386953D01*
X20915962Y46504076D01*
X21080381Y46653964D01*
X21214458Y46831511D01*
X21313629Y47030672D01*
X21374515Y47244664D01*
X21395043Y47466200D01*
X21374515Y47687736D01*
X21313629Y47901728D01*
X21313624Y47901739D01*
X21214461Y48100884D01*
X21214452Y48100898D01*
X21114946Y48232666D01*
X21090254Y48298027D01*
X21089900Y48307392D01*
X21089900Y50906852D01*
X21109585Y50973891D01*
X21126215Y50994529D01*
X21427222Y51295536D01*
X21488542Y51329019D01*
X21558233Y51324035D01*
X21614167Y51282164D01*
X21638584Y51216699D01*
X21638900Y51207853D01*
X21638900Y50852131D01*
X21638901Y50852124D01*
X21645308Y50792517D01*
X21695602Y50657672D01*
X21695606Y50657665D01*
X21781852Y50542456D01*
X21781855Y50542453D01*
X21897064Y50456207D01*
X21897071Y50456203D01*
X21942018Y50439440D01*
X22031917Y50405909D01*
X22066996Y50402138D01*
X22131544Y50375401D01*
X22171393Y50318009D01*
X22173888Y50248184D01*
X22138236Y50188095D01*
X22124864Y50177275D01*
X22100258Y50160046D01*
X21939354Y49999142D01*
X21808832Y49812735D01*
X21808831Y49812733D01*
X21712661Y49606498D01*
X21712658Y49606489D01*
X21653766Y49386698D01*
X21653764Y49386687D01*
X21633932Y49160002D01*
X21633932Y49159999D01*
X21653764Y48933314D01*
X21653766Y48933303D01*
X21712658Y48713512D01*
X21712661Y48713503D01*
X21808831Y48507268D01*
X21808832Y48507266D01*
X21939354Y48320859D01*
X22100258Y48159955D01*
X22100261Y48159953D01*
X22286666Y48029432D01*
X22344675Y48002382D01*
X22397114Y47956209D01*
X22416266Y47889016D01*
X22396050Y47822135D01*
X22344675Y47777618D01*
X22286667Y47750569D01*
X22286665Y47750568D01*
X22100258Y47620046D01*
X21939354Y47459142D01*
X21808832Y47272735D01*
X21808831Y47272733D01*
X21712661Y47066498D01*
X21712658Y47066489D01*
X21653766Y46846698D01*
X21653764Y46846687D01*
X21633932Y46620002D01*
X21633932Y46619999D01*
X21653764Y46393314D01*
X21653766Y46393303D01*
X21712658Y46173512D01*
X21712661Y46173503D01*
X21808831Y45967268D01*
X21808832Y45967266D01*
X21939354Y45780859D01*
X22100258Y45619955D01*
X22100261Y45619953D01*
X22286666Y45489432D01*
X22291099Y45487365D01*
X22343540Y45441197D01*
X22362700Y45374981D01*
X22362700Y45325021D01*
X22343015Y45257982D01*
X22291113Y45212643D01*
X22286674Y45210573D01*
X22286668Y45210570D01*
X22100258Y45080046D01*
X21939354Y44919142D01*
X21808832Y44732735D01*
X21808831Y44732733D01*
X21712661Y44526498D01*
X21712658Y44526489D01*
X21653766Y44306698D01*
X21653764Y44306688D01*
X21636597Y44110473D01*
X21611144Y44045404D01*
X21554553Y44004426D01*
X21484791Y44000548D01*
X21424007Y44035002D01*
X21398507Y44073831D01*
X21395951Y44080001D01*
X21389685Y44095130D01*
X21389684Y44095133D01*
X21389684Y44095134D01*
X21381751Y44114284D01*
X21371747Y44138438D01*
X21302515Y44228662D01*
X21302514Y44228663D01*
X21279307Y44258907D01*
X21279305Y44258908D01*
X21279305Y44258909D01*
X21252283Y44279644D01*
X21246180Y44284997D01*
X21143259Y44387918D01*
X21109774Y44449241D01*
X21111674Y44509534D01*
X21121385Y44543665D01*
X21124515Y44554664D01*
X21145043Y44776200D01*
X21124515Y44997736D01*
X21063629Y45211728D01*
X21063624Y45211739D01*
X20964461Y45410884D01*
X20964456Y45410892D01*
X20830379Y45588439D01*
X20665962Y45738324D01*
X20665960Y45738326D01*
X20476804Y45855446D01*
X20476798Y45855448D01*
X20269340Y45935818D01*
X20050643Y45976700D01*
X19828157Y45976700D01*
X19609460Y45935818D01*
X19479038Y45885292D01*
X19402001Y45855448D01*
X19401995Y45855446D01*
X19212839Y45738326D01*
X19212837Y45738324D01*
X19048420Y45588439D01*
X18914343Y45410892D01*
X18914338Y45410884D01*
X18815175Y45211739D01*
X18815169Y45211724D01*
X18754285Y44997738D01*
X18754284Y44997736D01*
X18733757Y44776201D01*
X18733757Y44776200D01*
X18754284Y44554665D01*
X18754285Y44554663D01*
X18815169Y44340677D01*
X18815175Y44340662D01*
X18914338Y44141517D01*
X18914343Y44141509D01*
X19048420Y43963962D01*
X19212837Y43814077D01*
X19212839Y43814075D01*
X19401995Y43696955D01*
X19401996Y43696955D01*
X19401999Y43696953D01*
X19609460Y43616582D01*
X19828157Y43575700D01*
X19828159Y43575700D01*
X20050642Y43575700D01*
X20050643Y43575700D01*
X20144514Y43593248D01*
X20214029Y43586218D01*
X20268708Y43542721D01*
X20291191Y43476568D01*
X20291300Y43471360D01*
X20291300Y38461041D01*
X20271615Y38394002D01*
X20218811Y38348247D01*
X20149653Y38338303D01*
X20144515Y38339152D01*
X20050643Y38356700D01*
X20050641Y38356700D01*
X20045008Y38357753D01*
X20045342Y38359543D01*
X19988129Y38382267D01*
X19976834Y38392265D01*
X18126219Y40242880D01*
X18092734Y40304203D01*
X18089900Y40330561D01*
X18089900Y46565010D01*
X18109585Y46632049D01*
X18114938Y46639727D01*
X18214458Y46771511D01*
X18313629Y46970672D01*
X18374515Y47184664D01*
X18395043Y47406200D01*
X18374515Y47627736D01*
X18313629Y47841728D01*
X18300796Y47867500D01*
X18214461Y48040884D01*
X18214456Y48040892D01*
X18080379Y48218439D01*
X17915962Y48368324D01*
X17915960Y48368326D01*
X17726804Y48485446D01*
X17726798Y48485448D01*
X17519340Y48565818D01*
X17300643Y48606700D01*
X17078157Y48606700D01*
X16984285Y48589152D01*
X16914770Y48596183D01*
X16860091Y48639681D01*
X16837609Y48705835D01*
X16837500Y48711041D01*
X16837500Y53721360D01*
X16857185Y53788399D01*
X16909989Y53834154D01*
X16979147Y53844098D01*
X16984273Y53843251D01*
X17078157Y53825700D01*
X17078158Y53825700D01*
X17300641Y53825700D01*
X17300643Y53825700D01*
X17519340Y53866582D01*
X17726801Y53946953D01*
X17915962Y54064076D01*
X18080381Y54213964D01*
X18214458Y54391511D01*
X18313629Y54590672D01*
X18374515Y54804664D01*
X18395043Y55026200D01*
X18389483Y55086200D01*
X18983757Y55086200D01*
X19004284Y54864665D01*
X19004285Y54864663D01*
X19065169Y54650677D01*
X19065175Y54650662D01*
X19164338Y54451517D01*
X19164343Y54451509D01*
X19298420Y54273962D01*
X19462837Y54124077D01*
X19462839Y54124075D01*
X19651995Y54006955D01*
X19651996Y54006955D01*
X19651999Y54006953D01*
X19859460Y53926582D01*
X20078157Y53885700D01*
X20078159Y53885700D01*
X20300641Y53885700D01*
X20300643Y53885700D01*
X20519340Y53926582D01*
X20726801Y54006953D01*
X20915962Y54124076D01*
X21072980Y54267217D01*
X21080379Y54273962D01*
X21099125Y54298785D01*
X21214458Y54451511D01*
X21313629Y54650672D01*
X21374515Y54864664D01*
X21395043Y55086200D01*
X21390254Y55137877D01*
X21374515Y55307736D01*
X21374514Y55307738D01*
X21371095Y55319754D01*
X21313629Y55521728D01*
X21307619Y55533798D01*
X21214461Y55720884D01*
X21214456Y55720892D01*
X21080379Y55898439D01*
X20915962Y56048324D01*
X20915960Y56048326D01*
X20726804Y56165446D01*
X20726798Y56165448D01*
X20519340Y56245818D01*
X20300643Y56286700D01*
X20078157Y56286700D01*
X19859460Y56245818D01*
X19810111Y56226700D01*
X19652001Y56165448D01*
X19651995Y56165446D01*
X19462839Y56048326D01*
X19462837Y56048324D01*
X19298420Y55898439D01*
X19164343Y55720892D01*
X19164338Y55720884D01*
X19065175Y55521739D01*
X19065169Y55521724D01*
X19004285Y55307738D01*
X19004284Y55307736D01*
X18983757Y55086201D01*
X18983757Y55086200D01*
X18389483Y55086200D01*
X18379605Y55192800D01*
X18374515Y55247736D01*
X18374514Y55247738D01*
X18357443Y55307736D01*
X18313629Y55461728D01*
X18313624Y55461739D01*
X18214461Y55660884D01*
X18214456Y55660892D01*
X18080379Y55838439D01*
X17915962Y55988324D01*
X17915960Y55988326D01*
X17726804Y56105446D01*
X17726798Y56105448D01*
X17519340Y56185818D01*
X17300643Y56226700D01*
X17078157Y56226700D01*
X16859460Y56185818D01*
X16728264Y56134993D01*
X16652001Y56105448D01*
X16651995Y56105446D01*
X16462839Y55988326D01*
X16462837Y55988324D01*
X16298420Y55838439D01*
X16164343Y55660892D01*
X16164338Y55660884D01*
X16065175Y55461739D01*
X16065169Y55461724D01*
X16004285Y55247738D01*
X16004284Y55247736D01*
X15983757Y55026201D01*
X15983757Y55026200D01*
X16004284Y54804667D01*
X16017126Y54759533D01*
X16016538Y54689666D01*
X15985540Y54637919D01*
X15882613Y54534991D01*
X15876510Y54529640D01*
X15849494Y54508908D01*
X15849493Y54508907D01*
X15848884Y54508113D01*
X15813821Y54462420D01*
X15757053Y54388439D01*
X15698944Y54248150D01*
X15698943Y54248148D01*
X15682609Y54124075D01*
X15679124Y54097600D01*
X15683537Y54064077D01*
X15683569Y54063839D01*
X15684100Y54055738D01*
X15684100Y37091065D01*
X15683569Y37082964D01*
X15679124Y37049202D01*
X15679124Y37049199D01*
X14665364Y37049199D01*
X14624035Y37137829D01*
X14590675Y37185473D01*
X14488494Y37331403D01*
X14321402Y37498494D01*
X14321396Y37498499D01*
X14135842Y37628425D01*
X14092217Y37683002D01*
X14085023Y37752500D01*
X14116546Y37814855D01*
X14135842Y37831575D01*
X14189909Y37869433D01*
X14321401Y37961505D01*
X14488495Y38128599D01*
X14624035Y38322170D01*
X14723903Y38536337D01*
X14785063Y38764592D01*
X14805659Y39000000D01*
X14785063Y39235408D01*
X14723903Y39463663D01*
X14624035Y39677829D01*
X14488495Y39871401D01*
X14488494Y39871403D01*
X14321402Y40038494D01*
X14321401Y40038495D01*
X14135842Y40168425D01*
X14135841Y40168426D01*
X14092216Y40223003D01*
X14085024Y40292502D01*
X14116546Y40354856D01*
X14135836Y40371572D01*
X14321401Y40501505D01*
X14488495Y40668599D01*
X14624035Y40862170D01*
X14723903Y41076337D01*
X14785063Y41304592D01*
X14805659Y41540000D01*
X14785063Y41775408D01*
X14723903Y42003663D01*
X14624035Y42217829D01*
X14488495Y42411401D01*
X14488494Y42411403D01*
X14321402Y42578494D01*
X14321396Y42578499D01*
X14135842Y42708425D01*
X14092217Y42763002D01*
X14085023Y42832500D01*
X14116546Y42894855D01*
X14135842Y42911575D01*
X14189909Y42949433D01*
X14321401Y43041505D01*
X14488495Y43208599D01*
X14624035Y43402170D01*
X14723903Y43616337D01*
X14785063Y43844592D01*
X14805659Y44080000D01*
X14785063Y44315408D01*
X14723903Y44543663D01*
X14624035Y44757829D01*
X14588866Y44808057D01*
X14488494Y44951403D01*
X14321402Y45118494D01*
X14321396Y45118499D01*
X14135842Y45248425D01*
X14092217Y45303002D01*
X14085023Y45372500D01*
X14116546Y45434855D01*
X14135842Y45451575D01*
X14281554Y45553604D01*
X14321401Y45581505D01*
X14488495Y45748599D01*
X14624035Y45942170D01*
X14723903Y46156337D01*
X14785063Y46384592D01*
X14805659Y46620000D01*
X14785063Y46855408D01*
X14723903Y47083663D01*
X14624035Y47297829D01*
X14570115Y47374836D01*
X14488494Y47491403D01*
X14321402Y47658494D01*
X14321396Y47658499D01*
X14135842Y47788425D01*
X14092217Y47843002D01*
X14085023Y47912500D01*
X14116546Y47974855D01*
X14135842Y47991575D01*
X14206262Y48040884D01*
X14321401Y48121505D01*
X14488495Y48288599D01*
X14624035Y48482170D01*
X14723903Y48696337D01*
X14785063Y48924592D01*
X14805659Y49160000D01*
X14785063Y49395408D01*
X14723903Y49623663D01*
X14624035Y49837829D01*
X14585028Y49893538D01*
X14488494Y50031403D01*
X14321402Y50198494D01*
X14321396Y50198499D01*
X14135842Y50328425D01*
X14092217Y50383002D01*
X14085023Y50452500D01*
X14116546Y50514855D01*
X14135842Y50531575D01*
X14189909Y50569433D01*
X14321401Y50661505D01*
X14488495Y50828599D01*
X14624035Y51022170D01*
X14723903Y51236337D01*
X14785063Y51464592D01*
X14805659Y51700000D01*
X14785063Y51935408D01*
X14723903Y52163663D01*
X14624035Y52377829D01*
X14488495Y52571401D01*
X14366567Y52693329D01*
X14333084Y52754649D01*
X14338068Y52824341D01*
X14379939Y52880275D01*
X14410915Y52897190D01*
X14542331Y52946204D01*
X14657546Y53032454D01*
X14743796Y53147669D01*
X14794091Y53282517D01*
X14800500Y53342127D01*
X14800499Y55137872D01*
X14794091Y55197483D01*
X14752969Y55307736D01*
X14743797Y55332329D01*
X14743793Y55332336D01*
X14657547Y55447545D01*
X14657544Y55447548D01*
X14542335Y55533794D01*
X14542328Y55533798D01*
X14407482Y55584092D01*
X14407483Y55584092D01*
X14347883Y55590499D01*
X14347881Y55590500D01*
X14347873Y55590500D01*
X14347864Y55590500D01*
X12552129Y55590500D01*
X12552123Y55590499D01*
X12492516Y55584092D01*
X12357671Y55533798D01*
X12357664Y55533794D01*
X12242455Y55447548D01*
X12242452Y55447545D01*
X12156206Y55332336D01*
X12156202Y55332329D01*
X12105908Y55197483D01*
X12099501Y55137884D01*
X12099501Y55137877D01*
X12099500Y55137865D01*
X12099500Y53342130D01*
X12099501Y53342124D01*
X12105908Y53282517D01*
X12156202Y53147672D01*
X12156206Y53147665D01*
X12242452Y53032456D01*
X12242455Y53032453D01*
X12357664Y52946207D01*
X12357671Y52946203D01*
X12489081Y52897190D01*
X12545015Y52855319D01*
X12569432Y52789855D01*
X12554580Y52721582D01*
X12533430Y52693327D01*
X12411503Y52571400D01*
X12275965Y52377831D01*
X12275964Y52377829D01*
X12176098Y52163665D01*
X12176094Y52163656D01*
X12114938Y51935414D01*
X12114936Y51935404D01*
X12094341Y51700001D01*
X12094341Y51700000D01*
X12114936Y51464597D01*
X12114938Y51464587D01*
X12176094Y51236345D01*
X12176096Y51236341D01*
X12176097Y51236337D01*
X12264262Y51047268D01*
X12275965Y51022170D01*
X12275967Y51022166D01*
X12411501Y50828605D01*
X12411506Y50828598D01*
X12578597Y50661507D01*
X12578603Y50661502D01*
X12764158Y50531575D01*
X12807783Y50476998D01*
X12814977Y50407500D01*
X12783454Y50345145D01*
X12764158Y50328425D01*
X12578597Y50198495D01*
X12411505Y50031403D01*
X12275965Y49837831D01*
X12275964Y49837829D01*
X12176098Y49623665D01*
X12176094Y49623656D01*
X12114938Y49395414D01*
X12114936Y49395404D01*
X12094341Y49160001D01*
X12094341Y49160000D01*
X12114936Y48924597D01*
X12114938Y48924587D01*
X12176094Y48696345D01*
X12176096Y48696341D01*
X12176097Y48696337D01*
X12236959Y48565818D01*
X12275965Y48482170D01*
X12275967Y48482166D01*
X12355681Y48368324D01*
X12404903Y48298027D01*
X12411501Y48288605D01*
X12411506Y48288598D01*
X12578597Y48121507D01*
X12578603Y48121502D01*
X12764158Y47991575D01*
X12807783Y47936998D01*
X12814977Y47867500D01*
X12783454Y47805145D01*
X12764158Y47788425D01*
X12578597Y47658495D01*
X12411505Y47491403D01*
X12275965Y47297831D01*
X12275964Y47297829D01*
X12176098Y47083665D01*
X12176094Y47083656D01*
X12114938Y46855414D01*
X12114936Y46855404D01*
X12094341Y46620001D01*
X12094341Y46620000D01*
X12114936Y46384597D01*
X12114938Y46384587D01*
X12176094Y46156345D01*
X12176096Y46156341D01*
X12176097Y46156337D01*
X12235570Y46028797D01*
X12275965Y45942170D01*
X12275967Y45942166D01*
X12411501Y45748605D01*
X12411506Y45748598D01*
X12578597Y45581507D01*
X12578603Y45581502D01*
X12764158Y45451575D01*
X12807783Y45396998D01*
X12814977Y45327500D01*
X12783454Y45265145D01*
X12764158Y45248425D01*
X12578597Y45118495D01*
X12411505Y44951403D01*
X12275965Y44757831D01*
X12275964Y44757829D01*
X12176098Y44543665D01*
X12176094Y44543656D01*
X12114938Y44315414D01*
X12114936Y44315404D01*
X12094341Y44080001D01*
X12094341Y44080000D01*
X12114936Y43844597D01*
X12114938Y43844587D01*
X12176094Y43616345D01*
X12176096Y43616341D01*
X12176097Y43616337D01*
X12210425Y43542721D01*
X12275965Y43402170D01*
X12275967Y43402166D01*
X12411501Y43208605D01*
X12411506Y43208598D01*
X12578597Y43041507D01*
X12578603Y43041502D01*
X12764158Y42911575D01*
X12807783Y42856998D01*
X12814977Y42787500D01*
X12783454Y42725145D01*
X12764158Y42708425D01*
X12578597Y42578495D01*
X12411505Y42411403D01*
X12275965Y42217831D01*
X12275964Y42217829D01*
X12176098Y42003665D01*
X12176094Y42003656D01*
X12114938Y41775414D01*
X12114936Y41775404D01*
X12094341Y41540001D01*
X12094341Y41540000D01*
X12114936Y41304597D01*
X12114938Y41304587D01*
X12176094Y41076345D01*
X12176096Y41076341D01*
X12176097Y41076337D01*
X12264262Y40887268D01*
X12275965Y40862170D01*
X12275967Y40862166D01*
X12411501Y40668605D01*
X12411506Y40668598D01*
X12578597Y40501507D01*
X12578603Y40501502D01*
X12764158Y40371575D01*
X12807783Y40316998D01*
X12814977Y40247500D01*
X12783454Y40185145D01*
X12764158Y40168425D01*
X12578597Y40038495D01*
X12411505Y39871403D01*
X12275965Y39677831D01*
X12275964Y39677829D01*
X12176098Y39463665D01*
X12176094Y39463656D01*
X12114938Y39235414D01*
X12114936Y39235404D01*
X12094341Y39000001D01*
X12094341Y39000000D01*
X12114936Y38764597D01*
X12114938Y38764587D01*
X12176094Y38536345D01*
X12176096Y38536341D01*
X12176097Y38536337D01*
X12264262Y38347268D01*
X12275965Y38322170D01*
X12275967Y38322166D01*
X12411501Y38128605D01*
X12411506Y38128598D01*
X12578597Y37961507D01*
X12578603Y37961502D01*
X12764158Y37831575D01*
X12807783Y37776998D01*
X12814977Y37707500D01*
X12783454Y37645145D01*
X12764158Y37628425D01*
X12578597Y37498495D01*
X12411505Y37331403D01*
X12275965Y37137831D01*
X12275964Y37137829D01*
X12176098Y36923665D01*
X12176094Y36923656D01*
X12114938Y36695414D01*
X12114936Y36695404D01*
X12094341Y36460001D01*
X12094341Y36460000D01*
X12114936Y36224597D01*
X12114938Y36224587D01*
X12176094Y35996345D01*
X12176096Y35996341D01*
X12176097Y35996337D01*
X12264262Y35807268D01*
X12275965Y35782170D01*
X12275967Y35782166D01*
X12411501Y35588605D01*
X12411506Y35588598D01*
X12578597Y35421507D01*
X12578603Y35421502D01*
X12764158Y35291575D01*
X12807783Y35236998D01*
X12814977Y35167500D01*
X12783454Y35105145D01*
X12764158Y35088425D01*
X12578597Y34958495D01*
X12411505Y34791403D01*
X12275965Y34597831D01*
X12275965Y34597830D01*
X12176098Y34383665D01*
X12176094Y34383656D01*
X12114938Y34155414D01*
X12114936Y34155404D01*
X12094341Y33920001D01*
X12094341Y33920000D01*
X12114936Y33684597D01*
X12114938Y33684587D01*
X12176094Y33456345D01*
X12176096Y33456341D01*
X12176097Y33456337D01*
X12265656Y33264277D01*
X12275965Y33242170D01*
X12275967Y33242166D01*
X12411501Y33048605D01*
X12411506Y33048598D01*
X12578597Y32881507D01*
X12578603Y32881502D01*
X12764158Y32751575D01*
X12807783Y32696998D01*
X12814977Y32627500D01*
X12783454Y32565145D01*
X12764158Y32548425D01*
X12578597Y32418495D01*
X12411505Y32251403D01*
X12275965Y32057831D01*
X12275964Y32057829D01*
X12176098Y31843665D01*
X12176094Y31843656D01*
X12114938Y31615414D01*
X12114936Y31615404D01*
X12094341Y31380001D01*
X12094341Y31380000D01*
X12114936Y31144597D01*
X12114938Y31144587D01*
X12176094Y30916345D01*
X12176096Y30916341D01*
X12176097Y30916337D01*
X12275847Y30702422D01*
X12275965Y30702170D01*
X12275967Y30702166D01*
X12411501Y30508605D01*
X12411506Y30508598D01*
X12578597Y30341507D01*
X12578603Y30341502D01*
X12764158Y30211575D01*
X12807783Y30156998D01*
X12814977Y30087500D01*
X12783454Y30025145D01*
X12764158Y30008425D01*
X12578597Y29878495D01*
X12411505Y29711403D01*
X12275965Y29517831D01*
X12275964Y29517829D01*
X12176098Y29303665D01*
X12176094Y29303656D01*
X12114938Y29075414D01*
X12114936Y29075404D01*
X12094341Y28840001D01*
X12094341Y28840000D01*
X12114936Y28604597D01*
X12114938Y28604587D01*
X12176094Y28376345D01*
X12176096Y28376341D01*
X12176097Y28376337D01*
X12275964Y28162171D01*
X12275965Y28162170D01*
X12275967Y28162166D01*
X12411501Y27968605D01*
X12411506Y27968598D01*
X12578597Y27801507D01*
X12578603Y27801502D01*
X12764594Y27671270D01*
X12808219Y27616693D01*
X12815413Y27547195D01*
X12783890Y27484840D01*
X12764595Y27468120D01*
X12578922Y27338110D01*
X12578920Y27338109D01*
X12411891Y27171080D01*
X12411886Y27171074D01*
X12276400Y26977580D01*
X12276399Y26977578D01*
X12176570Y26763493D01*
X12176567Y26763487D01*
X12119364Y26550001D01*
X12119364Y26550000D01*
X13016314Y26550000D01*
X12990507Y26509844D01*
X12950000Y26371889D01*
X12950000Y26228111D01*
X12990507Y26090156D01*
X13016314Y26050000D01*
X12119364Y26050000D01*
X12176567Y25836514D01*
X12176570Y25836508D01*
X12276399Y25622422D01*
X12411894Y25428918D01*
X12578917Y25261895D01*
X12764595Y25131881D01*
X12808219Y25077304D01*
X12815412Y25007805D01*
X12783890Y24945451D01*
X12764595Y24928731D01*
X12578594Y24798492D01*
X12411505Y24631403D01*
X12275965Y24437831D01*
X12275964Y24437829D01*
X12176098Y24223665D01*
X12176094Y24223656D01*
X12114938Y23995414D01*
X12114936Y23995404D01*
X12094341Y23760001D01*
X12094341Y23760000D01*
X12114936Y23524597D01*
X12114938Y23524587D01*
X12176094Y23296345D01*
X12176096Y23296341D01*
X12176097Y23296337D01*
X12271302Y23092170D01*
X12275965Y23082170D01*
X12275967Y23082166D01*
X12411501Y22888605D01*
X12411506Y22888598D01*
X12578597Y22721507D01*
X12578603Y22721502D01*
X12764158Y22591575D01*
X12807783Y22536998D01*
X12814977Y22467500D01*
X12783454Y22405145D01*
X12764158Y22388425D01*
X12578597Y22258495D01*
X12411505Y22091403D01*
X12275965Y21897831D01*
X12275964Y21897829D01*
X12176098Y21683665D01*
X12176094Y21683656D01*
X12114938Y21455414D01*
X12114936Y21455404D01*
X12094341Y21220001D01*
X12094341Y21220000D01*
X12114936Y20984597D01*
X12114938Y20984587D01*
X12176094Y20756345D01*
X12176096Y20756341D01*
X12176097Y20756337D01*
X12249829Y20598218D01*
X12275965Y20542170D01*
X12275967Y20542166D01*
X12411501Y20348605D01*
X12411506Y20348598D01*
X12578597Y20181507D01*
X12578603Y20181502D01*
X12764158Y20051575D01*
X12807783Y19996998D01*
X12814977Y19927500D01*
X12783454Y19865145D01*
X12764158Y19848425D01*
X12578597Y19718495D01*
X12411505Y19551403D01*
X12275965Y19357831D01*
X12275964Y19357829D01*
X12176098Y19143665D01*
X12176094Y19143656D01*
X12114938Y18915414D01*
X12114936Y18915404D01*
X12094341Y18680001D01*
X12094341Y18680000D01*
X12114936Y18444597D01*
X12114938Y18444587D01*
X12176094Y18216345D01*
X12176096Y18216341D01*
X12176097Y18216337D01*
X12271302Y18012170D01*
X12275965Y18002170D01*
X12275967Y18002166D01*
X12411501Y17808605D01*
X12411506Y17808598D01*
X12578597Y17641507D01*
X12578603Y17641502D01*
X12764158Y17511575D01*
X12807783Y17456998D01*
X12814977Y17387500D01*
X12783454Y17325145D01*
X12764158Y17308425D01*
X12578597Y17178495D01*
X12411505Y17011403D01*
X12275965Y16817831D01*
X12275964Y16817829D01*
X12176098Y16603665D01*
X12176094Y16603656D01*
X12114938Y16375414D01*
X12114936Y16375404D01*
X12094341Y16140001D01*
X12094341Y16140000D01*
X12114936Y15904597D01*
X12114938Y15904587D01*
X12176094Y15676345D01*
X12176096Y15676341D01*
X12176097Y15676337D01*
X12271302Y15472170D01*
X12275965Y15462170D01*
X12275967Y15462166D01*
X12411501Y15268605D01*
X12411506Y15268598D01*
X12578597Y15101507D01*
X12578603Y15101502D01*
X12764158Y14971575D01*
X12807783Y14916998D01*
X12814977Y14847500D01*
X12783454Y14785145D01*
X12764158Y14768425D01*
X12578597Y14638495D01*
X12411505Y14471403D01*
X12275965Y14277831D01*
X12275964Y14277829D01*
X12176098Y14063665D01*
X12176094Y14063656D01*
X12114938Y13835414D01*
X12114936Y13835404D01*
X12094341Y13600001D01*
X12094341Y13600000D01*
X12114936Y13364597D01*
X12114938Y13364587D01*
X12176094Y13136345D01*
X12176096Y13136341D01*
X12176097Y13136337D01*
X12249829Y12978218D01*
X12275965Y12922170D01*
X12275967Y12922166D01*
X12411501Y12728605D01*
X12411506Y12728598D01*
X12578597Y12561507D01*
X12578603Y12561502D01*
X12764158Y12431575D01*
X12807783Y12376998D01*
X12814977Y12307500D01*
X12783454Y12245145D01*
X12764158Y12228425D01*
X12578597Y12098495D01*
X12411505Y11931403D01*
X12275965Y11737831D01*
X12275964Y11737829D01*
X12176098Y11523665D01*
X12176094Y11523656D01*
X12114938Y11295414D01*
X12114936Y11295404D01*
X12094341Y11060001D01*
X12094341Y11060000D01*
X12114936Y10824597D01*
X12114938Y10824587D01*
X12176094Y10596345D01*
X12176096Y10596341D01*
X12176097Y10596337D01*
X12271184Y10392422D01*
X12275965Y10382170D01*
X12275967Y10382166D01*
X12411501Y10188605D01*
X12411506Y10188598D01*
X12578597Y10021507D01*
X12578603Y10021502D01*
X12764158Y9891575D01*
X12807783Y9836998D01*
X12814977Y9767500D01*
X12783454Y9705145D01*
X12764158Y9688425D01*
X12578597Y9558495D01*
X12411505Y9391403D01*
X12275965Y9197831D01*
X12275964Y9197829D01*
X12176098Y8983665D01*
X12176094Y8983656D01*
X12114938Y8755414D01*
X12114936Y8755404D01*
X12094341Y8520001D01*
X12094341Y8520000D01*
X12114936Y8284597D01*
X12114938Y8284587D01*
X12176094Y8056345D01*
X12176096Y8056341D01*
X12176097Y8056337D01*
X12208095Y7987718D01*
X12275965Y7842170D01*
X12275967Y7842166D01*
X12338670Y7752618D01*
X12397123Y7669138D01*
X12411501Y7648605D01*
X12411506Y7648598D01*
X12578597Y7481507D01*
X12578603Y7481502D01*
X12764158Y7351575D01*
X12807783Y7296998D01*
X12814977Y7227500D01*
X12783454Y7165145D01*
X12764158Y7148425D01*
X12578597Y7018495D01*
X12411505Y6851403D01*
X12275965Y6657831D01*
X12275964Y6657829D01*
X12176098Y6443665D01*
X12176094Y6443656D01*
X12114938Y6215414D01*
X12114936Y6215404D01*
X12094341Y5980001D01*
X12094341Y5980000D01*
X300500Y5980000D01*
X300500Y23769998D01*
X1604723Y23769998D01*
X1623793Y23552025D01*
X1623793Y23552021D01*
X1680422Y23340678D01*
X1680424Y23340674D01*
X1680425Y23340670D01*
X1702382Y23293584D01*
X1772897Y23142362D01*
X1772898Y23142361D01*
X1898402Y22963123D01*
X2053123Y22808402D01*
X2232361Y22682898D01*
X2430670Y22590425D01*
X2642023Y22533793D01*
X2824926Y22517792D01*
X2859998Y22514723D01*
X2860000Y22514723D01*
X2860002Y22514723D01*
X2888254Y22517195D01*
X3077977Y22533793D01*
X3289330Y22590425D01*
X3487639Y22682898D01*
X3666877Y22808402D01*
X3821598Y22963123D01*
X3947102Y23142361D01*
X4017618Y23293586D01*
X4063790Y23346023D01*
X4130984Y23365175D01*
X4197865Y23344959D01*
X4242381Y23293586D01*
X4312898Y23142361D01*
X4438402Y22963123D01*
X4593123Y22808402D01*
X4772361Y22682898D01*
X4970670Y22590425D01*
X5182023Y22533793D01*
X5364926Y22517792D01*
X5399998Y22514723D01*
X5400000Y22514723D01*
X5400002Y22514723D01*
X5428254Y22517195D01*
X5617977Y22533793D01*
X5829330Y22590425D01*
X6027639Y22682898D01*
X6206877Y22808402D01*
X6361598Y22963123D01*
X6487102Y23142361D01*
X6579575Y23340670D01*
X6636207Y23552023D01*
X6655277Y23770000D01*
X6636207Y23987977D01*
X6586141Y24174826D01*
X6579577Y24199323D01*
X6579576Y24199324D01*
X6579575Y24199330D01*
X6487102Y24397638D01*
X6487099Y24397642D01*
X6487099Y24397643D01*
X6361599Y24576876D01*
X6297072Y24641403D01*
X6206877Y24731598D01*
X6027639Y24857102D01*
X6027640Y24857102D01*
X6027638Y24857103D01*
X5874684Y24928426D01*
X5829330Y24949575D01*
X5829326Y24949576D01*
X5829322Y24949578D01*
X5617977Y25006207D01*
X5400002Y25025277D01*
X5399998Y25025277D01*
X5254681Y25012564D01*
X5182023Y25006207D01*
X5182020Y25006207D01*
X4970677Y24949578D01*
X4970670Y24949576D01*
X4970670Y24949575D01*
X4958785Y24944033D01*
X4772361Y24857102D01*
X4772357Y24857100D01*
X4593121Y24731598D01*
X4438402Y24576879D01*
X4312900Y24397643D01*
X4312900Y24397642D01*
X4242381Y24246416D01*
X4196208Y24193977D01*
X4129014Y24174826D01*
X4062133Y24195042D01*
X4017618Y24246416D01*
X3947102Y24397638D01*
X3947099Y24397642D01*
X3947099Y24397643D01*
X3821599Y24576876D01*
X3757072Y24641403D01*
X3666877Y24731598D01*
X3487639Y24857102D01*
X3487640Y24857102D01*
X3487638Y24857103D01*
X3334684Y24928426D01*
X3289330Y24949575D01*
X3289326Y24949576D01*
X3289322Y24949578D01*
X3077977Y25006207D01*
X2860002Y25025277D01*
X2859998Y25025277D01*
X2714682Y25012564D01*
X2642023Y25006207D01*
X2642020Y25006207D01*
X2430677Y24949578D01*
X2430670Y24949576D01*
X2430670Y24949575D01*
X2418785Y24944033D01*
X2232361Y24857102D01*
X2232357Y24857100D01*
X2053121Y24731598D01*
X1898402Y24576879D01*
X1772900Y24397643D01*
X1772898Y24397639D01*
X1680426Y24199332D01*
X1680422Y24199323D01*
X1623793Y23987980D01*
X1623793Y23987976D01*
X1604723Y23770003D01*
X1604723Y23769998D01*
X300500Y23769998D01*
X300500Y25942410D01*
X300501Y25942435D01*
X300500Y25952411D01*
X300502Y25952414D01*
X300500Y25996967D01*
X300797Y26003027D01*
X312740Y26124333D01*
X317481Y26148166D01*
X350198Y26256028D01*
X359494Y26278474D01*
X412627Y26377888D01*
X426128Y26398093D01*
X449030Y26426000D01*
X497627Y26485220D01*
X514813Y26502406D01*
X523876Y26509844D01*
X601936Y26573910D01*
X622140Y26587411D01*
X721551Y26640551D01*
X743981Y26649844D01*
X851857Y26682572D01*
X875688Y26687312D01*
X996371Y26699201D01*
X1002453Y26699500D01*
X9942407Y26699500D01*
X9942469Y26699496D01*
X9948605Y26699496D01*
X9948737Y26699458D01*
X10000021Y26699461D01*
X10000021Y26699460D01*
X10102372Y26699466D01*
X10304551Y26731501D01*
X10499230Y26794767D01*
X10681616Y26887706D01*
X10778663Y26958219D01*
X10803570Y26976316D01*
X10869375Y26999798D01*
X10876458Y27000000D01*
X10999999Y27000000D01*
X11000000Y27000000D01*
X11000000Y27123558D01*
X11019683Y27190594D01*
X11023649Y27196395D01*
X11112281Y27318388D01*
X11205213Y27500778D01*
X11268471Y27695460D01*
X11300498Y27897640D01*
X11300498Y27919158D01*
X11300500Y27919167D01*
X11300500Y28000006D01*
X11300500Y28000012D01*
X11300502Y28047586D01*
X11300500Y28047590D01*
X11300501Y28052100D01*
X11300500Y28052127D01*
X11300500Y59942368D01*
X11300504Y59942429D01*
X11300503Y59952384D01*
X11300504Y59952386D01*
X11300500Y59996937D01*
X11300798Y60003013D01*
X11312736Y60124309D01*
X11317474Y60148139D01*
X11350190Y60256013D01*
X11359485Y60278455D01*
X11412619Y60377874D01*
X11426108Y60398066D01*
X11497624Y60485218D01*
X11514796Y60502391D01*
X11601929Y60573906D01*
X11622136Y60587407D01*
X11721537Y60640544D01*
X11743988Y60649846D01*
X11851851Y60682570D01*
X11875678Y60687311D01*
X11939069Y60693557D01*
X11996372Y60699201D01*
X12002454Y60699500D01*
X35192413Y60699500D01*
X35192437Y60699499D01*
G37*
%TD.AperFunction*%
M02*
